<svg width="390" height="325" viewBox="0 0 390 325" fill="none" xmlns="http://www.w3.org/2000/svg">
	<path d="M356.711 27.2333C356.711 168.747 252.458 283.467 123.856 283.467C-4.74702 283.467 -109 168.747 -109 27.2333C-109 -114.28 -4.74702 -229 123.856 -229C252.458 -229 356.711 -114.28 356.711 27.2333Z" fill="#720FF1" />
	<ellipse cx="257.239" cy="99.4675" rx="204.762" ry="225.532" fill="#720FF1" />
	<path d="M138.988 302.455H144.7V304.665H138.988V302.455ZM139.192 309H136.438V297.1H145.431V299.31H139.192V309ZM146.826 309V299.854H149.478V309H146.826ZM148.152 298.579C147.664 298.579 147.268 298.437 146.962 298.154C146.656 297.871 146.503 297.519 146.503 297.1C146.503 296.681 146.656 296.329 146.962 296.046C147.268 295.763 147.664 295.621 148.152 295.621C148.639 295.621 149.036 295.757 149.342 296.029C149.648 296.29 149.801 296.63 149.801 297.049C149.801 297.491 149.648 297.859 149.342 298.154C149.047 298.437 148.65 298.579 148.152 298.579ZM157.215 299.718C157.941 299.718 158.587 299.865 159.153 300.16C159.731 300.443 160.185 300.885 160.513 301.486C160.842 302.075 161.006 302.835 161.006 303.764V309H158.354V304.172C158.354 303.435 158.19 302.891 157.861 302.54C157.544 302.189 157.091 302.013 156.501 302.013C156.082 302.013 155.702 302.104 155.362 302.285C155.034 302.455 154.773 302.721 154.58 303.084C154.399 303.447 154.308 303.911 154.308 304.478V309H151.656V299.854H154.189V302.387L153.713 301.622C154.042 301.01 154.512 300.54 155.124 300.211C155.736 299.882 156.433 299.718 157.215 299.718ZM167.121 309.136C166.26 309.136 165.483 308.943 164.792 308.558C164.101 308.161 163.551 307.612 163.143 306.909C162.746 306.206 162.548 305.379 162.548 304.427C162.548 303.464 162.746 302.631 163.143 301.928C163.551 301.225 164.101 300.681 164.792 300.296C165.483 299.911 166.26 299.718 167.121 299.718C167.892 299.718 168.566 299.888 169.144 300.228C169.722 300.568 170.17 301.084 170.487 301.775C170.804 302.466 170.963 303.35 170.963 304.427C170.963 305.492 170.81 306.376 170.504 307.079C170.198 307.77 169.756 308.286 169.178 308.626C168.611 308.966 167.926 309.136 167.121 309.136ZM167.58 306.96C168.011 306.96 168.402 306.858 168.753 306.654C169.104 306.45 169.382 306.161 169.586 305.787C169.801 305.402 169.909 304.948 169.909 304.427C169.909 303.894 169.801 303.441 169.586 303.067C169.382 302.693 169.104 302.404 168.753 302.2C168.402 301.996 168.011 301.894 167.58 301.894C167.138 301.894 166.741 301.996 166.39 302.2C166.039 302.404 165.755 302.693 165.54 303.067C165.336 303.441 165.234 303.894 165.234 304.427C165.234 304.948 165.336 305.402 165.54 305.787C165.755 306.161 166.039 306.45 166.39 306.654C166.741 306.858 167.138 306.96 167.58 306.96ZM169.977 309V307.13L170.028 304.41L169.858 301.707V296.386H172.51V309H169.977ZM183.566 309.136C182.591 309.136 181.724 308.932 180.965 308.524C180.217 308.116 179.622 307.561 179.18 306.858C178.749 306.144 178.534 305.334 178.534 304.427C178.534 303.509 178.749 302.699 179.18 301.996C179.622 301.282 180.217 300.727 180.965 300.33C181.724 299.922 182.591 299.718 183.566 299.718C184.529 299.718 185.39 299.922 186.15 300.33C186.909 300.727 187.504 301.276 187.935 301.979C188.365 302.682 188.581 303.498 188.581 304.427C188.581 305.334 188.365 306.144 187.935 306.858C187.504 307.561 186.909 308.116 186.15 308.524C185.39 308.932 184.529 309.136 183.566 309.136ZM183.566 306.96C184.008 306.96 184.404 306.858 184.756 306.654C185.107 306.45 185.385 306.161 185.589 305.787C185.793 305.402 185.895 304.948 185.895 304.427C185.895 303.894 185.793 303.441 185.589 303.067C185.385 302.693 185.107 302.404 184.756 302.2C184.404 301.996 184.008 301.894 183.566 301.894C183.124 301.894 182.727 301.996 182.376 302.2C182.024 302.404 181.741 302.693 181.526 303.067C181.322 303.441 181.22 303.894 181.22 304.427C181.22 304.948 181.322 305.402 181.526 305.787C181.741 306.161 182.024 306.45 182.376 306.654C182.727 306.858 183.124 306.96 183.566 306.96ZM193.93 309.136C193.17 309.136 192.49 308.989 191.89 308.694C191.3 308.399 190.841 307.952 190.513 307.351C190.184 306.739 190.02 305.963 190.02 305.022V299.854H192.672V304.631C192.672 305.39 192.83 305.951 193.148 306.314C193.476 306.665 193.935 306.841 194.525 306.841C194.933 306.841 195.295 306.756 195.613 306.586C195.93 306.405 196.179 306.133 196.361 305.77C196.542 305.396 196.633 304.931 196.633 304.376V299.854H199.285V309H196.769V306.484L197.228 307.215C196.922 307.85 196.468 308.331 195.868 308.66C195.278 308.977 194.632 309.136 193.93 309.136ZM205.199 309.136C204.122 309.136 203.284 308.864 202.683 308.32C202.082 307.765 201.782 306.943 201.782 305.855V297.831H204.434V305.821C204.434 306.206 204.536 306.507 204.74 306.722C204.944 306.926 205.222 307.028 205.573 307.028C205.992 307.028 206.349 306.915 206.644 306.688L207.358 308.558C207.086 308.751 206.757 308.898 206.372 309C205.998 309.091 205.607 309.136 205.199 309.136ZM200.371 302.098V300.058H206.712V302.098H200.371ZM224.809 299.718C225.534 299.718 226.175 299.865 226.73 300.16C227.297 300.443 227.739 300.885 228.056 301.486C228.385 302.075 228.549 302.835 228.549 303.764V309H225.897V304.172C225.897 303.435 225.744 302.891 225.438 302.54C225.132 302.189 224.701 302.013 224.146 302.013C223.761 302.013 223.415 302.104 223.109 302.285C222.803 302.455 222.565 302.716 222.395 303.067C222.225 303.418 222.14 303.866 222.14 304.41V309H219.488V304.172C219.488 303.435 219.335 302.891 219.029 302.54C218.734 302.189 218.309 302.013 217.754 302.013C217.369 302.013 217.023 302.104 216.717 302.285C216.411 302.455 216.173 302.716 216.003 303.067C215.833 303.418 215.748 303.866 215.748 304.41V309H213.096V299.854H215.629V302.353L215.153 301.622C215.47 300.999 215.918 300.528 216.496 300.211C217.085 299.882 217.754 299.718 218.502 299.718C219.341 299.718 220.072 299.933 220.695 300.364C221.33 300.783 221.749 301.429 221.953 302.302L221.018 302.047C221.324 301.333 221.811 300.766 222.48 300.347C223.16 299.928 223.936 299.718 224.809 299.718ZM235.062 309.136C234.087 309.136 233.22 308.932 232.461 308.524C231.713 308.116 231.118 307.561 230.676 306.858C230.245 306.144 230.03 305.334 230.03 304.427C230.03 303.509 230.245 302.699 230.676 301.996C231.118 301.282 231.713 300.727 232.461 300.33C233.22 299.922 234.087 299.718 235.062 299.718C236.025 299.718 236.886 299.922 237.646 300.33C238.405 300.727 239 301.276 239.431 301.979C239.861 302.682 240.077 303.498 240.077 304.427C240.077 305.334 239.861 306.144 239.431 306.858C239 307.561 238.405 308.116 237.646 308.524C236.886 308.932 236.025 309.136 235.062 309.136ZM235.062 306.96C235.504 306.96 235.9 306.858 236.252 306.654C236.603 306.45 236.881 306.161 237.085 305.787C237.289 305.402 237.391 304.948 237.391 304.427C237.391 303.894 237.289 303.441 237.085 303.067C236.881 302.693 236.603 302.404 236.252 302.2C235.9 301.996 235.504 301.894 235.062 301.894C234.62 301.894 234.223 301.996 233.872 302.2C233.52 302.404 233.237 302.693 233.022 303.067C232.818 303.441 232.716 303.894 232.716 304.427C232.716 304.948 232.818 305.402 233.022 305.787C233.237 306.161 233.52 306.45 233.872 306.654C234.223 306.858 234.62 306.96 235.062 306.96ZM241.567 309V299.854H244.1V302.438L243.743 301.69C244.015 301.044 244.451 300.557 245.052 300.228C245.652 299.888 246.383 299.718 247.245 299.718V302.166C247.131 302.155 247.029 302.149 246.939 302.149C246.848 302.138 246.752 302.132 246.65 302.132C245.924 302.132 245.335 302.342 244.882 302.761C244.44 303.169 244.219 303.809 244.219 304.682V309H241.567ZM253.012 309.136C251.969 309.136 251.051 308.932 250.258 308.524C249.476 308.116 248.869 307.561 248.439 306.858C248.008 306.144 247.793 305.334 247.793 304.427C247.793 303.509 248.002 302.699 248.422 301.996C248.852 301.282 249.436 300.727 250.173 300.33C250.909 299.922 251.742 299.718 252.672 299.718C253.567 299.718 254.372 299.911 255.086 300.296C255.811 300.67 256.383 301.214 256.803 301.928C257.222 302.631 257.432 303.475 257.432 304.461C257.432 304.563 257.426 304.682 257.415 304.818C257.403 304.943 257.392 305.062 257.381 305.175H249.952V303.628H255.987L254.967 304.087C254.967 303.611 254.87 303.197 254.678 302.846C254.485 302.495 254.219 302.223 253.879 302.03C253.539 301.826 253.142 301.724 252.689 301.724C252.235 301.724 251.833 301.826 251.482 302.03C251.142 302.223 250.875 302.5 250.683 302.863C250.49 303.214 250.394 303.634 250.394 304.121V304.529C250.394 305.028 250.501 305.47 250.717 305.855C250.943 306.229 251.255 306.518 251.652 306.722C252.06 306.915 252.536 307.011 253.08 307.011C253.567 307.011 253.992 306.937 254.355 306.79C254.729 306.643 255.069 306.422 255.375 306.127L256.786 307.657C256.366 308.133 255.839 308.501 255.205 308.762C254.57 309.011 253.839 309.136 253.012 309.136Z" fill="black" />
	<g clip-path="url(#clip0_0_1)">
		<path d="M200 266L194 260L188 266" stroke="black" stroke-width="2" stroke-linecap="round" stroke-linejoin="round" />
	</g>
	<defs>
		<clipPath id="clip0_0_1">
			<rect width="24" height="24" fill="white" transform="translate(206 258) rotate(90)" />
		</clipPath>
	</defs>
</svg>
