<svg width="165" height="202" viewBox="10 1 145 202" fill="none" xmlns="http://www.w3.org/2000/svg">
	<g filter="url(#filter0_d_0_1)">
		<rect x="4.47388" y="0.946777" width="155.539" height="69.3805" rx="31.3166" fill="#A3ABFF" />
	</g>
	<g clip-path="url(#clip0_0_1)">
		<path d="M4.47388 118.989C4.47388 118.989 13.8237 120.259 23.2987 149.803C32.7738 179.346 59.0702 201.159 93.3668 201.159C127.663 201.159 161 160.062 161 133.335V43.5664H4.47388V118.989Z" fill="url(#paint0_linear_0_1)" />
		<path d="M93.951 100.879L95.9823 114.758L77.0879 115.609V105.338L93.951 100.879Z" fill="#FDBCA0" />
		<path d="M77.0879 112.109C77.0879 112.109 88.9004 117.155 92.2396 101.334L77.0879 105.338V112.109Z" fill="#E0855C" />
		<path d="M74.1456 98.5005C75.5066 98.147 76.0075 96.1394 75.2643 94.0164C74.5211 91.8934 72.8153 90.459 71.4543 90.8125C70.0933 91.166 69.5924 93.1736 70.3356 95.2966C71.0788 97.4196 72.7846 98.854 74.1456 98.5005Z" fill="#E0855C" />
		<path d="M72.0374 88.6541C72.0374 88.6541 72.3991 110.539 83.4325 111.234C94.4658 111.929 95.3423 94.2871 95.4119 88.6541C95.4815 83.0211 88.5109 81.4031 82.2776 81.463C76.0444 81.5229 72.3295 84.2795 72.0374 88.6541Z" fill="#FDBCA0" />
		<path d="M94.9385 93.5443C94.9385 93.5443 92.128 90.1884 92.2253 86.1494C92.2253 86.1494 82.6807 90.0926 76.3501 86.9764C76.3501 86.9764 72.5657 89.0019 72.3987 93.2686L71.1048 90.9435C71.1048 90.9435 70.4091 86.1015 70.7987 84.9629C71.0352 84.2798 71.5917 83.7045 72.3292 83.3929C72.3292 83.3929 69.1152 77.2684 76.9623 74.8354C76.9623 74.8354 76.9902 76.3096 80.1207 76.1059C83.2512 75.9021 97.749 75.1471 96.5942 81.8108C96.5802 81.7988 99.8082 86.1494 94.9385 93.5443Z" fill="#141413" />
		<path d="M98.2117 94.1348C98.8944 91.9968 98.3367 90.0003 96.966 89.6755C95.5953 89.3508 93.9307 90.8207 93.2481 92.9588C92.5654 95.0968 93.1231 97.0933 94.4938 97.4181C95.8645 97.7428 97.529 96.2729 98.2117 94.1348Z" fill="#FDBCA0" />
		<path d="M94.9384 95.0183C94.9245 95.0183 94.8966 95.0183 94.8827 95.0063C94.8132 94.9823 94.7853 94.9104 94.8132 94.8505L96.0375 92.6692C96.0654 92.6093 96.1489 92.5853 96.2184 92.6093C96.288 92.6333 96.3158 92.7052 96.288 92.7651L95.0636 94.9464C95.0358 94.9943 94.994 95.0183 94.9384 95.0183Z" fill="#472938" />
		<path d="M83.0009 100.903C82.3191 100.903 80.9974 100.591 80.6913 100.112C80.4826 99.7765 80.9 97.8948 81.7069 94.7427C81.8461 94.1794 81.9713 93.736 82.013 93.5202C82.18 92.7292 81.6652 92.5135 81.6374 92.5135C81.5678 92.4895 81.54 92.4176 81.5678 92.3577C81.5956 92.2978 81.6791 92.2738 81.7487 92.2978C81.7765 92.3097 82.4861 92.5854 82.2774 93.5682C82.2357 93.7839 82.1243 94.2274 81.9713 94.8027C81.5956 96.2648 80.7191 99.6926 80.9278 100.004C81.1782 100.4 82.7365 100.759 83.1957 100.651C83.6548 100.544 84.5592 99.9683 84.5731 99.9683C84.6288 99.9323 84.7262 99.9443 84.7679 99.9922C84.8096 100.04 84.7957 100.124 84.7401 100.16C84.6983 100.184 83.78 100.759 83.2792 100.879C83.1957 100.891 83.1122 100.903 83.0009 100.903Z" fill="#472938" />
		<path d="M83.2795 104.427C82.0273 104.427 81.0534 104.163 81.0395 104.163C80.9699 104.139 80.9282 104.08 80.956 104.008C80.9838 103.948 81.0534 103.912 81.1369 103.936C81.1786 103.948 85.9092 105.206 87.6901 102.03C87.7179 101.97 87.8014 101.946 87.871 101.97C87.9405 101.994 87.9684 102.066 87.9405 102.126C86.8692 104.008 84.8517 104.427 83.2795 104.427Z" fill="#472938" />
		<path d="M88.4408 92.8613C88.886 92.8613 89.2478 93.1729 89.2478 93.5565V94.0718C89.2478 94.4554 88.886 94.767 88.4408 94.767C87.9955 94.767 87.6338 94.4554 87.6338 94.0718V93.5565C87.6338 93.1729 87.9816 92.8613 88.4408 92.8613Z" fill="#472938" />
		<path d="M77.5746 93.3406C78.0198 93.3046 78.4094 93.5803 78.4511 93.9638L78.5068 94.4791C78.5485 94.8627 78.2285 95.1983 77.7833 95.2342C77.338 95.2702 76.9485 94.9945 76.9067 94.611L76.8511 94.0956C76.8093 93.7121 77.1293 93.3765 77.5746 93.3406Z" fill="#472938" />
		<path d="M91.2094 90.644C90.2354 90.1646 89.0806 90.0926 88.0371 90.4402C86.2979 91.0395 85.7831 90.632 85.6718 90.4282C85.5605 90.2245 86.7292 89.2297 89.0667 89.3136C90.6668 89.3615 91.2094 90.644 91.2094 90.644Z" fill="#472938" />
		<path d="M74.1797 91.7462C75.0423 91.135 76.1832 90.9073 77.2685 91.099C79.105 91.4466 79.5224 90.9792 79.592 90.7634C79.6616 90.5477 78.3259 89.7327 76.0302 90.1282C74.4719 90.4159 74.1797 91.7462 74.1797 91.7462Z" fill="#472938" />
		<path d="M117.91 121.793L108.796 118.869C85.0182 125.281 74.7362 120.271 70.757 116.807C70.757 116.807 56.3287 118.557 54.4087 119.923C52.4886 121.29 57.9705 163.01 58.2488 172.143C58.4297 177.967 57.5809 186.429 56.9409 191.774C67.4595 197.731 79.7868 201.147 93.3663 201.147C101.617 201.147 109.826 198.762 117.52 194.771C116.226 185.47 113.527 166.042 113.416 163.25C113.276 159.57 117.91 121.793 117.91 121.793Z" fill="#FEE6C6" />
		<path d="M77.0872 115.609L70.7566 116.807C74.7358 120.271 85.0179 125.281 108.81 118.881L95.9816 114.758L77.0872 115.609Z" fill="#FFEDE5" />
		<path d="M114 155.783C114 155.783 107.836 130.266 103.871 120.079C103.314 118.641 102.8 117.514 102.354 116.807L97.0255 115.093C97.0255 115.093 97.7907 117.562 98.7925 121.05C100.657 127.486 103.356 137.374 103.69 141.545H75.1536V115.968L70.2839 116.807C70.2839 116.807 70.2839 116.843 70.27 116.903C69.8804 118.917 62.7428 154.417 57.4418 162.315C57.4418 162.315 58.1792 170.165 58.2349 172.143C58.4157 177.967 57.567 186.429 56.927 191.774C67.4456 197.731 79.7728 201.147 93.3523 201.147C101.603 201.147 109.812 198.762 117.506 194.771C116.212 185.47 113.513 166.042 113.402 163.25C113.388 162.375 113.624 159.558 114 155.783Z" fill="#FEE6C6" />
		<path d="M57.2468 160.241L61.9496 142.767L55.9529 147.621L57.2468 160.241Z" fill="#FEE6C6" />
		<path d="M89.4428 180.161C85.6722 180.161 82.4861 178.986 79.9677 176.685C75.8772 172.934 74.2632 166.773 73.6371 162.267C72.9554 157.389 73.2336 153.35 73.2475 153.314L73.2614 153.206H105.638L105.652 153.314C105.652 153.35 105.944 157.401 105.262 162.267C104.636 166.773 103.022 172.934 98.9317 176.685C96.3995 178.986 93.2133 180.161 89.4428 180.161ZM73.5119 153.434C73.4702 154.117 73.3032 157.844 73.9154 162.243C74.5415 166.713 76.1415 172.814 80.1764 176.517C82.6391 178.77 85.7557 179.921 89.4428 179.921C93.1298 179.921 96.2464 178.77 98.7091 176.517C102.744 172.814 104.344 166.713 104.97 162.243C105.582 157.844 105.415 154.117 105.374 153.434H73.5119V153.434Z" fill="white" />
		<path d="M54.3948 119.923C54.3948 119.923 48.8712 123.771 36.1404 146.087L53.56 158.983L63.5777 143.271C63.5777 143.271 59.2645 119.264 54.3948 119.923Z" fill="#FEE6C6" />
		<path d="M57.1085 190.312C57.1085 190.312 64.7748 193.368 65.9713 192.949C67.1679 192.529 65.6931 183.852 65.3174 183.756C64.9418 183.66 58.2772 179.262 56.9415 179.537C56.0093 179.729 55.1467 182.306 55.1467 182.306L40.8854 172.97L51.6127 157.545L36.141 146.087C36.141 146.087 31.3269 153.374 27.4729 160.193C33.9566 173.449 44.1134 184.499 56.9415 191.774L57.1085 190.312Z" fill="#FDBCA0" />
		<path d="M36.1404 146.087L51.6121 157.545L50.0955 159.726L36.1404 146.087Z" fill="#E0855C" />
		<path d="M117.908 121.793C120.385 122.536 137.29 141.173 137.29 141.173L118.785 153.302C118.785 153.302 111.926 145.176 111.272 141.173C110.618 137.17 112.9 120.295 117.908 121.793Z" fill="#FEE6C6" />
		<path d="M137.303 141.185C137.303 141.185 155.377 163.166 156.142 167.948C156.907 172.73 154.626 177.956 139.488 177.872C124.35 177.788 111.23 176.433 107.793 176.997C104.356 177.56 96.69 177.932 95.3822 177.608C94.0743 177.284 89.5524 167.948 89.775 166.677C89.9976 165.407 92.2794 164.664 92.2794 164.664C92.2794 164.664 91.6394 163.825 91.8203 163.022C92.0012 162.219 99.9318 163.885 101.671 164.053C103.41 164.221 107.209 167.924 108.183 168.116C109.156 168.307 132.893 165.179 132.893 165.179L119.633 152.751L137.303 141.185Z" fill="#FDBCA0" />
		<path d="M137.304 141.185L119.634 152.751L121.693 154.692L137.304 141.185Z" fill="#E0855C" />
		<path d="M132.894 165.18L141.882 163.825C141.882 163.825 137.583 163.633 136.874 156.203L132.894 165.18Z" fill="#E0855C" />
		<path d="M136.859 153.314H94.0747C93.8104 157.149 94.2139 160.373 94.8678 162.986C97.3583 163.31 100.642 163.945 101.685 164.053C103.425 164.22 107.223 167.936 108.197 168.116C109.171 168.295 132.893 165.179 132.893 165.179C137.568 163.346 136.859 153.314 136.859 153.314Z" fill="#E3DCF7" />
		<path d="M104.037 164.34C101.254 163.166 94.8677 162.998 94.8677 162.998C97.3582 163.322 100.642 163.957 101.685 164.065C103.424 164.233 107.223 167.948 108.197 168.128C108.628 168.212 113.331 167.66 118.534 167.025C110.632 167.72 106.805 165.503 104.037 164.34Z" fill="#FEE6C6" />
		<path d="M94.0742 153.314C94.0742 153.314 90.735 150.689 91.3472 149.658C91.9594 148.628 94.5751 150.569 94.5751 150.569C94.5751 150.569 92.335 145.631 93.9907 145.128C95.6464 144.625 101.226 150.282 101.226 150.282C101.226 150.282 99.9596 145.056 100.711 144.84C101.462 144.625 105.831 149.527 105.831 149.527C105.831 149.527 107.57 143.282 109.379 143.258C111.188 143.234 109.894 150.402 109.894 150.402C109.894 150.402 111.856 144.9 113.344 145.272C114.833 145.643 114.972 151.528 114.972 151.528C114.972 151.528 115.237 147.022 116.308 146.842C117.379 146.662 118.784 153.314 118.784 153.314H94.0742Z" fill="#720FF1" />
		<path d="M120.232 153.314C120.232 153.314 122.416 147.118 123.474 147.034C124.531 146.95 124.601 152.151 124.601 152.151C124.601 152.151 126.743 146.051 127.397 145.895C128.051 145.739 128.482 149.958 128.482 149.958C128.482 149.958 131.905 145.727 132.698 145.883C133.491 146.039 132.448 149.958 132.448 149.958C132.448 149.958 135.717 145.955 137.86 146.554C140.003 147.154 136.886 153.302 136.886 153.302L120.232 153.314Z" fill="#BF99E1" fill-opacity="0.61" />
		<path d="M136.859 153.314C136.859 153.314 141.687 149.443 140.421 148.592C139.155 147.741 133.339 150.953 133.339 150.953C133.339 150.953 138.097 145.62 137.874 144.026C137.652 142.432 128.622 152.559 128.622 152.559C128.622 152.559 132.532 145.332 131.558 144.949C130.584 144.565 126.563 152.727 126.563 152.727C126.563 152.727 127.759 148.208 126.563 148.232C125.366 148.256 123.711 152.955 123.711 152.955C123.711 152.955 122.055 147.969 120.928 147.777C119.801 147.585 119.954 150.617 119.954 150.617C119.954 150.617 118.938 148.268 117.923 148.4C116.907 148.532 118.103 151.648 118.103 151.648C118.103 151.648 114.987 147.214 113.234 147.142C111.481 147.07 110.632 151.816 110.632 151.816C110.632 151.816 111.216 147.25 110.048 147.13C108.879 147.01 108.058 152.068 108.058 152.068C108.058 152.068 107.474 144.877 105.15 144.685C102.827 144.493 104.635 150.186 104.635 150.186C104.635 150.186 100.865 147.933 99.9465 148.4C99.0282 148.868 101.254 153.314 101.254 153.314H136.859Z" fill="#BF99E1" fill-opacity="0.8" />
		<path d="M114.875 147.92C114.862 147.92 114.862 147.92 114.875 147.92C114.792 147.909 114.736 147.861 114.736 147.789L116.183 135.156C116.197 135.096 116.253 135.036 116.336 135.048C116.406 135.06 116.476 135.108 116.462 135.18L115.015 147.813C115.001 147.873 114.945 147.92 114.875 147.92Z" fill="#472938" />
	</g>
	<path d="M38.5922 41.8734C37.7362 41.8734 36.948 41.7377 36.2277 41.4663C35.5179 41.1844 34.8968 40.793 34.3644 40.2919C33.832 39.7804 33.4197 39.1801 33.1274 38.4912C32.8351 37.8022 32.689 37.0506 32.689 36.2364C32.689 35.4222 32.8351 34.6706 33.1274 33.9816C33.4197 33.2926 33.832 32.6976 34.3644 32.1965C34.9072 31.685 35.5388 31.2936 36.2591 31.0222C36.9793 30.7403 37.7675 30.5994 38.6235 30.5994C39.5525 30.5994 40.3876 30.7508 41.1288 31.0535C41.8804 31.3562 42.5119 31.7999 43.0235 32.3844L41.7395 33.6371C41.3115 33.2091 40.8469 32.8959 40.3459 32.6976C39.8553 32.4888 39.3124 32.3844 38.7174 32.3844C38.1433 32.3844 37.6109 32.4784 37.1203 32.6663C36.6296 32.8542 36.2069 33.1204 35.8519 33.4649C35.497 33.8093 35.2204 34.2165 35.0221 34.6862C34.8342 35.156 34.7402 35.6727 34.7402 36.2364C34.7402 36.7896 34.8342 37.3012 35.0221 37.7709C35.2204 38.2407 35.497 38.653 35.8519 39.0079C36.2069 39.3524 36.6244 39.6186 37.1046 39.8065C37.5848 39.9944 38.1172 40.0883 38.7018 40.0883C39.2446 40.0883 39.7665 40.0048 40.2676 39.8378C40.7791 39.6603 41.2645 39.368 41.7238 38.9609L42.8825 40.4798C42.3084 40.9391 41.6403 41.2888 40.8783 41.5289C40.1267 41.7586 39.3646 41.8734 38.5922 41.8734ZM40.9566 40.2136V36.1111H42.8825V40.4798L40.9566 40.2136ZM45.0663 41.7168V33.3553H47.0235V41.7168H45.0663ZM46.0527 31.9773C45.6874 31.9773 45.3846 31.8625 45.1445 31.6328C44.9149 31.4032 44.8001 31.1266 44.8001 30.803C44.8001 30.4689 44.9149 30.1923 45.1445 29.9731C45.3846 29.7434 45.6874 29.6286 46.0527 29.6286C46.4181 29.6286 46.7156 29.7382 46.9452 29.9574C47.1853 30.1662 47.3054 30.4324 47.3054 30.756C47.3054 31.1005 47.1906 31.3927 46.9609 31.6328C46.7313 31.8625 46.4285 31.9773 46.0527 31.9773ZM54.4309 41.7168V40.0257L54.3213 39.6656V36.7061C54.3213 36.132 54.1491 35.6883 53.8046 35.3752C53.4601 35.0516 52.9381 34.8898 52.2387 34.8898C51.769 34.8898 51.3045 34.9628 50.8451 35.109C50.3963 35.2551 50.0153 35.4587 49.7021 35.7197L48.9348 34.2948C49.3837 33.9503 49.9161 33.6945 50.532 33.5275C51.1583 33.35 51.8055 33.2613 52.4736 33.2613C53.6845 33.2613 54.6188 33.5536 55.2765 34.1382C55.9445 34.7123 56.2786 35.6048 56.2786 36.8157V41.7168H54.4309ZM51.8003 41.8264C51.174 41.8264 50.6259 41.722 50.1562 41.5132C49.6864 41.294 49.3211 40.9965 49.0601 40.6207C48.8096 40.2345 48.6843 39.8013 48.6843 39.3211C48.6843 38.8513 48.7939 38.4286 49.0131 38.0528C49.2428 37.677 49.6134 37.3794 50.1249 37.1602C50.6364 36.941 51.3149 36.8314 52.1604 36.8314H54.5875V38.131H52.3014C51.6333 38.131 51.1844 38.2407 50.9548 38.4599C50.7251 38.6686 50.6103 38.9296 50.6103 39.2428C50.6103 39.5977 50.7512 39.8796 51.033 40.0883C51.3149 40.2971 51.7064 40.4015 52.2074 40.4015C52.6876 40.4015 53.1156 40.2919 53.4914 40.0727C53.8776 39.8535 54.1543 39.5299 54.3213 39.1019L54.6501 40.2762C54.4622 40.7669 54.123 41.1479 53.6323 41.4193C53.1521 41.6907 52.5415 41.8264 51.8003 41.8264ZM58.4774 41.7168V33.3553H60.3407V35.657L60.1215 34.9837C60.372 34.42 60.7635 33.992 61.2959 33.6997C61.8387 33.4075 62.512 33.2613 63.3158 33.2613V35.1246C63.2323 35.1038 63.154 35.0933 63.0809 35.0933C63.0078 35.0829 62.9348 35.0777 62.8617 35.0777C62.1205 35.0777 61.5307 35.2969 61.0923 35.7353C60.6539 36.1633 60.4346 36.8053 60.4346 37.6613V41.7168H58.4774ZM68.1253 41.8264C67.3215 41.8264 66.596 41.6489 65.9488 41.294C65.312 40.9287 64.811 40.4276 64.4456 39.7908C64.0803 39.1541 63.8976 38.4025 63.8976 37.536C63.8976 36.6696 64.0803 35.918 64.4456 35.2812C64.811 34.6445 65.312 34.1486 65.9488 33.7937C66.596 33.4388 67.3215 33.2613 68.1253 33.2613C68.8247 33.2613 69.4511 33.4179 70.0043 33.7311C70.5576 34.0338 70.996 34.4983 71.3196 35.1246C71.6432 35.751 71.805 36.5548 71.805 37.536C71.805 38.5068 71.6484 39.3106 71.3353 39.9474C71.0221 40.5737 70.5889 41.0435 70.0356 41.3567C69.4824 41.6698 68.8456 41.8264 68.1253 41.8264ZM68.3602 40.151C68.8299 40.151 69.2475 40.0466 69.6129 39.8378C69.9887 39.629 70.2862 39.3263 70.5054 38.9296C70.735 38.5329 70.8499 38.0684 70.8499 37.536C70.8499 36.9932 70.735 36.5287 70.5054 36.1424C70.2862 35.7458 69.9887 35.443 69.6129 35.2343C69.2475 35.0255 68.8299 34.9211 68.3602 34.9211C67.8904 34.9211 67.4677 35.0255 67.0919 35.2343C66.7265 35.443 66.429 35.7458 66.1993 36.1424C65.9801 36.5287 65.8705 36.9932 65.8705 37.536C65.8705 38.0684 65.9801 38.5329 66.1993 38.9296C66.429 39.3263 66.7265 39.629 67.0919 39.8378C67.4677 40.0466 67.8904 40.151 68.3602 40.151ZM70.8968 41.7168V39.7438L70.9751 37.5204L70.8186 35.2969V30.0983H72.7602V41.7168H70.8968ZM75.0232 41.7168V33.3553H76.9805V41.7168H75.0232ZM76.0096 31.9773C75.6443 31.9773 75.3416 31.8625 75.1015 31.6328C74.8718 31.4032 74.757 31.1266 74.757 30.803C74.757 30.4689 74.8718 30.1923 75.1015 29.9731C75.3416 29.7434 75.6443 29.6286 76.0096 29.6286C76.375 29.6286 76.6725 29.7382 76.9022 29.9574C77.1423 30.1662 77.2623 30.4324 77.2623 30.756C77.2623 31.1005 77.1475 31.3927 76.9178 31.6328C76.6882 31.8625 76.3854 31.9773 76.0096 31.9773ZM83.9807 33.2613C84.6488 33.2613 85.2438 33.3918 85.7658 33.6528C86.2981 33.9137 86.7157 34.3156 87.0184 34.8585C87.3212 35.3908 87.4725 36.0798 87.4725 36.9254V41.7168H85.5152V37.1759C85.5152 36.4347 85.3378 35.8815 84.9828 35.5161C84.6384 35.1507 84.153 34.9681 83.5266 34.9681C83.0673 34.9681 82.6602 35.062 82.3053 35.2499C81.9503 35.4378 81.6737 35.7197 81.4754 36.0955C81.2875 36.4608 81.1935 36.9254 81.1935 37.4891V41.7168H79.2362V33.3553H81.0996V35.6101L80.7708 34.9211C81.063 34.3887 81.4858 33.9816 82.0391 33.6997C82.6028 33.4075 83.25 33.2613 83.9807 33.2613ZM94.7939 41.7168V40.0257L94.6843 39.6656V36.7061C94.6843 36.132 94.512 35.6883 94.1675 35.3752C93.8231 35.0516 93.3011 34.8898 92.6017 34.8898C92.132 34.8898 91.6674 34.9628 91.2081 35.109C90.7593 35.2551 90.3782 35.4587 90.0651 35.7197L89.2978 34.2948C89.7467 33.9503 90.2791 33.6945 90.895 33.5275C91.5213 33.35 92.1685 33.2613 92.8366 33.2613C94.0475 33.2613 94.9818 33.5536 95.6394 34.1382C96.3075 34.7123 96.6416 35.6048 96.6416 36.8157V41.7168H94.7939ZM92.1633 41.8264C91.5369 41.8264 90.9889 41.722 90.5192 41.5132C90.0494 41.294 89.684 40.9965 89.4231 40.6207C89.1725 40.2345 89.0473 39.8013 89.0473 39.3211C89.0473 38.8513 89.1569 38.4286 89.3761 38.0528C89.6058 37.677 89.9763 37.3794 90.4878 37.1602C90.9993 36.941 91.6779 36.8314 92.5234 36.8314H94.9505V38.131H92.6643C91.9963 38.131 91.5474 38.2407 91.3177 38.4599C91.0881 38.6686 90.9732 38.9296 90.9732 39.2428C90.9732 39.5977 91.1142 39.8796 91.396 40.0883C91.6779 40.2971 92.0693 40.4015 92.5704 40.4015C93.0506 40.4015 93.4786 40.2919 93.8544 40.0727C94.2406 39.8535 94.5172 39.5299 94.6843 39.1019L95.0131 40.2762C94.8252 40.7669 94.4859 41.1479 93.9953 41.4193C93.5151 41.6907 92.9044 41.8264 92.1633 41.8264ZM102.645 44.8641C101.872 44.8641 101.116 44.7597 100.374 44.551C99.6438 44.3526 99.0435 44.0603 98.5738 43.6741L99.4506 42.2022C99.816 42.5049 100.275 42.745 100.829 42.9225C101.392 43.1104 101.961 43.2043 102.535 43.2043C103.454 43.2043 104.127 42.9903 104.555 42.5623C104.983 42.1448 105.197 41.5132 105.197 40.6677V39.1801L105.354 37.2855L105.291 35.3908V33.3553H107.155V40.4485C107.155 41.9621 106.768 43.0739 105.996 43.7837C105.223 44.504 104.106 44.8641 102.645 44.8641ZM102.394 41.341C101.601 41.341 100.881 41.174 100.234 40.8399C99.5968 40.4954 99.0905 40.0205 98.7147 39.415C98.3493 38.8096 98.1667 38.0997 98.1667 37.2855C98.1667 36.4817 98.3493 35.7771 98.7147 35.1716C99.0905 34.5662 99.5968 34.0964 100.234 33.7624C100.881 33.4283 101.601 33.2613 102.394 33.2613C103.104 33.2613 103.741 33.4022 104.305 33.6841C104.868 33.9659 105.317 34.4044 105.651 34.9994C105.996 35.5944 106.168 36.3564 106.168 37.2855C106.168 38.2146 105.996 38.9818 105.651 39.5873C105.317 40.1823 104.868 40.6259 104.305 40.9182C103.741 41.2001 103.104 41.341 102.394 41.341ZM102.692 39.6812C103.183 39.6812 103.621 39.582 104.007 39.3837C104.393 39.1749 104.691 38.8931 104.9 38.5382C105.119 38.1728 105.229 37.7552 105.229 37.2855C105.229 36.8157 105.119 36.4034 104.9 36.0485C104.691 35.6831 104.393 35.4065 104.007 35.2186C103.621 35.0203 103.183 34.9211 102.692 34.9211C102.201 34.9211 101.758 35.0203 101.361 35.2186C100.975 35.4065 100.672 35.6831 100.453 36.0485C100.244 36.4034 100.14 36.8157 100.14 37.2855C100.14 37.7552 100.244 38.1728 100.453 38.5382C100.672 38.8931 100.975 39.1749 101.361 39.3837C101.758 39.582 102.201 39.6812 102.692 39.6812ZM113.204 44.8641C112.431 44.8641 111.675 44.7597 110.933 44.551C110.203 44.3526 109.602 44.0603 109.133 43.6741L110.01 42.2022C110.375 42.5049 110.834 42.745 111.388 42.9225C111.951 43.1104 112.52 43.2043 113.094 43.2043C114.013 43.2043 114.686 42.9903 115.114 42.5623C115.542 42.1448 115.756 41.5132 115.756 40.6677V39.1801L115.913 37.2855L115.85 35.3908V33.3553H117.713V40.4485C117.713 41.9621 117.327 43.0739 116.555 43.7837C115.782 44.504 114.665 44.8641 113.204 44.8641ZM112.953 41.341C112.16 41.341 111.44 41.174 110.793 40.8399C110.156 40.4954 109.649 40.0205 109.274 39.415C108.908 38.8096 108.726 38.0997 108.726 37.2855C108.726 36.4817 108.908 35.7771 109.274 35.1716C109.649 34.5662 110.156 34.0964 110.793 33.7624C111.44 33.4283 112.16 33.2613 112.953 33.2613C113.663 33.2613 114.3 33.4022 114.864 33.6841C115.427 33.9659 115.876 34.4044 116.21 34.9994C116.555 35.5944 116.727 36.3564 116.727 37.2855C116.727 38.2146 116.555 38.9818 116.21 39.5873C115.876 40.1823 115.427 40.6259 114.864 40.9182C114.3 41.2001 113.663 41.341 112.953 41.341ZM113.251 39.6812C113.741 39.6812 114.18 39.582 114.566 39.3837C114.952 39.1749 115.25 38.8931 115.459 38.5382C115.678 38.1728 115.788 37.7552 115.788 37.2855C115.788 36.8157 115.678 36.4034 115.459 36.0485C115.25 35.6831 114.952 35.4065 114.566 35.2186C114.18 35.0203 113.741 34.9211 113.251 34.9211C112.76 34.9211 112.317 35.0203 111.92 35.2186C111.534 35.4065 111.231 35.6831 111.012 36.0485C110.803 36.4034 110.699 36.8157 110.699 37.2855C110.699 37.7552 110.803 38.1728 111.012 38.5382C111.231 38.8931 111.534 39.1749 111.92 39.3837C112.317 39.582 112.76 39.6812 113.251 39.6812ZM119.974 41.7168V33.3553H121.931V41.7168H119.974ZM120.96 31.9773C120.595 31.9773 120.292 31.8625 120.052 31.6328C119.822 31.4032 119.707 31.1266 119.707 30.803C119.707 30.4689 119.822 30.1923 120.052 29.9731C120.292 29.7434 120.595 29.6286 120.96 29.6286C121.325 29.6286 121.623 29.7382 121.853 29.9574C122.093 30.1662 122.213 30.4324 122.213 30.756C122.213 31.1005 122.098 31.3927 121.868 31.6328C121.639 31.8625 121.336 31.9773 120.96 31.9773ZM127.945 41.8264C127.089 41.8264 126.327 41.6437 125.658 41.2784C124.99 40.9026 124.463 40.3911 124.077 39.7438C123.691 39.0966 123.498 38.3607 123.498 37.536C123.498 36.7009 123.691 35.965 124.077 35.3282C124.463 34.681 124.99 34.1747 125.658 33.8093C126.327 33.444 127.089 33.2613 127.945 33.2613C128.811 33.2613 129.578 33.444 130.246 33.8093C130.925 34.1747 131.452 34.6758 131.828 35.3125C132.214 35.9493 132.407 36.6905 132.407 37.536C132.407 38.3607 132.214 39.0966 131.828 39.7438C131.452 40.3911 130.925 40.9026 130.246 41.2784C129.578 41.6437 128.811 41.8264 127.945 41.8264ZM127.945 40.151C128.425 40.151 128.853 40.0466 129.229 39.8378C129.604 39.629 129.897 39.3263 130.105 38.9296C130.325 38.5329 130.434 38.0684 130.434 37.536C130.434 36.9932 130.325 36.5287 130.105 36.1424C129.897 35.7458 129.604 35.443 129.229 35.2343C128.853 35.0255 128.43 34.9211 127.96 34.9211C127.48 34.9211 127.052 35.0255 126.676 35.2343C126.311 35.443 126.019 35.7458 125.799 36.1424C125.58 36.5287 125.471 36.9932 125.471 37.536C125.471 38.0684 125.58 38.5329 125.799 38.9296C126.019 39.3263 126.311 39.629 126.676 39.8378C127.052 40.0466 127.475 40.151 127.945 40.151Z" fill="black" />
	<defs>
		<filter id="filter0_d_0_1" x="0.298327" y="0.946777" width="163.89" height="77.7315" filterUnits="userSpaceOnUse" color-interpolation-filters="sRGB">
			<feFlood flood-opacity="0" result="BackgroundImageFix" />
			<feColorMatrix in="SourceAlpha" type="matrix" values="0 0 0 0 0 0 0 0 0 0 0 0 0 0 0 0 0 0 127 0" result="hardAlpha" />
			<feOffset dy="4.17555" />
			<feGaussianBlur stdDeviation="2.08777" />
			<feComposite in2="hardAlpha" operator="out" />
			<feColorMatrix type="matrix" values="0 0 0 0 0 0 0 0 0 0 0 0 0 0 0 0 0 0 0.25 0" />
			<feBlend mode="normal" in2="BackgroundImageFix" result="effect1_dropShadow_0_1" />
			<feBlend mode="normal" in="SourceGraphic" in2="effect1_dropShadow_0_1" result="shape" />
		</filter>
		<linearGradient id="paint0_linear_0_1" x1="161" y1="201.159" x2="-47.6337" y2="185.124" gradientUnits="userSpaceOnUse">
			<stop offset="1" stop-color="#A3ABFF" />
		</linearGradient>
		<clipPath id="clip0_0_1">
			<rect width="156.526" height="157.593" fill="white" transform="translate(4.47388 43.5664)" />
		</clipPath>
	</defs>
</svg>
