<svg width="172" height="205" viewBox="8 -8 155 205" fill="none" xmlns="http://www.w3.org/2000/svg">
	<rect x="7.88428" y="81.106" width="155.539" height="123.894" rx="31.3166" fill="#8C96FF" />
	<ellipse cx="86.1759" cy="90.6874" rx="85.5988" ry="81.2743" fill="#9AA2FD" />
	<ellipse cx="86.1759" cy="90.6874" rx="85.5988" ry="81.2743" fill="#949DFF" />
	<ellipse cx="86.1755" cy="90.6875" rx="73.4201" ry="69.7109" fill="#9AA2FD" />
	<ellipse cx="86.1755" cy="90.6875" rx="73.4201" ry="69.7109" fill="#99A1FF" />
	<ellipse cx="86.176" cy="90.6873" rx="61.5894" ry="58.4779" fill="#9AA2FD" />
	<ellipse cx="86.176" cy="90.6873" rx="61.5894" ry="58.4779" fill="#9EA6FF" />
	<path d="M117.284 27.5839C116.737 24.8657 113.715 23.4783 112.273 23.1244C115.735 22.2749 117.36 24.894 117.739 26.3097C121.565 24.2711 124.04 25.6019 124.8 26.5221C121.884 25.6727 118.574 26.876 117.284 27.5839Z" fill="#B4BAFF" />
	<path d="M35.6517 32.8706C35.3176 31.3174 33.4711 30.5246 32.5896 30.3223C34.7052 29.8369 35.6981 31.3335 35.93 32.1425C38.2683 30.9776 39.7808 31.738 40.2448 32.2639C38.4632 31.7785 36.4404 32.4661 35.6517 32.8706Z" fill="#B4BAFF" />
	<ellipse cx="86.1753" cy="90.6874" rx="49.4107" ry="46.9144" fill="#A3ABFF" />
	<path d="M134.281 39.8169C117.579 35.3567 120.015 48.7372 123.494 48.7372C124.924 48.7372 127.887 49.0676 131.498 49.0676H142.459C156.377 49.0676 160.378 48.1866 160.553 47.9112C161.77 39.1561 154.405 39.982 150.462 40.9732C151.1 37.7244 150.427 31.1608 142.632 30.8965C134.838 30.6322 133.817 36.7333 134.281 39.8169Z" fill="#B4BAFF" />
	<path d="M16.8465 14.9593C9.52972 13.0139 10.5967 18.85 12.121 18.85C12.7473 18.85 14.0454 18.9941 15.6271 18.9941H20.4288C26.5261 18.9941 28.2791 18.6099 28.3554 18.4898C28.889 14.6711 25.6624 15.0314 23.9348 15.4637C24.2143 14.0467 23.9195 11.1839 20.5049 11.0686C17.0903 10.9533 16.6432 13.6144 16.8465 14.9593Z" fill="#A6ADFB" />
	<path d="M41.7165 191.257V180.296H43.392L48.1834 188.297H47.3065L52.0197 180.296H53.6951L53.7108 191.257H51.7848L51.7691 183.318H52.1763L48.1677 190.004H47.2596L43.1884 183.318H43.6581V191.257H41.7165ZM60.1006 191.366C59.1715 191.366 58.3573 191.184 57.6579 190.818C56.9689 190.443 56.4313 189.931 56.0451 189.284C55.6693 188.637 55.4814 187.901 55.4814 187.076C55.4814 186.241 55.6641 185.505 56.0294 184.868C56.4052 184.221 56.9167 183.715 57.5639 183.349C58.2216 182.984 58.968 182.801 59.8031 182.801C60.6173 182.801 61.3428 182.979 61.9796 183.334C62.6164 183.689 63.1174 184.19 63.4828 184.837C63.8482 185.484 64.0308 186.246 64.0308 187.123C64.0308 187.207 64.0256 187.301 64.0152 187.405C64.0152 187.509 64.01 187.608 63.9995 187.702H57.0316V186.403H62.9661L62.1988 186.81C62.2092 186.33 62.1101 185.907 61.9013 185.542C61.6925 185.176 61.4055 184.889 61.0401 184.68C60.6852 184.472 60.2728 184.367 59.8031 184.367C59.3229 184.367 58.9001 184.472 58.5348 184.68C58.1798 184.889 57.898 185.181 57.6892 185.557C57.4909 185.923 57.3917 186.356 57.3917 186.857V187.17C57.3917 187.671 57.5065 188.115 57.7362 188.501C57.9658 188.887 58.2895 189.185 58.707 189.393C59.1246 189.602 59.6047 189.707 60.1476 189.707C60.6173 189.707 61.0401 189.634 61.4159 189.487C61.7917 189.341 62.1257 189.112 62.418 188.798L63.4671 190.004C63.0913 190.443 62.6164 190.782 62.0422 191.022C61.4785 191.252 60.8313 191.366 60.1006 191.366ZM69.1365 191.366C68.3328 191.366 67.6072 191.189 66.96 190.834C66.3233 190.469 65.8222 189.968 65.4568 189.331C65.0915 188.694 64.9088 187.942 64.9088 187.076C64.9088 186.21 65.0915 185.458 65.4568 184.821C65.8222 184.184 66.3233 183.689 66.96 183.334C67.6072 182.979 68.3328 182.801 69.1365 182.801C69.8359 182.801 70.4623 182.958 71.0155 183.271C71.5688 183.574 72.0072 184.038 72.3308 184.665C72.6544 185.291 72.8162 186.095 72.8162 187.076C72.8162 188.047 72.6597 188.851 72.3465 189.487C72.0333 190.114 71.6001 190.584 71.0469 190.897C70.4936 191.21 69.8568 191.366 69.1365 191.366ZM69.3714 189.691C69.8412 189.691 70.2587 189.587 70.6241 189.378C70.9999 189.169 71.2974 188.866 71.5166 188.47C71.7463 188.073 71.8611 187.608 71.8611 187.076C71.8611 186.533 71.7463 186.069 71.5166 185.682C71.2974 185.286 70.9999 184.983 70.6241 184.774C70.2587 184.566 69.8412 184.461 69.3714 184.461C68.9017 184.461 68.4789 184.566 68.1031 184.774C67.7377 184.983 67.4402 185.286 67.2106 185.682C66.9914 186.069 66.8817 186.533 66.8817 187.076C66.8817 187.608 66.9914 188.073 67.2106 188.47C67.4402 188.866 67.7377 189.169 68.1031 189.378C68.4789 189.587 68.9017 189.691 69.3714 189.691ZM71.9081 191.257V189.284L71.9864 187.06L71.8298 184.837V179.638H73.7714V191.257H71.9081ZM76.0344 191.257V182.895H77.9917V191.257H76.0344ZM77.0209 181.517C76.6555 181.517 76.3528 181.403 76.1127 181.173C75.883 180.943 75.7682 180.667 75.7682 180.343C75.7682 180.009 75.883 179.732 76.1127 179.513C76.3528 179.283 76.6555 179.169 77.0209 179.169C77.3862 179.169 77.6837 179.278 77.9134 179.497C78.1535 179.706 78.2735 179.972 78.2735 180.296C78.2735 180.64 78.1587 180.933 77.9291 181.173C77.6994 181.403 77.3967 181.517 77.0209 181.517ZM83.3948 191.366C82.4762 191.366 81.7663 191.132 81.2653 190.662C80.7642 190.182 80.5137 189.477 80.5137 188.548V181.048H82.4709V188.501C82.4709 188.898 82.5701 189.206 82.7685 189.425C82.9772 189.644 83.2643 189.754 83.6297 189.754C84.0681 189.754 84.4335 189.639 84.7257 189.409L85.2738 190.803C85.0441 190.991 84.7623 191.132 84.4282 191.226C84.0942 191.319 83.7497 191.366 83.3948 191.366ZM79.1357 184.524V182.958H84.7101V184.524H79.1357ZM91.7223 191.257V189.566L91.6127 189.206V186.246C91.6127 185.672 91.4405 185.228 91.096 184.915C90.7515 184.592 90.2296 184.43 89.5302 184.43C89.0604 184.43 88.5959 184.503 88.1366 184.649C87.6877 184.795 87.3067 184.999 86.9935 185.26L86.2262 183.835C86.6751 183.49 87.2075 183.235 87.8234 183.068C88.4497 182.89 89.0969 182.801 89.765 182.801C90.9759 182.801 91.9102 183.094 92.5679 183.678C93.236 184.252 93.57 185.145 93.57 186.356V191.257H91.7223ZM89.0917 191.366C88.4654 191.366 87.9173 191.262 87.4476 191.053C86.9778 190.834 86.6125 190.537 86.3515 190.161C86.101 189.775 85.9757 189.341 85.9757 188.861C85.9757 188.391 86.0853 187.969 86.3045 187.593C86.5342 187.217 86.9048 186.919 87.4163 186.7C87.9278 186.481 88.6063 186.371 89.4519 186.371H91.8789V187.671H89.5928C88.9247 187.671 88.4758 187.781 88.2462 188C88.0165 188.209 87.9017 188.47 87.9017 188.783C87.9017 189.138 88.0426 189.42 88.3245 189.628C88.6063 189.837 88.9978 189.942 89.4988 189.942C89.979 189.942 90.407 189.832 90.7828 189.613C91.1691 189.393 91.4457 189.07 91.6127 188.642L91.9415 189.816C91.7536 190.307 91.4144 190.688 90.9237 190.959C90.4436 191.231 89.8329 191.366 89.0917 191.366ZM95.0798 191.257V190.02L100.231 183.788L100.592 184.461H95.1738V182.895H102.157V184.132L97.0058 190.364L96.6143 189.691H102.298V191.257H95.0798ZM103.789 191.257V182.895H105.747V191.257H103.789ZM104.776 181.517C104.41 181.517 104.108 181.403 103.868 181.173C103.638 180.943 103.523 180.667 103.523 180.343C103.523 180.009 103.638 179.732 103.868 179.513C104.108 179.283 104.41 179.169 104.776 179.169C105.141 179.169 105.439 179.278 105.668 179.497C105.908 179.706 106.029 179.972 106.029 180.296C106.029 180.64 105.914 180.933 105.684 181.173C105.454 181.403 105.152 181.517 104.776 181.517ZM111.76 191.366C110.904 191.366 110.142 191.184 109.474 190.818C108.806 190.443 108.279 189.931 107.893 189.284C107.507 188.637 107.313 187.901 107.313 187.076C107.313 186.241 107.507 185.505 107.893 184.868C108.279 184.221 108.806 183.715 109.474 183.349C110.142 182.984 110.904 182.801 111.76 182.801C112.627 182.801 113.394 182.984 114.062 183.349C114.741 183.715 115.268 184.216 115.644 184.853C116.03 185.489 116.223 186.231 116.223 187.076C116.223 187.901 116.03 188.637 115.644 189.284C115.268 189.931 114.741 190.443 114.062 190.818C113.394 191.184 112.627 191.366 111.76 191.366ZM111.76 189.691C112.241 189.691 112.669 189.587 113.044 189.378C113.42 189.169 113.713 188.866 113.921 188.47C114.141 188.073 114.25 187.608 114.25 187.076C114.25 186.533 114.141 186.069 113.921 185.682C113.713 185.286 113.42 184.983 113.044 184.774C112.669 184.566 112.246 184.461 111.776 184.461C111.296 184.461 110.868 184.566 110.492 184.774C110.127 184.983 109.834 185.286 109.615 185.682C109.396 186.069 109.286 186.533 109.286 187.076C109.286 187.608 109.396 188.073 109.615 188.47C109.834 188.866 110.127 189.169 110.492 189.378C110.868 189.587 111.291 189.691 111.76 189.691ZM122.526 182.801C123.194 182.801 123.789 182.932 124.311 183.193C124.843 183.454 125.261 183.856 125.564 184.398C125.866 184.931 126.018 185.62 126.018 186.465V191.257H124.061V186.716C124.061 185.975 123.883 185.422 123.528 185.056C123.184 184.691 122.698 184.508 122.072 184.508C121.613 184.508 121.205 184.602 120.851 184.79C120.496 184.978 120.219 185.26 120.021 185.636C119.833 186.001 119.739 186.465 119.739 187.029V191.257H117.782V182.895H119.645V185.15L119.316 184.461C119.608 183.929 120.031 183.522 120.584 183.24C121.148 182.947 121.795 182.801 122.526 182.801ZM132.133 191.366C131.204 191.366 130.39 191.184 129.69 190.818C129.001 190.443 128.464 189.931 128.078 189.284C127.702 188.637 127.514 187.901 127.514 187.076C127.514 186.241 127.697 185.505 128.062 184.868C128.438 184.221 128.949 183.715 129.596 183.349C130.254 182.984 131.001 182.801 131.836 182.801C132.65 182.801 133.375 182.979 134.012 183.334C134.649 183.689 135.15 184.19 135.515 184.837C135.881 185.484 136.063 186.246 136.063 187.123C136.063 187.207 136.058 187.301 136.048 187.405C136.048 187.509 136.042 187.608 136.032 187.702H129.064V186.403H134.999L134.231 186.81C134.242 186.33 134.143 185.907 133.934 185.542C133.725 185.176 133.438 184.889 133.073 184.68C132.718 184.472 132.305 184.367 131.836 184.367C131.355 184.367 130.933 184.472 130.567 184.68C130.212 184.889 129.931 185.181 129.722 185.557C129.523 185.923 129.424 186.356 129.424 186.857V187.17C129.424 187.671 129.539 188.115 129.769 188.501C129.998 188.887 130.322 189.185 130.74 189.393C131.157 189.602 131.637 189.707 132.18 189.707C132.65 189.707 133.073 189.634 133.448 189.487C133.824 189.341 134.158 189.112 134.451 188.798L135.5 190.004C135.124 190.443 134.649 190.782 134.075 191.022C133.511 191.252 132.864 191.366 132.133 191.366Z" fill="black" />
	<ellipse cx="34.5036" cy="5.28342" rx="4.69749" ry="4.46018" fill="#A6ADFB" />
	<path d="M39.0802 130.546L13 145H161.372L136.011 130.546H39.0802Z" fill="#8C96FF" />
	<path d="M78.3812 103.671L73.4539 113.833L82.9048 128.081H92.4352L101.32 113.592L95.8201 103.671H78.3812Z" fill="#3F4553" />
	<path d="M73.4532 113.833C73.4532 113.833 52.2566 115.913 46.9394 122.96C41.6221 130.008 44.1237 137.659 49.303 137.659C58.8368 137.659 79.0085 138.399 88.5526 137.659L89.122 121.16L73.4532 113.833Z" fill="#3F4553" />
	<path d="M100.772 113.482C100.772 113.482 122.969 115.913 128.286 122.961C133.603 130.008 130.539 134.677 125.922 137.659C119.425 141.86 96.0064 141.163 83.8606 136.061L86.1069 121.16L100.772 113.482Z" fill="#3F4553" />
	<path d="M101.748 127.323L100.247 122.4L102.117 121.344C102.117 121.344 101.858 118.431 104.146 117.871C106.434 117.31 109.16 119.185 111.817 117.674C114.267 116.281 117.265 114.998 120.063 116.925C120.477 117.209 120.671 117.836 120.529 118.405L120.519 118.449C120.377 119.023 119.936 119.377 119.463 119.316C118.476 119.189 116.716 119.215 114.977 120.551C111.979 122.864 101.748 127.323 101.748 127.323Z" fill="#FEBBA0" />
	<path d="M119.211 127.603C119.211 127.603 104.398 124.261 73.1947 123.745L70.1824 128.93C70.1824 128.93 77.946 134.563 85.2335 136.6C92.521 138.636 117.679 145.048 128.914 135.172L119.211 127.603Z" fill="#3F4553" />
	<path d="M85.2331 136.604C77.7627 134.414 69.9473 128.799 69.9473 128.799L70.4131 127.796" stroke="#6E758F" stroke-width="0.55413" stroke-miterlimit="10" stroke-linecap="round" />
	<path d="M73.1943 123.745C73.1943 123.745 107.475 122.75 116.623 129.487" stroke="#6E758F" stroke-width="0.55413" stroke-miterlimit="10" stroke-linecap="round" />
	<path d="M56.3655 126.565C56.3655 126.565 62.6247 122.842 66.9034 125.282" stroke="#6E758F" stroke-width="0.55413" stroke-miterlimit="10" stroke-linecap="round" />
	<path d="M70.9037 128.072L73.1914 123.648L70.9037 122.076C70.9037 122.076 70.1032 119.531 67.8604 118.742C65.6141 117.958 64.0165 119.224 61.4596 117.455C59.1029 115.821 56.1907 114.249 53.2854 115.891C52.8575 116.132 52.6229 116.736 52.7298 117.319L52.7367 117.363C52.8437 117.95 53.2612 118.344 53.7339 118.331C54.7242 118.3 56.4805 118.502 58.1299 120.008C60.9766 122.61 70.9037 128.072 70.9037 128.072Z" fill="#FEBBA0" />
	<path d="M90.5989 123.902L99.9705 122.732" stroke="#6E758F" stroke-width="0.55413" stroke-miterlimit="10" stroke-linecap="round" />
	<path d="M78.6802 118.747L83.9077 123.552" stroke="#6E758F" stroke-width="0.55413" stroke-miterlimit="10" stroke-linecap="round" />
	<path d="M77.3317 53.3595C77.5525 56.1014 79.4331 58.0986 81.531 57.827C83.6289 57.5555 85.1506 55.1115 84.9298 52.3741C84.7089 49.6322 82.8284 47.635 80.7305 47.9065C78.636 48.1737 77.1143 50.6177 77.3317 53.3595Z" fill="#3F4553" />
	<path d="M85.168 55.3521C85.168 55.3521 78.5016 54.0731 77.4526 46.0886C76.5279 39.0325 80.2579 33.3781 84.3468 32.4014C84.3502 32.4014 94.1738 51.6204 85.168 55.3521Z" fill="#3F4553" />
	<path d="M85.3203 33.1591C84.8303 33.4657 84.3645 33.8687 83.9401 34.3899C80.1411 39.0282 82.5461 48.0333 85.9483 52.0978C87.8323 54.3447 90.5858 55.3915 92.9908 54.244C96.5069 52.5665 97.6076 47.5121 96.8934 43.0095C96.362 39.6545 94.8955 36.4879 92.732 34.5169C90.5686 32.5503 87.646 31.7181 85.3203 33.1591Z" fill="#FDBCA0" />
	<path d="M84.6884 49.3827C84.0224 50.2192 82.8631 50.5609 81.9728 50.1623C81.0826 49.7637 80.3511 48.6994 80.1199 47.4643C79.9129 46.3561 80.1371 45.0947 80.7789 44.4158C81.4207 43.737 82.5767 43.7808 83.1253 44.6611L84.6884 49.3827Z" fill="#FDBCA0" />
	<path d="M83.7158 46.4395L84.4163 62.356C84.5094 65.2993 86.39 67.6382 88.7087 67.6951C91.3863 67.7652 93.4877 64.7956 93.1461 61.4231L91.7314 46.6453L83.7158 46.4395Z" fill="#FDBCA0" />
	<path d="M92.6837 56.6226L92.5077 54.4414C92.5077 54.4414 89.0572 55.786 85.9482 52.0938C85.9482 52.0981 87.7391 56.2459 92.6837 56.6226Z" fill="#DF8370" />
	<path d="M82.3461 44.0346C86.8387 43.7411 90.9379 39.9131 93.2014 34.9813C93.2014 34.9813 89.0677 30.0014 83.0258 32.914C78.0191 35.3229 82.3461 44.0346 82.3461 44.0346Z" fill="#3F4553" />
	<path d="M82.8397 47.6964C82.3221 47.7621 81.8701 47.4074 81.8287 46.9037C81.7977 46.5226 82.0081 46.1678 82.3325 45.9839" stroke="#444359" stroke-width="0.387769" stroke-miterlimit="10" stroke-linecap="round" />
	<path d="M93.6316 46.4523C93.7351 46.0537 93.9145 45.7383 94.1146 45.4405L94.2113 45.8259C93.9835 45.7164 93.8593 45.55 93.7316 45.3879C93.6109 45.2171 93.5039 45.0463 93.4073 44.8623C93.2141 44.4988 93.0519 44.1134 92.9346 43.7061C93.1761 44.017 93.3969 44.3368 93.6281 44.6434C93.7454 44.7923 93.8559 44.9456 93.9766 45.077C94.0905 45.204 94.2251 45.3354 94.3182 45.366L94.5977 45.4493L94.4148 45.7515C94.2285 46.0624 94.0215 46.3515 93.7351 46.5618C93.7006 46.588 93.6592 46.5705 93.6385 46.5311C93.6281 46.5004 93.6281 46.4742 93.6316 46.4523Z" fill="#444359" />
	<path d="M94.6435 47.8452C94.5054 48.2043 94.2708 48.5153 93.9672 48.7036C93.667 48.9007 93.2943 48.9402 92.9631 48.8175C92.6249 48.6993 92.3627 48.419 92.1384 48.1299C92.0383 47.9722 91.9382 47.8101 91.8554 47.6437C91.783 47.4641 91.7071 47.2889 91.6519 47.105C91.7795 47.2276 91.8899 47.359 92.0004 47.4904L92.342 47.8496C92.5835 48.051 92.8112 48.27 93.0735 48.3489C93.3254 48.4496 93.5945 48.4452 93.8602 48.3533C94.1224 48.2569 94.3847 48.0686 94.6435 47.8452Z" fill="#444359" />
	<path d="M91.0308 42.1206C91.1654 42.6286 91.2413 43.1542 91.2137 43.7192C91.1964 43.9952 91.1447 44.2974 90.9825 44.5645C90.8169 44.8361 90.5374 44.9544 90.2924 44.9456C90.0405 44.9412 89.7921 44.8011 89.623 44.604C89.447 44.4069 89.309 44.1791 89.2055 43.9382C88.9985 43.452 88.8673 42.944 88.8018 42.4096C88.7914 42.3264 88.8363 42.2476 88.9018 42.2301C88.964 42.2169 89.0192 42.2651 89.0364 42.3352L89.0399 42.3439C89.1572 42.817 89.3125 43.2944 89.5126 43.7061C89.7127 44.1047 89.9853 44.4726 90.3062 44.4594C90.4649 44.4682 90.6133 44.4156 90.703 44.2711C90.8031 44.1309 90.8514 43.9032 90.879 43.671C90.9308 43.2024 90.8962 42.6856 90.8341 42.1906V42.1819C90.8238 42.1118 90.8652 42.0417 90.9204 42.033C90.9653 42.0242 91.0136 42.0636 91.0308 42.1206Z" fill="#444359" />
	<path d="M96.0401 41.1261C96.154 41.5554 96.2161 41.9934 96.2092 42.462C96.2058 42.6941 96.1713 42.9482 96.0539 43.1891C95.9401 43.4431 95.6847 43.6008 95.4639 43.5876C95.2327 43.5833 95.0222 43.43 94.8877 43.2504C94.7496 43.0664 94.6427 42.8693 94.5633 42.6591C94.408 42.2386 94.3114 41.8094 94.2631 41.3583C94.2528 41.2751 94.3011 41.1962 94.3701 41.1831C94.4287 41.1743 94.484 41.2181 94.5012 41.2882L94.5047 41.297C94.6047 41.6912 94.7255 42.0941 94.8808 42.4445C95.036 42.7861 95.2465 43.1146 95.4777 43.0971C95.595 43.1015 95.6882 43.0577 95.7503 42.935C95.8193 42.8124 95.8538 42.6241 95.8745 42.427C95.909 42.0328 95.8814 41.5992 95.8435 41.1875V41.1787C95.8366 41.1086 95.878 41.0429 95.9332 41.0298C95.978 41.0298 96.0263 41.0692 96.0401 41.1261Z" fill="#444359" />
	<path d="M99.7667 63.8008C99.7356 61.1291 92.9105 58.9917 92.9105 58.9917C92.4826 59.5917 91.7477 60.6035 88.6526 60.6035C85.692 60.6035 84.5085 59.6312 84.0461 58.9917H81.1166C80.4645 58.9917 79.8675 59.4647 79.595 60.2181C73.7256 76.5157 77.0243 94.7186 78.3769 103.667C78.5011 104.49 90.7505 103.934 96.2748 104.49C97.4686 104.617 99.884 73.5111 99.7667 63.8008Z" fill="#FEE6C6" />
	<path d="M85.5124 86.848C86.1197 80.6198 86.8616 76.8838 87.4309 78.1101C87.9347 79.1963 87.6552 84.6449 86.8995 89.9008C86.903 89.9008 85.2536 89.5154 85.5124 86.848Z" fill="#FEBBA0" />
	<path d="M89.5212 86.848C88.9139 80.6198 88.1721 76.8838 87.6027 78.1101C87.0989 79.1963 87.3784 84.6449 88.1341 89.9008C88.1306 89.9008 89.78 89.5154 89.5212 86.848Z" fill="#FEBBA0" />
	<path d="M109.749 85.302H102.037L103.262 95.2444L89.2668 86.5766C89.2185 85.9108 89.1529 85.0874 89.0736 84.2158C88.5456 84.2158 88.0143 84.2158 87.4863 84.207C87.4898 84.9648 87.5001 85.4772 87.5001 85.4772C87.5001 85.4772 87.2275 90.0498 87.8521 91.574C89.0391 94.4735 101.181 103.811 104.553 104.92C104.763 104.99 104.974 105.042 105.184 105.077C108.438 105.66 110.594 103.343 110.57 99.1732L109.749 85.302Z" fill="#FEBBA0" />
	<path d="M85.8228 84.1719C85.702 85.153 85.5951 86.099 85.5123 86.848L71.9207 94.8369L72.4935 85.3063H64.7815L63.9638 99.1862C63.9431 103.356 66.0996 105.668 69.35 105.09C69.5605 105.051 69.771 104.998 69.9815 104.933C73.3526 103.825 84.6462 96.0765 87.0581 91.5564C87.7724 90.2205 87.4342 85.7224 87.4342 85.7224C87.4342 85.7224 87.4342 85.1004 87.4204 84.2157C86.889 84.2025 86.3576 84.1894 85.8228 84.1719Z" fill="#FEBBA0" />
	<path d="M74.4667 90.7416C77.4825 79.4196 77.4583 79.4108 81.1608 58.9961C78.6833 59.2107 78.4279 58.6983 76.4749 59.986C70.616 63.849 65.0986 76.5376 63.4734 90.7416H74.4667Z" fill="#FEE6C6" />
	<path d="M101.319 89.6248C99.5455 81.6052 92.9102 58.9961 92.9102 58.9961C99.5455 58.7114 108.6 69.6919 110.767 88.1575L101.319 89.6248Z" fill="#FEE6C6" />
	<path d="M99.7698 71.917L98.3723 86.4933" stroke="#EED2AD" stroke-width="0.55413" stroke-miterlimit="10" stroke-linecap="round" />
	<path d="M75.7371 74.3086L76.8481 89.9011" stroke="#EED2AD" stroke-width="0.55413" stroke-miterlimit="10" stroke-linecap="round" />
</svg>
