<svg width="183" height="219" viewBox="20 5 154 210" fill="none" xmlns="http://www.w3.org/2000/svg">
	<g filter="url(#filter0_d_0_1)">
		<rect x="19.1792" y="0.946777" width="155.539" height="76.3186" rx="31.3166" fill="#BF99E1" />
	</g>
	<g clip-path="url(#clip0_0_1)">
		<path d="M19.1787 135.586C19.1787 135.586 43.8299 81.8741 69.7946 81.8741C95.7593 81.8741 113.94 137.628 139.905 137.628C165.869 137.628 162.994 108.607 174.718 108.607V25.1934H19.1787V135.586Z" fill="url(#paint0_linear_0_1)" />
		<path d="M80.3588 83.4341L71.573 85.954C71.573 85.954 68.8998 95.2089 69.7341 96.8582C70.5684 98.5076 75.2678 99.7599 77.4983 98.7673C79.7288 97.7746 87.2888 91.2839 87.2888 91.2839L80.3588 83.4341Z" fill="#FDBCA0" />
		<path d="M88.4126 74.4998C88.4126 74.4998 82.7937 80.2116 80.3589 83.434L86.6248 92.2154L93.1801 86.9313C93.1801 86.9313 92.0904 72.3159 88.4126 74.4998Z" fill="#FDBCA0" />
		<path d="M79.3538 83.7243V92.521L82.1802 85.9845L80.3583 83.4341L79.3538 83.7243Z" fill="#E0855C" />
		<path d="M78.9286 78.6235C79.6948 78.7915 79.9331 78.3181 80.5631 79.2191C81.1931 80.1202 82.5212 83.648 82.1637 84.1825C81.8061 84.7171 77.8388 88.1533 77.5494 88.1533C77.2599 88.1533 76.5278 87.1911 76.681 86.8552C76.681 86.8552 75.7445 87.3591 75.1316 87.2675C75.1316 87.2675 73.7694 87.9089 73.2246 87.7867C72.6797 87.6646 69.4957 83.4495 70.2449 82.3346C70.994 81.2197 71.4708 81.8001 71.9135 81.3572C72.3562 80.9143 73.1054 80.1812 74.0078 80.2576C74.9102 80.334 75.3189 79.0817 76.6299 79.2649C77.941 79.4482 77.2259 78.2417 78.9286 78.6235Z" fill="#FDBCA0" />
		<path d="M76.6636 87.0074C76.5955 87.0074 76.5444 86.9769 76.5103 86.9311C76.4592 86.8547 76.4933 86.7631 76.5784 86.7325C76.5955 86.7325 78.1279 85.9995 78.5365 85.4649L78.5706 85.4344C78.5876 85.4344 79.456 84.7319 79.7454 84.1974L78.2641 81.1888C78.23 81.1124 78.2641 81.0208 78.3492 80.9902C78.4344 80.9597 78.5365 80.9902 78.5706 81.0666L80.103 84.1974L80.0689 84.2585C79.8135 84.8388 78.9281 85.5566 78.7919 85.6635C78.3152 86.2591 76.7828 86.9769 76.7146 87.0074C76.7146 86.9922 76.6976 87.0074 76.6636 87.0074Z" fill="#FDBCA0" />
		<path d="M75.1151 87.4199C75.047 87.4199 74.9959 87.3893 74.9619 87.3282L73.0719 83.8768C73.0378 83.8004 73.0719 83.7088 73.157 83.6782C73.2422 83.6477 73.3443 83.6782 73.3784 83.7546L75.2684 87.2061C75.3024 87.2824 75.2684 87.3741 75.1832 87.4046C75.1662 87.4199 75.1492 87.4199 75.1151 87.4199Z" fill="#FDBCA0" />
		<path d="M77.6683 86.4733C77.6002 86.4733 77.5491 86.4428 77.515 86.3817L75.7443 82.9607C75.7102 82.8844 75.7443 82.7927 75.8294 82.7622C75.9145 82.7316 76.0167 82.7622 76.0507 82.8386L77.8215 86.2595C77.8556 86.3359 77.8215 86.4275 77.7364 86.458C77.7194 86.4733 77.6853 86.4733 77.6683 86.4733Z" fill="#FDBCA0" />
		<path d="M77.5327 88.3059C77.2602 88.3059 76.9538 87.9241 76.8346 87.7714C76.7494 87.6644 76.5621 87.3895 76.494 87.1146C76.1705 87.2521 75.6086 87.4659 75.1489 87.4354C74.8765 87.5575 73.7186 88.0615 73.1738 87.9393C72.8673 87.8783 72.3054 87.2063 71.9989 86.8092C71.9479 86.7328 71.9649 86.6412 72.033 86.5954C72.1011 86.5496 72.2203 86.5649 72.2714 86.6259C72.7992 87.3132 73.1568 87.6034 73.2419 87.6339C73.5995 87.7103 74.5189 87.359 75.0297 87.1299L75.0808 87.1146H75.1319C75.6938 87.191 76.5621 86.7176 76.5792 86.7176L77.0219 86.4885L76.8346 86.9161C76.8175 86.9619 76.8175 87.1146 76.9878 87.4048C77.1921 87.7408 77.4305 87.9546 77.5327 88.0004C77.9583 87.7866 80.7337 85.4347 81.7213 84.4878C80.8018 84.6864 79.9164 84.3351 79.8824 84.3198C79.7972 84.2893 79.7632 84.1977 79.7972 84.1213C79.8313 84.045 79.9334 84.0144 80.0186 84.045C80.0356 84.045 81.1424 84.4878 82.0788 84.045C82.198 83.9839 82.2832 84.0144 82.3172 84.0602C82.3683 84.0908 82.4023 84.1671 82.3683 84.2435C82.2491 84.5184 77.9413 88.3059 77.5327 88.3059Z" fill="#FDBCA0" />
		<path d="M107.671 65.3213L116.201 70.132V80.1047C116.201 80.1047 107.33 96.6596 107.671 102.631L87.3575 106.037C87.3575 106.037 82.4878 88.5043 88.4132 74.4845L97.4715 68.7728L107.671 65.3213Z" fill="#FEE6C6" />
		<path d="M85.4843 91.9556C85.3991 91.9556 85.314 91.8945 85.314 91.8029C85.2459 87.5725 85.6205 83.6323 86.4548 80.0586C86.4718 79.9823 86.557 79.9212 86.6591 79.9364C86.7443 79.9517 86.8124 80.0281 86.7953 80.1197C85.9781 83.6628 85.5864 87.5878 85.6716 91.7876C85.6545 91.8792 85.5864 91.9556 85.4843 91.9556Z" fill="#FEE6C6" />
		<path d="M116.201 80.1198L109.543 79.2188L113.272 85.9843L116.201 80.1198Z" fill="#FEE6C6" />
		<path d="M105.457 59.1973L107.67 65.3214C105.304 66.1461 103.175 67.4289 101.438 69.0936C98.5269 71.8731 97.4031 74.4999 95.6493 74.4999C93.8956 74.4999 97.4882 68.7881 97.4882 68.7881L97.0285 63.4429L105.457 59.1973Z" fill="#FDBCA0" />
		<path d="M97.2501 66.1615C97.2501 66.1615 101.149 65.6422 103.141 60.6177L97.0117 63.443L97.2501 66.1615Z" fill="#E0855C" />
		<path d="M94.3551 46.6895C94.3551 46.6895 90.5922 63.1528 92.5503 64.2829C94.5084 65.4131 102.239 64.4356 105.116 59.854C107.994 55.2724 104.384 46.6895 94.3551 46.6895Z" fill="#FDBCA0" />
		<path d="M93.1459 52.5386C93.1459 52.5386 89.6043 56.6468 89.9619 57.0438C90.3194 57.4409 92.2605 58.006 92.2605 58.006L93.1459 52.5386Z" fill="#FDBCA0" />
		<path d="M103.772 57.3647C103.772 57.3647 102.001 56.5705 103.142 53.1038C103.142 53.1038 100.843 49.4538 99.3445 48.8581C97.8462 48.2625 94.0322 48.0793 94.0322 48.0793C94.0322 48.0793 93.266 43.2686 94.543 42.7646C95.82 42.2606 107.637 42.5508 109.867 46.2924C110.616 47.56 110.14 48.3236 110.14 48.3236C110.14 48.3236 111.4 49.8203 111.178 51.1031C110.957 52.386 107.483 57.1356 107.483 57.1356L103.772 57.3647Z" fill="#3B2645" />
		<path d="M107.305 58.6163C108.489 57.5547 108.823 56.1333 108.051 55.4415C107.28 54.7496 105.695 55.0494 104.512 56.111C103.328 57.1726 102.994 58.594 103.765 59.2859C104.537 59.9777 106.121 59.6779 107.305 58.6163Z" fill="#FDBCA0" />
		<path d="M94.0489 60.6482C93.2487 60.6482 92.5335 60.4497 92.4825 60.4344C92.3973 60.4039 92.3462 60.3275 92.3803 60.2359C92.4143 60.1595 92.4995 60.1137 92.6016 60.1442C92.6187 60.1442 94.9343 60.8162 95.7346 59.7166C95.7857 59.6402 95.8878 59.625 95.973 59.6708C96.0581 59.7166 96.0751 59.8082 96.024 59.8846C95.5643 60.4802 94.7811 60.6482 94.0489 60.6482Z" fill="#FEE6C6" />
		<path d="M104.674 58.0675C104.623 58.0675 104.555 58.0369 104.538 57.9911C104.487 57.9148 104.504 57.8231 104.589 57.7773L105.968 56.9984C106.053 56.9526 106.156 56.9679 106.207 57.0442C106.258 57.1206 106.241 57.2122 106.156 57.2581L104.776 58.0369C104.742 58.0522 104.708 58.0675 104.674 58.0675Z" fill="#FEE6C6" />
		<path d="M95.4964 52.5539C95.8539 52.6303 96.0753 52.951 95.9902 53.2565L95.888 53.6688C95.8029 53.9895 95.4453 54.188 95.1048 54.1117C94.7472 54.0353 94.5259 53.7146 94.611 53.4092L94.7132 52.9968C94.7983 52.6761 95.1388 52.4776 95.4964 52.5539Z" fill="#3B2645" />
		<path d="M94.7806 50.9503C94.7806 50.9503 97.0281 50.8129 97.6071 52.4623C97.6071 52.4623 97.5389 50.7365 96.1257 50.4769C94.7125 50.2173 94.2528 50.874 94.7806 50.9503Z" fill="#3B2645" />
		<path d="M110.701 67.0316C103.056 65.871 108.13 80.3336 108.13 80.3336L119.572 83.4339L123.812 71.7507C117.154 69.1239 110.701 67.0316 110.701 67.0316Z" fill="#FEE6C6" />
		<path d="M121.359 101.211C121.359 101.211 117.324 102.478 116.932 103.044C116.541 103.609 116.915 105.609 116.915 105.609C116.489 106.22 116.149 106.862 115.911 107.549C115.57 108.572 116.421 108.267 117.426 109.305C118.431 110.344 119.248 110.084 119.827 110.557C120.406 111.031 121.58 110.878 122.04 111.077C122.5 111.275 123.368 111.947 123.896 111.917C124.424 111.886 125.667 110.267 126.689 108.236C127.71 106.205 127.523 104.555 127.983 102.112C128.442 99.6684 139.186 83.9534 137.926 79.6925C137.296 77.5696 130.451 74.393 123.794 71.751L119.554 83.4341L125.616 85.0835L121.359 101.211Z" fill="#FDBCA0" />
		<path d="M127.438 85.6637C127.421 85.6637 127.404 85.6637 127.387 85.6637L125.565 85.2208C125.48 85.2056 125.412 85.1139 125.446 85.0376C125.463 84.9612 125.565 84.9154 125.65 84.9307L127.472 85.3736C127.557 85.3888 127.625 85.4805 127.591 85.5568C127.591 85.6179 127.523 85.6637 127.438 85.6637Z" fill="#FDBCA0" />
		<path d="M141.281 140.384L147.905 137.406C147.905 137.406 147.751 136.245 149.08 134.932C150.408 133.618 149.42 130.579 148.177 130.09C146.934 129.602 146.321 129.938 145.248 128.365L135.662 132.091L141.281 140.384Z" fill="#FFEDE5" />
		<path d="M148.161 130.091C149.404 130.579 150.374 133.618 149.063 134.932C147.752 136.245 147.888 137.406 147.888 137.406C153.558 138.093 158.888 145.546 159.892 146.386C160.897 147.226 164.966 146.63 165.085 146.004C165.205 145.378 156.368 124.47 155.55 124.012C154.733 123.554 145.232 128.365 145.232 128.365C146.305 129.938 146.918 129.602 148.161 130.091Z" fill="#383838" />
		<path d="M165.084 146.004C165.186 145.378 156.366 124.471 155.549 124.012C155.345 123.89 154.595 124.104 153.608 124.486C155.958 128.67 161.951 143.087 163.432 146.661C164.318 146.508 165.033 146.264 165.084 146.004Z" fill="#E5E5E5" />
		<path d="M90.2178 118.3C90.2178 118.3 105.406 154.037 111.808 154.511C118.21 154.984 144.193 139.33 144.193 139.33L139.357 130.64L117.41 137.131L111.944 114.696L90.2178 118.3Z" fill="#3F4553" />
		<g opacity="0.5">
			<path opacity="0.5" d="M111.944 114.712L90.2178 118.301C90.2178 118.301 94.1169 127.464 98.7823 136.566L113.749 122.195L111.944 114.712Z" fill="#3F4553" />
		</g>
		<path d="M50.3068 169.844L47.3782 175.937C47.3782 175.937 48.3317 176.747 48.2636 178.503C48.1955 180.259 51.1241 182.031 52.4352 181.68C53.7462 181.328 53.9676 180.717 55.9257 181.313L60.591 172.913L50.3068 169.844Z" fill="#FFEDE5" />
		<path d="M49.2854 171.967C49.2854 171.967 53.3037 175.739 58.565 176.533L60.5742 172.914L50.307 169.829L49.2854 171.967Z" fill="#E0855C" />
		<path d="M107.67 102.646C107.67 102.646 116.558 111.886 111.927 119.217C107.295 126.547 79.695 140.017 77.822 144.156C75.9491 148.295 74.8934 153.075 71.0624 158.817C67.2313 164.56 61.1187 174.685 61.1187 174.685C61.1187 174.685 51.8731 174.364 48.8594 170.775C48.8594 170.775 63.7749 136.917 67.3335 132.534C70.8921 128.151 87.6806 109.58 87.6806 109.58L87.34 106.052L107.67 102.646Z" fill="#3F4553" />
		<path d="M56.9133 173.478C56.8962 173.478 56.8962 173.478 56.8792 173.478C56.8452 173.463 56.8111 173.417 56.8452 173.371C57.0154 173.051 73.4463 141.651 76.7325 137.986C77.9414 136.627 81.5 133.435 85.6035 129.739C92.6356 123.416 101.37 115.551 102.545 113.138C104.384 109.381 103.158 104.097 103.141 104.036C103.124 103.99 103.158 103.96 103.209 103.944C103.26 103.929 103.294 103.96 103.311 104.005C103.328 104.051 104.554 109.397 102.698 113.199C101.507 115.628 92.7548 123.508 85.7227 129.846C81.6192 133.542 78.0776 136.718 76.8687 138.078C73.5996 141.728 57.1687 173.112 57.0154 173.432C56.9814 173.463 56.9473 173.478 56.9133 173.478Z" fill="white" />
		<path d="M54.5805 173.005C54.5635 173.005 54.5635 173.005 54.5465 173.005C54.5124 172.99 54.4783 172.944 54.5124 172.898C54.6827 172.578 71.7265 140.231 73.7017 137.513C74.7062 136.123 80.6997 130.442 86.4888 124.959C92.2098 119.538 98.1352 113.917 99.276 112.421C101.558 109.427 101.081 104.571 101.081 104.525C101.081 104.479 101.115 104.449 101.166 104.449C101.217 104.449 101.251 104.479 101.251 104.525C101.251 104.571 101.745 109.489 99.4122 112.528C98.2544 114.04 92.329 119.66 86.608 125.097C80.8189 130.579 74.8424 136.261 73.8379 137.635C71.8798 140.353 54.8189 172.684 54.6486 173.005C54.6486 172.99 54.6146 173.005 54.5805 173.005Z" fill="white" />
		<path d="M52.4183 181.695C51.1243 182.031 48.1787 180.275 48.2468 178.518C48.3149 176.762 47.3614 175.953 47.3614 175.953C42.5257 178.702 33.1099 176.075 31.7307 176.014C30.3515 175.953 27.6613 178.763 28.0359 179.297C28.4105 179.832 50.1538 190.736 51.1243 190.629C52.0948 190.522 55.8918 181.344 55.8918 181.344C53.9508 180.733 53.7294 181.359 52.4183 181.695Z" fill="#383838" />
		<path d="M28.0527 179.297C28.4103 179.832 50.1706 190.736 51.1411 190.629C51.3795 190.598 51.8052 190.018 52.2819 189.148C47.4804 187.3 32.5308 179.725 28.853 177.846C28.2741 178.457 27.8995 179.068 28.0527 179.297Z" fill="#E5E5E5" />
		<g opacity="0.5">
			<path opacity="0.5" d="M87.6802 109.58C87.6802 109.58 97.7771 108.45 97.6749 108.481C97.5728 108.511 87.5439 108.083 87.5439 108.083L87.6802 109.58Z" fill="#3F4553" />
		</g>
		<path d="M80.5452 205.413C79.7101 205.413 78.9324 205.277 78.2121 205.006C77.5022 204.724 76.8811 204.333 76.3487 203.831C75.8268 203.32 75.4197 202.72 75.1274 202.031C74.8351 201.342 74.689 200.59 74.689 199.776C74.689 198.962 74.8351 198.21 75.1274 197.521C75.4197 196.832 75.832 196.237 76.3644 195.736C76.8968 195.225 77.5179 194.833 78.2277 194.562C78.9376 194.28 79.7153 194.139 80.5608 194.139C81.4586 194.139 82.278 194.296 83.0192 194.609C83.7603 194.911 84.3867 195.366 84.8982 195.971L83.5829 197.208C83.1862 196.78 82.7426 196.462 82.2519 196.253C81.7613 196.034 81.2289 195.924 80.6548 195.924C80.0806 195.924 79.5535 196.018 79.0733 196.206C78.6035 196.394 78.1912 196.66 77.8363 197.004C77.4918 197.349 77.2204 197.756 77.0221 198.226C76.8342 198.696 76.7402 199.212 76.7402 199.776C76.7402 200.34 76.8342 200.856 77.0221 201.326C77.2204 201.796 77.4918 202.203 77.8363 202.547C78.1912 202.892 78.6035 203.158 79.0733 203.346C79.5535 203.534 80.0806 203.628 80.6548 203.628C81.2289 203.628 81.7613 203.523 82.2519 203.315C82.7426 203.096 83.1862 202.767 83.5829 202.328L84.8982 203.581C84.3867 204.176 83.7603 204.63 83.0192 204.943C82.278 205.256 81.4534 205.413 80.5452 205.413ZM89.7844 205.366C88.9284 205.366 88.1664 205.183 87.4983 204.818C86.8302 204.442 86.3031 203.931 85.9168 203.283C85.5306 202.636 85.3375 201.9 85.3375 201.076C85.3375 200.24 85.5306 199.505 85.9168 198.868C86.3031 198.221 86.8302 197.714 87.4983 197.349C88.1664 196.984 88.9284 196.801 89.7844 196.801C90.6509 196.801 91.4181 196.984 92.0862 197.349C92.7647 197.714 93.2919 198.215 93.6677 198.852C94.0539 199.489 94.2471 200.23 94.2471 201.076C94.2471 201.9 94.0539 202.636 93.6677 203.283C93.2919 203.931 92.7647 204.442 92.0862 204.818C91.4181 205.183 90.6509 205.366 89.7844 205.366ZM89.7844 203.691C90.2646 203.691 90.6926 203.586 91.0684 203.377C91.4442 203.169 91.7365 202.866 91.9453 202.469C92.1645 202.072 92.2741 201.608 92.2741 201.076C92.2741 200.533 92.1645 200.068 91.9453 199.682C91.7365 199.285 91.4442 198.983 91.0684 198.774C90.6926 198.565 90.2698 198.461 89.8001 198.461C89.3199 198.461 88.8919 198.565 88.5161 198.774C88.1508 198.983 87.8585 199.285 87.6392 199.682C87.42 200.068 87.3104 200.533 87.3104 201.076C87.3104 201.608 87.42 202.072 87.6392 202.469C87.8585 202.866 88.1508 203.169 88.5161 203.377C88.8919 203.586 89.3147 203.691 89.7844 203.691ZM95.8055 205.256V196.895H97.6689V199.197L97.4497 198.523C97.7002 197.96 98.0917 197.532 98.624 197.239C99.1669 196.947 99.8402 196.801 100.644 196.801V198.664C100.56 198.643 100.482 198.633 100.409 198.633C100.336 198.622 100.263 198.617 100.19 198.617C99.4487 198.617 98.8589 198.836 98.4205 199.275C97.9821 199.703 97.7628 200.345 97.7628 201.201V205.256H95.8055ZM104.651 205.366C103.952 205.366 103.279 205.277 102.631 205.1C101.995 204.912 101.488 204.687 101.112 204.426L101.864 202.939C102.24 203.179 102.689 203.377 103.211 203.534C103.733 203.691 104.255 203.769 104.777 203.769C105.392 203.769 105.836 203.685 106.107 203.518C106.389 203.351 106.53 203.127 106.53 202.845C106.53 202.615 106.436 202.443 106.248 202.328C106.061 202.203 105.815 202.109 105.512 202.046C105.21 201.984 104.87 201.926 104.495 201.874C104.129 201.822 103.759 201.754 103.383 201.671C103.018 201.577 102.684 201.446 102.381 201.279C102.078 201.102 101.833 200.867 101.645 200.575C101.457 200.282 101.363 199.896 101.363 199.416C101.363 198.883 101.514 198.424 101.817 198.038C102.12 197.641 102.543 197.338 103.085 197.13C103.639 196.91 104.291 196.801 105.043 196.801C105.606 196.801 106.175 196.863 106.749 196.989C107.324 197.114 107.799 197.291 108.174 197.521L107.423 199.009C107.026 198.769 106.624 198.607 106.217 198.523C105.82 198.429 105.424 198.382 105.027 198.382C104.432 198.382 103.988 198.471 103.696 198.649C103.414 198.826 103.273 199.05 103.273 199.322C103.273 199.572 103.367 199.76 103.555 199.886C103.743 200.011 103.988 200.11 104.291 200.183C104.594 200.256 104.928 200.319 105.293 200.371C105.669 200.413 106.04 200.481 106.405 200.575C106.77 200.668 107.104 200.799 107.407 200.966C107.72 201.123 107.971 201.347 108.159 201.639C108.347 201.932 108.441 202.313 108.441 202.782C108.441 203.304 108.284 203.758 107.971 204.145C107.668 204.531 107.235 204.834 106.671 205.053C106.107 205.262 105.434 205.366 104.651 205.366ZM114.965 205.256V203.565L114.855 203.205V200.246C114.855 199.672 114.683 199.228 114.338 198.915C113.994 198.591 113.472 198.429 112.772 198.429C112.303 198.429 111.838 198.502 111.379 198.649C110.93 198.795 110.549 198.998 110.236 199.259L109.469 197.834C109.917 197.49 110.45 197.234 111.066 197.067C111.692 196.89 112.339 196.801 113.007 196.801C114.218 196.801 115.152 197.093 115.81 197.678C116.478 198.252 116.812 199.144 116.812 200.355V205.256H114.965ZM112.334 205.366C111.708 205.366 111.16 205.262 110.69 205.053C110.22 204.834 109.855 204.536 109.594 204.16C109.343 203.774 109.218 203.341 109.218 202.861C109.218 202.391 109.328 201.968 109.547 201.592C109.776 201.217 110.147 200.919 110.659 200.7C111.17 200.481 111.849 200.371 112.694 200.371H115.121V201.671H112.835C112.167 201.671 111.718 201.78 111.488 201.999C111.259 202.208 111.144 202.469 111.144 202.782C111.144 203.137 111.285 203.419 111.567 203.628C111.849 203.837 112.24 203.941 112.741 203.941C113.221 203.941 113.649 203.831 114.025 203.612C114.411 203.393 114.688 203.069 114.855 202.641L115.184 203.816C114.996 204.306 114.657 204.687 114.166 204.959C113.686 205.23 113.075 205.366 112.334 205.366Z" fill="black" />
	</g>
	<defs>
		<filter id="filter0_d_0_1" x="15.0036" y="0.946777" width="163.89" height="84.6695" filterUnits="userSpaceOnUse" color-interpolation-filters="sRGB">
			<feFlood flood-opacity="0" result="BackgroundImageFix" />
			<feColorMatrix in="SourceAlpha" type="matrix" values="0 0 0 0 0 0 0 0 0 0 0 0 0 0 0 0 0 0 127 0" result="hardAlpha" />
			<feOffset dy="4.17555" />
			<feGaussianBlur stdDeviation="2.08777" />
			<feComposite in2="hardAlpha" operator="out" />
			<feColorMatrix type="matrix" values="0 0 0 0 0 0 0 0 0 0 0 0 0 0 0 0 0 0 0.25 0" />
			<feBlend mode="normal" in2="BackgroundImageFix" result="effect1_dropShadow_0_1" />
			<feBlend mode="normal" in="SourceGraphic" in2="effect1_dropShadow_0_1" result="shape" />
		</filter>
		<linearGradient id="paint0_linear_0_1" x1="174.718" y1="137.628" x2="-31.4624" y2="115.557" gradientUnits="userSpaceOnUse">
			<stop stop-color="#BF99E1" />
		</linearGradient>
		<clipPath id="clip0_0_1">
			<rect width="181.636" height="176.425" fill="white" transform="translate(0.388672 42.5752)" />
		</clipPath>
	</defs>
</svg>
