<svg width="156" height="209" viewBox="0 -19 156 209" fill="none" xmlns="http://www.w3.org/2000/svg">
	<rect x="0.294678" y="103.938" width="155.539" height="105.062" rx="31.3166" fill="#8C52FF" />
	<g clip-path="url(#clip0_0_1)">
		<path d="M162.007 167C188.983 120.237 175.181 64.978 131.179 43.5754C87.1771 22.1728 29.6384 42.7316 2.66263 89.4948C-24.3132 136.258 -10.5109 191.517 33.4908 212.92C77.4925 234.322 135.031 213.764 162.007 167Z" fill="#8C52FF" />
		<path d="M60.2517 183.23C79.3054 183.23 94.7515 182.875 94.7515 182.438C94.7515 182.001 79.3054 181.646 60.2517 181.646C41.198 181.646 25.752 182.001 25.752 182.438C25.752 182.875 41.198 183.23 60.2517 183.23Z" fill="#3B2645" />
		<path d="M60.3395 182.438C83.1826 182.438 101.701 165.535 101.701 144.684C101.701 123.834 83.1826 106.931 60.3395 106.931C37.4965 106.931 18.9785 123.834 18.9785 144.684C18.9785 165.535 37.4965 182.438 60.3395 182.438Z" fill="#A6ADFB" />
		<path d="M53.109 171.065C49.8543 171.065 46.5996 170.726 43.3801 170.015C31.9798 167.543 22.3565 160.952 16.2869 151.437C10.2173 141.938 8.44046 130.662 11.2553 119.693C14.0702 108.724 21.1602 99.3861 31.2233 93.3765C41.2865 87.3669 53.109 85.4283 64.5092 87.9C75.9094 90.3717 85.5328 96.9629 91.6023 106.478C97.6719 115.977 99.4488 127.253 96.6339 138.222C93.819 149.191 86.7115 158.529 76.6659 164.538C69.4528 168.836 61.3425 171.065 53.109 171.065ZM54.8331 87.1892C34.9003 87.1892 16.5684 100.388 11.572 119.773C8.77472 130.662 10.5516 141.841 16.5684 151.275C22.5852 160.71 32.1382 167.252 43.4504 169.708C46.6523 170.403 49.8895 170.742 53.109 170.742C61.2721 170.742 69.3121 168.545 76.4724 164.264C86.4476 158.303 93.4848 149.03 96.2997 138.141C99.0969 127.253 97.32 116.074 91.3033 106.64C85.2865 97.2052 75.7335 90.6625 64.4212 88.207C61.2193 87.5123 57.9998 87.1892 54.8331 87.1892Z" fill="white" />
		<path d="M39.2458 151.582C35.393 151.582 31.8744 150.694 28.866 148.885C22.6205 145.137 19.3482 137.948 19.6825 128.626C20.0167 119.321 23.8696 109.015 30.5549 99.5963C37.2402 90.178 45.9488 82.7629 55.0971 78.7242C64.2454 74.6855 72.7428 74.524 78.9883 78.2558C85.2338 82.0037 88.5061 89.1926 88.1718 98.5139C87.8376 107.819 83.9847 118.126 77.2994 127.544C70.6141 136.962 61.9056 144.377 52.7572 148.416C48.0071 150.532 43.433 151.582 39.2458 151.582ZM30.6781 99.6609L30.7836 99.7255C24.1159 109.111 20.2806 119.386 19.9464 128.626C19.6297 137.867 22.8492 144.975 29.0067 148.675C41.7616 156.316 63.3306 146.768 77.0707 127.415C90.8108 108.061 91.6025 86.0908 78.8476 78.4658C66.0927 70.8245 44.5237 80.372 30.7836 99.7255L30.6781 99.6609Z" fill="white" />
		<path d="M35.5687 137.092C33.0353 137.092 30.9593 136.397 29.7454 134.943C28.1269 133.037 28.1796 130.129 29.9037 126.769C31.6103 123.425 34.7242 120.032 38.7178 117.189L38.7882 117.27L38.7178 117.189C46.9689 111.309 56.3811 109.725 59.6886 113.651C62.9961 117.577 58.9673 125.541 50.7162 131.421C45.5087 135.088 39.8613 137.092 35.5687 137.092ZM38.8586 117.35C34.9001 120.161 31.8038 123.538 30.1149 126.849C28.4435 130.129 28.3732 132.956 29.9389 134.798C33.1584 138.626 42.4123 137.011 50.5755 131.211C58.7386 125.412 62.7322 117.577 59.4951 113.764C56.258 109.952 47.0041 111.551 38.8586 117.35Z" fill="white" />
		<g opacity="0.3">
			<path opacity="0.3" d="M95.3847 124.636C96.8801 128.497 97.6366 132.568 97.619 136.672C97.619 156.623 80.0084 172.778 58.2987 172.778C38.0317 172.778 21.3536 158.707 19.2072 140.629C19.0489 141.97 18.9785 143.327 18.9785 144.684C18.9785 165.524 37.5039 182.438 60.3395 182.438C83.1752 182.438 101.701 165.54 101.701 144.7C101.718 137.592 99.519 130.63 95.3847 124.636Z" fill="#543753" />
		</g>
		<path d="M108.857 41.3865C108.857 41.3865 105.813 43.1797 102.928 47.5254C100.043 51.871 96.9641 55.9582 96.9641 55.9582C96.9641 55.9582 95.8382 47.1538 96.366 45.9907C96.8938 44.8275 98.7938 42.2589 99.2336 41.3865C99.6734 40.5142 101.767 39.2702 101.785 38.7695C101.802 38.2687 101.573 36.7016 101.486 36.6532C101.398 36.6047 100.342 36.9601 100.184 37.4771C100.06 37.8486 99.9725 38.1717 99.9725 38.1717C99.9725 38.1717 98.5475 38.8987 98.3012 38.9148C98.0549 38.931 96.8937 38.3656 96.8762 38.2687C96.8586 38.1717 97.8438 36.0716 98.1428 35.9585C98.4419 35.8454 100.096 37.0247 100.412 37.0247C100.729 37.0247 101.398 36.637 101.433 36.4108C101.468 36.1847 99.3744 34.2138 99.1984 34.1976C99.0225 34.1815 97.228 33.8907 96.9817 34.0522C96.7354 34.2138 95.3984 35.28 95.3984 35.28C95.3984 35.28 95.3984 31.6129 95.3984 30.8697C95.3984 30.1266 95.2224 27.8326 94.853 27.6711C94.4835 27.5419 94.0789 27.5095 93.6918 27.558C93.5159 27.6065 93.4104 28.6242 93.4104 28.6242C93.4104 28.6242 92.4779 28.495 92.2316 28.6727C91.9853 28.8504 91.4751 35.797 91.4751 35.8616C91.4751 35.9262 90.1557 34.4561 89.9973 34.1815C89.839 33.9069 89.2936 32.2268 89.0473 32.1621C88.801 32.0975 88.0973 32.0491 88.0093 32.2106C87.9214 32.3721 88.4843 34.7954 88.5195 35.07C88.5547 35.3446 90.226 38.6079 90.314 39.1087C90.402 39.6095 90.7538 43.8098 90.8594 44.666C90.9649 45.5222 89.7862 55.5866 89.5223 59.7869C89.2584 63.9871 89.4871 67.7512 89.7686 68.1389C90.0501 68.5266 92.3548 69.8998 93.5863 69.3344C94.8178 68.7689 98.2132 66.3296 101.45 63.4863C104.687 60.6431 108.505 56.9113 108.505 56.9113L108.857 41.3865Z" fill="#FDBCA0" />
		<path d="M96.9463 55.9422C96.9463 55.9422 97.263 58.2039 97.3861 60.2394C97.3861 60.2394 98.0722 58.317 97.738 54.876L96.9463 55.9422Z" fill="#DE835C" />
		<path d="M91.2818 37.9619C91.2642 37.9619 91.2466 37.9619 91.229 37.9457C91.1938 37.9134 91.1938 37.865 91.229 37.8327C91.7568 37.2834 94.7652 35.5387 94.8884 35.4579C94.9236 35.4417 94.9763 35.4418 95.0115 35.4902C95.0291 35.5225 95.0291 35.571 94.9763 35.6033C94.9411 35.6195 91.8624 37.4126 91.3522 37.9457C91.3346 37.9619 91.2994 37.9619 91.2818 37.9619Z" fill="#333333" />
		<path d="M93.5862 34.8602C93.5862 34.8602 93.5686 34.8602 93.5862 34.8602C93.5334 34.8602 93.4983 34.8279 93.4983 34.7794C93.4983 34.731 93.7094 30.4338 93.6566 29.6584C93.6038 28.9314 93.3575 28.7214 93.3575 28.7214C93.3223 28.6891 93.3223 28.6406 93.3399 28.6083C93.3751 28.576 93.4279 28.576 93.4631 28.5922C93.4983 28.6083 93.7622 28.8506 93.8149 29.6422C93.8677 30.4338 93.6566 34.6179 93.6566 34.7956C93.6566 34.8279 93.6214 34.8602 93.5862 34.8602Z" fill="#333333" />
		<path d="M94.1314 41.5965C94.1138 41.5965 94.1138 41.5804 94.1314 41.5965C94.061 41.5804 94.0435 41.548 94.0435 41.4996C94.4129 39.5933 96.7176 38.2525 96.8055 38.204C96.8407 38.1878 96.8935 38.1878 96.9287 38.2363C96.9463 38.2686 96.9463 38.3171 96.8935 38.3494C96.8759 38.3655 94.5537 39.7064 94.2018 41.548C94.2018 41.5642 94.1666 41.5965 94.1314 41.5965Z" fill="#333333" />
		<path d="M110.81 181.917C110.88 182.257 111.707 183.371 115.877 183.711C120.046 184.05 125.148 182.661 127.664 182.402C129.775 182.192 132.467 181.465 133.276 181.223C133.417 181.19 133.522 181.061 133.522 180.916C133.522 180.69 133.505 180.318 133.487 179.866C130.074 179.914 125.254 181.077 119.466 181.804C115.102 182.354 112.164 181.304 110.88 180.673C110.81 181.094 110.792 181.497 110.81 181.917Z" fill="white" />
		<path d="M132.959 172.435C131.429 172.564 130.796 173.727 130.057 174.115C129.318 174.502 127.136 174.664 127.33 172.128C127.523 169.591 125.395 168.832 125.395 168.832C124.814 168.848 123.248 171.691 120.592 174.761C117.935 177.83 111.566 179.446 111.285 179.543C111.127 179.591 111.003 180.124 110.916 180.674C112.2 181.287 115.138 182.354 119.501 181.804C125.271 181.077 130.109 179.914 133.522 179.866C133.47 178.202 133.364 175.359 133.188 174.147C133.083 173.678 133.03 173.065 132.959 172.435Z" fill="black" />
		<path d="M127.329 172.144C127.153 174.68 129.317 174.518 130.056 174.131C130.795 173.743 131.446 172.58 132.959 172.451C132.818 170.819 132.712 169.074 132.712 169.074L125.376 168.848C125.394 168.848 127.505 169.624 127.329 172.144Z" fill="#FFEDE5" />
		<path d="M119.271 178.412C122.719 178.121 127.328 172.693 127.328 172.693C127.311 172.515 127.311 172.321 127.328 172.144C127.504 169.607 125.393 168.848 125.393 168.848C124.812 168.864 123.247 171.708 120.59 174.777C119.57 175.972 117.969 176.942 116.403 177.685C117.212 178.266 118.233 178.525 119.271 178.412Z" fill="black" />
		<path d="M98.4945 180.948C98.7936 181.804 100.711 182.111 104.951 182.111C109.191 182.111 111.214 175.197 112.938 173.792C114.662 172.402 118.234 167.62 118.234 166.797C118.234 166.554 117.706 165.956 116.949 165.213C116.193 166.7 114.504 169.688 112.023 171.837C109.965 173.63 109.877 179.656 104.758 180.77C102.365 181.287 100.131 180.706 98.4417 179.947C98.3714 180.286 98.4065 180.625 98.4945 180.948Z" fill="white" />
		<path d="M111.708 160.577C109.896 162.354 110.476 164.519 110.389 165.391C110.301 166.264 107.046 166.49 106.536 166.296C106.025 166.102 105.48 165.375 104.46 165.391C103.844 165.407 103.281 165.682 102.947 166.151C102.683 169.236 102.208 172.903 101.997 174.357C101.645 176.764 100.132 177.378 99.3753 177.863C98.8475 178.186 98.4957 179.139 98.4253 179.963C100.114 180.722 102.349 181.304 104.741 180.787C109.878 179.688 109.949 173.646 112.007 171.853C114.488 169.705 116.177 166.732 116.933 165.23C115.103 163.42 111.937 160.819 111.708 160.577Z" fill="black" />
		<path d="M104.44 165.375C105.478 165.359 106.006 166.086 106.516 166.28C107.027 166.474 110.281 166.247 110.369 165.375C110.457 164.503 109.877 162.338 111.689 160.561C111.372 160.205 110.281 158.348 110.281 158.348L103.051 161.627C103.174 162.403 103.086 164.147 102.91 166.134C103.262 165.666 103.842 165.391 104.44 165.375Z" fill="#FFEDE5" />
		<path d="M103.667 176.231C106.236 175.375 106.517 166.279 106.517 166.279C106.007 166.086 105.462 165.359 104.441 165.375C103.825 165.391 103.263 165.666 102.928 166.134C102.664 169.22 102.189 172.887 101.978 174.341C101.89 175.084 101.609 175.795 101.169 176.425C102.013 176.554 102.875 176.473 103.667 176.231Z" fill="black" />
		<path d="M134.033 75.667C134.033 75.667 143.322 90.1094 143.322 97.4275C143.322 104.746 135.335 129.22 135.194 132.516C135.053 135.811 137.886 143.016 136.989 150.286C136.091 157.556 132.713 169.058 132.713 169.058C132.713 169.058 128.174 169.688 125.377 168.832C125.377 168.832 125.254 147.217 123.6 138.38C121.947 129.543 120.662 110.82 120.662 110.82C120.662 110.82 103.685 127.669 103.14 130.464C102.594 133.259 105.708 135.101 107.186 143.533C108.664 151.966 110.3 158.363 110.3 158.363C110.3 158.363 106.957 161.982 103.069 161.643C103.069 161.643 88.5903 131.708 89.4172 127.799C90.244 123.889 106.993 95.1012 107.608 91.6926C108.224 88.2839 108.664 83.9544 109.438 79.5118L134.033 75.667Z" fill="#333333" />
		<path d="M122.527 85.376C128.403 84.4713 133.065 81.2404 135.898 78.7525C134.807 76.8786 134.033 75.6831 134.033 75.6831L109.421 79.5118C109.245 80.5134 109.086 81.515 108.946 82.5004C111.215 84.0836 115.824 86.4099 122.527 85.376Z" fill="#3B2645" />
		<g opacity="0.5">
			<path opacity="0.5" d="M120.68 110.82V104.035C120.68 104.035 118.463 99.996 118.252 96.6196L118.762 106.571L113.941 117.702L120.68 110.82Z" fill="#323232" />
		</g>
		<path d="M109.438 70.3681C109.948 72.6783 109.438 79.5117 109.438 79.5117C109.438 79.5117 110.669 82.048 117.284 83.0496C123.899 84.0512 134.032 75.6669 134.032 75.6669C133.082 73.696 132.924 71.4343 132.994 69.6896C118.234 67.6056 109.438 70.3681 109.438 70.3681Z" fill="#FDBCA0" />
		<path d="M133.381 73.8579C133.047 72.4847 132.924 71.0954 132.994 69.6899C131.217 69.4315 129.528 69.2538 127.927 69.1245L128.332 72.3878L133.381 73.8579Z" fill="#DE835C" />
		<path d="M118.058 53.2604C127.383 52.4849 130.215 45.1991 131.059 41.1281L128.561 40.4819L116.387 39.3511L112.816 40.1911C110.933 46.1522 109.948 53.9227 118.058 53.2604Z" fill="#FDBCA0" />
		<path d="M138.062 42.8891L134.332 41.9521C131.974 60.5948 136.408 60.094 136.408 60.094L137.639 57.1377L138.062 42.8891Z" fill="#FDBCA0" />
		<path d="M133.311 66.8791C136.461 64.2943 136.408 60.0941 136.408 60.0941C136.408 60.0941 131.957 60.5949 134.332 41.9522L131.059 41.1283C130.197 45.1994 127.365 52.5013 118.058 53.2606C109.948 53.923 110.933 46.1525 112.833 40.2075L109.156 41.0799C109.156 41.0799 104.881 53.8906 104.758 58.5271C104.67 61.4996 106.605 65.5221 108.03 68.0261C117.583 64.2943 133.311 66.8791 133.311 66.8791Z" fill="#FEE6C6" />
		<path d="M132.994 69.6901C133.029 68.737 133.135 67.8 133.328 66.863C133.328 66.863 117.6 64.2782 108.03 68.01C108.821 69.4155 109.437 70.3525 109.437 70.3525C109.437 70.3525 118.234 67.6061 132.994 69.6901Z" fill="#3B2645" />
		<path d="M134.332 41.936C134.332 41.936 136.056 50.7566 129.722 61.1279L129.001 68.1714L129.617 84.2455C129.617 84.2455 126.802 84.9401 125.306 84.9401C123.811 84.9401 121.717 85.5702 121.717 85.5702L121.418 82.9693L119.835 83.0016C119.835 83.0016 119.378 77.7189 121.348 73.3895C123.318 69.06 124.268 66.4429 124.585 61.9842C124.902 57.5254 123.811 51.5481 127.418 42.453L134.332 41.936Z" fill="white" />
		<path d="M137.657 57.1374L136.601 53.4702L136.425 60.0775L137.657 57.1374Z" fill="#DE835C" />
		<path d="M117.249 82.0644C117.433 82.0644 117.583 81.8547 117.583 81.5959C117.583 81.3372 117.433 81.1274 117.249 81.1274C117.064 81.1274 116.914 81.3372 116.914 81.5959C116.914 81.8547 117.064 82.0644 117.249 82.0644Z" fill="#DE835C" />
		<path d="M116.985 34.2785C116.985 34.2785 117.055 40.9343 113.15 49.7871C109.244 58.6399 108.927 61.7578 109.842 70.3522C110.757 78.9465 108.505 85.8123 108.505 85.8123C108.505 85.8123 98.0902 87.7994 93.9558 82.646C93.9558 82.646 99.0578 71.8546 101.345 58.963C103.632 46.0715 109.156 41.0474 109.156 41.0474C109.156 41.0474 110.212 38.2687 112.604 38.5595C112.604 38.5918 114.54 34.1654 116.985 34.2785Z" fill="white" />
		<path d="M103.965 77.2665C103.912 77.2665 103.877 77.2342 103.877 77.1857C103.173 65.1665 106.973 54.2459 109.014 48.3817L109.155 47.994C109.172 47.9455 109.225 47.9294 109.26 47.9455C109.313 47.9617 109.331 48.0101 109.313 48.0424L109.172 48.4302C107.132 54.2944 103.349 65.1827 104.053 77.1696C104.053 77.2342 104.018 77.2665 103.965 77.2665Z" fill="#333333" />
		<path d="M110.071 45.5867H110.054C110.001 45.5705 109.983 45.5221 110.001 45.4898C111.461 40.8857 112.517 38.5917 112.534 38.5755C112.552 38.5271 112.605 38.5109 112.658 38.5271C112.71 38.5432 112.728 38.5917 112.71 38.6401C112.693 38.6563 111.637 40.9503 110.195 45.5382C110.142 45.5544 110.107 45.5867 110.071 45.5867Z" fill="#333333" />
		<path d="M103.666 55.5219H103.648C103.595 55.5058 103.578 55.4734 103.578 55.425C105.108 49.9808 109.032 41.1441 109.067 41.0472C109.084 40.9987 109.137 40.9826 109.19 40.9987C109.243 41.0149 109.26 41.0634 109.243 41.1118C109.208 41.1926 105.284 50.0293 103.754 55.4573C103.754 55.4896 103.719 55.5219 103.666 55.5219Z" fill="#333333" />
		<path d="M121.436 83.0659C121.383 83.0659 121.348 83.0336 121.348 82.9851C121.348 82.9367 121.313 77.5409 122.456 75.0369C122.474 74.9885 122.527 74.9723 122.58 74.9885C122.632 75.0046 122.65 75.0531 122.632 75.1016C121.506 77.5732 121.542 82.9367 121.542 82.9851C121.524 83.0336 121.489 83.0659 121.436 83.0659Z" fill="#333333" />
		<path d="M123.265 82.1449C123.212 82.1449 123.177 82.1126 123.177 82.0642C123.177 82.0157 122.984 77.5085 124.039 74.116C125.095 70.7558 125.376 65.0208 125.376 64.9724C125.376 64.9239 125.412 64.8916 125.464 64.8916C125.517 64.8916 125.552 64.9239 125.552 64.9724C125.552 65.037 125.271 70.772 124.215 74.1645C123.16 77.5247 123.353 82.0157 123.353 82.048C123.353 82.0965 123.318 82.1449 123.265 82.1449Z" fill="#333333" />
		<path d="M126.854 74.9079C126.836 74.9079 126.836 74.9079 126.854 74.9079C126.783 74.8918 126.766 74.8595 126.766 74.811C127.452 71.5154 126.906 64.7304 126.906 64.6496C126.906 64.6012 126.942 64.5688 126.994 64.5688C127.047 64.5688 127.082 64.6012 127.082 64.6496C127.082 64.7142 127.628 71.5316 126.942 74.8433C126.924 74.8756 126.889 74.9079 126.854 74.9079Z" fill="#333333" />
		<path d="M128.156 61.8872C128.086 61.871 128.068 61.8387 128.068 61.7903C128.086 61.7256 129.176 55.5545 130.232 52.7113C130.25 52.6628 130.302 52.6466 130.338 52.6628C130.39 52.679 130.408 52.7274 130.39 52.7597C129.352 55.5868 128.244 61.7418 128.244 61.8064C128.244 61.8549 128.209 61.8872 128.156 61.8872Z" fill="#333333" />
		<path d="M126.854 61.2084C126.819 61.2084 126.784 61.1761 126.766 61.1438C126.766 61.1115 126.186 58.3813 126.942 53.4541C126.942 53.4056 126.995 53.3733 127.048 53.3895C127.1 53.3895 127.136 53.4379 127.118 53.4864C126.379 58.3975 126.942 61.0953 126.942 61.1276C126.942 61.1599 126.907 61.2084 126.854 61.2084Z" fill="#333333" />
		<path d="M128.456 29.1411L128.562 40.4818H116.264L117.443 30.3689L128.456 29.1411Z" fill="#FDBCA0" />
		<path d="M117.443 30.3689C117.443 30.3689 119.237 41.1118 128.509 34.8115L128.456 29.1411L117.443 30.3689Z" fill="#DE835C" />
		<path d="M115.465 28.6466C116.26 28.439 116.537 27.088 116.085 25.6292C115.632 24.1704 114.622 23.1561 113.827 23.3638C113.033 23.5714 112.756 24.9223 113.208 26.3812C113.66 27.84 114.671 28.8542 115.465 28.6466Z" fill="#DE835C" />
		<path d="M128.474 30.2075C128.474 30.2075 128.439 32.97 128.298 34.8116C128.298 34.8116 126.855 38.9957 127.506 42.889C128.157 46.7824 127.946 49.6579 126.926 51.0472L128.069 50.5464C128.069 50.5464 133.928 50.611 133.857 42.776C133.857 42.776 136.813 38.3819 132.379 33.2285C127.946 28.0751 130.444 25.2642 130.444 25.2642C130.444 25.2642 128.614 26.1042 128.474 30.2075Z" fill="#3B2645" />
		<path d="M130.409 25.248C130.409 25.248 128.614 26.1043 128.456 30.2076C128.456 30.2076 128.421 32.97 128.28 34.8117C128.984 33.0993 129.582 31.3546 130.074 29.5775C129.071 26.7504 130.409 25.248 130.409 25.248Z" fill="#3B2645" />
		<path d="M131.145 26.1402C131.622 24.6882 131.368 23.3335 130.578 23.1143C129.787 22.8952 128.759 23.8946 128.282 25.3465C127.804 26.7985 128.058 28.1533 128.849 28.3724C129.64 28.5916 130.668 27.5922 131.145 26.1402Z" fill="#FDBCA0" />
		<path d="M114.452 18.075C114.452 18.075 114.135 26.4755 115.349 29.9973C116.563 33.519 119.589 35.7484 121.577 35.7484C123.565 35.7484 127.435 34.4237 128.948 28.7695C130.461 23.1153 130.285 16.0234 123.793 14.1656C117.302 12.3078 114.452 16.2011 114.452 18.075Z" fill="#FDBCA0" />
		<path d="M129.687 24.1493C129.687 24.1493 129.335 21.8715 127.998 20.6276C126.661 19.3837 123.917 18.5436 124.427 16.5566C124.427 16.5566 122.668 17.5097 119.501 17.5097C116.334 17.5097 114.153 19.7714 114.469 23.6162L114.065 23.3578C114.065 23.3578 112.552 17.8974 114.399 15.248C116.264 12.5986 120.662 10.9185 124.216 11.8394C127.769 12.7602 131.763 14.9411 131.411 19.206C131.306 20.563 131.095 21.9038 130.778 23.2285C130.778 23.2124 129.757 23.3577 129.687 24.1493Z" fill="#3B2645" />
		<path d="M117.285 24.8118C117.003 24.8118 116.774 24.6179 116.757 24.3594L116.739 24.0686C116.739 23.8102 116.95 23.6001 117.232 23.584C117.513 23.584 117.742 23.7778 117.76 24.0363L117.777 24.3271C117.777 24.5856 117.566 24.8118 117.285 24.8118Z" fill="#333333" />
		<path d="M125.149 25.0541C124.867 25.0218 124.674 24.7794 124.726 24.521L124.779 24.2302C124.814 23.9717 125.078 23.794 125.36 23.8425C125.641 23.8748 125.835 24.1171 125.782 24.3756L125.729 24.6663C125.676 24.9248 125.413 25.0864 125.149 25.0541Z" fill="#333333" />
		<path d="M115.454 22.8409C115.454 22.8409 115.929 22.3563 117.037 22.3401C118.146 22.324 118.498 22.4209 118.568 22.0978C118.638 21.7747 116.263 20.9508 115.454 22.8409Z" fill="#333333" />
		<path d="M127.014 22.6957C127.014 22.6957 126.486 22.2433 125.29 22.2918C124.094 22.3403 123.742 22.4533 123.654 22.1464C123.566 21.8395 126.082 20.854 127.014 22.6957Z" fill="#333333" />
		<path d="M123.883 29.8358L119.238 29.6904C119.238 29.6904 119.484 32.6145 121.56 32.566C123.636 32.5175 123.883 29.8358 123.883 29.8358Z" fill="white" />
		<path d="M121.277 28.5596C120.978 28.5596 120.697 28.495 120.468 28.398C120.275 28.3011 120.169 28.1719 120.116 28.0265C120.011 27.6549 120.222 26.7502 120.468 25.6194L120.556 25.264C120.961 23.4385 119.87 22.9377 119.817 22.9216C119.764 22.9054 119.747 22.8408 119.764 22.7923C119.782 22.7439 119.852 22.7277 119.905 22.7439C119.958 22.76 121.189 23.3254 120.75 25.2963L120.662 25.6517C120.415 26.7179 120.222 27.6549 120.31 27.978C120.345 28.0749 120.415 28.1557 120.556 28.2365C120.89 28.398 121.418 28.4303 121.911 28.2849C121.964 28.2688 122.034 28.3011 122.051 28.3496C122.069 28.398 122.034 28.4627 121.981 28.4788C121.752 28.5273 121.506 28.5596 121.277 28.5596Z" fill="#333333" />
		<path d="M138.061 42.8892C138.061 42.8892 141.738 43.0507 143.568 47.8648C145.397 52.6628 151.185 66.6206 151.414 69.1892C151.643 71.7578 150.781 73.8256 146.787 74.5849C143.392 75.2311 134.384 72.824 133.645 72.7594C132.906 72.6948 130.813 72.6463 130.109 71.5316C129.405 70.417 129.018 68.5268 129.018 68.5268C129.018 68.5268 127.171 67.8807 126.854 67.8807C126.538 67.8807 124.303 68.0099 124.092 67.703C123.881 67.396 123.881 66.8144 123.951 66.5398C123.951 66.5398 123.564 65.8936 123.688 65.5059C123.688 65.5059 123.283 64.5689 123.318 64.3589C123.353 64.1489 124.444 63.535 124.673 63.4865C124.901 63.4381 127.54 63.3412 127.54 63.3412C127.54 63.3412 126.749 62.4526 126.608 62.4203C126.467 62.388 124.585 62.4526 124.585 62.4526L124.55 62.8888C124.55 62.8888 124.039 62.4849 123.951 62.2588C123.863 62.0326 124.022 61.3703 124.233 61.2895C124.444 61.2087 126.942 60.4494 127.699 60.6918C128.455 60.9341 130.865 62.2911 131.182 62.7434C131.499 63.1958 133.276 67.7353 133.839 68.0745C134.402 68.4138 137.287 68.7853 141.896 67.8807L135.334 52.6467L138.061 42.8892Z" fill="#FDBCA0" />
	</g>
	<path d="M13.4719 26V15.0392H17.9815C18.9523 15.0392 19.7822 15.1958 20.4711 15.5089C21.1706 15.8221 21.7082 16.271 22.084 16.8555C22.4598 17.4401 22.6477 18.1343 22.6477 18.9381C22.6477 19.7419 22.4598 20.4361 22.084 21.0207C21.7082 21.5948 21.1706 22.0384 20.4711 22.3516C19.7822 22.6543 18.9523 22.8057 17.9815 22.8057H14.5993L15.5075 21.8819V26H13.4719ZM20.6434 26L17.8719 22.0228H20.0484L22.8356 26H20.6434ZM15.5075 22.1011L14.5993 21.1303H17.8875C18.7853 21.1303 19.4586 20.9371 19.9074 20.5509C20.3668 20.1647 20.5964 19.6271 20.5964 18.9381C20.5964 18.2387 20.3668 17.7011 19.9074 17.3253C19.4586 16.9495 18.7853 16.7616 17.8875 16.7616H14.5993L15.5075 15.7595V22.1011ZM29.4991 26V24.3089L29.3895 23.9488V20.9893C29.3895 20.4152 29.2173 19.9715 28.8728 19.6584C28.5283 19.3348 28.0064 19.173 27.307 19.173C26.8372 19.173 26.3727 19.246 25.9134 19.3922C25.4645 19.5383 25.0835 19.7419 24.7703 20.0029L24.0031 18.578C24.4519 18.2335 24.9843 17.9777 25.6002 17.8107C26.2266 17.6332 26.8738 17.5445 27.5419 17.5445C28.7528 17.5445 29.687 17.8368 30.3447 18.4214C31.0128 18.9955 31.3468 19.888 31.3468 21.0989V26H29.4991ZM26.8685 26.1096C26.2422 26.1096 25.6942 26.0052 25.2244 25.7964C24.7547 25.5772 24.3893 25.2797 24.1283 24.9039C23.8778 24.5177 23.7525 24.0845 23.7525 23.6043C23.7525 23.1345 23.8622 22.7118 24.0814 22.336C24.311 21.9602 24.6816 21.6626 25.1931 21.4434C25.7046 21.2242 26.3831 21.1146 27.2287 21.1146H29.6557V22.4142H27.3696C26.7015 22.4142 26.2527 22.5239 26.023 22.7431C25.7933 22.9518 25.6785 23.2128 25.6785 23.526C25.6785 23.8809 25.8194 24.1628 26.1013 24.3715C26.3831 24.5803 26.7746 24.6847 27.2757 24.6847C27.7559 24.6847 28.1838 24.5751 28.5596 24.3559C28.9459 24.1367 29.2225 23.8131 29.3895 23.3851L29.7184 24.5594C29.5305 25.0501 29.1912 25.4311 28.7006 25.7025C28.2204 25.9739 27.6097 26.1096 26.8685 26.1096ZM33.8118 26V17.1687C33.8118 16.2918 34.0675 15.5924 34.579 15.0705C35.101 14.5381 35.8421 14.2719 36.8025 14.2719C37.147 14.2719 37.4706 14.3085 37.7733 14.3815C38.0865 14.4546 38.3475 14.5694 38.5563 14.726L38.0239 16.1979C37.8777 16.0831 37.7107 15.9996 37.5228 15.9474C37.3349 15.8847 37.1418 15.8534 36.9435 15.8534C36.5363 15.8534 36.2284 15.9682 36.0196 16.1979C35.8108 16.4171 35.7064 16.7512 35.7064 17.2V18.1395L35.7691 19.0164V26H33.8118ZM32.4339 19.2669V17.7011H38.0082V19.2669H32.4339ZM39.3246 26V17.1687C39.3246 16.2918 39.5804 15.5924 40.0919 15.0705C40.6138 14.5381 41.355 14.2719 42.3154 14.2719C42.6598 14.2719 42.9834 14.3085 43.2862 14.3815C43.5993 14.4546 43.8603 14.5694 44.0691 14.726L43.5367 16.1979C43.3906 16.0831 43.2235 15.9996 43.0356 15.9474C42.8477 15.8847 42.6546 15.8534 42.4563 15.8534C42.0492 15.8534 41.7412 15.9682 41.5324 16.1979C41.3237 16.4171 41.2193 16.7512 41.2193 17.2V18.1395L41.2819 19.0164V26H39.3246ZM37.9467 19.2669V17.7011H43.521V19.2669H37.9467ZM48.161 26.1096C47.3051 26.1096 46.543 25.9269 45.8749 25.5616C45.2068 25.1858 44.6797 24.6743 44.2934 24.0271C43.9072 23.3798 43.7141 22.6439 43.7141 21.8192C43.7141 20.9841 43.9072 20.2482 44.2934 19.6114C44.6797 18.9642 45.2068 18.4579 45.8749 18.0926C46.543 17.7272 47.3051 17.5445 48.161 17.5445C49.0275 17.5445 49.7947 17.7272 50.4628 18.0926C51.1413 18.4579 51.6685 18.959 52.0443 19.5957C52.4305 20.2325 52.6237 20.9737 52.6237 21.8192C52.6237 22.6439 52.4305 23.3798 52.0443 24.0271C51.6685 24.6743 51.1413 25.1858 50.4628 25.5616C49.7947 25.9269 49.0275 26.1096 48.161 26.1096ZM48.161 24.4342C48.6412 24.4342 49.0692 24.3298 49.445 24.121C49.8208 23.9122 50.1131 23.6095 50.3219 23.2128C50.5411 22.8161 50.6507 22.3516 50.6507 21.8192C50.6507 21.2764 50.5411 20.8119 50.3219 20.4256C50.1131 20.029 49.8208 19.7262 49.445 19.5175C49.0692 19.3087 48.6465 19.2043 48.1767 19.2043C47.6965 19.2043 47.2685 19.3087 46.8927 19.5175C46.5274 19.7262 46.2351 20.029 46.0159 20.4256C45.7966 20.8119 45.687 21.2764 45.687 21.8192C45.687 22.3516 45.7966 22.8161 46.0159 23.2128C46.2351 23.6095 46.5274 23.9122 46.8927 24.121C47.2685 24.3298 47.6913 24.4342 48.161 24.4342ZM54.1822 26V17.6385H56.0455V19.9402L55.8263 19.2669C56.0768 18.7032 56.4683 18.2752 57.0006 17.9829C57.5435 17.6907 58.2168 17.5445 59.0206 17.5445V19.4078C58.9371 19.387 58.8588 19.3765 58.7857 19.3765C58.7126 19.3661 58.6396 19.3609 58.5665 19.3609C57.8253 19.3609 57.2355 19.5801 56.7971 20.0185C56.3587 20.4465 56.1394 21.0885 56.1394 21.9445V26H54.1822ZM59.7553 26V24.763L64.9069 18.531L65.267 19.2043H59.8492V17.6385H66.8328V18.8755L61.6813 25.1075L61.2898 24.4342H66.9738V26H59.7553ZM73.6164 26V24.3089L73.5068 23.9488V20.9893C73.5068 20.4152 73.3346 19.9715 72.9901 19.6584C72.6456 19.3348 72.1237 19.173 71.4243 19.173C70.9545 19.173 70.49 19.246 70.0307 19.3922C69.5818 19.5383 69.2008 19.7419 68.8876 20.0029L68.1204 18.578C68.5692 18.2335 69.1016 17.9777 69.7175 17.8107C70.3439 17.6332 70.9911 17.5445 71.6592 17.5445C72.8701 17.5445 73.8043 17.8368 74.462 18.4214C75.1301 18.9955 75.4641 19.888 75.4641 21.0989V26H73.6164ZM70.9858 26.1096C70.3595 26.1096 69.8115 26.0052 69.3417 25.7964C68.872 25.5772 68.5066 25.2797 68.2456 24.9039C67.9951 24.5177 67.8698 24.0845 67.8698 23.6043C67.8698 23.1345 67.9795 22.7118 68.1987 22.336C68.4283 21.9602 68.7989 21.6626 69.3104 21.4434C69.8219 21.2242 70.5004 21.1146 71.346 21.1146H73.773V22.4142H71.4869C70.8188 22.4142 70.37 22.5239 70.1403 22.7431C69.9106 22.9518 69.7958 23.2128 69.7958 23.526C69.7958 23.8809 69.9367 24.1628 70.2186 24.3715C70.5004 24.5803 70.8919 24.6847 71.393 24.6847C71.8732 24.6847 72.3011 24.5751 72.6769 24.3559C73.0632 24.1367 73.3398 23.8131 73.5068 23.3851L73.8357 24.5594C73.6478 25.0501 73.3085 25.4311 72.8179 25.7025C72.3377 25.9739 71.727 26.1096 70.9858 26.1096ZM77.6629 26V17.6385H79.5262V19.9402L79.307 19.2669C79.5576 18.7032 79.949 18.2752 80.4814 17.9829C81.0242 17.6907 81.6975 17.5445 82.5013 17.5445V19.4078C82.4178 19.387 82.3395 19.3765 82.2664 19.3765C82.1934 19.3661 82.1203 19.3609 82.0472 19.3609C81.3061 19.3609 80.7163 19.5801 80.2778 20.0185C79.8394 20.4465 79.6202 21.0885 79.6202 21.9445V26H77.6629ZM86.5086 26.1096C85.8092 26.1096 85.1359 26.0209 84.4887 25.8434C83.8519 25.6555 83.3456 25.4311 82.9698 25.1701L83.7214 23.6826C84.0972 23.9227 84.5461 24.121 85.0681 24.2776C85.59 24.4342 86.1119 24.5125 86.6339 24.5125C87.2498 24.5125 87.6934 24.4289 87.9648 24.2619C88.2467 24.0949 88.3876 23.8705 88.3876 23.5886C88.3876 23.359 88.2937 23.1867 88.1058 23.0719C87.9179 22.9466 87.6726 22.8527 87.3698 22.79C87.0671 22.7274 86.7278 22.67 86.352 22.6178C85.9867 22.5656 85.6161 22.4978 85.2403 22.4142C84.8749 22.3203 84.5409 22.1898 84.2382 22.0228C83.9354 21.8453 83.6901 21.6105 83.5022 21.3182C83.3143 21.0259 83.2204 20.6396 83.2204 20.1594C83.2204 19.6271 83.3717 19.1678 83.6745 18.7815C83.9772 18.3848 84.4 18.0821 84.9428 17.8733C85.4961 17.6541 86.1485 17.5445 86.9001 17.5445C87.4638 17.5445 88.0327 17.6071 88.6068 17.7324C89.181 17.8577 89.6559 18.0351 90.0317 18.2648L89.2801 19.7523C88.8835 19.5122 88.4816 19.3504 88.0745 19.2669C87.6778 19.173 87.2811 19.126 86.8844 19.126C86.2894 19.126 85.8458 19.2147 85.5535 19.3922C85.2716 19.5697 85.1307 19.7941 85.1307 20.0655C85.1307 20.316 85.2246 20.5039 85.4125 20.6292C85.6004 20.7545 85.8458 20.8536 86.1485 20.9267C86.4512 20.9998 86.7853 21.0624 87.1506 21.1146C87.5264 21.1564 87.897 21.2242 88.2624 21.3182C88.6277 21.4121 88.9618 21.5426 89.2645 21.7096C89.5777 21.8662 89.8282 22.0906 90.0161 22.3829C90.204 22.6752 90.2979 23.0562 90.2979 23.526C90.2979 24.0479 90.1414 24.502 89.8282 24.8883C89.5255 25.2745 89.0922 25.5772 88.5285 25.7964C87.9648 26.0052 87.2915 26.1096 86.5086 26.1096ZM91.6704 26V17.6385H93.6276V26H91.6704ZM92.6568 16.2605C92.2915 16.2605 91.9887 16.1457 91.7486 15.916C91.519 15.6864 91.4042 15.4098 91.4042 15.0862C91.4042 14.7521 91.519 14.4755 91.7486 14.2563C91.9887 14.0266 92.2915 13.9118 92.6568 13.9118C93.0222 13.9118 93.3197 14.0214 93.5494 14.2406C93.7894 14.4494 93.9095 14.7156 93.9095 15.0392C93.9095 15.3837 93.7947 15.676 93.565 15.916C93.3354 16.1457 93.0326 16.2605 92.6568 16.2605Z" fill="black" />
	<defs>
		<clipPath id="clip0_0_1">
			<rect width="155.539" height="182.372" fill="white" transform="translate(0.294678 0.858398)" />
		</clipPath>
	</defs>
</svg>
