<svg width="154" height="189" viewBox="0 0 154 189" fill="none" xmlns="http://www.w3.org/2000/svg">
	<ellipse cx="74.251" cy="81.6192" rx="65.243" ry="62.938" fill="#7889DF" />
	<ellipse cx="75.6605" cy="88.062" rx="75.0037" ry="72.354" fill="#7889DF" />
	<path d="M24.7285 132.79C24.7285 132.79 16.272 143.956 13.5279 152.8L6.50269 150.492C6.50269 150.492 9.70454 143.697 11.5199 139.02C13.3372 134.343 15.9029 128.207 16.8185 126.797L24.7285 132.79Z" fill="#FDBCA0" />
	<path d="M9.13378 143.87L4.8457 152.134L11.461 154.544L15.541 148.131L9.13378 143.87" fill="#E6E7E8" />
	<path d="M21.4974 166.988L19.7392 166.667C19.5992 166.768 19.2015 166.763 18.802 166.577C18.3211 166.356 17.8325 165.954 17.3186 165.526C17.1783 165.408 17.0358 165.292 16.8939 165.177C14.663 163.378 2.54606 154.611 2.54606 154.611C-0.279425 158.76 1.11337 159.296 3.94946 160.892C4.38731 161.138 4.89722 161.25 5.38669 161.147C7.12861 160.778 8.2874 162.236 9.03346 163.478C9.17016 163.707 9.35948 163.896 9.56117 164.069C14.7094 168.477 19.525 170.433 21.4974 166.988" fill="#A67C52" />
	<path d="M6.60918 147.784C6.21639 150.289 4.76958 150.928 2.33637 154.956C1.49716 156.339 4.07248 158.472 5.27141 158.659C10.0443 159.413 10.0787 162.254 14.3165 165.301C15.0768 165.846 17.3809 167.388 18.2275 167.776C19.0746 168.167 20.1308 168.243 20.89 167.698C21.7928 167.047 22.1275 165.292 21.8012 164.215C21.4713 163.14 20.7408 162.249 20.0754 161.349C17.8717 158.377 14.9046 155.818 14.0762 151.406C14.3797 150.692 14.6877 149.86 15.0531 148.906C15.1852 148.561 14.671 148.535 14.5048 148.631C14.5048 148.631 13.076 150.222 12.5802 151.363C10.5749 150.891 8.09929 149.725 6.60918 147.784" fill="#323232" />
	<path d="M11.969 151.201C11.8299 151.16 11.6893 151.116 11.5476 151.07C11.6894 151.116 11.83 151.158 11.9686 151.199C11.9687 151.199 11.9688 151.201 11.969 151.201ZM11.3778 151.012C11.3327 150.995 11.2873 150.98 11.2421 150.963C11.2421 150.963 11.2421 150.963 11.2419 150.963C11.2873 150.98 11.3326 150.995 11.3778 151.012Z" fill="#F0F1F1" />
	<path d="M19.2337 168.065C19.0092 168.038 18.7855 167.986 18.5705 167.913C19.0074 167.263 20.0243 164.9 17.4218 162.178C12.9541 157.501 11.5151 152.379 11.2419 150.963C11.2871 150.98 11.3326 150.995 11.3776 151.012C11.4344 151.031 11.4911 151.05 11.5475 151.07C11.6891 151.116 11.8297 151.16 11.9688 151.201C12.3532 152.859 13.9167 157.557 17.8902 161.71C20.5534 164.499 19.7679 167.103 19.2337 168.065" fill="#7DB6DB" />
	<path d="M12.8574 157.355C12.8481 157.372 12.84 157.39 12.8312 157.409C12.823 157.445 12.818 157.48 12.8187 157.512C12.8212 157.526 12.8229 157.544 12.8269 157.562C12.8312 157.58 12.84 157.593 12.8453 157.609C12.8502 157.626 12.8599 157.643 12.8727 157.655C12.8794 157.671 12.889 157.679 12.9007 157.687C12.9128 157.7 12.9273 157.711 12.9422 157.722C12.9816 157.75 13.0289 157.764 13.0768 157.759C13.1045 157.763 13.1351 157.759 13.1692 157.747C13.1692 157.747 13.1762 157.742 13.1883 157.738L13.2036 157.728C13.2424 157.707 13.2743 157.678 13.2995 157.642C13.4458 157.404 13.6244 157.17 13.8244 156.939L13.8261 156.938C14.2888 156.404 14.8738 155.891 15.4758 155.425L15.4789 155.421C15.5116 155.4 15.5396 155.376 15.573 155.354C15.485 155.21 15.4004 155.062 15.3195 154.906L15.3029 154.886C15.2853 154.902 15.2602 154.918 15.2392 154.938C14.785 155.285 14.3326 155.664 13.9287 156.062C13.5044 156.478 13.1294 156.915 12.8574 157.355" fill="white" />
	<path d="M16.3472 156.526C16.372 156.554 16.3892 156.587 16.4129 156.615C16.3082 156.65 16.2026 156.681 16.0983 156.716C15.6072 156.878 15.1238 157.045 14.6955 157.192L14.6951 157.197C13.8943 157.475 13.3027 157.698 13.1883 157.738C13.1762 157.742 13.1692 157.747 13.1692 157.747C13.1351 157.759 13.1045 157.763 13.0768 157.759C13.0448 157.763 13.0161 157.754 12.9851 157.742L12.9724 157.736C12.9604 157.733 12.9526 157.728 12.9422 157.722C12.9273 157.711 12.9128 157.7 12.9007 157.687C12.889 157.679 12.8794 157.671 12.8727 157.655C12.8599 157.643 12.8502 157.626 12.8453 157.609L12.8349 157.592L12.8269 157.562C12.8229 157.544 12.8212 157.526 12.8187 157.512C12.818 157.48 12.823 157.445 12.8312 157.409C12.84 157.39 12.8481 157.372 12.8574 157.355C12.8893 157.308 12.9377 157.268 12.9894 157.246C13.0413 157.228 13.3546 157.113 13.8244 156.939L13.8261 156.938C14.3606 156.744 15.0897 156.492 15.861 156.238L15.8625 156.235C15.9373 156.212 16.0094 156.186 16.0869 156.161L16.3472 156.526" fill="white" />
	<path d="M13.4951 158.537C13.4847 158.556 13.4765 158.577 13.4698 158.595C13.4659 158.608 13.4624 158.618 13.463 158.637C13.4566 158.654 13.4595 158.668 13.4606 158.686C13.4595 158.707 13.463 158.725 13.4698 158.738C13.4716 158.754 13.4765 158.772 13.4869 158.789C13.4979 158.804 13.5128 158.825 13.527 158.843C13.5419 158.867 13.564 158.885 13.5891 158.899C13.6541 158.938 13.7227 158.943 13.7887 158.925C13.8047 158.92 13.8309 158.91 13.847 158.898C14.5089 158.634 15.1431 158.415 15.7405 158.242C14.7273 159.305 14.2617 160.12 14.2298 160.178C14.1609 160.297 14.1928 160.444 14.3001 160.521C14.4037 160.604 14.5527 160.589 14.6467 160.495C14.6541 160.485 15.4035 159.7 17.4163 158.688C17.5854 158.608 17.7442 158.526 17.9003 158.454C17.7796 158.311 17.661 158.175 17.5446 158.034C17.4319 158.089 17.3077 158.149 17.1852 158.212C16.8605 158.374 16.5627 158.533 16.2991 158.685C16.1088 158.792 15.9312 158.898 15.7724 158.998C16.0495 158.68 16.3894 158.332 16.7885 157.962C16.9923 157.914 17.1915 157.873 17.3804 157.835C17.2018 157.626 17.0271 157.409 16.856 157.188C16.7448 157.285 16.6369 157.378 16.531 157.472C15.9099 157.629 15.2369 157.823 14.5345 158.073L14.5298 158.076C14.228 158.179 13.9294 158.296 13.6193 158.42C13.5668 158.446 13.5227 158.488 13.4951 158.537" fill="white" />
	<path d="M16.3459 156.526C16.265 156.591 16.183 156.656 16.097 156.717C15.5153 157.169 14.9531 157.644 14.5345 158.074H14.5298C14.2756 158.335 14.0706 158.584 13.9463 158.805C13.923 158.848 13.8896 158.879 13.847 158.899C13.8309 158.911 13.8047 158.921 13.7887 158.926C13.7227 158.944 13.6541 158.939 13.5891 158.9C13.564 158.886 13.5419 158.868 13.527 158.844C13.5128 158.826 13.4979 158.805 13.4869 158.79C13.4765 158.773 13.4716 158.755 13.4698 158.739C13.463 158.726 13.4595 158.708 13.4606 158.687C13.4595 158.669 13.4566 158.655 13.463 158.638C13.4624 158.619 13.4659 158.609 13.4698 158.596C13.4765 158.578 13.4847 158.557 13.4951 158.538C13.7227 158.139 14.1562 157.676 14.6939 157.198L14.6943 157.193C15.0544 156.872 15.4507 156.551 15.8598 156.239L15.8613 156.236C15.9208 156.187 15.9819 156.141 16.0384 156.1C16.0534 156.117 16.0728 156.14 16.0857 156.162L16.3459 156.526" fill="white" />
	<path d="M12.258 156.549C12.3201 156.682 12.4796 156.736 12.6081 156.672C12.9323 156.509 13.3966 156.297 13.9285 156.062C14.4054 155.851 14.936 155.63 15.4755 155.425L15.4786 155.421C15.5163 155.408 15.5482 155.397 15.5859 155.382C15.5802 155.376 15.576 155.367 15.5727 155.354C15.4847 155.21 15.4001 155.063 15.3192 154.906C15.2918 154.917 15.2652 154.926 15.239 154.938C13.8652 155.465 12.6344 156.066 12.3794 156.193C12.247 156.25 12.1941 156.414 12.258 156.549" fill="white" />
	<path d="M61.631 109.853L70.5923 115.697C70.5923 115.697 61.2914 132.023 60.8497 137.313L52.8286 135.175C52.8286 135.175 56.8789 126.49 58.1108 120.164C59.3414 113.839 61.631 109.853 61.631 109.853" fill="#FDBCA0" />
	<path d="M52.3268 38.3389L46.1169 48.729C46.1169 48.729 39.723 50.8448 35.882 51.3914C35.882 51.3914 39.3234 64.4141 41.8282 66.5842C41.8282 66.5842 47.4144 69.6392 43.2745 72.0371C39.1349 74.4341 38.9825 71.9453 37.8962 69.4842C37.8962 69.4842 36.9296 67.0946 36.2427 66.2568C36.2427 66.2568 26.4904 52.1786 27.1526 48.5029C27.8148 44.8263 43.5434 38.9555 52.3268 38.3389" fill="#FDBCA0" />
	<path d="M59.5299 33.5857L58.3864 40.8066L48.4519 39.4334L52.1286 26.9699L59.5299 33.5857" fill="#F8BA86" />
	<path d="M64.506 18.8244C62.1255 20.9711 53.9568 27.831 53.9568 27.831C53.9568 27.831 51.743 30.3836 49.2994 28.6557C47.6081 27.4585 46.1377 25.4673 45.2996 23.137C44.878 21.9679 44.618 20.7141 44.5688 19.4334C44.459 16.6894 45.3185 13.8182 47.6535 11.3864C51.6559 7.22166 57.1198 7.84727 60.8142 9.55968C61.6421 9.9425 62.3805 10.3793 62.9939 10.8302C63.6692 11.3261 64.193 11.8361 64.5186 12.3075C66.5924 15.3058 66.5419 16.9926 64.506 18.8244" fill="#1A1A1A" />
	<path d="M51.0785 29.2549C50.5218 29.2549 49.9198 29.0917 49.3013 28.655C47.61 27.4577 46.1396 25.4665 45.3015 23.1362C46.1724 23.492 46.9512 24.4311 47.6327 24.9321C47.5065 24.4221 47.3349 23.8479 47.1228 23.3648C47.2377 23.6256 47.3513 23.8851 47.4649 24.1459C47.8662 22.6711 48.4039 21.2336 49.0666 19.8591C49.1574 20.2869 49.2496 20.7159 49.3404 21.1437C49.8605 20.3948 50.4032 19.624 51.1769 19.1538C51.5694 18.9162 52.0415 18.7761 52.4984 18.7761C52.9401 18.7761 53.3705 18.9072 53.7038 19.2039C53.984 19.4544 54.2036 19.818 54.5671 19.9028C54.6201 19.9143 54.6718 19.9207 54.7248 19.9207C55.0126 19.9207 55.2941 19.7499 55.5377 19.5765C56.4161 18.9521 57.2164 18.2135 57.9106 17.3823C58.0014 18.0927 57.8323 18.8339 57.4461 19.4326C59.9376 17.6842 62.0328 15.3539 63.5221 12.6729C63.8856 13.0261 64.2492 13.3807 64.6127 13.7352C64.1305 12.7345 63.5903 11.7633 62.9958 10.8294C63.6711 11.3253 64.1949 11.8353 64.5205 12.3067C65.5492 13.7943 66.0553 14.9582 66.0553 15.9782C66.0553 17.0136 65.534 17.9 64.5079 18.8237C62.1275 20.9703 53.9587 27.8302 53.9587 27.8302C53.9587 27.8302 53.8072 28.0036 53.5409 28.231C53.1055 28.601 52.3621 29.1097 51.4634 29.2292C51.3385 29.2459 51.2097 29.2549 51.0785 29.2549" fill="#151515" />
	<path d="M44.5699 19.4326C44.5635 19.2772 44.561 19.1217 44.561 18.965C44.5623 16.3649 45.4521 13.68 47.6546 11.3857C49.8672 9.08363 52.5266 8.24477 55.0875 8.24477C57.1575 8.24477 59.163 8.7933 60.8152 9.55894C61.3933 9.85955 61.96 10.1833 62.5116 10.5211C59.8635 9.74522 57.1082 9.35083 54.3516 9.35083C53.9086 9.35083 53.4656 9.36111 53.0226 9.38167C54.209 9.9135 55.3955 10.4441 56.5819 10.9759C55.2251 10.8538 53.8695 10.7305 52.5127 10.6072C53.1778 10.963 53.7622 11.4756 54.2065 12.0935C53.583 11.9895 52.9582 11.8854 52.3347 11.7814C52.4635 12.416 52.5922 13.0493 52.7209 13.6839C52.0987 13.2111 51.4777 12.7384 50.8567 12.2657C50.6308 13.0043 50.4049 13.7417 50.1789 14.4804C50.1499 14.2196 50.1146 13.946 49.9631 13.734C49.8583 13.5888 49.6778 13.4873 49.5075 13.4873C49.4292 13.4873 49.3522 13.5092 49.2866 13.5567C49.1654 13.6441 49.1074 13.7944 49.0556 13.9357C48.7249 14.8298 48.3942 15.7252 48.0635 16.6193C48.0118 15.9847 47.96 15.3501 47.9083 14.7155C46.9112 15.9526 46.2637 17.4787 46.0655 19.0665C46.0188 18.3625 45.9721 17.6585 45.9267 16.9546C45.3638 17.7112 44.9069 18.5475 44.5699 19.4326" fill="#313131" />
	<path d="M64.2256 15.2401C64.2256 15.2401 65.2113 15.9223 65.3716 17.4613C65.4461 18.2243 65.4486 18.489 65.5104 19.4062C65.6228 21.1405 64.4717 22.2529 65.4347 23.7084C66.3977 25.1652 67.5135 25.9141 67.5135 25.9141C67.5135 25.9141 67.6902 26.4087 67.1487 26.8596C66.6085 27.3105 65.3754 27.0613 65.205 27.3285C65.0359 27.5944 65.3426 28.7005 65.3426 28.7005C65.3426 28.7005 65.4903 29.3698 64.6648 29.7924C65.2101 30.1599 65.0788 30.8677 64.4919 31.1554C63.9088 31.4458 63.9592 31.9827 64.1713 32.8319C64.3808 33.6772 64.1031 34.701 61.7858 34.1923C59.4684 33.6836 55.3008 32.6597 52.885 27.8822C52.885 27.8822 50.6358 27.317 50.5929 23.5954C50.5525 19.8764 53.8215 20.8989 53.7041 22.718C53.5729 24.8184 55.042 25.9861 55.042 25.9861C55.042 25.9861 55.1266 24.6269 55.3121 21.7417C55.3121 21.7417 62.3664 19.4563 64.2256 15.2401" fill="#FDBCA0" />
	<path d="M45.3699 12.6446C42.021 13.5413 38.255 7.69363 42.7892 3.99132C46.574 0.900497 51.4952 4.62336 50.4211 8.46056C49.7244 10.9605 46.3304 12.3864 45.3699 12.6446Z" fill="#333333" />
	<path d="M46.5179 13.7578L45.3706 12.644C45.3706 12.644 46.3008 8.61157 50.4218 8.45999L51.1753 9.66882L46.5179 13.7578" fill="#FDBCA0" />
	<path d="M55.4471 128.73L51.9143 137.635L59.0228 139.337L62.7046 131.682L55.4471 128.73" fill="#E6E7E8" />
	<path d="M71.1207 150.665L69.2262 151.577C69.0811 151.697 68.6406 151.722 68.1862 151.551C67.6384 151.346 67.073 150.939 66.4697 150.51C66.3081 150.391 66.1415 150.273 65.9761 150.158C63.3786 148.35 49.6008 139.798 49.6008 139.798C46.8013 144.596 48.1241 144.92 51.3754 146.455C51.8777 146.692 52.4483 146.778 52.9796 146.623C54.8729 146.079 56.26 147.596 57.1751 148.906C57.3467 149.149 59.7549 150.142 60.0111 150.286C67.5841 154.542 69.2086 154.623 71.1207 150.665" fill="#A67C52" />
	<path d="M53.4938 133.308C52.7693 135.916 51.2585 136.15 48.8781 140.781C48.0615 142.376 51.0641 144.52 52.3995 144.637C57.7233 145.09 59.1054 146.734 64.0089 149.759C64.8899 150.3 68.655 152.02 69.618 152.384C70.5836 152.745 71.4961 150.615 71.0518 149.455C70.6101 148.293 69.7354 147.368 68.9301 146.429C66.2745 143.326 62.8048 140.741 61.5565 135.939C61.8342 135.128 62.1106 134.189 62.4426 133.108C62.5612 132.716 61.9932 132.726 61.8153 132.847C61.8153 132.847 60.36 134.714 59.8993 136.01L53.4938 133.308" fill="#323232" />
	<path d="M68.9442 152.107L68.2513 151.804C68.2917 150.612 67.8613 149.185 66.0665 147.555C60.7806 142.748 58.804 137.213 58.3938 135.676C58.6727 135.754 58.9479 135.82 59.2142 135.877C59.762 137.676 61.8446 142.732 66.5486 147.001C68.7095 148.966 69.0944 150.689 68.9442 152.107" fill="#7DB6DB" />
	<path d="M60.6649 142.598C60.6561 142.619 60.6485 142.635 60.6422 142.66C60.6333 142.701 60.6308 142.735 60.6359 142.771C60.6384 142.789 60.6409 142.807 60.646 142.827C60.6548 142.849 60.6636 142.863 60.6712 142.877C60.6775 142.899 60.6927 142.915 60.7066 142.927C60.7154 142.945 60.7255 142.954 60.7381 142.96C60.7545 142.973 60.7684 142.987 60.7873 142.996C60.8315 143.022 60.8858 143.033 60.9375 143.027C60.9704 143.027 61.0057 143.022 61.0385 143.008C61.0385 143.008 61.0461 142.999 61.0612 142.995L61.0764 142.981C61.1168 142.958 61.1508 142.919 61.1773 142.878C61.3187 142.604 61.4967 142.332 61.7024 142.062L61.7049 142.058C62.1732 141.434 62.7778 140.824 63.4063 140.261L63.4089 140.257C63.4429 140.23 63.4745 140.203 63.5073 140.175C63.3975 140.022 63.2953 139.867 63.1943 139.702L63.1754 139.683C63.1564 139.701 63.1299 139.72 63.1097 139.742C62.6339 140.161 62.1618 140.616 61.7491 141.086C61.3124 141.578 60.9337 142.091 60.6649 142.598" fill="white" />
	<path d="M64.4514 141.407C64.4792 141.437 64.5019 141.47 64.5309 141.5C64.4161 141.546 64.3037 141.59 64.1901 141.637C63.66 141.853 63.1413 142.075 62.6818 142.273L62.6781 142.277C61.8198 142.646 61.1837 142.941 61.0612 142.995C61.0461 142.999 61.0385 143.008 61.0385 143.008C61.0057 143.022 60.9704 143.027 60.9375 143.027C60.9035 143.032 60.8681 143.025 60.8378 143.014L60.8227 143.009C60.8088 143.005 60.8 143.001 60.7873 142.996C60.7684 142.987 60.7545 142.973 60.7381 142.96C60.7255 142.954 60.7154 142.945 60.7066 142.927C60.6927 142.915 60.6775 142.899 60.6712 142.877L60.6573 142.86C60.6548 142.849 60.6472 142.838 60.646 142.827C60.6409 142.807 60.6384 142.79 60.6359 142.772C60.6308 142.736 60.6333 142.701 60.6422 142.66C60.6485 142.635 60.6561 142.619 60.6649 142.598C60.7002 142.543 60.7482 142.495 60.8037 142.468C60.8568 142.445 61.195 142.291 61.7024 142.062L61.7049 142.059C62.278 141.804 63.063 141.47 63.8923 141.127L63.8948 141.122C63.9743 141.093 64.0551 141.06 64.1346 141.024L64.4514 141.407" fill="white" />
	<path d="M61.4601 143.85C61.4475 143.872 61.4425 143.896 61.4387 143.917C61.4324 143.928 61.4311 143.945 61.4336 143.96C61.4273 143.981 61.4311 143.999 61.4336 144.017C61.4336 144.037 61.4399 144.058 61.45 144.072C61.4513 144.091 61.4589 144.109 61.4715 144.127C61.4841 144.147 61.5018 144.166 61.5182 144.185C61.5371 144.211 61.5636 144.227 61.5927 144.244C61.6646 144.28 61.7403 144.28 61.8135 144.254C61.8325 144.248 61.859 144.235 61.8766 144.224C62.586 143.874 63.2676 143.586 63.9138 143.346C62.8775 144.6 62.4257 145.534 62.3954 145.598C62.331 145.737 62.3752 145.896 62.4989 145.975C62.6213 146.057 62.7841 146.03 62.8801 145.919C62.8876 145.904 63.655 144.982 65.7969 143.705C65.9749 143.604 66.144 143.499 66.3132 143.409C66.1693 143.261 66.0266 143.12 65.8878 142.974C65.7666 143.047 65.6354 143.12 65.5041 143.197C65.1595 143.403 64.844 143.601 64.5651 143.791C64.3618 143.924 64.175 144.054 64.0072 144.18C64.2886 143.806 64.6383 143.395 65.0485 142.956C65.2693 142.884 65.4864 142.822 65.6909 142.768C65.4776 142.551 65.2706 142.329 65.0624 142.098C64.9513 142.211 64.8364 142.324 64.7291 142.434C64.0539 142.655 63.3281 142.922 62.5721 143.258L62.5658 143.259C62.2414 143.398 61.9208 143.55 61.5901 143.712C61.5308 143.744 61.4879 143.793 61.4601 143.85" fill="white" />
	<path d="M64.4515 141.407C64.3644 141.483 64.2811 141.561 64.1902 141.637C63.5831 142.182 62.9987 142.748 62.5721 143.258L62.5658 143.26C62.3058 143.565 62.1013 143.858 61.9801 144.109C61.9562 144.159 61.9221 144.195 61.8766 144.224C61.859 144.236 61.8325 144.249 61.8135 144.255C61.7403 144.281 61.6646 144.281 61.5927 144.245C61.5636 144.228 61.5371 144.212 61.5182 144.186C61.5018 144.167 61.4841 144.147 61.4715 144.128C61.4589 144.11 61.4513 144.092 61.45 144.073C61.4399 144.059 61.4336 144.038 61.4336 144.018C61.4311 144 61.4273 143.982 61.4336 143.961C61.4311 143.946 61.4324 143.929 61.4387 143.917C61.4425 143.897 61.4475 143.872 61.4601 143.851C61.681 143.392 62.1253 142.847 62.6781 142.277L62.6819 142.273C63.053 141.89 63.4657 141.505 63.8923 141.127L63.8949 141.122C63.9554 141.066 64.0198 141.01 64.0817 140.959C64.0981 140.979 64.1195 141.001 64.1347 141.024L64.4515 141.407" fill="white" />
	<path d="M59.9439 141.755C60.0196 141.896 60.2026 141.943 60.3364 141.862C60.6822 141.659 61.1783 141.386 61.7488 141.085C62.2587 140.815 62.8267 140.53 63.406 140.261L63.4085 140.257C63.4502 140.239 63.483 140.225 63.5247 140.205C63.5183 140.196 63.5133 140.189 63.507 140.174C63.3972 140.022 63.2949 139.866 63.194 139.702C63.1649 139.716 63.1359 139.727 63.1094 139.742C61.6339 140.431 60.3225 141.193 60.0499 141.354C59.9085 141.426 59.8631 141.611 59.9439 141.755" fill="white" />
	<path d="M55.535 44.9421C54.9115 48.7202 52.0552 51.3787 49.1573 50.8835C46.2581 50.3877 44.4141 46.9243 45.0389 43.1488C45.6611 39.3719 48.5149 36.7128 51.4153 37.2086C54.312 37.7032 56.1598 41.1666 55.535 44.9421" fill="white" />
	<path d="M58.8141 59.9823C69.0364 57.9362 58.6109 47.982 58.472 40.2665C58.472 40.2665 57.3373 41.8723 50.5721 32.244C42.4936 36.4782 41.4263 52.8562 40.3421 58.3437C38.3499 68.401 35.7126 74.5199 35.7126 74.5199L55.2156 80.7446L58.8141 59.9823Z" fill="#FEE6C6" />
	<path d="M55.535 44.9421C54.9115 48.7202 52.0552 51.3787 49.1573 50.8835C46.2581 50.3877 44.4141 46.9243 45.0389 43.1488C45.6611 39.3719 48.5149 36.7128 51.4153 37.2086C54.312 37.7032 56.1598 41.1666 55.535 44.9421" fill="#F2AE75" />
	<path d="M54.7175 40.8065C54.7175 40.8065 56.0819 49.3082 58.3121 60.0397C58.3121 60.0397 71.2468 58.6619 73.366 56.3391C73.366 56.3391 73.4682 50.6031 74.6534 48.5477C75.8373 46.4923 75.4637 50.2781 75.4637 50.2781C75.4637 50.2781 77.3456 49.6255 77.4819 51.0142C77.4819 51.0142 79.1618 50.5929 79.2224 52.0925C79.2224 52.0925 80.7787 51.6425 80.1287 53.2531C80.1287 53.2531 82.1279 52.6004 80.2019 55.8967C80.2019 55.8967 79.9734 56.2821 78.5838 57.5804C77.1929 58.8801 58.6996 69.6484 56.068 69.6484C53.4364 69.6484 46.2875 61.4231 45.6299 42.844C45.6299 42.844 49.6625 35.6012 54.7175 40.8065" fill="#FDBCA0" />
	<path d="M61.1344 110.93C61.2935 110.679 61.4651 110.425 61.6532 110.16C64.276 106.462 65.8057 105.908 65.8057 105.908C65.8057 105.908 61.2985 103.249 59.5479 102.824C57.7948 102.401 52.9544 100.866 50.6547 99.9591C48.3525 99.0508 46.1021 98.4805 46.1021 98.4805L47.7555 80.7442C47.7744 81.0094 47.4791 82.4397 50.3985 83.3547C53.3153 84.2697 59.5328 86.3876 66.3358 92.101C73.1389 97.8125 76.1555 101.993 76.3322 104.153C76.5102 106.313 76.0394 106.242 74.0174 109.686C72.9357 111.53 71.5385 114.144 70.0971 116.775C66.871 112.891 63.3596 111.455 61.1344 110.93Z" fill="#1A1A1A" />
	<path d="M17.2105 126.265C19.3732 123.071 21.4294 122.741 23.5918 118.889C25.7553 115.036 26.728 114.814 28.4603 108.21C30.1911 101.604 33.4371 93.0149 33.4371 93.0149C33.4371 93.0149 32.8955 91.5841 32.139 87.9501C31.3809 84.3176 30.4668 81.3021 33.823 76.8303C35.9237 74.0282 35.7134 74.5201 35.7134 74.5201C36.7412 74.2724 41.4412 73.6374 45.9028 74.8758C49.3978 75.8454 53.9062 79.8309 55.2164 80.7447C53.9353 84.9854 51.1017 87.7802 50.5274 90.2626C49.6616 94.0053 48.2568 100.502 41.8739 109.971C35.4919 119.438 33.6523 122.741 31.2722 124.723C28.9884 126.626 26.7056 129.948 24.5176 133.229C22.4261 131.508 18.337 128.498 16.6062 127.236C16.8122 126.88 17.0135 126.555 17.2105 126.265" fill="#333333" />
	<path d="M127.673 5.42341C127.258 6.49351 126.432 7.62399 125.676 7.85651C124.615 8.18409 123.512 7.92716 122.684 8.89963C122.127 9.55351 122.026 10.49 122.066 11.3546C122.108 12.2204 122.265 13.0927 122.122 13.9469C122.065 14.2887 121.892 14.6843 121.553 14.7203C121.144 14.764 120.912 14.2745 120.744 13.8917C120.415 13.1415 119.508 13.2956 118.835 12.8422C118.381 12.5377 118.197 12.4645 117.699 12.6893C117.184 12.9231 116.924 12.5878 116.804 13.1492C116.552 14.3311 116.493 15.6594 115.668 16.5316C115.223 17.0031 114.675 17.391 114.074 17.621C114.06 17.6274 114.047 17.6326 114.033 17.6377C113.009 18.0179 112.511 18.0179 112.312 17.8201C112.001 17.0018 111.688 16.5393 111.419 16.2195C110.786 15.4641 110.404 15.4924 110.885 13.4832C109.932 13.3393 108.935 13.5089 108.079 13.9598C107.867 11.8003 108.69 9.55993 110.24 8.07104C109.725 8.0325 109.201 8.12628 108.73 8.3421C109.162 7.2129 110.1 6.34578 111.147 5.77155C112.196 5.19732 113.359 4.88259 114.51 4.57299C114.112 4.43297 113.716 4.29422 113.318 4.1542C116.034 2.96848 119.023 2.43665 121.972 2.61521C121.228 2.41224 120.486 2.20926 119.743 2.00629C121.468 1.93563 123.21 2.26322 124.798 2.95692C124.617 2.85415 123.409 0.951612 123.229 0.848841C124.12 0.706247 125.736 1.47317 126.822 2.40967C127.405 2.91324 127.837 3.46435 127.923 3.94865C127.991 4.33661 127.886 4.8723 127.673 5.42341" fill="#333333" />
	<path d="M94.1874 91.1117C93.632 94.7657 94.5219 98.2252 94.099 101.794C93.762 104.629 93.0767 107.024 91.6441 109.446C90.3655 111.607 89.039 113.502 88.2868 115.96C87.4865 118.582 87.4626 121.4 86.7999 124.049C86.213 126.391 84.9849 128.72 84.6934 131.048C84.5381 132.287 85.462 133.007 86.5879 133.792C87.3527 134.325 88.3928 134.909 89.3356 134.886C91.1569 134.841 91.6353 132.287 92.1565 130.842C92.9391 128.671 93.7406 126.551 94.6935 124.451C96.8001 119.808 98.5595 114.988 100.245 110.177C101.303 107.156 101.528 103.837 102.71 100.866C103.606 98.6132 104.99 96.6117 105.992 94.4086C107.332 91.4654 108.486 88.682 109.12 85.4485L94.1874 91.1117" fill="#FDBCA0" />
	<path d="M79.1584 140.061C78.5526 140.68 77.8596 141.952 78.3342 142.759C78.7432 143.454 79.6721 143.885 80.3461 144.3C81.0251 144.718 81.7711 145.054 82.4413 145.465C83.1355 145.891 83.8839 146.448 84.6526 146.813C87.9961 148.397 90.8271 152.102 94.9052 150.384C95.8266 149.996 96.7997 149.648 97.6719 149.218C98.703 148.71 98.0442 147.545 97.3639 147.007C96.1118 149.313 91.8394 148.65 89.9739 147.537C88.4833 146.648 87.2968 145.063 85.9842 143.922C85.1625 143.208 84.2967 142.62 83.3576 142.079C82.7707 141.741 81.9554 141.51 81.5086 140.974L79.1584 140.061Z" fill="#02BA92" />
	<path d="M79.1573 140.061L79.1459 140.049C78.6789 140.529 78.1602 141.389 78.1602 142.136C78.1602 142.361 78.2081 142.576 78.3192 142.766C78.7332 143.468 79.6634 143.9 80.3374 144.314C81.0177 144.733 81.7636 145.069 82.4326 145.478C83.1255 145.904 83.874 146.461 84.6452 146.827C87.3778 148.122 89.7733 150.843 92.7988 150.844C93.469 150.844 94.1695 150.711 94.9104 150.398C95.8305 150.011 96.8049 149.664 97.677 149.233C98.067 149.042 98.2223 148.752 98.221 148.439C98.221 147.917 97.8007 147.333 97.3716 146.994L97.3577 146.983L97.3489 146.999C96.7392 148.122 95.4051 148.538 93.9814 148.538C92.5021 148.538 90.9282 148.089 89.9816 147.525C88.4935 146.637 87.3083 145.052 85.9932 143.91C85.1702 143.196 84.3044 142.606 83.3641 142.065C82.7746 141.727 81.9605 141.495 81.52 140.963L81.5175 140.96L79.1535 140.042L79.1459 140.049L79.1573 140.061L79.1522 140.076L81.5024 140.989L81.5074 140.974L81.4961 140.985C81.9467 141.526 82.7645 141.757 83.3489 142.093C84.288 142.634 85.1513 143.221 85.973 143.934C87.2844 145.074 88.4708 146.66 89.9652 147.552C90.9194 148.121 92.4958 148.57 93.9814 148.57C95.4102 148.57 96.7569 148.153 97.3766 147.015L97.3628 147.007L97.3526 147.02C97.7755 147.354 98.1907 147.935 98.1895 148.439C98.1895 148.74 98.0456 149.015 97.6644 149.204C96.7935 149.633 95.8204 149.981 94.8977 150.369C94.1606 150.68 93.4652 150.812 92.7988 150.812C89.7923 150.813 87.3992 148.099 84.6591 146.798C83.8917 146.434 83.1432 145.878 82.449 145.451C81.7775 145.039 81.0316 144.704 80.3538 144.286C79.6773 143.871 78.7508 143.438 78.347 142.75C78.2384 142.566 78.1917 142.357 78.1917 142.136C78.1904 141.405 78.7054 140.545 79.1686 140.073L79.1573 140.061L79.1522 140.076L79.1573 140.061" fill="white" />
	<path d="M82.1476 135.108C81.6919 136.217 80.7239 137.119 80.0486 138.091C79.6851 138.615 78.7662 139.713 79.0856 140.427C79.2661 140.833 79.7987 140.989 80.1559 141.164C80.6191 141.392 81.0609 141.669 81.4786 141.989C82.5792 142.834 83.7493 143.491 84.7754 144.421C85.7258 145.284 86.7406 146.071 87.6771 146.949C88.5139 147.734 89.2927 148.598 90.3416 149.074C92.3408 149.981 95.0469 149.704 96.9137 148.574C97.5094 148.213 98.3349 147.355 97.3718 146.824C96.9907 146.615 96.4757 146.687 96.0516 146.588C95.5669 146.474 95.0924 146.187 94.6342 146.009C93.6245 145.614 93.165 145.32 92.7094 144.31C92.2967 143.396 92.0922 142.365 91.6189 141.471C91.1052 140.5 90.5498 139.472 90.5056 138.356C90.4741 137.568 90.9133 136.2 90.5435 135.498C90.1573 135.675 89.8783 136.118 89.4795 136.342C88.8699 136.681 88.0785 136.82 87.3818 136.89C86.4389 136.985 84.2617 136.99 83.7783 135.875L82.1476 135.108" fill="#00476D" />
	<path d="M86.1119 86.6745C84.1934 85.9316 84.9393 91.7195 84.9608 92.4471C85.0882 96.6646 85.1703 91.4738 84.7323 95.809C84.6048 97.0615 84.5708 98.2562 84.3158 99.4933C83.9334 101.353 83.6822 103.117 84.3776 104.922C84.7336 105.846 85.1627 106.749 85.506 107.68C85.7206 108.261 85.9528 109.138 86.4678 109.513C86.7392 109.709 87.2226 109.742 87.4838 109.553C87.9508 109.217 87.5356 108.74 87.292 108.346C86.1813 106.558 86.0879 104.691 86.1308 102.611C86.1914 99.6167 86.5826 96.662 86.9613 93.6932C87.2226 91.6514 87.1367 89.5197 86.4779 87.5508L86.1119 86.6745" fill="#10608D" />
	<path d="M97.9544 61.3402C97.2337 62.6113 96.1874 63.4391 95.6245 64.8114C95.1613 65.9395 94.7245 67.163 94.4494 68.3418C93.8423 70.9463 94.0177 73.4914 94.3787 76.1227C94.6842 78.3439 94.7397 80.1107 94.2916 82.3282C93.9016 84.2616 93.0585 86.0104 92.4678 87.8223C91.6714 90.2688 93.4346 89.9331 95.2067 89.7705C97.0797 89.5989 98.8392 89.7865 100.73 89.2939C102.359 88.8694 103.832 88.6606 105.354 88.0953C106.955 87.5014 108.44 88.0671 109.604 86.5152C110.646 84.5162 112.232 81.8542 110.712 80.4505C108.28 78.2041 100.546 78.0525 99.132 74.9858C98.3747 73.3395 97.6465 71.9032 97.2123 70.105C96.7743 68.2851 97.1593 66.8412 97.4735 65.0489L97.9544 61.3402" fill="#1A1A1A" />
	<path d="M97.9553 61.3407L97.9414 61.3326C97.2232 62.6007 96.1769 63.4289 95.6102 64.8058C95.147 65.9344 94.7103 67.1587 94.4351 68.3386C94.1473 69.5733 94.035 70.7947 94.035 72.0178C94.035 73.3776 94.1738 74.7398 94.3644 76.1254C94.5134 77.2114 94.603 78.1885 94.603 79.1625C94.603 80.1797 94.5058 81.1937 94.2773 82.3256C93.8873 84.2564 93.0455 86.0045 92.4548 87.8177C92.3184 88.2351 92.2566 88.5722 92.2566 88.8444C92.2553 89.2678 92.4081 89.5354 92.663 89.6929C92.9192 89.8505 93.2739 89.9003 93.6816 89.9004C94.1448 89.9004 94.6762 89.8358 95.2088 89.787C97.0793 89.6155 98.8413 89.8034 100.735 89.31C102.363 88.8858 103.837 88.6769 105.36 88.1109C106.158 87.8151 106.928 87.8079 107.646 87.6808C108.364 87.554 109.033 87.3052 109.618 86.5255V86.5246L109.619 86.5234C110.351 85.1164 111.356 83.3809 111.356 81.9796C111.357 81.3898 111.176 80.858 110.723 80.4391C109.502 79.3113 106.958 78.7132 104.545 78.0109C102.131 77.3096 99.8473 76.503 99.148 74.9795C98.3895 73.3328 97.6612 71.8977 97.2295 70.1016C97.0882 69.5157 97.0326 68.9691 97.0326 68.437C97.0326 67.32 97.2775 66.2668 97.4895 65.0523V65.0519L97.9805 61.2629L97.9414 61.3326L97.9553 61.3407L97.9389 61.3385L97.4592 65.0474L97.4744 65.0494L97.4592 65.0466C97.2459 66.2601 97.0011 67.3152 97.0011 68.437C97.0011 68.9714 97.0566 69.5209 97.198 70.1094C97.6322 71.9098 98.3617 73.3473 99.119 74.9931C99.8321 76.5364 102.122 77.3389 104.536 78.0417C106.951 78.7434 109.491 79.3443 110.702 80.463C111.149 80.8756 111.324 81.3961 111.324 81.9796C111.325 83.3661 110.325 85.1013 109.591 86.5082L109.605 86.5158L109.592 86.506C109.013 87.2782 108.357 87.5224 107.641 87.6492C106.925 87.7759 106.153 87.7828 105.35 88.0807C103.829 88.6453 102.356 88.8542 100.727 89.2789C98.8401 89.7708 97.0806 89.5833 95.2063 89.755C94.6736 89.8039 94.1423 89.8683 93.6816 89.8683C93.2764 89.8684 92.9268 89.8179 92.6794 89.6654C92.4346 89.5129 92.2882 89.2605 92.2882 88.8444C92.2882 88.5772 92.3487 88.2431 92.4838 87.8279C93.0745 86.0173 93.9163 84.2679 94.3076 82.332C94.5361 81.1982 94.6345 80.1818 94.6345 79.1625C94.6345 78.1865 94.5449 77.208 94.396 76.1209C94.2054 74.7361 94.0666 73.3754 94.0666 72.0178C94.0666 70.7966 94.1789 69.5779 94.4654 68.3461C94.7405 67.1686 95.1773 65.9457 95.6392 64.8181C96.2009 63.4503 97.2459 62.6232 97.9679 61.3487L97.9553 61.3407L97.9389 61.3385L97.9553 61.3407" fill="black" />
	<path d="M108.516 83.0909C108.375 84.4971 110.283 85.394 111.533 85.8145C112.665 86.1961 116.46 87.907 117.437 88.6159C116.244 89.5332 113.055 87.7369 110.86 87.8046C106.861 87.9281 107.24 89.2072 105.435 89.1638C103.744 89.1233 101.943 89.0804 100.293 88.9659C99.0183 88.8775 97.2273 88.4039 96.0169 88.8701C95.2811 91.1145 95.7455 93.973 94.7345 96.1595C94.6878 96.1967 94.6853 96.1929 94.727 96.1505C95.0652 96.1132 95.401 95.9437 95.7392 95.9976C100.048 96.6939 104.412 96.7774 108.91 97.3426C114.705 98.071 120.719 99.7346 126.657 98.9638C128.953 98.6645 131.114 97.6368 131.379 94.9198C131.558 93.0661 130.999 91.2686 130.133 89.8015C127.962 86.1223 126.585 82.1322 123.733 78.8942C123.733 78.8942 108.938 78.8786 108.516 83.0909" fill="#FDBCA0" />
	<path d="M104.293 55.6736C99.3831 57.6198 95.9589 62.4307 95.8554 67.7655C95.7859 71.3867 97.0052 74.1064 98.6145 77.289C99.9965 80.0227 102.532 82.0715 103.792 84.7551C104.217 85.6623 104.14 86.3942 105.372 86.3926C105.859 86.3919 106.475 85.9608 106.978 85.8668C107.551 85.7598 108.127 85.8596 108.689 85.761C109.607 85.6001 110.512 85.4105 111.43 85.211C112.395 85.0018 122.718 80.9262 123.468 80.4843C124.382 79.9455 124.856 79.9905 124.393 78.9141C122.984 75.6398 117.653 73.128 119.24 69.0443C119.809 67.5809 120.262 67.658 119.001 66.6037C117.565 65.4022 116.802 63.4684 115.307 62.3895L104.293 55.6736" fill="#333333" />
	<path d="M92.5959 88.2285C91.6089 89.8699 91.0637 91.7827 91.9005 93.6341C92.3258 94.5784 93.1362 95.5431 93.9629 96.1173C94.2115 96.2895 94.7038 96.6851 94.9852 96.6941C95.2402 96.7031 95.6479 96.4089 95.9293 96.373C96.5402 96.2972 97.6446 96.7173 97.7342 95.8065C97.7999 95.1397 97.3127 94.2109 97.1713 93.5789C96.9479 92.5769 97.0792 91.6636 97.324 90.6715C97.454 90.1464 98.2934 88.8304 97.7544 88.4238C97.3366 88.1082 96.2663 88.3606 95.7097 88.2939C94.8388 88.1891 93.973 88.0292 93.0718 87.9346L92.5959 88.2285" fill="#EFFF45" />
	<path d="M123.428 34.4164L131.112 42.5841L144.799 34.4164C144.799 34.4164 147.146 29.5605 148.194 30.7796C149.243 32 149.551 31.7495 149.551 31.7495C149.551 31.7495 152.988 30.3519 153.287 32.2441V32.5948C153.287 32.5948 153.62 32.6963 153.654 32.9674C153.687 33.2384 153.537 33.5943 153.537 33.5943C153.537 33.5943 154.053 33.8139 153.986 34.1865C153.919 34.5603 153.703 34.7633 153.703 34.7633C153.703 34.7633 153.948 34.9495 153.992 35.2206C154.036 35.4917 153.886 36.1866 153.67 36.2534C153.453 36.3215 150.141 38.4219 147.346 38.0828C147.346 38.0828 131.446 51.8227 128.947 50.9445C128.041 50.6246 120.695 46.8414 120.695 46.8414L123.428 34.4164" fill="#FFBC8C" />
	<path d="M121.111 22.3962C120.317 21.3467 119.019 23.5087 117.461 23.1413C116.239 22.8535 114.811 21.619 113.675 21.5933L111.979 20.7776C110.05 20.6183 102.234 44.3544 102.278 48.0914C102.316 51.4421 100.963 54.4864 101.296 58.059C101.81 63.5801 118.066 70.3276 119.62 68.0373C119.542 67.4849 125.575 49.3902 126.524 41.8584C126.797 39.6951 127.323 30.6127 121.111 22.3962Z" fill="#FEE6C6" />
	<path d="M115.898 36.7409C114.586 40.0411 112.162 41.9758 109.855 41.0239C107.548 40.0732 106.956 36.1821 108.268 32.8831C109.582 29.5816 112.079 28.035 114.386 28.9856C116.693 29.9362 117.211 33.4407 115.898 36.7409Z" fill="#EAA978" />
	<path d="M114.074 17.6206C114.151 17.0721 114.362 16.5158 114.584 16.0071C114.652 15.853 114.677 15.7913 114.671 15.7913C114.657 15.7913 114.509 16.0572 114.32 16.3231C114.13 16.5878 113.9 16.8537 113.723 16.8537C113.633 16.8537 113.558 16.7869 113.509 16.6199C113.366 16.8383 113.265 16.9064 113.182 16.9064C113.116 16.9064 113.063 16.864 113.009 16.8229C112.954 16.7817 112.901 16.7394 112.836 16.7394C112.753 16.7394 112.652 16.8074 112.51 17.0258C112.528 15.9557 113.683 13.2207 113.702 12.1506C113.031 12.2393 112.362 12.3279 111.692 12.4178C111.662 11.4698 112.248 10.5898 113 10.0297C113.752 9.47091 114.657 9.17545 115.546 8.88898C114.435 8.84787 113.324 8.80675 112.215 8.76564C114.232 7.3821 116.542 6.44175 118.94 6.0281C117.816 5.84311 116.692 5.65684 115.568 5.47186C116.824 5.0338 118.151 4.81669 119.479 4.81669C121.027 4.81669 122.577 5.11344 124.015 5.70309C123.966 5.15841 123.916 4.61372 123.867 4.06904C124.614 4.20906 125.314 4.60344 125.825 5.1751C125.957 4.11785 125.764 3.02077 125.279 2.07529C126.422 2.70732 126.752 3.91103 126.727 5.13528C126.716 5.68639 126.835 5.89449 127.016 5.89449C127.194 5.89449 127.434 5.69409 127.673 5.42303C127.257 6.49313 126.432 7.62361 125.676 7.85613C124.614 8.18371 123.511 7.92678 122.683 8.89925C122.196 9.47091 122.058 10.2597 122.058 11.0266C122.058 11.1371 122.061 11.2463 122.066 11.3542C122.095 11.9592 122.181 12.5682 122.181 13.1719C122.181 13.4314 122.164 13.6896 122.122 13.9466C122.065 14.2883 121.892 14.6839 121.552 14.7199C121.535 14.7212 121.518 14.7225 121.502 14.7225C121.124 14.7225 120.904 14.2574 120.743 13.8913C120.415 13.1411 119.508 13.2953 118.835 12.8418C118.56 12.6568 118.384 12.5579 118.177 12.5579C118.042 12.5579 117.896 12.6003 117.699 12.6889C117.184 12.9227 116.924 12.5874 116.804 13.1488C116.552 14.3307 116.492 15.659 115.668 16.5312C115.223 17.0027 114.675 17.3907 114.074 17.6206" fill="#2E2E2E" />
	<path d="M111.337 28.6777C115.881 28.5826 116.631 34.7989 115.35 37.9951C114.141 41.0088 107.961 39.3555 107.961 39.3555C107.961 39.3555 103.102 44.3669 99.1535 44.1459C99.1535 44.1459 103.779 56.1814 106.491 58.0761C106.491 58.0761 112.337 61.6513 110.572 64.4398C110.495 64.5606 110.311 64.5687 110.115 64.7265C109.984 64.833 109.724 65.302 109.583 65.4045C109.41 65.5305 108.962 65.5808 108.837 65.6724C108.622 65.8281 108.457 66.1458 108.258 66.2687C107.908 66.4835 107.524 66.3409 107.215 66.4642C106.825 66.6198 106.754 66.7743 106.421 66.8037C105.969 66.8434 105.834 66.5683 105.468 66.4223C104.217 65.9236 103.411 64.4942 102.662 63.1821C102.662 63.1821 101.791 59.6549 101.024 58.8939C101.024 58.8939 89.8918 45.9187 90.177 42.192C90.4623 38.4653 102.665 30.2167 111.337 28.6777Z" fill="#DBA16D" />
	<path d="M111.336 28.6777V28.6932C111.372 28.6932 111.406 28.6919 111.44 28.6919C113.029 28.6932 114.141 29.4781 114.856 30.633C115.573 31.7891 115.893 33.314 115.893 34.79C115.893 35.9578 115.693 37.0934 115.333 37.9888C114.763 39.416 113.063 39.7924 111.436 39.7924C110.545 39.7924 109.676 39.6793 109.031 39.5663C108.708 39.5098 108.441 39.4532 108.255 39.4108C108.068 39.3685 107.964 39.3402 107.964 39.3402L107.955 39.3376L107.949 39.3453C107.949 39.3453 107.875 39.4198 107.742 39.5509C106.799 40.4681 102.809 44.1383 99.4087 44.137C99.3229 44.137 99.2383 44.1357 99.1537 44.1306L99.1285 44.1293L99.1373 44.1524C99.1386 44.1524 100.295 47.161 101.79 50.4073C103.286 53.6542 105.119 57.1359 106.481 58.0894L106.482 58.0897V58.0899C106.482 58.09 106.55 58.1319 106.671 58.2107C107.093 58.486 108.148 59.2093 109.097 60.1404C110.046 61.0714 110.888 62.2106 110.887 63.3119C110.887 63.6919 110.787 64.0678 110.557 64.4311C110.522 64.4865 110.461 64.5179 110.381 64.5547C110.301 64.5914 110.204 64.6336 110.106 64.714C110.035 64.7708 109.938 64.9143 109.839 65.0579C109.74 65.2009 109.639 65.344 109.573 65.3915C109.49 65.4519 109.336 65.4964 109.187 65.5359C109.038 65.576 108.895 65.6103 108.826 65.6593C108.609 65.8189 108.442 66.1366 108.248 66.255C107.907 66.4664 107.526 66.3244 107.208 66.4494C107.011 66.5276 106.895 66.6061 106.787 66.6674C106.68 66.7287 106.583 66.7731 106.419 66.7878C106.388 66.7903 106.361 66.7916 106.334 66.7916C106.145 66.7915 106.017 66.7311 105.892 66.6525C105.767 66.574 105.646 66.4766 105.473 66.4074C104.229 65.9124 103.422 64.4866 102.675 63.1741L102.661 63.1822L102.676 63.1783C102.676 63.1781 102.458 62.296 102.145 61.3184C101.831 60.3406 101.422 59.2688 101.033 58.8824L101.023 58.894L101.034 58.8834C101.034 58.8832 100.991 58.834 100.912 58.7404C100.316 58.0385 97.6341 54.8511 95.1009 51.3816C93.835 49.6468 92.6056 47.8419 91.6931 46.2425C90.7805 44.6419 90.1861 43.2468 90.1873 42.3372C90.1873 42.2884 90.1886 42.2396 90.1924 42.1934C90.2618 41.2697 91.0759 40.0557 92.3948 38.7364C96.3492 34.7746 104.84 29.8468 111.339 28.6932L111.336 28.6777V28.6932V28.6777L111.334 28.6623C106.994 29.4318 101.774 31.8803 97.6025 34.6012C95.5162 35.9616 93.6923 37.3914 92.3721 38.7133C91.0519 40.0365 90.2327 41.2504 90.1608 42.1908C90.157 42.2383 90.1558 42.2871 90.1558 42.3372C90.1558 43.3213 90.8348 44.8448 91.8534 46.5804C94.9066 51.7889 101.01 58.9041 101.01 58.9045L101.012 58.905V58.9054C101.39 59.2801 101.802 60.3525 102.115 61.3285C102.271 61.8166 102.404 62.2811 102.497 62.6235C102.592 62.9659 102.646 63.1855 102.646 63.1862V63.1883L102.647 63.1903C103.396 64.502 104.202 65.9349 105.461 66.4373C105.63 66.5045 105.749 66.5997 105.876 66.6797C106.002 66.7598 106.139 66.8239 106.334 66.8237C106.362 66.8237 106.391 66.8225 106.421 66.8198C106.59 66.805 106.695 66.7576 106.804 66.6954C106.912 66.6331 107.026 66.5565 107.219 66.4792C107.519 66.3574 107.907 66.5008 108.264 66.2825C108.47 66.155 108.635 65.8374 108.845 65.6856C108.903 65.643 109.045 65.6064 109.194 65.567C109.344 65.5269 109.5 65.4835 109.591 65.4177C109.665 65.3627 109.765 65.22 109.864 65.0764C109.963 64.9331 110.063 64.7889 110.124 64.7392C110.22 64.6617 110.314 64.6208 110.393 64.584C110.474 64.547 110.542 64.514 110.584 64.4484C110.817 64.0803 110.918 63.6977 110.918 63.3119C110.917 62.0339 109.81 60.7239 108.707 59.7308C107.603 58.7377 106.498 58.0627 106.498 58.0624L106.489 58.0762L106.5 58.0629C105.15 57.1216 103.313 53.6385 101.818 50.3944C101.071 48.772 100.408 47.2086 99.9325 46.0498C99.6939 45.4717 99.5034 44.9939 99.3708 44.6611C99.2396 44.3284 99.1676 44.1409 99.1676 44.1409L99.1525 44.146L99.1512 44.1627C99.237 44.1678 99.3229 44.1691 99.4087 44.1691C103.319 44.1678 107.969 39.3672 107.971 39.3672L107.96 39.3556L107.956 39.371C107.956 39.3723 109.647 39.8245 111.436 39.8245C113.065 39.8245 114.781 39.4494 115.362 38.0016C115.725 37.0998 115.924 35.9616 115.924 34.79C115.924 33.3101 115.605 31.7789 114.884 30.6163C114.163 29.4537 113.04 28.6598 111.44 28.661C111.406 28.6598 111.37 28.661 111.336 28.661H111.335L111.334 28.6623L111.336 28.6777" fill="#FEE6C6" />
	<path d="M125.939 7.45942C127.533 8.09402 128.096 10.1777 128.459 11.6782C128.606 12.2871 128.754 12.8921 128.624 13.5113C128.475 14.2179 128.26 14.706 128.613 15.4473C128.987 16.2373 130.458 17.3228 129.834 18.3865C129.569 18.8387 128.759 18.8425 128.579 19.3076C128.479 19.5671 128.688 19.8111 128.648 20.0514C128.594 20.3687 128.377 20.4522 128.185 20.6526C128.635 21.3155 127.72 21.6919 127.379 22.1209C126.974 22.6309 127.065 23.4595 126.721 24.0427C125.866 25.4854 124.256 24.5784 123.108 24.0748C122.651 23.8744 121.62 23.2591 121.122 23.543C120.858 23.6933 124.128 27.4072 120.966 28.7496C116.999 30.4312 111.889 21.6302 111.406 21.1819C111.63 20.6808 111.909 19.9409 112.087 19.427C112.269 18.9055 112.226 18.3518 112.313 17.82C112.711 17.7365 112.983 17.9099 113.361 17.6851C113.719 17.4705 114.027 17.1931 114.378 16.9721C115.128 16.5007 115.261 15.753 115.506 14.9707C115.865 13.8312 116.011 11.1373 117.902 11.6602C118.705 11.8811 119.483 12.1907 120.075 12.8382C120.28 13.0617 120.523 13.3045 120.718 13.5447C120.918 13.7927 120.975 14.1151 121.163 14.3643C121.469 14.769 121.611 14.4889 121.585 14.0444C121.544 13.379 121.335 12.8754 121.567 12.2318C121.89 11.3339 122.115 10.7622 122.077 9.79617C122.057 9.27589 122.231 8.86353 122.347 8.38179C122.486 7.80756 122.762 7.42987 123.385 7.29499C123.965 7.16781 124.605 7.04191 125.2 7.08045C125.759 7.11514 125.929 7.17551 126.231 7.64569" fill="#DBA16D" />
	<path d="M82.1394 134.839C82.5483 134.017 83.004 133.251 83.4117 132.46C83.6704 131.955 83.8219 130.848 84.2611 130.563C84.8266 130.195 85.7341 131.463 86.1695 131.775C86.9924 132.362 87.7838 132.813 88.7835 132.958C89.4133 133.05 90.4407 132.919 91.0288 133.219C91.8328 133.63 91.0528 134.53 90.9039 135.137C90.8357 135.417 90.9607 135.911 90.861 136.149C90.7524 136.414 90.2135 136.74 89.9661 136.915C89.1432 137.496 87.9694 137.922 86.9508 137.99C84.9528 138.124 83.3927 136.922 82.2391 135.397" fill="#EFFF45" />
	<path d="M89.0994 88.1112L88.4052 86.6201C87.73 86.438 86.9487 86.2683 86.2419 86.4106C85.3432 86.5922 85.9112 87.572 85.8973 88.2634C85.8531 90.294 85.5969 92.2731 85.4669 94.2772C85.3369 96.2735 85.4467 98.3302 85.2258 100.32C85.058 101.826 84.8611 103.65 85.1627 105.117C85.4114 106.323 85.9503 107.515 86.4968 108.597C86.7455 109.089 86.9096 109.566 87.4258 109.658C87.9572 109.753 88.3497 109.501 88.4582 108.953C87.5116 108.24 87.5545 106.725 87.4624 105.66C87.3299 104.119 87.0143 102.658 87.1317 101.095C87.3059 98.7862 88.3434 96.6769 88.8962 94.4519C89.2206 93.1493 89.362 91.794 89.2761 90.4527C89.2256 89.6623 89.0843 88.9048 89.0994 88.1112" fill="#02BA92" />
	<path d="M93.1781 87.3668C93.7398 87.6344 93.3422 88.2014 93.1175 88.5268C92.807 88.9743 92.5559 89.3367 92.3438 89.8477C91.8642 91.0008 91.7771 92.1571 92.1608 93.3518C92.4902 94.3782 93.5997 95.3404 94.5261 95.8864C95.2127 96.2897 96.1152 97.0078 95.0246 97.9443C92.9269 99.7467 90.6411 101.25 89.4951 103.874C89.1013 104.777 88.8918 105.626 88.8615 106.605C88.8362 107.445 88.8148 108.55 88.4147 109.294C86.938 109.557 86.6805 104.848 86.5012 103.913C86.274 102.736 86.1289 101.387 86.3788 100.204C86.6704 98.8217 87.1412 97.514 87.4087 96.124C87.9123 93.5008 88.5409 90.7129 88.0588 88.0586C87.8795 87.0748 87.6763 86.4622 88.8779 86.4275C89.7034 86.4036 90.5541 86.547 91.3265 86.7283C91.979 86.8822 92.7035 87.4145 93.3245 87.3698" fill="#00476D" />
	<path d="M152.681 34.4287C152.681 34.4287 151.139 35.0312 150.904 35.1571C150.339 35.4589 150.089 34.2822 150.537 33.9071C150.869 33.6309 152.452 32.7509 152.452 32.7509" fill="#DBA16D" />
	<path d="M152.682 34.4291C152.458 34.5318 152.232 34.6282 152.009 34.7284L151.335 35.0213L151.002 35.1716L150.921 35.2114C150.891 35.2268 150.859 35.241 150.825 35.25C150.758 35.2679 150.681 35.2692 150.612 35.2435C150.47 35.1922 150.386 35.0675 150.333 34.9481C150.279 34.826 150.253 34.695 150.246 34.564C150.239 34.4329 150.256 34.3006 150.297 34.1734C150.339 34.0488 150.415 33.9242 150.523 33.8446C150.728 33.693 150.937 33.5684 151.151 33.4451C151.579 33.1997 152.01 32.9672 152.452 32.7514L151.201 33.5311C150.998 33.666 150.782 33.7906 150.595 33.9371C150.416 34.0732 150.361 34.3276 150.371 34.5588C150.376 34.6757 150.397 34.7939 150.443 34.8992C150.487 35.0033 150.556 35.0997 150.65 35.1343C150.696 35.151 150.747 35.1523 150.797 35.1395C150.823 35.1331 150.847 35.1228 150.872 35.1112L150.956 35.0714C151.07 35.02 151.185 34.975 151.298 34.9314C151.757 34.7528 152.216 34.5845 152.682 34.4291" fill="#9C6F5E" />
	<path d="M152.914 35.657C152.914 35.657 151.479 36.1027 151.261 36.1965C150.734 36.4188 150.502 35.5478 150.919 35.2716C151.228 35.066 152.701 34.416 152.701 34.416" fill="#DBA16D" />
	<path d="M152.915 35.6575C152.717 35.7346 152.515 35.804 152.315 35.8785L151.715 36.0918L151.415 36.1997C151.364 36.2176 151.318 36.2356 151.268 36.2562C151.213 36.2793 151.153 36.2934 151.091 36.2934C150.965 36.2947 150.844 36.2215 150.772 36.1252C150.699 36.0275 150.659 35.9106 150.646 35.7937C150.634 35.6768 150.651 35.5548 150.7 35.4443C150.744 35.3338 150.844 35.2375 150.941 35.1887C151.133 35.082 151.323 34.9921 151.519 34.9048C151.909 34.73 152.301 34.5656 152.702 34.4166L152.131 34.7069L151.561 34.9934C151.373 35.0923 151.179 35.1861 151.001 35.2927C150.823 35.3814 150.75 35.5843 150.772 35.7809C150.782 35.8772 150.813 35.9736 150.869 36.0481C150.924 36.1226 151.005 36.1701 151.092 36.1714C151.136 36.1727 151.182 36.165 151.226 36.147C151.275 36.129 151.33 36.1097 151.379 36.093C151.48 36.0584 151.582 36.0275 151.684 35.998C152.092 35.8747 152.501 35.759 152.915 35.6575" fill="#9C6F5E" />
	<path d="M153.096 36.5736C153.096 36.5736 151.775 36.8998 151.573 36.9692C151.09 37.1324 150.875 36.4939 151.259 36.2909C151.544 36.1406 152.9 35.664 152.9 35.664" fill="#DBA16D" />
	<path d="M153.098 36.5735C152.921 36.6326 152.742 36.684 152.564 36.7392L152.03 36.8947L151.762 36.9731C151.67 36.9962 151.596 37.0309 151.487 37.0514C151.384 37.0681 151.267 37.045 151.179 36.9795C151.09 36.914 151.029 36.8138 151.009 36.7071C150.989 36.5992 151.006 36.4823 151.066 36.3885C151.122 36.2922 151.227 36.2331 151.312 36.1997C151.486 36.1265 151.66 36.061 151.837 36.0006C152.188 35.8773 152.541 35.7629 152.901 35.664C152.559 35.8117 152.213 35.9505 151.87 36.0918C151.699 36.1637 151.525 36.2318 151.36 36.3089C151.275 36.3487 151.209 36.3873 151.169 36.4553C151.129 36.5209 151.116 36.6044 151.132 36.6814C151.148 36.7598 151.189 36.8317 151.251 36.878C151.313 36.9229 151.391 36.9409 151.472 36.9307C151.546 36.9204 151.645 36.8831 151.733 36.8639C151.824 36.8395 151.914 36.8189 152.005 36.7983L152.55 36.6776C152.732 36.6429 152.913 36.6044 153.098 36.5735" fill="#9C6F5E" />
	<path d="M152.452 32.7514C152.452 32.7514 150.509 33.7161 150.273 33.842C149.709 34.1426 149.457 32.9659 149.905 32.5921C150.239 32.3146 151.898 31.5001 151.898 31.5001" fill="#DBA16D" />
	<path d="M152.452 32.7511C151.984 33.0145 151.509 33.2662 151.035 33.5142C150.799 33.6414 150.558 33.7595 150.319 33.8829C150.258 33.915 150.184 33.9484 150.103 33.9484C150.024 33.9522 149.942 33.924 149.88 33.8764C149.755 33.7788 149.69 33.6375 149.653 33.5001C149.616 33.36 149.606 33.2162 149.621 33.0723C149.636 32.9297 149.678 32.7858 149.764 32.6637C149.805 32.6034 149.863 32.5481 149.92 32.5096C149.977 32.4685 150.034 32.4325 150.092 32.3965C150.208 32.3246 150.327 32.2604 150.445 32.1974C150.921 31.9456 151.406 31.7144 151.898 31.4999L151.194 31.8904C150.958 32.0189 150.723 32.1499 150.492 32.2848C150.377 32.3529 150.262 32.421 150.15 32.4916C150.039 32.5648 149.921 32.6304 149.857 32.7306C149.722 32.9374 149.709 33.2238 149.774 33.4666C149.805 33.5887 149.862 33.7082 149.952 33.7775C150.041 33.8495 150.156 33.8418 150.266 33.7788C150.507 33.6619 150.747 33.5399 150.99 33.4268C151.475 33.1969 151.961 32.9669 152.452 32.7511" fill="#9C6F5E" />
	<path d="M149.265 31.7214C149.265 31.7214 150.992 32.7131 150.425 33.4248C149.86 34.1365 148.362 33.0857 147.963 32.9161" fill="#DBA16D" />
	<path d="M149.265 31.7209C149.634 31.9136 149.982 32.1512 150.276 32.4595C150.419 32.6163 150.554 32.7987 150.592 33.0299C150.611 33.1442 150.589 33.2701 150.534 33.3729C150.477 33.4744 150.396 33.5592 150.299 33.6208C150.1 33.7416 149.865 33.7454 149.657 33.7133C149.446 33.6761 149.245 33.608 149.053 33.5219C148.863 33.4371 148.679 33.3382 148.498 33.2354C148.318 33.1301 148.145 33.0158 147.963 32.9156C148.347 33.0762 148.706 33.2868 149.09 33.4307C149.282 33.5014 149.476 33.5656 149.674 33.5926C149.869 33.6196 150.074 33.6118 150.234 33.5104C150.312 33.4628 150.38 33.3922 150.425 33.3125C150.471 33.2316 150.486 33.1391 150.475 33.0466C150.451 32.8565 150.331 32.6831 150.204 32.525C150.073 32.3683 149.921 32.2283 149.761 32.096C149.604 31.9624 149.437 31.8391 149.265 31.7209" fill="#9C6F5E" />
	<path d="M19.2325 168.068C19.0073 168.038 18.7821 167.989 18.5701 167.912C18.5702 167.912 18.5702 167.912 18.5703 167.912C18.7854 167.985 19.009 168.038 19.2336 168.065C19.2332 168.067 19.2328 168.067 19.2325 168.068" fill="#D0BBA6" />
	<path d="M37.1876 185.31V176.072H33.5548V174.349H42.8559V176.072H39.2231V185.31H37.1876ZM43.6837 185.31V176.949H45.547V179.25L45.3278 178.577C45.5783 178.013 45.9698 177.585 46.5022 177.293C47.045 177.001 47.7183 176.855 48.5221 176.855V178.718C48.4386 178.697 48.3603 178.687 48.2872 178.687C48.2141 178.676 48.1411 178.671 48.068 178.671C47.3268 178.671 46.737 178.89 46.2986 179.329C45.8602 179.757 45.641 180.399 45.641 181.255V185.31H43.6837ZM53.7231 185.42C52.794 185.42 51.9798 185.237 51.2804 184.872C50.5914 184.496 50.0538 183.984 49.6676 183.337C49.2918 182.69 49.1039 181.954 49.1039 181.129C49.1039 180.294 49.2866 179.558 49.6519 178.921C50.0277 178.274 50.5392 177.768 51.1865 177.403C51.8441 177.037 52.5905 176.855 53.4256 176.855C54.2398 176.855 54.9653 177.032 55.6021 177.387C56.2389 177.742 56.7399 178.243 57.1053 178.89C57.4707 179.537 57.6533 180.299 57.6533 181.176C57.6533 181.26 57.6481 181.354 57.6377 181.458C57.6377 181.563 57.6325 181.662 57.622 181.756H50.6541V180.456H56.5886L55.8213 180.863C55.8318 180.383 55.7326 179.96 55.5238 179.595C55.315 179.229 55.028 178.942 54.6626 178.734C54.3077 178.525 53.8953 178.42 53.4256 178.42C52.9454 178.42 52.5226 178.525 52.1573 178.734C51.8023 178.942 51.5205 179.235 51.3117 179.61C51.1134 179.976 51.0142 180.409 51.0142 180.91V181.223C51.0142 181.724 51.129 182.168 51.3587 182.554C51.5883 182.94 51.912 183.238 52.3295 183.447C52.7471 183.655 53.2273 183.76 53.7701 183.76C54.2398 183.76 54.6626 183.687 55.0384 183.541C55.4142 183.395 55.7482 183.165 56.0405 182.852L57.0896 184.057C56.7138 184.496 56.2389 184.835 55.6647 185.075C55.101 185.305 54.4538 185.42 53.7231 185.42ZM60.8174 183.447L60.8644 180.988L65.2331 176.949H67.5818L63.8708 180.675L62.8373 181.536L60.8174 183.447ZM59.2203 185.31V173.692H61.1776V185.31H59.2203ZM65.5306 185.31L62.4772 181.536L63.7142 179.971L67.9106 185.31H65.5306ZM70.4589 183.447L70.5059 180.988L74.8745 176.949H77.2233L73.5123 180.675L72.4788 181.536L70.4589 183.447ZM68.8618 185.31V173.692H70.819V185.31H68.8618ZM75.1721 185.31L72.1187 181.536L73.3557 179.971L77.5521 185.31H75.1721ZM78.5032 185.31V176.949H80.4605V185.31H78.5032ZM79.4897 175.571C79.1243 175.571 78.8216 175.456 78.5815 175.226C78.3519 174.996 78.237 174.72 78.237 174.396C78.237 174.062 78.3519 173.786 78.5815 173.566C78.8216 173.337 79.1243 173.222 79.4897 173.222C79.8551 173.222 80.1526 173.331 80.3822 173.551C80.6223 173.759 80.7424 174.026 80.7424 174.349C80.7424 174.694 80.6275 174.986 80.3979 175.226C80.1682 175.456 79.8655 175.571 79.4897 175.571ZM87.4608 176.855C88.1289 176.855 88.7239 176.985 89.2458 177.246C89.7782 177.507 90.1958 177.909 90.4985 178.452C90.8012 178.984 90.9526 179.673 90.9526 180.519V185.31H88.9953V180.769C88.9953 180.028 88.8178 179.475 88.4629 179.109C88.1184 178.744 87.633 178.561 87.0067 178.561C86.5474 178.561 86.1403 178.655 85.7853 178.843C85.4304 179.031 85.1538 179.313 84.9554 179.689C84.7675 180.054 84.6736 180.519 84.6736 181.082V185.31H82.7163V176.949H84.5796V179.203L84.2508 178.514C84.5431 177.982 84.9659 177.575 85.5191 177.293C86.0828 177.001 86.73 176.855 87.4608 176.855ZM96.927 188.457C96.1545 188.457 95.3977 188.353 94.6565 188.144C93.9258 187.946 93.3255 187.654 92.8558 187.267L93.7327 185.795C94.098 186.098 94.5573 186.338 95.1106 186.516C95.6743 186.704 96.2432 186.798 96.8173 186.798C97.736 186.798 98.4093 186.584 98.8373 186.156C99.2653 185.738 99.4793 185.107 99.4793 184.261V182.773L99.6358 180.879L99.5732 178.984V176.949H101.437V184.042C101.437 185.555 101.05 186.667 100.278 187.377C99.5054 188.097 98.3884 188.457 96.927 188.457ZM96.6764 184.934C95.8831 184.934 95.1628 184.767 94.5156 184.433C93.8788 184.089 93.3725 183.614 92.9967 183.008C92.6314 182.403 92.4487 181.693 92.4487 180.879C92.4487 180.075 92.6314 179.37 92.9967 178.765C93.3725 178.159 93.8788 177.69 94.5156 177.356C95.1628 177.022 95.8831 176.855 96.6764 176.855C97.3863 176.855 98.023 176.995 98.5867 177.277C99.1504 177.559 99.5993 177.998 99.9334 178.593C100.278 179.188 100.45 179.95 100.45 180.879C100.45 181.808 100.278 182.575 99.9334 183.181C99.5993 183.776 99.1504 184.219 98.5867 184.511C98.023 184.793 97.3863 184.934 96.6764 184.934ZM96.9739 183.274C97.4646 183.274 97.903 183.175 98.2892 182.977C98.6755 182.768 98.973 182.486 99.1818 182.131C99.401 181.766 99.5106 181.349 99.5106 180.879C99.5106 180.409 99.401 179.997 99.1818 179.642C98.973 179.276 98.6755 179 98.2892 178.812C97.903 178.614 97.4646 178.514 96.9739 178.514C96.4833 178.514 96.0397 178.614 95.643 178.812C95.2567 179 94.954 179.276 94.7348 179.642C94.526 179.997 94.4216 180.409 94.4216 180.879C94.4216 181.349 94.526 181.766 94.7348 182.131C94.954 182.486 95.2567 182.768 95.643 182.977C96.0397 183.175 96.4833 183.274 96.9739 183.274Z" fill="black" />
</svg>
