<svg width="157" height="219" viewBox="0 0 157 219" fill="none" xmlns="http://www.w3.org/2000/svg">
	<rect x="0.5896" y="0.946777" width="155.539" height="218.053" rx="31.3166" fill="white" />
	<path d="M54.2583 205.157C53.4232 205.157 52.6455 205.021 51.9253 204.749C51.2154 204.468 50.5943 204.076 50.0619 203.575C49.54 203.064 49.1329 202.463 48.8406 201.774C48.5483 201.085 48.4021 200.334 48.4021 199.52C48.4021 198.705 48.5483 197.954 48.8406 197.265C49.1329 196.576 49.5452 195.981 50.0776 195.48C50.61 194.968 51.2311 194.577 51.9409 194.305C52.6508 194.024 53.4285 193.883 54.274 193.883C55.1717 193.883 55.9912 194.039 56.7324 194.352C57.4735 194.655 58.0998 195.109 58.6114 195.715L57.2961 196.952C56.8994 196.524 56.4557 196.205 55.9651 195.996C55.4745 195.777 54.9421 195.668 54.368 195.668C53.7938 195.668 53.2666 195.762 52.7865 195.949C52.3167 196.137 51.9044 196.404 51.5495 196.748C51.205 197.093 50.9336 197.5 50.7352 197.969C50.5473 198.439 50.4534 198.956 50.4534 199.52C50.4534 200.083 50.5473 200.6 50.7352 201.07C50.9336 201.54 51.205 201.947 51.5495 202.291C51.9044 202.636 52.3167 202.902 52.7865 203.09C53.2666 203.278 53.7938 203.372 54.368 203.372C54.9421 203.372 55.4745 203.267 55.9651 203.058C56.4557 202.839 56.8994 202.51 57.2961 202.072L58.6114 203.325C58.0998 203.92 57.4735 204.374 56.7324 204.687C55.9912 205 55.1665 205.157 54.2583 205.157ZM63.3701 205.11C62.6603 205.11 62.034 204.979 61.4911 204.718C60.9483 204.447 60.5255 204.04 60.2228 203.497C59.9201 202.944 59.7687 202.249 59.7687 201.414V196.638H61.726V201.148C61.726 201.9 61.893 202.463 62.2271 202.839C62.5716 203.205 63.057 203.387 63.6833 203.387C64.1426 203.387 64.5393 203.293 64.8733 203.105C65.2178 202.917 65.484 202.636 65.6719 202.26C65.8702 201.884 65.9694 201.419 65.9694 200.866V196.638H67.9267V205H66.0634V202.745L66.3922 203.434C66.1103 203.977 65.698 204.395 65.1552 204.687C64.6124 204.969 64.0173 205.11 63.3701 205.11ZM70.1762 205V193.382H72.1335V205H70.1762ZM77.9495 205.11C77.0309 205.11 76.321 204.875 75.82 204.405C75.3189 203.925 75.0684 203.22 75.0684 202.291V194.791H77.0257V202.244C77.0257 202.641 77.1248 202.949 77.3232 203.168C77.5319 203.387 77.819 203.497 78.1844 203.497C78.6228 203.497 78.9882 203.382 79.2805 203.152L79.8285 204.546C79.5988 204.734 79.317 204.875 78.9829 204.969C78.6489 205.063 78.3044 205.11 77.9495 205.11ZM73.6904 198.267V196.701H79.2648V198.267H73.6904ZM84.6642 205.11C83.9544 205.11 83.328 204.979 82.7852 204.718C82.2424 204.447 81.8196 204.04 81.5169 203.497C81.2142 202.944 81.0628 202.249 81.0628 201.414V196.638H83.0201V201.148C83.0201 201.9 83.1871 202.463 83.5212 202.839C83.8656 203.205 84.3511 203.387 84.9774 203.387C85.4367 203.387 85.8334 203.293 86.1674 203.105C86.5119 202.917 86.7781 202.636 86.966 202.26C87.1643 201.884 87.2635 201.419 87.2635 200.866V196.638H89.2208V205H87.3575V202.745L87.6863 203.434C87.4044 203.977 86.9921 204.395 86.4493 204.687C85.9064 204.969 85.3114 205.11 84.6642 205.11ZM91.4703 205V196.638H93.3337V198.94L93.1145 198.267C93.365 197.703 93.7564 197.275 94.2888 196.983C94.8316 196.691 95.505 196.545 96.3087 196.545V198.408C96.2252 198.387 96.1469 198.377 96.0739 198.377C96.0008 198.366 95.9277 198.361 95.8547 198.361C95.1135 198.361 94.5237 198.58 94.0853 199.019C93.6468 199.447 93.4276 200.089 93.4276 200.944V205H91.4703ZM102.211 205V203.309L102.102 202.949V199.989C102.102 199.415 101.929 198.972 101.585 198.658C101.24 198.335 100.718 198.173 100.019 198.173C99.5493 198.173 99.0848 198.246 98.6254 198.392C98.1766 198.538 97.7955 198.742 97.4824 199.003L96.7151 197.578C97.164 197.233 97.6964 196.978 98.3123 196.811C98.9386 196.633 99.5858 196.545 100.254 196.545C101.465 196.545 102.399 196.837 103.057 197.421C103.725 197.996 104.059 198.888 104.059 200.099V205H102.211ZM99.5806 205.11C98.9543 205.11 98.4062 205.005 97.9365 204.796C97.4667 204.577 97.1014 204.28 96.8404 203.904C96.5899 203.518 96.4646 203.084 96.4646 202.604C96.4646 202.135 96.5742 201.712 96.7934 201.336C97.0231 200.96 97.3937 200.663 97.9052 200.443C98.4167 200.224 99.0952 200.115 99.9407 200.115H102.368V201.414H100.082C99.4136 201.414 98.9647 201.524 98.735 201.743C98.5054 201.952 98.3906 202.213 98.3906 202.526C98.3906 202.881 98.5315 203.163 98.8133 203.372C99.0952 203.58 99.4866 203.685 99.9877 203.685C100.468 203.685 100.896 203.575 101.272 203.356C101.658 203.137 101.935 202.813 102.102 202.385L102.43 203.559C102.243 204.05 101.903 204.431 101.413 204.702C100.932 204.974 100.322 205.11 99.5806 205.11Z" fill="black" />
	<path d="M53.2893 149.277C54.7072 148.804 56.1598 148.428 57.6359 148.155L57.8145 148.772C57.8344 148.845 57.8815 148.908 57.947 148.951C58.0128 148.994 58.0924 149.012 58.1717 149.004L64.0152 148.363C65.6229 144.908 68.5745 139.674 68.617 139.594C68.5745 138.288 68.617 137.19 68.617 135.939C65.2741 137.11 59.0904 139.33 55.8581 140.749C55.7849 140.793 55.7285 140.858 55.6965 140.934C55.6645 141.01 55.6584 141.094 55.6795 141.173C55.6795 141.173 55.739 141.374 55.8156 141.662C54.2334 141.662 49.4956 141.446 48.3558 142.464C48.1785 142.696 48.0915 142.979 48.1091 143.265C48.0411 144.371 48.628 152.964 49.5636 155.488C50.0485 156.811 51.0692 156.667 51.7667 155.4C52.574 153.493 53.0923 151.488 53.3063 149.445C53.3063 149.341 53.2808 149.349 53.2893 149.277ZM52.3111 142.103C53.3488 142.023 53.672 142.039 55.9006 141.975C56.3004 143.402 57.1255 146.335 57.5508 147.834C56.05 148.053 54.5687 148.377 53.1192 148.804C52.6674 146.593 52.3972 144.353 52.3111 142.103Z" fill="black" />
	<path d="M131.579 71.9547C131.791 71.6741 131.519 71.3135 131.289 71.0329C131.94 70.4025 132.662 69.8407 133.441 69.3577C134.758 68.7397 135.961 67.9281 137.005 66.9532C137.439 66.5284 138.256 65.6547 137.95 65.1418C137.643 64.6288 137.099 64.5967 136.359 64.8933C136.679 64.5762 136.942 64.2102 137.133 63.8112C137.371 63.1861 136.81 62.6811 135.594 63.146C136.036 62.4807 136.138 61.7834 135.389 61.4468C134.785 61.1742 133.901 61.8235 133.39 62.2483C132.388 63.0734 131.448 63.9625 130.575 64.9093C130.039 63.8513 129.188 62.633 128.125 63.0177C127.062 63.4025 127.887 65.1257 128.431 66.0635L126.501 67.3219C126.209 67.1734 125.879 67.1042 125.548 67.1215C123.353 67.4742 113.274 74.7039 112.253 74.7039C111.47 74.7039 100.293 69.6543 90.6306 68.1955C90.6122 68.1409 90.5774 68.0925 90.5307 68.0556C90.4838 68.0188 90.4272 67.995 90.3669 67.9872C88.6813 67.7161 86.973 67.5954 85.2633 67.6265C85.2116 67.6298 85.1612 67.6437 85.1159 67.6671C85.0698 67.6907 85.0309 67.7234 84.9996 67.7627H84.2851C84.115 67.1135 83.4855 65.6147 83.2644 65.0376C83.8428 64.5647 84.6424 64.3242 85.0592 63.5628C85.8247 62.1521 85.7907 59.6994 85.578 58.1285C86.5392 57.4392 86.5647 56.3331 86.3436 55.2029C86.2585 54.7461 85.9948 53.7121 85.5865 53.4556C85.3569 53.3113 84.872 53.4556 84.4552 53.5999C84.0384 52.6862 84.0384 53.1029 84.2085 52.7342C84.288 52.5643 84.334 52.3825 84.3446 52.1972C84.7955 52.3255 85.7311 51.4759 85.4079 50.3537C85.2386 49.9521 85.0309 49.5658 84.787 49.1995C84.906 48.927 85.1612 48.5984 84.3617 47.5965C84.0172 47.2465 83.57 47.0009 83.0772 46.8912H82.686C82.4039 46.5051 81.9892 46.2221 81.5121 46.0897C80.7921 45.9165 80.0279 46.0174 79.3856 46.3702C79.2155 46.4904 79.0794 46.6507 78.9093 46.7629C78.5244 46.5429 78.0836 46.4266 77.6334 46.4266C77.1833 46.4266 76.7424 46.5429 76.3575 46.7629C76.1321 46.8461 75.9272 46.9715 75.7549 47.1312C75.5828 47.2911 75.4459 47.482 75.3538 47.6927C74.937 47.5572 74.4947 47.505 74.0553 47.5395C73.6164 47.5741 73.1891 47.6944 72.802 47.8931C71.3326 48.6439 70.2331 49.9069 69.7398 51.4117C69.7263 51.6386 69.7263 51.8661 69.7398 52.093H69.6462C68.3703 51.9167 66.7457 54.7701 68.0471 56.9903C68.2002 57.2548 68.3958 57.5033 68.583 57.7918C69.1274 58.5934 68.9147 58.8338 70.1311 59.8117C70.4883 60.1002 70.5479 60.0762 70.769 60.2525C70.9902 60.4288 70.9051 60.3407 71.0327 60.7895C71.1021 61.0539 71.2269 61.3028 71.3992 61.5215C71.5715 61.7403 71.7884 61.9246 72.0364 62.0639C72.1272 62.848 72.4817 63.5839 73.0486 64.1639C73.228 64.3534 73.4377 64.5154 73.6696 64.6448C73.7321 64.678 73.8021 64.6973 73.8737 64.7009C74.1289 66.1917 74.4436 68.1314 74.5797 68.957L73.8227 69.3417C72.8324 69.7173 71.8692 70.1537 70.9391 70.6482C70.8661 70.6958 70.8145 70.7671 70.7945 70.8486C69.8929 71.2974 69.0423 71.7222 68.5574 71.9947C61.8038 75.7699 42.6226 100.657 42.4269 101.795C42.4054 101.861 42.4054 101.93 42.4269 101.996C42.7019 102.409 43.0369 102.784 43.4221 103.11C43.3035 103.314 43.1608 103.504 42.9968 103.679C41.2956 104.729 38.744 106.292 37.3745 107.686C37.2783 107.767 37.2062 107.87 37.1654 107.985C37.1244 108.1 37.1159 108.223 37.1408 108.342C37.1657 108.46 37.2231 108.571 37.3074 108.664C37.3917 108.755 37.4998 108.825 37.621 108.865C37.8762 108.945 37.9189 108.921 39.5775 108.063C39.1216 108.44 38.7487 108.897 38.4803 109.41C38.3697 109.85 38.795 110.107 39.3309 110.027C39.6323 109.952 39.9193 109.833 40.1815 109.674C40.0279 109.897 39.9464 110.158 39.9464 110.424C39.9464 110.689 40.0279 110.95 40.1815 111.173C41.0321 112.183 43.2607 109.001 44.4345 108.215C44.9108 108.784 45.5571 110.115 46.5864 109.762C47.4795 109.45 46.5013 107.598 46.5864 107.061C46.9325 106.748 47.3021 106.459 47.6923 106.196C48.3483 106.654 49.0986 106.979 49.8952 107.149C51.2987 107.149 65.9461 93.219 67.0604 92.1049C66.6606 95.6476 64.6447 110.852 65.07 113.81C65.2656 115.149 68.6765 115.341 70.1141 115.413C69.6802 125.031 69.391 139.603 69.3145 139.755C67.0604 144.332 66.448 145.582 65.6909 146.969C64.3129 149.454 58.5118 158.623 57.8569 160.707C57.7633 161.035 57.7548 161.164 58.1205 161.773C57.0245 162.859 56.0072 164.013 55.0755 165.227C54.6077 166.029 56.615 173.499 58.0355 176.144C58.3587 176.737 58.8861 177.651 59.5921 177.628C61.7186 177.555 61.7101 170.357 61.6506 168.345C61.6502 168.283 61.6261 168.224 61.5825 168.177C61.9681 167.635 62.3884 167.116 62.8414 166.622C63.1119 166.798 63.3963 166.953 63.692 167.087C63.9812 167.207 64.3044 166.999 64.5426 166.814C67.3751 164.714 82.6519 146.776 85.9268 138.312C87.4153 134.449 89.3972 129.111 89.9586 125.328C90.3018 122.936 90.3337 120.513 90.0522 118.114C90.0522 118.08 90.0664 118.047 90.0919 118.023C90.1175 117.999 90.1521 117.986 90.1883 117.986C90.2245 117.986 90.2593 117.999 90.2848 118.023C90.3103 118.047 90.3244 118.08 90.3244 118.114C90.7505 120.527 90.8334 122.983 90.5711 125.416C89.9416 130.666 85.544 141.607 83.1963 145.63C85.2208 145.278 89.3377 144.508 91.3281 143.947C97.9628 142.047 104.087 136.381 104.623 130.017C104.797 127.018 104.797 124.014 104.623 121.016C104.566 116.876 103.995 112.758 102.922 108.744C104.725 107.823 106.375 106.741 106.911 105.747C108.059 103.623 105.023 91.3995 104.359 87.969C107.991 88.3457 114.175 89.027 117.059 86.903C120.359 84.4023 127.487 77.3649 131.579 71.9547ZM61.1912 167.904C59.6601 167.031 57.5166 164.955 57.1934 163.328C57.5421 162.911 57.9079 162.526 58.2481 162.093C59.4009 163.751 60.8383 165.217 62.5012 166.43C62.0341 166.897 61.5966 167.389 61.1912 167.904ZM128.814 66.2879C128.858 66.2616 128.89 66.2202 128.902 66.1725C128.915 66.1247 128.908 66.0743 128.882 66.0314C128.585 65.5105 127.691 63.675 128.312 63.4666C128.67 63.3383 128.984 63.5467 129.248 63.8273C129.651 64.3086 129.964 64.8506 130.175 65.4303C130.191 65.4774 130.22 65.5196 130.26 65.5524C130.299 65.5852 130.347 65.6072 130.398 65.6164C130.45 65.6254 130.503 65.6211 130.552 65.6039C130.601 65.5867 130.644 65.5571 130.677 65.5185C131.528 64.6288 133.518 62.6009 134.641 62.0559C135.491 61.6391 135.696 62.4086 133.612 64.204C133.133 64.5479 132.673 64.9144 132.234 65.3021C132.209 65.3335 132.196 65.3714 132.196 65.4103C132.196 65.4491 132.209 65.487 132.234 65.5185C132.234 65.7269 132.412 65.9593 132.718 65.7429C133.458 65.1313 134.24 64.5664 135.058 64.0517C135.475 63.7722 135.961 63.5957 136.47 63.5387C136.214 64.2761 133.841 66.2799 133.637 66.5043C133.573 66.5591 133.533 66.6355 133.527 66.7173C133.522 66.799 133.551 66.8796 133.607 66.9415C133.665 67.0035 133.745 67.0419 133.831 67.0486C133.919 67.0553 134.004 67.0297 134.071 66.9772C135.015 66.4001 136.665 65.0536 137.235 65.254C137.805 65.4544 136.112 66.9452 135.687 67.2978C133.246 69.2936 133.875 68.0112 131.051 70.7203C129.822 69.4515 128.411 68.3507 126.858 67.4501L128.814 66.2879ZM91.8555 104.625C91.7109 103.518 91.5322 102.324 91.3111 101.082L91.6768 100.625C93.3781 98.5651 93.8884 95.2869 93.7268 92.714C94.637 96.4731 95.36 100.168 95.9129 103.839L91.8555 104.625ZM79.207 77.1806C76.9699 75.5775 73.3719 72.8123 71.2794 70.9207L74.6818 69.3177C77.8064 72.0676 80.4807 75.2387 82.6179 78.7275C85.8864 84.3849 88.3106 90.44 89.8225 96.7216L77.6929 80.555L79.2751 77.4611C79.2964 77.4135 79.3006 77.3608 79.2885 77.3107C79.2764 77.2603 79.2481 77.215 79.207 77.1806ZM84.9571 68.0913C85.0081 68.1795 85.595 69.3577 86.4882 71.4177C86.4882 71.5058 86.3266 73.5096 86.25 74.215C85.1642 73.8095 84.1405 73.2705 83.2048 72.6119C83.392 71.9146 84.2341 68.7486 84.2936 68.0352L84.9571 68.0913ZM81.9374 76.6997C81.997 76.5554 82.0565 76.363 82.1246 76.1386L82.6945 76.4191C83.0177 76.6195 82.8901 76.0104 83.1793 77.7737C83.1793 78.0703 83.2644 78.3989 83.2814 78.7596C82.8901 78.0943 82.4053 77.3809 81.9459 76.6997H81.9374ZM81.4611 76.0264C79.8542 73.8786 78.0247 71.8865 76.0002 70.0791L82.4053 72.7001C82.1586 73.2531 81.8013 74.9443 81.4696 76.0264H81.4611ZM88.0022 80.7233C87.1516 78.5351 86.4967 76.0905 86.1734 75.4493C86.1926 75.2493 86.1926 75.0481 86.1734 74.8482C86.2969 74.8913 86.4251 74.9182 86.5562 74.9283C86.6385 74.9292 86.7178 74.9021 86.7803 74.8519C86.8433 74.802 86.8844 74.7323 86.8965 74.6558C86.9645 74.3913 87.0751 73.0527 87.0921 72.7562C89.5667 78.643 91.6322 84.6752 93.276 90.8144C88.4701 81.1801 89.2101 83.9694 88.0107 80.7233H88.0022ZM95.0367 96.0243C93.0974 87.2637 89.6864 76.339 85.8077 68.2436C87.2325 68.2444 88.6544 68.3516 90.0607 68.5642C90.7837 74.6558 90.1798 74.4474 90.6646 74.6878C91.1495 74.9283 94.067 76.0344 94.5008 76.2027C94.4583 76.8199 95.0707 94.4693 95.0452 96.0243H95.0367ZM85.2463 53.9686C85.69 54.8804 85.846 55.893 85.6971 56.8861C85.6277 57.139 85.4858 57.3686 85.286 57.5496C85.0861 57.7308 84.8374 57.8561 84.5666 57.9118C84.2965 57.9674 84.0143 57.9513 83.7528 57.865C83.4913 57.7787 83.2608 57.6257 83.0858 57.4231C82.6796 56.6175 82.3748 55.7703 82.1756 54.8983C82.4053 54.6178 84.855 54.0568 85.2463 53.9686ZM73.542 61.9838C73.2316 61.8504 72.9133 61.7328 72.5893 61.6311C72.3717 61.5469 72.1782 61.4169 72.0223 61.251C71.8663 61.0852 71.7529 60.888 71.6906 60.6744C71.6281 60.4609 71.6182 60.2368 71.6622 60.019C71.7061 59.8015 71.8018 59.5961 71.9428 59.4189C72.4787 58.9941 72.9636 59.0182 73.4059 59.6514C73.6866 60.1403 73.6781 60.1804 73.8057 60.2284C73.8426 60.2436 73.8822 60.2513 73.922 60.2509C73.9617 60.2505 74.0013 60.242 74.0375 60.2261C74.0737 60.2102 74.1063 60.1871 74.1318 60.1585C74.158 60.1299 74.1772 60.0964 74.1884 60.0601C74.3146 59.5585 74.3344 59.0383 74.248 58.5292C74.1459 57.9762 74.1289 55.5235 74.1459 55.4434C74.3948 55.5668 74.6733 55.625 74.954 55.6117C76.4936 55.5556 76.7998 54.8102 77.4122 54.201C78.1182 54.2651 78.2628 54.5858 79.0624 54.201C79.4367 54.0004 79.7805 53.7523 80.0831 53.4636C80.3276 53.5579 80.5638 53.6706 80.7891 53.8003C81.2989 54.0313 81.8737 54.1022 82.4294 54.0027C82.9851 53.9032 83.4926 53.6384 83.8768 53.2472C83.9704 53.4155 84.0554 53.5839 84.132 53.7602C83.3502 53.9888 82.6144 54.3382 81.9544 54.7942C81.8098 54.9625 82.0225 55.8762 82.0735 56.0926C81.3612 56.1771 80.6714 56.3864 80.0406 56.7098C79.913 56.293 79.6323 55.5155 79.19 55.2991C79.0568 55.2608 78.915 55.2608 78.7817 55.2991C78.0162 55.4113 75.2687 56.1888 74.937 56.6136C74.6478 56.9102 75.4729 59.2025 75.728 59.5792C76.7062 61.0059 79.5728 60.5891 80.1086 58.922C80.2412 58.3625 80.2412 57.7822 80.1086 57.2228C80.3553 57.2228 81.0953 56.9743 81.1804 56.9502C81.7673 58.1926 81.9374 58.2647 82.6179 59.6033C82.5244 59.6754 82.3712 59.7956 82.2437 59.8758C81.6397 60.2525 81.5121 60.1884 81.5462 60.3487C81.5561 60.3804 81.578 60.4078 81.6079 60.4255C81.6376 60.4433 81.6731 60.4501 81.7078 60.4449C82.065 60.3968 82.4138 60.3053 82.7455 60.1723C82.9441 60.1025 83.1077 59.9653 83.2048 59.7876C83.443 59.2827 82.1246 57.3831 81.6057 56.814C81.7078 56.814 81.9459 56.6537 82.1246 56.5655C82.3627 57.4632 82.5244 58.1685 83.443 58.5212C83.7089 58.6156 83.9917 58.6586 84.2752 58.6477C84.5587 58.6366 84.8366 58.5718 85.0932 58.4571C85.2293 59.8678 85.2038 62.1601 84.4892 63.4105C84.1235 64.0597 83.2218 64.3082 82.6434 64.8452C82.4733 64.9975 82.5839 65.2139 82.6434 65.4463C83.5876 67.923 83.6046 67.915 83.5536 68.2356C83.3034 69.5663 82.954 70.8787 82.5073 72.1631C82.2947 72.0749 79.9045 70.8806 75.2262 69.1654C75.0816 68.2597 74.3075 63.4265 74.0609 62.5368C74.0779 62.2242 74.0353 62.1521 73.542 61.9437V61.9838ZM79.4962 58.7136C79.224 59.5872 77.9396 59.9639 77.021 59.7235C76.1023 59.483 76.0428 59.0422 75.6089 58.0002C75.4056 57.6022 75.2651 57.1782 75.1922 56.7418C75.4728 56.4533 78.5435 55.8602 78.9263 55.8041C79.463 56.6696 79.6649 57.6837 79.4962 58.6735V58.7136ZM46.2123 106.837C45.889 107.133 46.3227 108.103 46.3907 108.945C46.3907 109.017 46.3907 109.329 46.3397 109.354C45.8719 109.498 45.438 108.833 45.1744 108.432C44.9107 108.031 44.647 107.486 44.2302 107.63C43.3796 108.007 41.4062 110.476 40.6321 110.732C40.2409 110.027 42.4781 108.015 42.5547 107.903C42.5874 107.851 42.6046 107.792 42.6043 107.732C42.604 107.672 42.5862 107.613 42.553 107.562C42.5196 107.511 42.4719 107.469 42.4153 107.441C42.3586 107.414 42.295 107.402 42.2314 107.406C42.0783 107.406 41.9761 107.534 41.7379 107.734C41.0135 108.4 40.1844 108.957 39.2797 109.386C40.1 108.499 40.9778 107.661 41.908 106.877C41.9541 106.832 41.9865 106.777 42.0018 106.717C42.0018 106.717 41.8231 106.292 41.4744 106.46C40.981 106.717 38.5822 108.023 37.8253 108.36C37.7232 108.296 37.7828 108.199 37.8253 108.103C39.0245 106.717 41.6615 105.033 43.2775 103.967C43.4673 103.783 43.6252 103.573 43.7453 103.342C44.8647 104.323 46.0587 105.226 47.3179 106.043C46.93 106.283 46.5605 106.548 46.2123 106.837ZM66.0056 114.123C65.8185 114.01 65.6824 113.906 65.6569 113.762C65.1891 110.492 67.7919 91.9606 67.7494 91.2312C67.7494 91.1883 67.7402 91.1461 67.7225 91.1066C67.7055 91.0672 67.6792 91.0315 67.6467 91.0017C67.6141 90.9718 67.5757 90.9483 67.5332 90.9326C67.4914 90.917 67.4461 90.9096 67.4006 90.9106C66.9668 90.9106 67.7324 90.9106 56.8958 100.689C56.1813 101.322 50.7203 106.244 49.8101 106.572C48.5598 106.484 43.8559 102.949 43.0904 101.835C44.5704 99.0139 62.5182 75.802 68.7276 72.2512C69.2039 71.9787 70.0205 71.5539 70.9136 71.1051C71.2228 71.3796 71.5551 71.6288 71.9088 71.8505C73.8822 73.6138 76.6297 75.81 78.7136 77.4611L77.089 80.4989C77.0643 80.5391 77.0514 80.5847 77.0514 80.6312C77.0514 80.6775 77.0643 80.7231 77.089 80.7634C90.2819 98.5972 90.0862 98.3968 90.1713 98.3968C91.0169 102.518 91.5429 106.691 91.7449 110.884C91.7449 112.015 91.7449 111.918 91.7959 111.838C91.847 111.758 91.7959 111.894 91.7959 111.894C89.7375 114.01 69.3655 115.982 66.0056 114.123ZM113.027 87.5683C109.174 88.0732 104.819 87.3198 103.977 87.2877C103.509 85.151 102.576 83.1289 101.238 81.3485C101.217 81.3225 101.187 81.3048 101.153 81.2989C101.12 81.2929 101.085 81.2992 101.056 81.3164C101.027 81.3336 101.006 81.3606 100.997 81.3917C100.988 81.4229 100.992 81.4562 101.008 81.4847C101.501 82.4305 103.151 86.5103 103.56 87.5041C103.432 87.8889 107.405 103.366 106.282 105.45C105.278 107.334 99.4344 109.706 97.3249 110.387C96.9081 105.925 96.2262 101.489 95.2834 97.0983C95.5726 94.7899 95.1983 81.0679 95.0878 75.9943C95.0842 75.9354 95.0636 75.8785 95.0276 75.8304C94.9914 75.782 94.9418 75.7445 94.8836 75.7218L91.0644 74.2069C91.0474 72.3022 90.9192 70.3997 90.6816 68.5081C100.217 70.0631 111.326 75.2008 112.253 75.2088C113.597 75.2088 123.583 67.9952 125.65 67.7066C126.569 67.5704 130.515 70.8165 130.975 71.7142C126.943 77.0203 119.857 83.9935 116.574 86.406C115.516 87.0725 114.295 87.4725 113.027 87.5683Z" fill="black" />
	<path d="M78.6202 57.1105C78.6095 57.0579 78.5883 57.0078 78.5571 56.963C78.5259 56.9182 78.4855 56.8795 78.4388 56.8494C78.3913 56.8193 78.3387 56.7982 78.2827 56.7873C78.2275 56.7764 78.1701 56.7759 78.114 56.786C78.058 56.7959 78.005 56.8161 77.9575 56.8456C77.9099 56.875 77.8689 56.9128 77.8369 56.9571C77.805 57.0014 77.7823 57.0512 77.771 57.1037C77.7597 57.1561 77.7589 57.2102 77.7696 57.2628C77.9397 58.0643 77.9737 58.2487 78.348 58.2487C78.4188 58.2488 78.4883 58.2325 78.5507 58.201C78.6131 58.1694 78.6663 58.1238 78.7045 58.068C78.7434 58.0123 78.767 57.9483 78.7733 57.8819C78.779 57.8154 78.7676 57.7487 78.7393 57.6876C78.7138 57.5594 78.6372 57.1827 78.6202 57.1105ZM81.223 62.4166C81.7759 62.5689 82.3033 62.3204 82.2863 62.1922C82.2693 62.0639 82.2863 62.128 81.5378 61.8635C81.0359 61.6872 80.483 61.062 80.2874 61.1582C80.0917 61.2544 80.3894 61.7673 80.4575 61.8635C80.6397 62.1237 80.9091 62.3185 81.223 62.4166ZM96.7806 54.8021C95.6663 59.2025 94.8497 62.9376 94.7136 63.683C94.6228 64.0072 94.6058 64.3459 94.6626 64.6769C95.1134 65.5826 100.94 67.37 101.68 67.0173C102.42 66.6646 104.342 62.5849 106.58 58.3769C107.95 58.4182 109.321 58.3242 110.671 58.0964C112.092 57.8507 113.475 57.4387 114.788 56.8701C117.663 55.6197 120.81 50.2655 121.235 47.5724C121.554 44.6485 120.897 41.7037 119.356 39.1485C112.219 27.4864 91.2857 33.7623 92.9869 46.7148C93.4725 49.6785 94.7817 52.4687 96.7806 54.8021ZM101.969 64.3482C101.969 64.4765 101.816 64.4604 101.119 64.3482C99.6918 64.1793 98.3103 63.7636 97.0443 63.1219C96.4488 62.8173 96.2872 62.7532 96.3468 62.617C96.4063 62.4807 96.5339 62.5288 97.4525 62.7692C97.5376 62.7692 100.174 63.5708 100.932 63.8192C101.91 64.236 101.969 64.236 101.969 64.3482ZM101.816 51.3075C102.724 51.3518 103.629 51.1753 104.445 50.7946C105.202 51.1402 106.021 51.3496 106.86 51.4117C105.431 53.9205 102.531 59.0342 101.595 61.7593L97.9884 60.8216C98.839 58.8498 100.719 54.2331 101.799 51.3075H101.816ZM101.518 50.6423C100.883 50.5519 100.297 50.2677 99.8505 49.8335C99.4032 49.399 99.1197 48.8386 99.0432 48.2377C98.805 46.6347 99.8938 44.8393 101.535 45.2641C102.565 45.5286 102.692 46.298 102.514 47.2679C102.361 47.9732 101.808 49.7446 101.501 50.6102L101.518 50.6423ZM103.832 48.7186C103.923 48.1941 104.132 47.694 104.445 47.2518C104.593 47.0108 104.811 46.8139 105.073 46.6836C105.334 46.5532 105.629 46.4946 105.925 46.5144C106.554 46.6908 106.826 47.8129 106.307 48.5182C105.808 49.1418 105.188 49.6697 104.479 50.0732C104.234 49.9382 104.04 49.7361 103.921 49.4939C103.803 49.2518 103.765 48.9812 103.815 48.7186H103.832ZM96.015 38.5313C99.8257 34.2111 106.996 32.4959 112.176 34.2752C114.991 35.1855 117.357 37.0285 118.837 39.4611C120.303 41.8926 120.931 44.6937 120.631 47.4763C120.24 49.969 117.229 55.1468 114.584 56.293C112.165 57.3326 109.526 57.837 106.869 57.7678C106.58 57.7678 106.273 57.7678 106.163 57.9601C105.661 58.922 104.742 60.7815 103.841 62.5288C103.217 62.2455 102.572 62.0095 101.91 61.8235C102.896 59.1624 106.01 53.9365 107.49 51.4037C108.772 51.5072 110.061 51.2975 111.232 50.7946C111.548 50.6376 111.811 50.3989 111.989 50.1063C112.166 49.8138 112.252 49.4796 112.235 49.143C112.218 48.8065 112.099 48.4815 111.893 48.2061C111.687 47.9308 111.402 47.7164 111.071 47.5885C109.752 46.9793 108.57 48.4381 107.881 49.6644C107.694 49.985 107.481 50.3617 107.243 50.7865C106.555 50.744 105.876 50.6118 105.227 50.3938C105.874 49.9653 106.448 49.4465 106.928 48.8549C107.198 48.4716 107.334 48.0191 107.319 47.5598C107.303 47.1003 107.137 46.6567 106.843 46.29C106.612 46.0372 106.291 45.8724 105.94 45.8266C105.589 45.7808 105.233 45.8573 104.938 46.0415C104.342 46.3865 103.865 46.8861 103.563 47.4803C103.261 48.0746 103.148 48.7384 103.237 49.3919C103.329 49.7607 103.54 50.0939 103.841 50.3457C103.283 50.5634 102.684 50.6726 102.08 50.6663C102.42 49.7205 102.973 48.0133 103.118 47.316C103.208 46.9184 103.228 46.5095 103.177 46.1057C103.111 45.7591 102.94 45.4378 102.685 45.1804C102.431 44.9229 102.102 44.7406 101.74 44.6549C99.6726 44.1019 98.15 46.258 98.4478 48.2698C98.5314 48.9907 98.8602 49.6669 99.3842 50.1982C99.908 50.7296 100.6 51.0876 101.357 51.2194C100.268 54.1048 98.5668 58.7616 97.7162 60.7494L95.8449 60.2925C97.0443 54.6178 97.1889 54.7541 97.0187 54.6819C95.0857 52.36 93.8495 49.5921 93.4377 46.6667C93.2371 45.2161 93.3633 43.7421 93.807 42.3405C94.2507 40.9388 95.0036 39.6409 96.015 38.5313ZM107.821 50.8346C108.417 49.8167 109.608 47.5885 110.764 48.1335C110.996 48.2214 111.198 48.3671 111.347 48.555C111.497 48.7428 111.59 48.9656 111.615 49.1995C111.598 50.6102 109.267 50.8587 107.787 50.8346H107.821ZM140.383 54.3693C141.407 53.8013 142.618 53.6073 143.785 53.8243C145.067 53.8459 146.291 54.3287 147.207 55.1738C148.123 56.0189 148.66 57.162 148.709 58.3689C147.939 57.9476 147.038 57.789 146.158 57.9201C144.023 58.0964 141.233 59.1865 141.607 61.1261C141.914 62.7292 144.159 62.5128 145.86 62.0799C147.562 61.6471 148.913 60.8616 149.263 59.3147C151.329 60.7334 151.815 63.2181 151.9 65.6467C151.9 65.6806 151.914 65.7133 151.94 65.7373C151.965 65.7614 152 65.7749 152.036 65.7749C152.071 65.7749 152.107 65.7614 152.132 65.7373C152.158 65.7133 152.172 65.6806 152.172 65.6467C152.231 62.9295 151.713 60.2685 149.356 58.7216C149.38 58.0257 149.254 57.3325 148.986 56.6837C148.718 56.035 148.312 55.4444 147.795 54.9474C147.277 54.4506 146.658 54.058 145.975 53.7933C145.291 53.5286 144.558 53.3973 143.819 53.4075C142.638 53.245 141.434 53.4776 140.417 54.0647C140.102 54.209 140.246 54.4254 140.383 54.3693ZM148.14 60.1162C147.179 61.3025 144.457 61.9196 143.198 61.7193C142.73 61.6471 142.347 61.4628 142.245 61.0059C141.939 59.4029 144.874 58.5292 146.626 58.4731C147.339 58.4215 148.05 58.5935 148.65 58.962C148.585 59.3811 148.411 59.7781 148.14 60.1162ZM136.487 44.9996C137.397 43.9416 136.784 42.0981 134.241 42.0901C133.254 42.0901 132.778 43.0359 132.846 43.9416C132.999 46.0977 135.577 46.0335 136.487 44.9996ZM133.442 43.9015C133.442 43.3725 133.705 42.6832 134.292 42.6912C135.662 42.6912 136.291 43.2923 136.291 43.9576C136.257 45.4725 133.331 46.258 133.442 43.9015ZM133.093 134.77C125.616 131.956 122.146 145.574 116.038 157.276C115.999 157.768 116.017 158.263 116.089 158.751C116.089 159.977 116.234 168.097 116.991 169.019C117.195 169.387 118.054 169.019 118.454 168.786C121.849 166.806 125.049 164.541 128.015 162.021C128.04 161.994 128.059 161.963 128.071 161.928C128.082 161.893 128.086 161.857 128.083 161.821C129.665 159.697 135.594 148.636 137.031 143.089C138.035 139.162 137.04 136.236 133.093 134.77ZM135.764 144.949C131.761 144.465 127.891 143.275 124.357 141.438C126.348 137.888 128.806 133.84 132.863 135.363C137.38 137.054 137.286 140.557 135.764 144.925V144.949ZM121.61 165.788C121.348 165.582 121.063 165.404 120.759 165.259C119.609 164.709 118.282 164.588 117.042 164.923C116.957 163.969 116.472 157.765 116.472 157.709C122.843 159.905 120.878 158.952 127.19 161.909C126.526 162.502 124.034 164.145 121.61 165.772V165.788ZM125.999 142.593C126.828 143.019 127.68 143.407 128.551 143.755C126.601 146.64 124.878 149.657 123.396 152.78C121.967 155.593 122.018 155.577 120.563 158.647C119.713 158.39 118.862 158.15 118.012 157.91C118.93 156.186 125.463 143.586 125.999 142.576V142.593ZM120.895 158.727C123.66 154.054 126.475 148.243 128.891 143.859C129.741 144.196 130.592 144.468 131.443 144.709C130.992 145.51 129.673 147.642 129.325 148.259C128.976 148.876 125.48 155.369 125.233 155.866C124.842 156.667 123.77 158.903 123.438 159.617C122.571 159.256 121.737 158.984 120.861 158.711L120.895 158.727ZM123.745 159.721C124.264 158.831 126.399 155.096 126.662 154.615C127.062 153.87 131.519 145.286 131.766 144.789C132.548 144.997 133.374 145.173 133.901 145.27C132.344 149.277 127.862 156.996 126.245 160.803C124.774 160.154 124.442 159.993 123.711 159.705L123.745 159.721ZM124.264 141.671L125.786 142.472C122.718 147.396 120.045 152.529 117.79 157.829L116.515 157.461C121.457 147.538 121.686 146.239 124.23 141.655L124.264 141.671ZM127.768 161.5L126.484 160.923C127.87 158.358 132.208 151.778 134.19 145.326C134.666 145.406 135.134 145.478 135.585 145.534C133.399 151.03 130.775 156.362 127.734 161.484L127.768 161.5ZM101.119 166.702C101.457 166.438 101.7 166.08 101.811 165.678C101.922 165.277 101.898 164.853 101.74 164.466C101.667 163.908 101.396 163.389 100.969 162.995C100.542 162.602 99.9859 162.357 99.3919 162.301C98.7979 162.245 98.2011 162.381 97.7006 162.687C97.1995 162.993 96.8239 163.451 96.636 163.985C95.5472 163.32 94.3649 162.614 93.2336 161.941C94.0842 160.875 96.5849 161.348 96.8401 162.222C96.8458 162.256 96.8656 162.287 96.8947 162.307C96.9244 162.327 96.9614 162.335 96.9974 162.33C97.0336 162.325 97.0654 162.306 97.0876 162.279C97.1087 162.25 97.118 162.216 97.1123 162.182C96.9847 160.787 93.9055 159.969 92.6637 161.613C91.5664 160.979 90.2054 160.21 89.0656 159.625C90.0438 158.823 92.2298 159.272 92.468 160.106C92.4793 160.134 92.5006 160.158 92.5289 160.173C92.5566 160.188 92.5899 160.193 92.6211 160.187C92.653 160.181 92.6814 160.165 92.7019 160.141C92.7218 160.118 92.7325 160.088 92.7317 160.058C92.6211 158.759 89.7716 157.885 88.4787 159.312C87.9371 159.026 87.3672 158.79 86.7775 158.607C86.6697 158.565 86.5514 158.553 86.4365 158.573C86.3217 158.593 86.2153 158.644 86.131 158.719C83.979 161.244 76.7233 167.8 73.372 168.562C73.2877 168.574 73.2082 168.606 73.1415 168.657C73.075 168.707 73.024 168.772 72.9928 168.847C72.9615 168.922 72.9516 169.003 72.9645 169.082C72.9779 169.162 73.0125 169.236 73.0657 169.299C73.8014 170.003 74.6443 170.6 75.5665 171.07C74.7159 171.872 74.0524 172.593 73.5591 173.114C73.3039 173.371 73.1678 178.276 73.389 179.359C73.4216 179.464 73.4946 179.556 73.5931 179.615C74.6649 180.305 88.4702 185.931 89.8822 185.178C90.8263 184.672 102.097 173.619 102.275 173.283C102.548 172.754 102.454 169.227 102.437 167.816C102.369 167.391 101.527 166.935 101.119 166.702ZM73.8993 177.291V175.503C77.4293 177.106 85.5101 180.376 88.5722 181.29C89.3548 181.53 89.4228 181.498 89.8311 181.29C92.1703 179.879 100.43 171.111 101.944 169.772V171.463C97.3505 175.8 89.5504 183.399 89.4058 182.966C88.5637 182.918 74.6309 177.612 73.8993 177.291ZM100.906 164.001C101.211 164.487 101.376 165.04 101.382 165.604C101.38 165.784 101.333 165.96 101.245 166.12C101.158 166.28 101.034 166.419 100.88 166.526C100.166 166.077 98.8135 165.243 97.2144 164.266C98.0905 162.638 100.038 162.614 100.872 164.001H100.906ZM73.6867 169.131C77.3103 168.121 84.1916 161.869 86.5053 159.16C87.0617 159.306 87.599 159.513 88.1044 159.777C87.2538 161.268 88.164 162.903 88.4872 162.671C88.6658 162.542 88.3426 162.494 88.2915 161.709C88.2696 161.135 88.4078 160.566 88.6913 160.058C89.8652 160.635 91.2431 161.388 92.4085 162.021C91.694 163.52 92.5531 165.003 92.8508 164.787C93.1485 164.57 92.7147 164.618 92.6637 163.833C92.6431 163.318 92.7473 162.805 92.9699 162.334C94.1692 162.999 95.3941 163.688 96.5169 164.338C96.344 164.737 96.2752 165.17 96.3163 165.599C96.358 166.029 96.5084 166.443 96.7551 166.806C96.7663 166.82 96.7798 166.832 96.7962 166.84C96.8118 166.849 96.8294 166.854 96.8472 166.857C96.8656 166.859 96.884 166.858 96.9018 166.853C96.9194 166.849 96.9358 166.841 96.9507 166.83C96.9649 166.82 96.9776 166.807 96.9861 166.792C96.9954 166.777 97.0017 166.76 97.0039 166.743C97.0059 166.726 97.0053 166.709 97.0003 166.692C96.9954 166.676 96.9875 166.659 96.9762 166.646C96.8231 166.328 96.7479 165.981 96.7551 165.632C96.7622 165.282 96.8522 164.939 97.0187 164.626C99.0006 165.764 100.6 166.718 101.093 167.031C101 167.111 92.1278 174.549 89.1081 176.762C87.1262 176.272 76.7233 171.407 73.6867 169.131ZM74.0099 173.595C77.8632 175.198 86.6159 178.917 88.6318 179.279C88.9805 179.343 89.1166 179.366 89.7801 178.869C92.6126 176.73 101.825 167.648 101.91 167.744C101.914 167.768 101.914 167.792 101.91 167.816V169.419C100.013 170.854 89.4654 181.29 89.2953 180.793C88.4447 180.793 74.6224 175.48 73.9164 175.182C73.8993 174.846 73.9759 173.948 74.0099 173.595ZM89.4994 184.64C88.6488 185.098 75.6941 180.136 73.9589 179.126C73.8936 178.614 73.8625 178.101 73.8653 177.587C77.591 179.318 88.4276 183.63 89.4229 183.591C90.8774 183.518 101.161 172.609 101.893 171.848C101.901 172.257 101.858 172.666 101.765 173.066C101.621 173.331 90.0608 184.344 89.4994 184.64ZM19.0266 139.459C19.0862 140.316 19.1287 141.062 19.1287 141.759C19.1287 141.865 19.1735 141.967 19.2532 142.042C19.333 142.118 19.4411 142.16 19.554 142.16C19.6667 142.16 19.775 142.118 19.8546 142.042C19.9344 141.967 19.9793 141.865 19.9793 141.759C19.9793 141.014 19.9368 140.276 19.8772 139.402C19.8693 139.296 19.8169 139.197 19.7315 139.127C19.6462 139.057 19.535 139.022 19.4221 139.03C19.3093 139.037 19.2043 139.087 19.1301 139.167C19.0558 139.248 19.0187 139.352 19.0266 139.459ZM148.633 123.388C148.578 123.391 148.524 123.405 148.473 123.428C148.423 123.451 148.378 123.483 148.343 123.523C148.305 123.562 148.278 123.609 148.261 123.658C148.244 123.708 148.237 123.761 148.242 123.813C148.293 124.55 148.344 125.344 148.344 126.113C148.344 126.22 148.389 126.322 148.469 126.396C148.548 126.472 148.657 126.514 148.769 126.514C148.882 126.514 148.991 126.472 149.069 126.396C149.15 126.322 149.195 126.22 149.195 126.113C149.195 125.312 149.144 124.51 149.083 123.757C149.08 123.705 149.066 123.653 149.042 123.607C149.017 123.559 148.983 123.517 148.941 123.483C148.899 123.448 148.85 123.422 148.797 123.406C148.745 123.39 148.689 123.383 148.633 123.388ZM16.8236 137.463C16.9363 137.463 17.0446 137.421 17.1242 137.345C17.204 137.27 17.2489 137.168 17.2489 137.062C17.2489 136.956 17.204 136.854 17.1242 136.779C17.0446 136.703 16.9363 136.661 16.8236 136.661C15.7943 136.661 14.9352 136.733 14.0846 136.717C13.9709 136.717 13.8619 136.759 13.7809 136.834C13.6997 136.909 13.653 137.011 13.6508 137.118C13.6508 137.224 13.6957 137.327 13.7753 137.401C13.8551 137.477 13.9632 137.519 14.0761 137.519C14.9522 137.535 15.9134 137.503 16.8236 137.463ZM145.996 121.016C144.976 121.016 144.117 121.072 143.258 121.08C143.145 121.08 143.036 121.122 142.957 121.197C142.877 121.272 142.832 121.374 142.832 121.48C142.832 121.587 142.877 121.689 142.957 121.764C143.036 121.839 143.145 121.881 143.258 121.881C144.176 121.881 145.129 121.881 146.048 121.817C146.16 121.81 146.266 121.762 146.341 121.683C146.415 121.603 146.454 121.499 146.447 121.392C146.44 121.286 146.389 121.187 146.305 121.116C146.22 121.045 146.109 121.009 145.996 121.016ZM18.797 132.509C18.848 133.247 18.899 134.04 18.899 134.81C18.9012 134.915 18.9467 135.016 19.026 135.091C19.1052 135.166 19.2122 135.208 19.3243 135.211C19.4371 135.211 19.5453 135.168 19.625 135.093C19.7048 135.018 19.7496 134.916 19.7496 134.81C19.7496 134.008 19.6986 133.207 19.6476 132.453C19.6397 132.347 19.5872 132.248 19.5019 132.178C19.4165 132.108 19.3053 132.073 19.1924 132.081C19.0797 132.088 18.9747 132.137 18.9004 132.217C18.8262 132.298 18.7891 132.403 18.797 132.509ZM148.964 119.164C148.964 118.363 148.913 117.561 148.855 116.808C148.847 116.701 148.794 116.603 148.709 116.533C148.624 116.462 148.513 116.428 148.4 116.435C148.287 116.442 148.182 116.492 148.108 116.572C148.033 116.653 147.996 116.758 148.004 116.864C148.055 117.601 148.106 118.395 148.106 119.164C148.106 119.27 148.151 119.373 148.231 119.447C148.31 119.523 148.418 119.565 148.531 119.565C148.644 119.565 148.754 119.523 148.834 119.448C148.916 119.373 148.963 119.271 148.964 119.164ZM25.0744 137.359C25.1302 137.357 25.1851 137.344 25.2359 137.322C25.2866 137.3 25.3324 137.268 25.3703 137.23C25.4081 137.191 25.4377 137.146 25.4569 137.096C25.4762 137.047 25.485 136.995 25.4827 136.942C25.474 136.837 25.4238 136.739 25.3416 136.667C25.2597 136.597 25.152 136.557 25.0404 136.557C24.0112 136.597 23.152 136.629 22.2929 136.613C22.18 136.613 22.0719 136.655 21.9921 136.731C21.9125 136.806 21.8676 136.908 21.8676 137.014C21.8676 137.12 21.9125 137.222 21.9921 137.297C22.0719 137.373 22.18 137.415 22.2929 137.415C23.2031 137.431 24.1558 137.399 25.0744 137.359ZM154.247 120.911C153.397 120.951 152.452 120.976 151.508 120.976C151.453 120.974 151.397 120.982 151.343 121.001C151.29 121.02 151.244 121.048 151.202 121.084C151.162 121.121 151.129 121.165 151.108 121.214C151.086 121.263 151.074 121.316 151.074 121.368C151.074 121.475 151.119 121.578 151.199 121.655C151.278 121.731 151.386 121.775 151.499 121.777C152.469 121.777 153.251 121.777 154.281 121.713C154.337 121.711 154.391 121.698 154.442 121.676C154.493 121.654 154.54 121.623 154.577 121.584C154.615 121.545 154.645 121.501 154.663 121.45C154.683 121.401 154.691 121.349 154.69 121.296C154.679 121.192 154.628 121.095 154.546 121.024C154.465 120.953 154.359 120.913 154.247 120.911ZM5.52748 113.61C5.63806 113.69 29.6251 110.339 30.6544 109.746C30.7114 109.707 30.7569 109.655 30.7866 109.595C30.8163 109.535 30.8294 109.468 30.8245 109.402C30.8245 108.368 29.387 98.6613 28.698 96.2407C28.6129 95.9441 28.5279 95.6475 28.3322 95.5433C27.0308 94.806 4.09848 98.8777 2.72901 99.7112C2.69192 99.7319 2.65982 99.7601 2.63493 99.7927C2.60999 99.8261 2.59284 99.8635 2.58439 99.9036C2.29519 100.873 4.78745 113.129 5.52748 113.61ZM3.10327 100.096C4.73643 99.3987 25.5507 95.8079 27.9324 96.0884C28.5108 97.491 30.0589 107.767 30.161 109.273C28.9787 109.602 5.85072 113.345 5.76566 113.361C5.6806 113.377 5.6721 113.473 5.49347 112.968C4.74494 110.852 3.06074 101.907 3.10327 100.096Z" fill="black" />
	<path d="M32.5256 110.459C32.5718 110.378 32.5925 110.286 32.5851 110.195C32.5851 108.92 30.6457 94.7736 29.9568 93.6434C29.9028 93.5601 29.8264 93.4917 29.7351 93.4452C29.644 93.3988 29.5415 93.3759 29.4379 93.3789C26.5884 93.0503 2.55032 97.4747 0.968201 98.5087C0.747044 98.6529 0.781068 99.0136 0.806586 99.3983C0.942683 101.506 3.3584 115.373 4.209 115.292C4.30257 115.292 4.26854 115.228 4.04738 115.653C2.72044 118.226 0.202658 126.466 0.253694 128.125C0.253694 128.822 0.423815 129.728 1.15533 129.68C6.40356 129.071 32.1343 125.223 39.5346 123.789C39.8238 123.732 40.0109 123.484 40.0024 123.075C39.915 122.394 39.696 121.734 39.3559 121.128C38.3182 119.292 34.0141 112.022 32.5256 110.459ZM4.26004 115.044C3.59657 114.242 1.15533 100.432 1.34247 98.9014C3.21379 97.9877 26.9286 93.6675 29.4124 94.0201C30.0929 95.7835 31.8536 108.52 31.9642 110.051C28.953 111.028 8.10476 114.202 4.26004 115.044ZM4.6343 115.284C5.34881 115.116 29.6846 111.277 31.9131 110.724C33.1295 111.79 38.6244 120.999 38.9817 121.785C34.0992 122.586 5.13616 127.147 0.874635 127.756C0.934177 125.327 3.57955 116.839 4.6343 115.284Z" fill="black" />
	<path d="M7.83314 123.596C8.57317 123.492 24.2753 121.713 29.9488 120.262C29.9838 120.253 30.0138 120.232 30.0322 120.203C30.0504 120.174 30.0557 120.138 30.0467 120.106C30.0376 120.073 30.0152 120.044 29.9839 120.028C29.9528 120.01 29.9157 120.005 29.8808 120.014C28.7665 120.23 15.1738 121.937 7.81613 123.348C7.79579 123.345 7.77488 123.345 7.75504 123.351C7.73518 123.356 7.71683 123.365 7.70145 123.379C7.68599 123.391 7.67394 123.407 7.66609 123.425C7.65827 123.444 7.65487 123.463 7.65622 123.482C7.65758 123.502 7.66353 123.521 7.6738 123.538C7.68401 123.554 7.69819 123.569 7.7152 123.58C7.73228 123.591 7.75178 123.598 7.77219 123.601C7.79261 123.604 7.81344 123.602 7.83314 123.596ZM19.3078 67.8267C18.99 68.5029 18.7229 69.1994 18.5082 69.9107C18.4955 70.0248 18.5289 70.1393 18.6018 70.2313C19.4609 71.4496 28.2646 80.8033 30.5613 82.1178C30.876 82.3021 31.2502 82.4304 31.4799 82.1659C33.1482 80.2097 35.3256 78.6939 37.7999 77.7655C39.8138 77.0942 41.9253 76.7183 44.0603 76.6514C45.7615 76.5072 46.0592 76.3469 46.7142 75.2969C47.4869 73.9151 48.5119 72.6724 49.7424 71.6259C51.3113 70.3333 53.0528 69.2393 54.9225 68.3717C55.0067 68.3269 55.0725 68.2566 55.1095 68.1724C55.1465 68.0882 55.1525 67.9947 55.1267 67.9069C54.8392 67.2174 54.4589 66.5656 53.9954 65.9672C54.3016 65.871 54.6418 65.7828 54.6418 65.4943C54.6418 64.6928 47.2246 54.5776 45.1661 52.67C44.9535 52.4696 44.6472 52.2051 44.3665 52.2211C40.1135 52.4456 35.9711 56.2287 33.5724 59.531C30.8249 59.4348 29.0472 59.2024 25.917 60.4447C23.7071 61.3286 21.7148 62.633 20.0648 64.276C19.8096 64.5245 18.0744 66.2557 18.0489 66.392C18.0234 66.5283 18.0744 66.5283 19.3078 67.8267ZM53.3319 67.6023C49.7849 68.1714 47.5223 70.9526 45.8551 73.9744C45.1151 75.3209 45.1831 75.385 44.4006 75.369C43.0322 75.296 41.6595 75.3444 40.3007 75.5133C39.3039 75.6536 38.324 75.8846 37.3746 76.2026C35.2141 76.9239 32.7388 79.2323 31.4204 80.9476C31.3924 80.9828 31.3567 81.0121 31.3158 81.0336C31.275 81.055 31.2298 81.0679 31.1831 81.0717C31.1366 81.0755 31.0897 81.07 31.0455 81.0556C31.0014 81.041 30.961 81.018 30.927 80.9877C28.1626 78.3026 23.2716 73.5896 20.8133 70.8805C20.6943 70.7603 20.8984 70.5839 21.0175 70.7122C22.6081 72.3152 26.7165 76.1545 31.1227 80.3304C32.6112 78.543 34.9078 76.3789 37.179 75.6255C38.4174 75.2093 39.7062 74.94 41.0152 74.824C42.2411 74.7362 43.4723 74.7362 44.6983 74.824C45.2001 74.2789 47.6839 68.0912 53.3149 67.4019C53.3313 67.4133 53.3449 67.428 53.3545 67.445C53.3642 67.4621 53.3695 67.4809 53.3703 67.5001C53.3712 67.5194 53.3673 67.5386 53.3593 67.5562C53.3511 67.574 53.3389 67.5896 53.3234 67.6023H53.3319ZM44.358 52.8704C46.0593 53.9925 52.9832 63.6508 53.8848 65.342C52.3203 65.8091 50.8099 66.4241 49.3766 67.1775C48.0193 67.8187 46.831 68.7369 45.8981 69.8656C44.9651 70.9943 44.3112 72.3049 43.9838 73.7018C40.9301 69.021 36.6686 63.8672 33.8361 60.076C34.0062 59.9718 38.7866 53.183 44.358 52.8704ZM26.1041 60.8856C29.2088 59.7073 30.927 59.9798 33.4958 60.084C36.0476 64.1878 40.6324 69.9748 43.652 73.766C40.865 73.1446 37.9323 73.5246 35.4267 74.832C33.9211 75.6335 32.0838 77.5572 30.9525 78.7514C29.3194 77.5171 19.8947 68.0592 18.3806 66.4561C20.7113 63.9714 22.8633 62.1039 26.1041 60.8535V60.8856ZM10.5381 81.2682C10.3279 81.1292 10.0794 81.0506 9.82263 81.0422C9.5659 81.0336 9.31211 81.0953 9.09204 81.2201C8.93181 81.2874 8.78706 81.3839 8.66643 81.504C8.54559 81.6241 8.45118 81.7653 8.38839 81.9197C8.32558 82.0741 8.29567 82.2387 8.30042 82.404C8.30509 82.5694 8.34429 82.7322 8.41581 82.8833C8.48726 83.0343 8.58972 83.1705 8.717 83.2844C8.84443 83.398 8.99429 83.4871 9.15823 83.5462C9.32216 83.6056 9.49677 83.6337 9.6723 83.6292C9.84768 83.6248 10.0206 83.5878 10.1808 83.5204C10.4369 83.4677 10.67 83.3428 10.8489 83.1624C11.028 82.982 11.1446 82.7546 11.1833 82.5104C11.2221 82.2661 11.1811 82.0165 11.0659 81.7947C10.9507 81.5728 10.7666 81.3893 10.5381 81.2682ZM9.97666 82.8712C9.38124 83.0476 9.02399 82.8712 8.87939 82.5987C8.60719 82.0296 8.94743 81.156 9.83206 81.4125C10.453 81.6289 10.9549 82.6147 9.97666 82.9113V82.8712ZM53.7912 44.5907C54.0379 45.0636 55.1862 44.8873 55.6881 44.735C55.9518 44.6548 56.1219 44.5666 56.1474 44.3262C56.224 43.725 56.309 38.5152 56.0198 38.0102C55.99 37.9573 55.9442 37.9138 55.888 37.8853C55.8321 37.8568 55.7685 37.8445 55.7051 37.8499C54.7976 37.8475 53.8945 37.9718 53.0257 38.2186C52.6769 38.419 53.485 44.0617 53.7912 44.5907ZM53.2043 38.411C53.9901 38.3051 54.7847 38.2702 55.5775 38.3068C55.6285 38.8999 55.4924 44.0376 55.4839 44.1178C55.1245 44.2392 54.7408 44.2831 54.3611 44.246C54.3016 44.0617 54.1995 43.5647 54.0719 42.9396C53.697 41.4457 53.4075 39.934 53.2043 38.411ZM9.71298 74.5034C9.79463 74.5429 9.88495 74.5633 9.97666 74.5633C10.0684 74.5633 10.1587 74.5429 10.2404 74.5034C10.569 74.3123 10.8296 74.0332 10.9889 73.7018C11.0105 73.6488 11.0172 73.5914 11.0082 73.5353C10.9992 73.479 10.9751 73.426 10.9378 73.3812C10.5296 72.9244 6.07239 68.0592 5.52801 68.3637C4.85959 68.7715 4.22546 69.227 3.63116 69.7263C3.60721 69.7466 3.588 69.7712 3.57482 69.7987C3.56163 69.8264 3.55476 69.8563 3.55461 69.8866C3.5376 70.3034 8.48811 74.0385 9.71298 74.5034ZM5.63008 68.5721C6.25102 68.9969 8.3435 71.4335 10.2829 73.5896C10.1995 73.7134 10.0962 73.8243 9.97666 73.9183C7.93763 72.6886 5.99081 71.328 4.15003 69.8465C4.61149 69.39 5.10605 68.9641 5.63008 68.5721ZM18.9931 50.8906C19.1802 47.7807 21.1026 46.338 23.11 45.9693C22.5401 47.941 22.6336 50.5059 24.7006 50.8345C25.6873 50.9868 26.1721 50.5059 26.8867 49.9448C29.9403 47.5403 27.4736 45.1357 24.0286 45.304C25.313 41.9858 28.2816 39.2847 32.2199 39.1965C32.256 39.1965 32.2906 39.183 32.3161 39.1589C32.3417 39.1348 32.356 39.1022 32.356 39.0682C32.356 39.0342 32.3417 39.0016 32.3161 38.9775C32.2906 38.9535 32.256 38.94 32.2199 38.94C27.9669 38.8598 24.6241 41.7453 23.3056 45.3521C21.0345 45.7208 18.7804 47.3239 18.7209 50.8425C18.7175 50.8594 18.7176 50.8766 18.7215 50.8934C18.7252 50.9102 18.7325 50.926 18.7427 50.9403C18.753 50.9545 18.766 50.9666 18.7813 50.9759C18.7965 50.9852 18.8137 50.9918 18.8314 50.9948C18.8494 50.998 18.8676 50.9977 18.8854 50.9942C18.9032 50.9907 18.9201 50.9839 18.9352 50.9743C18.9502 50.9645 18.9631 50.9523 18.973 50.9378C18.9828 50.9236 18.9897 50.9075 18.9931 50.8906ZM23.833 45.8731C25.1004 45.793 26.9887 46.1617 27.5076 47.2437C27.8053 47.8609 27.5076 48.6223 26.4528 49.4559C26.1664 49.7262 25.8398 49.9558 25.4832 50.1372C24.2073 50.6502 22.7953 49.1674 23.833 45.8731ZM26.2657 159.232C25.4439 159.024 24.5865 158.974 23.7436 159.084C22.9007 159.193 22.0897 159.46 21.3582 159.87C20.6267 160.279 19.9893 160.822 19.4839 161.467C18.9784 162.111 18.6148 162.845 18.4146 163.624C18.0368 165.243 18.3568 166.937 19.3044 168.333C20.2519 169.73 21.7493 170.714 23.4672 171.07C25.1851 171.426 26.9829 171.125 28.4646 170.232C29.9467 169.339 30.9915 167.928 31.3693 166.309C31.5308 165.528 31.5266 164.726 31.357 163.946C31.1875 163.167 30.8559 162.427 30.3816 161.769C29.9071 161.112 29.2991 160.548 28.5928 160.113C27.8863 159.677 27.0954 159.378 26.2657 159.232ZM28.8941 165.764C28.5528 167.047 27.7357 168.172 26.5906 168.936C25.4456 169.701 24.048 170.054 22.6507 169.932C21.3679 169.46 20.303 168.576 19.6434 167.437C18.9838 166.298 18.7714 164.976 19.0441 163.704C19.3624 162.391 20.1718 161.228 21.3245 160.431C22.4771 159.633 23.8959 159.253 25.3215 159.36C26.6169 159.865 27.682 160.783 28.3293 161.954C28.9765 163.126 29.1646 164.475 28.8601 165.764H28.8941Z" fill="black" />
	<path d="M37.5954 161.516C36.8549 161.276 36.0613 161.218 35.2903 161.348C34.9706 160.657 34.5775 159.999 34.1165 159.384C34.6694 158.911 36.1834 157.597 35.8177 156.98C34.5159 155.512 32.9705 154.254 31.2413 153.252C30.5193 152.871 29.7244 152.629 28.9023 152.539C28.3579 152.611 27.0648 154.607 26.7756 155.056C26.5885 155.056 25.9252 154.856 25.8741 154.831C25.8741 154.254 25.6955 152.17 25.1426 151.93C24.5243 151.716 23.8823 151.567 23.2287 151.489C22.6248 151.401 17.1895 152.339 16.7897 153.028C16.526 153.493 17.1384 155.248 17.317 155.737C16.8583 155.975 16.4177 156.243 15.9986 156.539C15.148 157.108 15.3777 157.084 15.2246 157.02C15.0394 156.936 14.8412 156.882 14.6377 156.859C13.9581 156.484 13.1615 156.342 12.3836 156.459C11.601 156.699 9.75519 160.659 9.45748 161.676C9.36004 161.933 9.33375 162.209 9.38092 162.478C9.58507 163.007 10.946 163.432 11.5159 163.6C11.3585 164.631 11.3585 165.679 11.5159 166.71C10.7674 166.902 9.21065 167.335 9.29571 168.057C9.38077 168.778 11.3712 173.539 12.1963 173.916C12.6483 174.154 13.1482 174.3 13.6638 174.346C14.1794 174.391 14.6994 174.335 15.1905 174.18C15.4671 174.05 15.7343 173.903 15.9901 173.739C16.3304 173.98 16.6876 174.196 17.0534 174.405C16.7897 175.022 16.2028 176.4 16.3899 177.026C16.4835 177.355 16.7642 177.458 17.1554 177.595C18.2357 177.964 24.0538 179.279 24.9385 179.134C25.2702 179.086 25.4488 178.757 25.5509 178.445C25.7399 177.732 25.8511 177.005 25.8825 176.272C26.3194 176.231 26.7538 176.17 27.184 176.089C27.4468 176.523 27.7829 176.916 28.1793 177.25C28.6131 177.539 28.9788 177.394 29.4722 177.098C29.7103 177.387 30.0676 177.788 30.4504 177.827C31.4115 177.932 35.3839 174.405 35.7922 173.683C36.1324 173.082 34.8905 172.008 34.3376 171.535C34.9357 170.687 35.4052 169.765 35.7326 168.794C36.3461 168.881 36.9671 168.914 37.5869 168.89C37.8676 168.89 38.1909 168.794 38.3099 168.545C38.8288 167.431 38.6757 163.207 38.3099 162.133C38.2589 161.821 37.8761 161.612 37.5954 161.516ZM37.7996 162.254C38.0888 163.296 38.1822 167.231 37.7569 168.249C37.0215 168.317 36.2795 168.285 35.5538 168.153C35.4765 168.14 35.3969 168.155 35.3308 168.195C35.2646 168.236 35.2168 168.298 35.1967 168.369C34.858 169.453 34.3321 170.476 33.64 171.399C33.5908 171.46 33.5685 171.536 33.5781 171.613C33.5875 171.689 33.6282 171.759 33.6912 171.808C34.288 172.253 34.7949 172.796 35.1882 173.411C34.7629 174.068 31.4371 176.938 30.5184 177.179C30.3823 177.179 30.0081 176.698 29.9145 176.569C29.6002 176.123 29.3163 175.662 29.0639 175.182C29.0271 175.112 28.9638 175.058 28.8868 175.03C28.8096 175.001 28.7241 175.001 28.6469 175.03C26.1802 175.903 25.2447 175.39 25.2447 175.968C25.2458 176.832 25.0964 177.69 24.8022 178.509C22.8033 178.304 20.835 177.89 18.9332 177.275C19.0251 176.418 19.2784 175.584 19.6817 174.813C19.9369 174.276 18.9162 174.429 17.0108 172.601C16.9494 172.548 16.869 172.518 16.7855 172.518C16.7018 172.518 16.6214 172.548 16.56 172.601C15.7094 173.258 14.6036 173.9 14.3825 173.795C13.9487 173.595 11.9497 169.323 11.8307 168.457C12.4357 168.06 13.1225 167.787 13.8466 167.656C13.9238 167.635 13.9904 167.589 14.0343 167.526C14.078 167.462 14.096 167.386 14.0848 167.311C13.8763 166.176 13.8763 165.015 14.0848 163.881C14.0978 163.811 14.0821 163.739 14.0411 163.68C14 163.62 13.9366 163.577 13.8636 163.56C13.2222 163.402 12.605 163.167 12.0263 162.863C11.8392 162.734 11.8562 162.742 11.8732 162.606C12.4238 160.735 13.3067 158.965 14.4845 157.372C14.9439 157.252 16.1857 158.11 16.6111 158.414C16.6554 158.455 16.715 158.478 16.7768 158.478C16.8389 158.478 16.8984 158.455 16.9428 158.414C17.3336 158.032 17.7544 157.679 18.2017 157.356C19.4946 156.435 19.8433 156.555 19.7328 156.234C19.3416 155.43 19.122 154.561 19.0863 153.677C19.2181 153.574 19.3678 153.493 19.5286 153.437C20.3228 153.141 21.1386 152.9 21.9699 152.715C22.9774 152.451 24.013 152.292 25.0575 152.243C25.2362 152.315 25.3978 153.044 25.4403 153.269C25.755 154.872 25.5424 155.2 25.7891 155.224C28.2133 155.449 28.7066 156.082 28.8767 155.801C29.3484 155.024 29.8982 154.291 30.5184 153.613C30.697 153.445 30.6885 153.365 31.2244 153.653C32.8254 154.639 34.2592 155.847 35.4774 157.236C35.605 157.444 34.4992 158.551 33.6912 159.2C33.4105 159.432 33.8102 159.536 34.5418 160.851C35.2733 162.165 35.103 162.534 35.4943 162.454C36.2487 162.284 37.0249 162.216 37.7996 162.254ZM155.854 95.2786C154.071 94.5924 152.203 94.1262 150.293 93.892C148.898 93.6836 147.255 93.4752 145.869 93.3069C147.204 91.5275 151.159 87.023 151.822 85.9249C152.009 85.6284 151.654 85.2116 151.389 84.9631C149.909 83.4723 147.051 82.9112 144.856 82.5906C143.598 82.3982 138.341 81.7891 137.448 82.1898C136.376 82.6708 128.448 93.892 128.21 95.5993C128.21 95.8878 128.312 96 128.61 96.1042C129.86 96.537 135.5 97.2103 136.759 97.4908C135.058 100.296 127.496 109.778 126.756 111.117C126.577 111.453 126.688 111.654 126.9 111.718C127.666 112.004 128.453 112.235 129.256 112.407C129.563 112.495 130.235 112.103 131.213 111.541C135.602 109.057 154.434 97.3385 155.88 95.8237C155.921 95.7883 155.951 95.745 155.973 95.6969C155.993 95.6489 156.002 95.5974 155.999 95.5456C155.998 95.494 155.982 95.4433 155.958 95.3973C155.933 95.3512 155.897 95.3109 155.854 95.2786ZM137.575 104.897C130.345 109.393 127.904 110.708 127.819 110.764C128.984 109.089 136.223 99.7431 137.465 97.5069C137.486 97.4634 137.497 97.4167 137.497 97.3686C137.497 97.3212 137.485 97.2738 137.463 97.231C137.441 97.1876 137.41 97.1503 137.37 97.1201C137.331 97.0901 137.285 97.0687 137.235 97.058C136.384 96.7695 130.192 96.1443 128.729 95.6554C128.916 94.1645 136.64 82.8952 137.575 82.4463C138.511 81.9975 147.587 83.0154 149.289 84.1616C148.395 85.8047 143.462 91.5596 142.662 92.8981C142.5 93.1707 142.449 93.4352 142.764 93.5073C143.079 93.5794 151.074 94.4611 152.818 94.9981C150.692 96.6733 139.957 103.39 137.575 104.865V104.897ZM83.0091 55.892C83.0091 55.9642 83.0602 56.0523 83.1878 56.5172C83.221 56.618 83.2948 56.7027 83.3933 56.7536C83.4912 56.8043 83.6067 56.8173 83.7151 56.7897C83.8236 56.76 83.915 56.6909 83.9689 56.5976C84.0235 56.5045 84.0362 56.3948 84.0043 56.2928C83.9193 55.9802 83.8427 55.7157 83.7917 55.5874C83.742 55.4994 83.6598 55.4319 83.5599 55.3983C83.4607 55.3645 83.3515 55.3668 83.2536 55.4048C83.1559 55.4429 83.0764 55.5138 83.0319 55.6039C82.9864 55.694 82.9779 55.7967 83.0091 55.892Z" fill="black" />
</svg>
