<svg width="156" height="219" viewBox="0 0 156 219" fill="none" xmlns="http://www.w3.org/2000/svg">
	<rect y="0.946777" width="155.539" height="218.053" rx="31.3166" fill="white" />
	<path d="M29.6517 46.8705C29.3176 45.3172 27.4711 44.5244 26.5896 44.3222C28.7052 43.8368 29.6981 45.3334 29.93 46.1424C32.2683 44.9774 33.7808 45.7379 34.2448 46.2637C32.4632 45.7783 30.4404 46.466 29.6517 46.8705Z" fill="black" />
	<path d="M128.281 53.8167C111.579 49.3565 114.015 62.7371 117.494 62.7371C118.924 62.7371 121.887 63.0674 125.498 63.0674H136.459C150.377 63.0674 154.378 62.1864 154.553 61.9111C155.77 53.1559 148.405 53.9819 144.462 54.973C145.1 51.7243 144.427 45.1607 136.632 44.8963C128.838 44.632 127.817 50.7331 128.281 53.8167Z" fill="black" />
	<path d="M16.8304 36.0389C9.5136 34.0935 10.5806 39.9296 12.1049 39.9296C12.7311 39.9296 14.0293 40.0737 15.611 40.0737H20.4127C26.51 40.0737 28.263 39.6895 28.3393 39.5694C28.8728 35.7507 25.6463 36.1109 23.9187 36.5432C24.1982 35.1263 23.9034 32.2634 20.4888 32.1482C17.0742 32.0329 16.6271 34.6939 16.8304 36.0389Z" fill="black" />
	<path d="M35.7165 205.257V194.296H37.392L42.1834 202.297H41.3065L46.0197 194.296H47.6951L47.7108 205.257H45.7848L45.7691 197.318H46.1763L42.1677 204.004H41.2596L37.1884 197.318H37.6581V205.257H35.7165ZM54.1006 205.366C53.1715 205.366 52.3573 205.184 51.6579 204.818C50.9689 204.443 50.4313 203.931 50.0451 203.284C49.6693 202.637 49.4814 201.901 49.4814 201.076C49.4814 200.241 49.6641 199.505 50.0294 198.868C50.4052 198.221 50.9167 197.715 51.5639 197.349C52.2216 196.984 52.968 196.801 53.8031 196.801C54.6173 196.801 55.3428 196.979 55.9796 197.334C56.6164 197.689 57.1174 198.19 57.4828 198.837C57.8482 199.484 58.0308 200.246 58.0308 201.123C58.0308 201.206 58.0256 201.3 58.0152 201.405C58.0152 201.509 58.01 201.608 57.9995 201.702H51.0316V200.403H56.9661L56.1988 200.81C56.2092 200.33 56.1101 199.907 55.9013 199.541C55.6925 199.176 55.4055 198.889 55.0401 198.68C54.6852 198.472 54.2728 198.367 53.8031 198.367C53.3229 198.367 52.9001 198.472 52.5348 198.68C52.1798 198.889 51.898 199.181 51.6892 199.557C51.4909 199.923 51.3917 200.356 51.3917 200.857V201.17C51.3917 201.671 51.5065 202.115 51.7362 202.501C51.9658 202.887 52.2895 203.185 52.707 203.393C53.1246 203.602 53.6047 203.707 54.1476 203.707C54.6173 203.707 55.0401 203.634 55.4159 203.487C55.7917 203.341 56.1257 203.112 56.418 202.798L57.4671 204.004C57.0913 204.443 56.6164 204.782 56.0422 205.022C55.4785 205.252 54.8313 205.366 54.1006 205.366ZM63.1365 205.366C62.3328 205.366 61.6072 205.189 60.96 204.834C60.3233 204.469 59.8222 203.968 59.4568 203.331C59.0915 202.694 58.9088 201.942 58.9088 201.076C58.9088 200.21 59.0915 199.458 59.4568 198.821C59.8222 198.184 60.3233 197.689 60.96 197.334C61.6072 196.979 62.3328 196.801 63.1365 196.801C63.8359 196.801 64.4623 196.958 65.0155 197.271C65.5688 197.574 66.0072 198.038 66.3308 198.665C66.6544 199.291 66.8162 200.095 66.8162 201.076C66.8162 202.047 66.6597 202.851 66.3465 203.487C66.0333 204.114 65.6001 204.583 65.0469 204.897C64.4936 205.21 63.8568 205.366 63.1365 205.366ZM63.3714 203.691C63.8412 203.691 64.2587 203.587 64.6241 203.378C64.9999 203.169 65.2974 202.866 65.5166 202.47C65.7463 202.073 65.8611 201.608 65.8611 201.076C65.8611 200.533 65.7463 200.069 65.5166 199.682C65.2974 199.286 64.9999 198.983 64.6241 198.774C64.2587 198.565 63.8412 198.461 63.3714 198.461C62.9017 198.461 62.4789 198.565 62.1031 198.774C61.7377 198.983 61.4402 199.286 61.2106 199.682C60.9914 200.069 60.8817 200.533 60.8817 201.076C60.8817 201.608 60.9914 202.073 61.2106 202.47C61.4402 202.866 61.7377 203.169 62.1031 203.378C62.4789 203.587 62.9017 203.691 63.3714 203.691ZM65.9081 205.257V203.284L65.9864 201.06L65.8298 198.837V193.638H67.7714V205.257H65.9081ZM70.0344 205.257V196.895H71.9917V205.257H70.0344ZM71.0209 195.517C70.6555 195.517 70.3528 195.402 70.1127 195.173C69.883 194.943 69.7682 194.667 69.7682 194.343C69.7682 194.009 69.883 193.732 70.1127 193.513C70.3528 193.283 70.6555 193.169 71.0209 193.169C71.3862 193.169 71.6837 193.278 71.9134 193.497C72.1535 193.706 72.2735 193.972 72.2735 194.296C72.2735 194.64 72.1587 194.933 71.9291 195.173C71.6994 195.402 71.3967 195.517 71.0209 195.517ZM77.3948 205.366C76.4762 205.366 75.7663 205.132 75.2653 204.662C74.7642 204.182 74.5137 203.477 74.5137 202.548V195.048H76.4709V202.501C76.4709 202.898 76.5701 203.206 76.7685 203.425C76.9772 203.644 77.2643 203.754 77.6297 203.754C78.0681 203.754 78.4335 203.639 78.7257 203.409L79.2738 204.803C79.0441 204.991 78.7623 205.132 78.4282 205.225C78.0942 205.319 77.7497 205.366 77.3948 205.366ZM73.1357 198.524V196.958H78.7101V198.524H73.1357ZM85.7223 205.257V203.566L85.6127 203.206V200.246C85.6127 199.672 85.4405 199.228 85.096 198.915C84.7515 198.592 84.2296 198.43 83.5302 198.43C83.0604 198.43 82.5959 198.503 82.1366 198.649C81.6877 198.795 81.3067 198.999 80.9935 199.26L80.2262 197.835C80.6751 197.49 81.2075 197.234 81.8234 197.067C82.4497 196.89 83.0969 196.801 83.765 196.801C84.9759 196.801 85.9102 197.094 86.5679 197.678C87.236 198.252 87.57 199.145 87.57 200.356V205.257H85.7223ZM83.0917 205.366C82.4654 205.366 81.9173 205.262 81.4476 205.053C80.9778 204.834 80.6125 204.536 80.3515 204.161C80.101 203.774 79.9757 203.341 79.9757 202.861C79.9757 202.391 80.0853 201.969 80.3045 201.593C80.5342 201.217 80.9048 200.919 81.4163 200.7C81.9278 200.481 82.6063 200.371 83.4519 200.371H85.8789V201.671H83.5928C82.9247 201.671 82.4758 201.781 82.2462 202C82.0165 202.209 81.9017 202.47 81.9017 202.783C81.9017 203.138 82.0426 203.42 82.3245 203.628C82.6063 203.837 82.9978 203.941 83.4988 203.941C83.979 203.941 84.407 203.832 84.7828 203.613C85.1691 203.393 85.4457 203.07 85.6127 202.642L85.9415 203.816C85.7536 204.307 85.4144 204.688 84.9237 204.959C84.4436 205.231 83.8329 205.366 83.0917 205.366ZM89.0798 205.257V204.02L94.2314 197.788L94.5915 198.461H89.1738V196.895H96.1574V198.132L91.0058 204.364L90.6143 203.691H96.2983V205.257H89.0798ZM97.7894 205.257V196.895H99.7467V205.257H97.7894ZM98.7758 195.517C98.4105 195.517 98.1078 195.402 97.8677 195.173C97.638 194.943 97.5232 194.667 97.5232 194.343C97.5232 194.009 97.638 193.732 97.8677 193.513C98.1078 193.283 98.4105 193.169 98.7758 193.169C99.1412 193.169 99.4387 193.278 99.6684 193.497C99.9085 193.706 100.029 193.972 100.029 194.296C100.029 194.64 99.9137 194.933 99.684 195.173C99.4544 195.402 99.1516 195.517 98.7758 195.517ZM105.76 205.366C104.904 205.366 104.142 205.184 103.474 204.818C102.806 204.443 102.279 203.931 101.893 203.284C101.507 202.637 101.313 201.901 101.313 201.076C101.313 200.241 101.507 199.505 101.893 198.868C102.279 198.221 102.806 197.715 103.474 197.349C104.142 196.984 104.904 196.801 105.76 196.801C106.627 196.801 107.394 196.984 108.062 197.349C108.741 197.715 109.268 198.216 109.644 198.853C110.03 199.489 110.223 200.23 110.223 201.076C110.223 201.901 110.03 202.637 109.644 203.284C109.268 203.931 108.741 204.443 108.062 204.818C107.394 205.184 106.627 205.366 105.76 205.366ZM105.76 203.691C106.241 203.691 106.669 203.587 107.044 203.378C107.42 203.169 107.713 202.866 107.921 202.47C108.141 202.073 108.25 201.608 108.25 201.076C108.25 200.533 108.141 200.069 107.921 199.682C107.713 199.286 107.42 198.983 107.044 198.774C106.669 198.565 106.246 198.461 105.776 198.461C105.296 198.461 104.868 198.565 104.492 198.774C104.127 198.983 103.834 199.286 103.615 199.682C103.396 200.069 103.286 200.533 103.286 201.076C103.286 201.608 103.396 202.073 103.615 202.47C103.834 202.866 104.127 203.169 104.492 203.378C104.868 203.587 105.291 203.691 105.76 203.691ZM116.526 196.801C117.194 196.801 117.789 196.932 118.311 197.193C118.843 197.454 119.261 197.856 119.564 198.398C119.866 198.931 120.018 199.62 120.018 200.465V205.257H118.061V200.716C118.061 199.975 117.883 199.421 117.528 199.056C117.184 198.691 116.698 198.508 116.072 198.508C115.613 198.508 115.205 198.602 114.851 198.79C114.496 198.978 114.219 199.26 114.021 199.635C113.833 200.001 113.739 200.465 113.739 201.029V205.257H111.782V196.895H113.645V199.15L113.316 198.461C113.608 197.929 114.031 197.522 114.584 197.24C115.148 196.947 115.795 196.801 116.526 196.801ZM126.133 205.366C125.204 205.366 124.39 205.184 123.69 204.818C123.001 204.443 122.464 203.931 122.078 203.284C121.702 202.637 121.514 201.901 121.514 201.076C121.514 200.241 121.697 199.505 122.062 198.868C122.438 198.221 122.949 197.715 123.596 197.349C124.254 196.984 125.001 196.801 125.836 196.801C126.65 196.801 127.375 196.979 128.012 197.334C128.649 197.689 129.15 198.19 129.515 198.837C129.881 199.484 130.063 200.246 130.063 201.123C130.063 201.206 130.058 201.3 130.048 201.405C130.048 201.509 130.042 201.608 130.032 201.702H123.064V200.403H128.999L128.231 200.81C128.242 200.33 128.143 199.907 127.934 199.541C127.725 199.176 127.438 198.889 127.073 198.68C126.718 198.472 126.305 198.367 125.836 198.367C125.355 198.367 124.933 198.472 124.567 198.68C124.212 198.889 123.931 199.181 123.722 199.557C123.523 199.923 123.424 200.356 123.424 200.857V201.17C123.424 201.671 123.539 202.115 123.769 202.501C123.998 202.887 124.322 203.185 124.74 203.393C125.157 203.602 125.637 203.707 126.18 203.707C126.65 203.707 127.073 203.634 127.448 203.487C127.824 203.341 128.158 203.112 128.451 202.798L129.5 204.004C129.124 204.443 128.649 204.782 128.075 205.022C127.511 205.252 126.864 205.366 126.133 205.366Z" fill="black" />
	<ellipse cx="34.4875" cy="26.363" rx="4.69749" ry="4.46018" fill="black" />
	<ellipse cx="3.65361" cy="3.46903" rx="3.65361" ry="3.46903" transform="matrix(1 0 0 -1 22.4827 17.938)" fill="black" />
	<path fill-rule="evenodd" clip-rule="evenodd" d="M105.228 126.923C105.228 126.923 106.008 141.152 107.22 142.69C108.432 144.229 112.467 146.068 117.818 145.922C123.169 145.776 125.865 144.713 126.927 143.3C127.989 141.888 129.757 126.78 129.757 126.78C129.757 126.78 130.458 122.201 117.026 122.522C104.034 122.833 105.228 126.923 105.228 126.923Z" fill="white" />
	<path d="M117.232 146.301C112.228 146.301 108.185 144.585 106.857 142.897C105.619 141.332 104.882 128.56 104.795 126.967C104.744 126.624 104.776 126.276 104.89 125.944C105.004 125.612 105.197 125.303 105.457 125.038C106.545 123.82 109.433 122.33 117.018 122.149C124.703 121.972 127.874 123.398 129.184 124.632C129.522 124.919 129.787 125.262 129.961 125.64C130.135 126.018 130.214 126.422 130.195 126.828C130.014 128.373 128.389 142.055 127.299 143.5C125.541 145.832 120.481 146.301 117.232 146.301ZM118.353 122.878C114.949 122.878 108.275 123.176 106.179 125.459C105.981 125.644 105.833 125.863 105.742 126.1C105.651 126.338 105.621 126.589 105.653 126.838C105.672 126.912 106.441 141.034 107.58 142.482C108.651 143.843 112.529 145.694 117.799 145.549C122.415 145.423 125.442 144.576 126.557 143.099C127.296 142.118 128.614 132.78 129.32 126.743C129.323 126.437 129.251 126.133 129.11 125.851C128.968 125.569 128.76 125.315 128.498 125.105C127.377 124.068 124.702 122.878 118.353 122.878V122.878Z" fill="#000001" />
	<path fill-rule="evenodd" clip-rule="evenodd" d="M107.214 127.564C107.214 127.564 109.842 124.999 117.088 124.911C124.334 124.823 128.136 127.525 128.136 127.525C128.136 127.525 125.832 129.888 117.257 129.627C108.681 129.365 107.214 127.564 107.214 127.564Z" fill="white" />
	<path d="M128.881 125.268C128.855 125.223 128.819 125.183 128.774 125.151C128.73 125.118 128.678 125.093 128.622 125.078C128.566 125.063 128.507 125.057 128.449 125.062C128.39 125.067 128.333 125.081 128.282 125.105C128.23 125.128 128.184 125.16 128.147 125.199C128.111 125.238 128.083 125.283 128.067 125.331C128.051 125.379 128.047 125.429 128.054 125.479C128.061 125.528 128.08 125.576 128.109 125.619C128.268 125.829 128.35 126.074 128.343 126.324C128.336 126.573 128.242 126.815 128.072 127.019C122.087 123.436 111.086 123.952 107.086 127.145C106.904 126.987 106.781 126.788 106.731 126.571C106.628 125.817 107.966 125.102 108.491 124.89C108.586 124.843 108.657 124.768 108.689 124.678C108.722 124.589 108.714 124.493 108.666 124.408C108.619 124.324 108.536 124.258 108.435 124.223C108.333 124.188 108.219 124.187 108.116 124.22C108.016 124.26 105.664 125.222 105.861 126.659C106.063 128.16 109.342 129.886 116.063 130.13C118.684 130.233 121.311 130.05 123.877 129.584C126.913 129.012 130.347 127.594 128.881 125.268ZM127.433 127.553C124.997 129.096 120.376 129.346 117.273 129.254C110.947 129.061 108.594 128.017 107.859 127.559C111.722 124.782 121.638 124.271 127.434 127.553H127.433Z" fill="#000001" />
	<path fill-rule="evenodd" clip-rule="evenodd" d="M115.287 128.119C115.287 128.119 115.28 104.757 114.555 97.1415C114.555 97.1415 117.37 118.828 116.858 127.849L115.287 128.119Z" fill="#000001" />
	<path fill-rule="evenodd" clip-rule="evenodd" d="M122.312 127.509C122.312 127.509 123.289 115.242 124.9 111.399C124.9 111.399 123.97 124.204 123.957 127.533L122.312 127.509Z" fill="#000001" />
	<path d="M115.287 128.492C115.171 128.492 115.059 128.452 114.977 128.383C114.895 128.313 114.849 128.218 114.849 128.119C114.849 127.885 114.833 104.684 114.118 97.1719C114.109 97.0741 114.145 96.9771 114.219 96.902C114.293 96.8268 114.399 96.7796 114.514 96.7705C114.571 96.7647 114.629 96.7687 114.684 96.7823C114.739 96.7959 114.79 96.8188 114.835 96.8495C114.879 96.8803 114.916 96.9184 114.943 96.9615C114.97 97.0046 114.986 97.0518 114.991 97.1004C115.019 97.3179 117.804 118.922 117.295 127.866C117.288 127.964 117.236 128.056 117.151 128.122C117.065 128.189 116.953 128.224 116.837 128.22C116.78 128.218 116.723 128.206 116.671 128.185C116.619 128.165 116.572 128.135 116.534 128.099C116.495 128.063 116.465 128.021 116.446 127.975C116.426 127.929 116.417 127.88 116.42 127.831C116.665 123.535 116.142 116.283 115.534 109.91C115.719 118.656 115.725 127.972 115.725 128.119C115.725 128.218 115.679 128.313 115.596 128.383C115.514 128.452 115.403 128.492 115.287 128.492Z" fill="#000001" />
	<path d="M123.958 127.906C123.842 127.906 123.73 127.866 123.648 127.797C123.566 127.727 123.52 127.632 123.52 127.533C123.528 125.574 123.855 120.294 124.122 116.3C123.261 121.215 122.757 127.448 122.75 127.536C122.742 127.634 122.689 127.726 122.601 127.792C122.513 127.857 122.399 127.89 122.283 127.883C122.167 127.876 122.058 127.831 121.982 127.756C121.905 127.682 121.866 127.584 121.874 127.486C121.914 126.982 122.874 115.122 124.487 111.275C124.522 111.19 124.592 111.119 124.685 111.075C124.777 111.031 124.884 111.017 124.988 111.035C125.091 111.053 125.184 111.103 125.248 111.174C125.312 111.246 125.343 111.334 125.336 111.424C125.327 111.552 124.407 124.256 124.394 127.536C124.393 127.634 124.347 127.728 124.265 127.797C124.183 127.866 124.073 127.905 123.958 127.906Z" fill="#000001" />
	<path fill-rule="evenodd" clip-rule="evenodd" d="M109.152 94.8621C109.152 94.8621 89.6865 95.1354 83.0212 108.161C83.0212 108.161 81.8257 94.0287 107.989 93.9602C107.989 93.9602 100.679 88.7103 86.8653 91.848C86.8653 91.848 95.0432 84.7981 110.295 93.2877C110.295 93.2877 108.017 81.2738 99.5066 73.7182C99.5066 73.7182 109.545 77.1865 112.087 92.8058C112.087 92.8058 111.6 78.1071 105.274 70.2967C105.274 70.2967 112.631 76.3502 114.001 92.6285C114.001 92.6285 113.194 71.9024 118.038 67.2878C118.038 67.2878 114.759 84.7214 115.72 92.4327C115.72 92.4327 125.593 80.462 138.127 81.9843C129.918 83.3366 122.569 87.1858 117.456 92.8118C117.456 92.8118 124.827 85.344 139.731 88.5286C139.731 88.5286 128.5 88.402 120.518 92.7127C120.518 92.7127 133.305 91.1368 139.997 103.065C139.997 103.065 129.888 94.7377 120.447 93.7628C120.447 93.7628 132.504 97.3109 137.203 110.271C137.203 110.271 127.346 97.0309 119.82 95.4043C122.873 101.952 123.292 109.175 121.012 115.947C121.012 115.947 121.783 102.789 117.867 96.2794C116.783 102.802 116.642 109.413 117.447 115.964C117.447 115.964 114.644 100.439 115.607 96.7024C112.377 102.886 111.067 109.671 111.802 116.409C111.802 116.409 109.556 101.865 112.99 96.7531C112.99 96.7531 105.859 101.465 104.712 111.076C104.712 111.076 104.172 99.7738 110.851 95.4616C110.851 95.4616 100.278 102.36 96.5243 110.816C96.5278 110.816 99.1895 98.2225 109.152 94.8621Z" fill="black" />
	<path d="M111.802 116.781C111.696 116.781 111.593 116.748 111.513 116.688C111.434 116.629 111.382 116.547 111.368 116.457C111.285 115.916 109.529 104.304 111.763 98.272C107.986 101.833 105.665 106.337 105.149 111.113C105.146 111.211 105.096 111.305 105.012 111.373C104.927 111.441 104.814 111.477 104.698 111.474C104.582 111.471 104.472 111.429 104.392 111.357C104.313 111.286 104.27 111.19 104.273 111.091C104.256 110.719 103.975 103.829 107.127 98.7606C103.754 101.546 99.13 105.997 96.9316 110.947C96.8931 111.034 96.8177 111.106 96.7203 111.148C96.6229 111.19 96.5105 111.2 96.4052 111.175C96.2998 111.15 96.2092 111.093 96.151 111.014C96.0928 110.936 96.0713 110.841 96.0908 110.75C96.1941 110.265 98.5309 99.6387 106.906 95.389C101.591 95.9178 88.3324 98.2385 83.4206 108.303C83.3749 108.393 83.2897 108.464 83.1832 108.5C83.0768 108.537 82.9577 108.537 82.8515 108.499C82.7454 108.462 82.6608 108.391 82.6159 108.301C82.5709 108.211 82.5693 108.11 82.6113 108.019C89.0051 94.9109 108.94 94.4923 109.14 94.4894C109.243 94.4879 109.343 94.5171 109.422 94.5718C109.502 94.6266 109.557 94.7035 109.577 94.789C109.597 94.8746 109.581 94.9634 109.532 95.04C109.483 95.1165 109.404 95.176 109.308 95.2081C103.191 97.2711 99.8683 102.999 98.2533 106.928C102.273 101.107 108.588 96.5404 110.198 95.427C110.324 95.3366 110.453 95.2493 110.584 95.1649C110.63 95.1352 110.683 95.1136 110.739 95.1012C110.795 95.0888 110.853 95.0858 110.91 95.0925C110.967 95.0993 111.022 95.1155 111.072 95.1403C111.122 95.1651 111.165 95.198 111.2 95.2371C111.235 95.2762 111.26 95.3208 111.275 95.3683C111.29 95.4158 111.293 95.4652 111.285 95.5138C111.277 95.5625 111.258 95.6093 111.229 95.6516C111.2 95.694 111.161 95.731 111.115 95.7607C111.105 95.7681 110.985 95.8471 110.774 95.9923C107.478 98.3338 106.102 102.546 105.532 105.927C106.844 102.265 109.331 98.9873 112.715 96.4622C112.795 96.4093 112.894 96.3816 112.995 96.3839C113.097 96.3862 113.194 96.4183 113.27 96.4749C113.347 96.5314 113.398 96.6088 113.415 96.6938C113.432 96.7789 113.414 96.8663 113.364 96.9411C111.787 99.2871 111.447 103.745 111.524 107.799C112.086 103.912 113.326 100.118 115.203 96.5419C115.25 96.4606 115.331 96.3968 115.43 96.3627C115.529 96.3286 115.64 96.3264 115.741 96.3566C115.841 96.3869 115.926 96.4474 115.978 96.5267C116.03 96.6061 116.046 96.699 116.023 96.7877C115.585 98.5007 115.963 102.816 116.489 106.917C116.518 103.338 116.83 99.7661 117.425 96.2239C117.44 96.1464 117.483 96.0749 117.548 96.0195C117.614 95.9642 117.698 95.9278 117.789 95.9157C117.881 95.9035 117.974 95.9162 118.056 95.9519C118.139 95.9876 118.205 96.0445 118.247 96.1144C120.917 100.555 121.446 107.898 121.5 112.306C122.609 106.668 121.89 100.88 119.422 95.5633C119.387 95.4995 119.374 95.4286 119.385 95.3588C119.396 95.2891 119.429 95.2233 119.482 95.1691C119.535 95.115 119.605 95.0746 119.683 95.0528C119.762 95.0309 119.846 95.0285 119.926 95.0457C125.55 96.2604 132.281 103.595 135.573 107.558C130.417 97.2189 120.411 94.152 120.301 94.1177C120.199 94.0878 120.113 94.0266 120.061 93.9461C120.008 93.8656 119.993 93.7714 120.017 93.6817C120.041 93.5921 120.104 93.5132 120.193 93.4605C120.281 93.4077 120.39 93.3848 120.497 93.396C129.976 94.3754 139.882 102.458 140.3 102.801C140.341 102.835 140.374 102.876 140.397 102.921C140.419 102.966 140.431 103.015 140.432 103.064C140.433 103.113 140.422 103.161 140.401 103.207C140.38 103.252 140.348 103.294 140.308 103.329C140.267 103.364 140.219 103.392 140.166 103.411C140.113 103.431 140.056 103.441 139.999 103.442C139.941 103.442 139.884 103.433 139.83 103.415C139.777 103.397 139.728 103.37 139.687 103.336C139.599 103.261 131.907 96.9895 123.834 94.794C130.517 98.2811 135.433 103.761 137.621 110.164C137.652 110.25 137.646 110.343 137.603 110.425C137.559 110.507 137.482 110.574 137.386 110.611C137.29 110.649 137.181 110.656 137.079 110.63C136.977 110.605 136.89 110.549 136.833 110.473C136.739 110.347 127.733 98.3391 120.579 96.005C123.298 102.451 123.597 109.456 121.433 116.052C121.404 116.14 121.338 116.217 121.247 116.266C121.156 116.315 121.046 116.334 120.94 116.32C120.833 116.305 120.737 116.257 120.67 116.185C120.602 116.114 120.568 116.024 120.574 115.932C120.581 115.809 121.215 104.254 118.093 97.6107C117.216 103.69 117.146 109.833 117.882 115.925C117.895 116.022 117.862 116.119 117.792 116.196C117.721 116.272 117.618 116.322 117.505 116.335C117.391 116.348 117.276 116.323 117.185 116.264C117.093 116.206 117.032 116.12 117.014 116.024C116.916 115.482 114.959 104.558 114.968 98.9863C112.552 104.537 111.622 110.476 112.243 116.371C112.25 116.423 112.243 116.476 112.223 116.526C112.204 116.575 112.173 116.621 112.131 116.66C112.089 116.699 112.038 116.73 111.982 116.75C111.925 116.771 111.864 116.782 111.802 116.781ZM107.987 94.3322C107.883 94.3321 107.784 94.301 107.705 94.2443C107.634 94.1937 100.382 89.1628 86.9757 92.2074C86.8642 92.231 86.7463 92.2164 86.6474 92.1668C86.5484 92.1172 86.4764 92.0365 86.4467 91.9421C86.4171 91.8478 86.4322 91.7473 86.4889 91.6623C86.5456 91.5773 86.6393 91.5147 86.7497 91.4879C100.626 88.3361 107.964 93.4556 108.27 93.6753C108.338 93.7245 108.387 93.7903 108.41 93.8638C108.433 93.9374 108.429 94.0152 108.399 94.0868C108.368 94.1584 108.313 94.2203 108.239 94.2642C108.166 94.3081 108.079 94.3318 107.989 94.3322H107.987Z" fill="#000001" />
	<path d="M111.286 120.132C114.934 116.523 119.633 113.793 124.913 112.215C128.219 119.548 127.54 130.611 127.54 130.611C129.834 118.534 126.5 112.079 126.5 112.079C131.037 118.269 133.301 133.796 133.301 133.796C135.266 122.464 128.772 111.796 128.772 111.796C135.671 119.382 137.781 133.686 137.781 133.686C139.919 123.11 129.539 110.355 129.539 110.355C133.991 114.282 137.716 120.399 137.716 120.399C137.48 110.848 129.329 109.064 129.329 109.064C134.614 105.592 147.716 106.514 147.716 106.514C135.98 102.229 128.079 108.128 128.079 108.128C130.554 101.838 142.539 99.2149 142.539 99.2149C133.396 98.2437 126.779 107.147 126.779 107.147C128.335 103.7 127.065 97.75 125.785 93.5003L125.278 93.475C125.852 97.7403 125.167 101.215 125.415 107.816C123.751 94.7828 114.127 92.3422 113.988 92.6297C122.897 97.7097 123.854 107.354 123.551 107.529C106.909 99.4339 94.8286 113.198 94.8286 113.198C111.099 103.037 123.626 108.972 123.626 108.972C111.802 105.451 105.855 116.501 105.855 116.501C115.664 107.29 123.775 110.508 123.775 110.508C115.212 112.681 111.286 120.132 111.286 120.132Z" fill="black" />
	<path d="M134.826 105.016C134.289 105.123 133.753 105.251 133.233 105.397C133.178 105.411 133.127 105.435 133.082 105.467C133.038 105.499 133.002 105.538 132.975 105.582C132.949 105.626 132.933 105.673 132.928 105.723C132.924 105.772 132.931 105.821 132.949 105.868C132.967 105.915 132.996 105.958 133.033 105.995C133.071 106.033 133.118 106.063 133.17 106.085C133.221 106.107 133.278 106.12 133.336 106.123C133.394 106.127 133.452 106.12 133.507 106.104C134.002 105.966 134.514 105.843 135.026 105.741C135.136 105.716 135.231 105.655 135.289 105.572C135.348 105.489 135.366 105.39 135.34 105.295C135.314 105.201 135.245 105.119 135.149 105.067C135.053 105.015 134.937 104.997 134.826 105.016Z" fill="#000001" />
	<path d="M127.935 108.488C128.045 108.52 128.165 108.512 128.269 108.468C128.373 108.424 128.452 108.347 128.489 108.254C130.859 102.23 142.527 99.6083 142.644 99.583C142.757 99.5584 142.853 99.4968 142.912 99.4117C142.971 99.3267 142.988 99.2251 142.959 99.1294C142.931 99.0337 142.858 98.9517 142.758 98.9014C142.658 98.8511 142.539 98.8367 142.426 98.8613C141.927 98.97 130.181 101.609 127.659 108.017C127.622 108.11 127.63 108.213 127.682 108.301C127.734 108.389 127.825 108.457 127.935 108.488Z" fill="#000001" />
	<path d="M124.964 95.1691C125.19 95.1106 125.432 95.1096 125.659 95.1663C125.885 95.2229 126.088 95.3347 126.241 95.4879C126.306 95.4879 126.371 95.4754 126.431 95.4512C126.49 95.4269 126.542 95.3916 126.583 95.3479C126.624 95.3042 126.653 95.2532 126.668 95.1986C126.683 95.1441 126.683 95.0874 126.668 95.0328C126.464 94.2732 126.25 93.5433 126.039 92.8693C125.987 92.7758 125.901 92.6983 125.795 92.6474C125.689 92.5965 125.567 92.5747 125.446 92.5849C125.325 92.595 125.21 92.6367 125.117 92.7043C125.025 92.7718 124.959 92.862 124.929 92.9624C125.08 93.6074 124.843 94.4445 124.964 95.1691Z" fill="#000001" />
	<path d="M147.748 106.146C147.206 106.107 134.413 105.252 129.057 108.773C128.992 108.815 128.943 108.872 128.914 108.938C128.885 109.003 128.879 109.074 128.895 109.142C128.912 109.211 128.95 109.273 129.007 109.324C129.063 109.375 129.135 109.411 129.215 109.428C129.514 109.494 136.128 111.055 137.147 118.764C135.106 115.652 132.658 112.745 129.85 110.099C129.773 110.032 129.67 109.991 129.56 109.985C129.45 109.98 129.341 110.01 129.256 110.069C129.171 110.128 129.115 110.213 129.1 110.306C129.085 110.399 129.111 110.493 129.174 110.57C129.267 110.684 137.547 120.984 137.626 130.564C136.605 125.91 134.122 117.074 129.115 111.572C129.048 111.498 128.951 111.448 128.843 111.432C128.735 111.415 128.624 111.434 128.531 111.484C128.439 111.535 128.372 111.613 128.344 111.703C128.315 111.793 128.328 111.889 128.379 111.971C128.438 112.067 133.643 120.755 133.196 130.626C132.284 125.741 130.194 116.429 126.864 111.886C126.805 111.806 126.713 111.748 126.606 111.723C126.499 111.698 126.385 111.709 126.287 111.753C126.189 111.797 126.115 111.871 126.078 111.96C126.042 112.049 126.047 112.147 126.091 112.233C126.118 112.284 128.141 116.318 127.872 123.862C127.609 120.189 126.94 115.678 125.319 112.082C125.279 111.994 125.202 111.922 125.102 111.881C125.003 111.839 124.888 111.831 124.782 111.859C120.676 113.072 116.902 114.978 113.685 117.463C115.623 115.167 118.993 112.111 123.893 110.867C123.978 110.845 124.053 110.802 124.109 110.743C124.164 110.684 124.198 110.613 124.204 110.537C124.21 110.462 124.19 110.387 124.145 110.322C124.1 110.257 124.033 110.205 123.953 110.173C123.642 110.05 116.858 107.485 108.18 114.011C110.757 111.085 115.888 107.066 123.474 109.325C123.577 109.355 123.69 109.351 123.79 109.314C123.89 109.277 123.97 109.21 124.014 109.125C124.059 109.041 124.065 108.945 124.031 108.857C123.997 108.769 123.926 108.695 123.832 108.649C123.705 108.589 110.869 102.715 94.5623 112.9C94.5135 112.928 94.4718 112.964 94.4399 113.007C94.4079 113.049 94.3863 113.096 94.3762 113.145C94.3662 113.195 94.368 113.245 94.3816 113.294C94.3951 113.343 94.4201 113.389 94.455 113.429C94.4899 113.47 94.5341 113.504 94.5848 113.529C94.6355 113.555 94.6918 113.571 94.7502 113.578C94.8087 113.584 94.868 113.581 94.9248 113.567C94.9816 113.554 95.0347 113.531 95.0808 113.5C104.745 107.467 113.116 107.211 118.203 107.942C109.805 108.472 105.503 116.254 105.451 116.348C105.407 116.429 105.399 116.521 105.428 116.606C105.457 116.692 105.521 116.765 105.608 116.814C105.695 116.863 105.8 116.884 105.904 116.873C106.008 116.862 106.103 116.819 106.174 116.754C113.416 109.955 119.733 110.09 122.328 110.537C114.59 113.094 111.04 119.686 110.885 119.98C110.842 120.062 110.835 120.155 110.865 120.241C110.896 120.327 110.963 120.4 111.052 120.448C111.142 120.496 111.249 120.514 111.353 120.5C111.458 120.486 111.553 120.44 111.62 120.371C115.134 116.917 119.615 114.273 124.65 112.684C127.715 119.859 127.102 130.484 127.097 130.594C127.091 130.69 127.128 130.783 127.201 130.856C127.273 130.929 127.376 130.975 127.488 130.985C127.599 130.995 127.711 130.968 127.8 130.91C127.889 130.852 127.949 130.768 127.967 130.673C128.991 125.826 129.061 120.868 128.174 116.001C131.259 123.062 132.841 133.716 132.859 133.845C132.872 133.935 132.923 134.017 133.002 134.077C133.081 134.137 133.183 134.171 133.289 134.172C133.395 134.173 133.498 134.141 133.578 134.083C133.659 134.024 133.712 133.943 133.727 133.853C134.953 126.812 132.907 119.972 131.173 115.782C135.768 123.404 137.322 133.615 137.34 133.735C137.353 133.824 137.403 133.905 137.481 133.965C137.559 134.025 137.66 134.059 137.765 134.061C137.868 134.06 137.968 134.029 138.048 133.973C138.128 133.916 138.182 133.839 138.203 133.752C139.589 126.9 135.888 119.26 132.982 114.574C134.567 116.498 136.015 118.502 137.318 120.574C137.364 120.648 137.437 120.708 137.528 120.742C137.618 120.777 137.719 120.784 137.815 120.763C137.911 120.743 137.996 120.695 138.056 120.628C138.115 120.561 138.147 120.479 138.145 120.395C137.95 112.518 132.405 109.745 130.262 108.966C135.725 106.088 147.546 106.881 147.672 106.888C147.729 106.892 147.787 106.887 147.842 106.872C147.897 106.857 147.948 106.833 147.992 106.801C148.036 106.769 148.072 106.73 148.098 106.687C148.125 106.643 148.141 106.595 148.145 106.547C148.15 106.498 148.144 106.448 148.126 106.402C148.108 106.355 148.08 106.312 148.043 106.274C148.005 106.237 147.96 106.206 147.908 106.184C147.857 106.161 147.801 106.148 147.743 106.144L147.748 106.146Z" fill="#000001" />
	<path d="M113.729 92.933C116.356 94.5648 118.547 96.6514 120.157 99.0555C121.767 101.459 122.759 104.126 123.069 106.88C122.379 106.567 121.683 106.284 120.994 106.037C120.888 106.001 120.769 106.002 120.663 106.04C120.557 106.077 120.473 106.149 120.429 106.238C120.384 106.328 120.383 106.429 120.425 106.52C120.467 106.61 120.549 106.683 120.653 106.723C121.572 107.055 122.466 107.432 123.332 107.854C123.398 107.887 123.473 107.904 123.55 107.903C123.626 107.903 123.701 107.886 123.767 107.854C123.834 107.821 123.889 107.775 123.927 107.718C123.966 107.662 123.986 107.598 123.987 107.533C123.807 104.857 123.005 102.238 121.626 99.8281C120.247 97.4177 118.32 95.264 115.955 93.4916C117.21 94.0204 118.324 94.7612 119.231 95.6686C119.268 95.7066 119.315 95.7379 119.366 95.7605C119.418 95.7832 119.475 95.7968 119.533 95.8005C119.592 95.8042 119.65 95.798 119.706 95.7822C119.761 95.7664 119.812 95.7414 119.856 95.7085C119.9 95.6757 119.935 95.6357 119.961 95.591C119.986 95.5463 120.001 95.4977 120.004 95.4481C120.007 95.3985 119.998 95.3489 119.978 95.3022C119.958 95.2556 119.927 95.2127 119.888 95.1763C116.903 92.2985 114.107 92.2598 113.987 92.259C113.894 92.2588 113.804 92.2835 113.729 92.3297C113.654 92.3758 113.598 92.4411 113.569 92.516C113.54 92.5909 113.54 92.6717 113.569 92.7466C113.598 92.8216 113.654 92.8868 113.729 92.933Z" fill="#000001" />
	<path fill-rule="evenodd" clip-rule="evenodd" d="M60.8058 54.7155C59.0394 57.2183 56.6322 59.3503 53.7631 60.9529C53.7631 60.9529 72.7902 69.1454 86.4711 60.1046C86.4711 60.1046 80.0379 58.2852 79.5518 54.5271L60.8058 54.7155Z" fill="#000001" />
	<path d="M70.9642 64.7126C65.0376 64.6138 59.198 63.4814 53.807 61.3857C53.751 61.367 53.7002 61.3387 53.6576 61.3026C53.6151 61.2664 53.5817 61.2232 53.5597 61.1757C53.5376 61.1281 53.5273 61.0771 53.5294 61.026C53.5316 60.9749 53.546 60.9247 53.572 60.8786C53.5979 60.8324 53.6347 60.7913 53.6801 60.7578C53.7256 60.7243 53.7786 60.6991 53.836 60.6838C53.8934 60.6685 53.9539 60.6634 54.0137 60.6688C54.0735 60.6743 54.1313 60.6902 54.1836 60.7154C56.0904 61.487 73.1836 68.0179 85.7793 60.0861C85.8726 60.0361 85.9847 60.0179 86.0931 60.0351C86.2015 60.0523 86.2983 60.1037 86.3641 60.179C86.4299 60.2542 86.4599 60.3478 86.4481 60.441C86.4363 60.5343 86.3836 60.6203 86.3004 60.6819C81.839 63.4064 76.4555 64.8213 70.9642 64.7126Z" fill="#000001" />
	<path fill-rule="evenodd" clip-rule="evenodd" d="M63.2495 52.9051C63.6875 47.2978 66.1285 44.5488 71.0342 44.522C75.4187 44.4982 76.9024 47.2032 77.4279 52.2609C77.4332 52.0263 77.5733 51.5906 78.5113 51.4849C79.8339 51.3404 81.1319 54.8542 77.6031 55.8149C77.2335 60.2344 72.0615 61.1691 70.6304 61.2845C69.6862 61.359 64.4565 60.4258 63.373 56.4055C61.8096 57.0364 59.6638 53.9478 60.8865 52.4866C62.1092 51.0253 63.2495 52.9051 63.2495 52.9051Z" fill="white" />
	<path fill-rule="evenodd" clip-rule="evenodd" d="M67.0552 60.5166L66.859 62.602C66.859 62.602 63.268 63.4845 60.5774 63.9314C57.8867 64.3783 54.4972 67.0684 53.7588 68.829C53.0205 70.5896 52.7577 72.424 51.1759 73.883C49.5941 75.342 42.935 84.6724 45.8586 85.6004C48.7822 86.5284 55.641 76.2275 58.9526 73.4838L79.5493 73.1323C79.5493 73.1323 84.9796 84.2211 90.6105 84.7692C96.1941 85.3137 91.9585 80.1688 89.6129 76.8747C86.4668 72.459 86.148 71.4513 85.1294 69.1247C84.1108 66.798 83.107 64.6792 79.0658 63.8227C77.239 63.4948 75.4545 63.0151 73.738 62.3905L73.6294 60.5137L67.0552 60.5166Z" fill="white" />
	<path d="M70.6603 56.7808C70.5879 56.7372 70.5006 56.7155 70.412 56.719C70.3235 56.7225 70.2388 56.751 70.1716 56.8001C70.0072 56.8941 69.8176 56.9514 69.6204 56.9669C69.4231 56.9824 69.2245 56.9555 69.0426 56.8888C67.7349 56.4419 68.4978 55.0656 69.1573 55.4737C69.2504 55.5313 69.3131 55.6178 69.3318 55.7144C69.3504 55.8109 69.3237 55.9099 69.2572 55.9898C69.2278 56.025 69.2111 56.0667 69.209 56.1097C69.2527 56.1488 69.3072 56.178 69.3675 56.1946C69.5278 56.249 69.5751 56.2267 69.7494 56.1455C69.9403 56.0374 70.1628 55.9768 70.392 55.9705C70.6212 55.9642 70.8479 56.0124 71.0465 56.1097C71.4284 56.2691 71.728 56.249 71.8103 56.1842C71.8611 56.1447 71.9058 55.9861 71.749 55.6413C71.7073 55.549 71.7104 55.4465 71.7576 55.3562C71.8048 55.2659 71.8923 55.1952 72.0008 55.1598C72.1093 55.1243 72.2299 55.127 72.3361 55.1671C72.4423 55.2073 72.5253 55.2817 72.567 55.3739C73.1766 56.7264 71.9618 57.3222 70.6603 56.7808Z" fill="#000001" />
	<path fill-rule="evenodd" clip-rule="evenodd" d="M68.2639 43.2094C68.2677 43.1564 68.2774 43.1038 68.2928 43.0523C68.2928 43.0523 64.4522 41.3944 66.4448 39.1854C68.4373 36.9765 69.8895 36.8536 72.6493 37.0807C75.4092 37.3079 79.5143 41.2619 73.5182 43.2817L73.2011 43.3867C79.9146 45.02 79.5563 52.0781 79.5563 52.0781C79.5563 52.0781 78.0218 50.5886 77.4604 52.3187L77.04 49.9898C74.4333 48.9784 72.3861 47.1506 71.325 44.8874C69.1805 47.1893 66.5408 49.1236 63.5466 50.5871L63.2637 52.8415C63.2637 52.8415 62.5025 51.3885 61.2667 52.1146C61.2649 52.1146 61.1695 44.4137 68.2639 43.2094Z" fill="#000001" />
	<path d="M70.4614 58.5922C69.5946 58.5812 68.7539 58.338 68.059 57.8973C67.969 57.8365 67.9107 57.7481 67.8967 57.6512C67.8827 57.5542 67.9141 57.4564 67.984 57.3789C68.054 57.3014 68.157 57.2504 68.2708 57.2369C68.3846 57.2234 68.5001 57.2485 68.5924 57.3067C69.1515 57.6821 69.8557 57.8657 70.5662 57.8213C71.2767 57.7769 71.9418 57.5078 72.4304 57.0669C72.51 56.995 72.62 56.953 72.7362 56.95C72.8523 56.9471 72.965 56.9835 73.0496 57.0513C73.1341 57.119 73.1836 57.2125 73.187 57.3113C73.1905 57.41 73.1477 57.5059 73.068 57.5778C72.7424 57.8938 72.3418 58.1476 71.8925 58.3224C71.4432 58.4973 70.9555 58.5892 70.4614 58.5922V58.5922Z" fill="#000001" />
	<path d="M70.3441 59.631C70.0755 59.637 69.8107 59.5756 69.5829 59.4545C69.4869 59.3989 69.4207 59.3131 69.3991 59.216C69.3774 59.1189 69.4019 59.0185 69.4673 58.9368C69.5327 58.8552 69.6336 58.7989 69.7477 58.7805C69.8619 58.7621 69.98 58.7829 70.076 58.8385C70.1067 58.8534 70.4588 59.0046 71.1017 58.665C71.1505 58.638 71.2052 58.6195 71.2625 58.6107C71.3199 58.6019 71.3787 58.6029 71.4356 58.6136C71.4924 58.6244 71.5462 58.6447 71.5937 58.6733C71.6413 58.702 71.6816 58.7384 71.7124 58.7805C71.7431 58.8226 71.7637 58.8694 71.7729 58.9183C71.7821 58.9673 71.7797 59.0173 71.7659 59.0654C71.7521 59.1135 71.7272 59.1588 71.6925 59.1986C71.6579 59.2385 71.6142 59.272 71.5641 59.2973C71.2025 59.504 70.7796 59.6197 70.3441 59.631V59.631Z" fill="#000001" />
	<path d="M66.52 53.9585C65.8653 53.9322 65.2445 53.7034 64.7744 53.315C64.7005 53.2436 64.6615 53.1507 64.6656 53.0556C64.6696 52.9604 64.7164 52.8702 64.7962 52.8035C64.876 52.7368 64.9829 52.6985 65.0948 52.6967C65.2068 52.6949 65.3153 52.7296 65.398 52.7937C65.7185 53.0538 66.1411 53.2035 66.584 53.2137C66.8162 53.1877 67.0391 53.1197 67.2379 53.0144C67.4367 52.9091 67.6067 52.7688 67.7366 52.603C67.772 52.5638 67.8162 52.5309 67.8668 52.5063C67.9173 52.4818 67.9731 52.466 68.0308 52.46C68.0886 52.454 68.1472 52.4578 68.2032 52.4712C68.2592 52.4847 68.3115 52.5075 68.357 52.5383C68.4025 52.5692 68.4403 52.6074 68.4683 52.6508C68.4962 52.6942 68.5137 52.7419 68.5197 52.7912C68.5257 52.8404 68.5201 52.8901 68.5033 52.9375C68.4864 52.9849 68.4586 53.0289 68.4215 53.067C68.207 53.3304 67.9237 53.5479 67.5938 53.7026C67.2639 53.8573 66.8964 53.9449 66.52 53.9585V53.9585Z" fill="#000001" />
	<path d="M74.4684 53.9083C73.6981 53.8599 72.9781 53.5647 72.4539 53.0824C72.3795 53.0087 72.3419 52.9133 72.349 52.8164C72.3561 52.7195 72.4075 52.6288 72.4921 52.5637C72.5768 52.4985 72.688 52.464 72.8021 52.4676C72.9162 52.4711 73.0241 52.5124 73.1029 52.5826C73.4616 52.9258 73.9654 53.1344 74.5043 53.1628C74.7296 53.1448 74.9475 53.0849 75.1425 52.9872C75.3375 52.8895 75.5047 52.7564 75.6324 52.5975C75.7058 52.5209 75.812 52.4722 75.9276 52.4621C76.0433 52.4521 76.1589 52.4815 76.249 52.5439C76.3391 52.6063 76.3964 52.6966 76.4082 52.795C76.4201 52.8933 76.3855 52.9916 76.3121 53.0682C76.1011 53.3191 75.8251 53.5254 75.5054 53.671C75.1857 53.8167 74.8309 53.8979 74.4684 53.9083Z" fill="#000001" />
	<path d="M64.7421 50.676C64.6541 50.6758 64.5683 50.6531 64.4958 50.6108C64.4233 50.5685 64.3674 50.5086 64.3354 50.4389C64.3035 50.3693 64.297 50.293 64.3167 50.2201C64.3364 50.1473 64.3815 50.0811 64.4461 50.0303C65.0028 49.6553 65.6618 49.4058 66.3622 49.305C67.0625 49.2042 67.7814 49.2555 68.4522 49.4539C68.5626 49.4831 68.655 49.5482 68.7091 49.635C68.7633 49.7219 68.7749 49.8234 68.7413 49.9175C68.7078 50.0116 68.6319 50.0905 68.5302 50.1372C68.4284 50.1839 68.3091 50.1945 68.1982 50.1666C67.6719 50.0057 67.1067 49.9594 66.554 50.0319C66.0012 50.1043 65.4786 50.2933 65.0338 50.5815C64.9535 50.6424 64.8497 50.6761 64.7421 50.676V50.676Z" fill="#000001" />
	<path d="M75.9793 50.9574C75.9062 50.9575 75.8342 50.9419 75.77 50.9123C75.7057 50.8826 75.6512 50.8398 75.6114 50.7876C74.6848 49.5677 72.4207 50.0138 72.3971 50.0197C72.284 50.0428 72.1649 50.0268 72.0657 49.9752C71.9666 49.9236 71.8957 49.8406 71.8685 49.7445C71.8413 49.6484 71.8601 49.5471 71.9208 49.4628C71.9815 49.3785 72.0791 49.3182 72.1921 49.2951C72.3095 49.2705 75.0824 48.7246 76.3472 50.3832C76.3898 50.4394 76.4139 50.5044 76.4168 50.5712C76.4197 50.6381 76.4014 50.7044 76.3637 50.7632C76.3261 50.8219 76.2705 50.871 76.2029 50.9051C76.1352 50.9393 76.058 50.9574 75.9793 50.9574Z" fill="#000001" />
	<path d="M68.7167 43.5321C70.1331 43.3585 71.576 43.4253 72.9619 43.7287C73.0181 43.7433 73.0772 43.7482 73.1357 43.743C73.1941 43.7379 73.2508 43.7227 73.3022 43.6985C73.3536 43.6744 73.3988 43.6416 73.4351 43.6023C73.4713 43.5629 73.4979 43.5178 73.5131 43.4695C73.5284 43.4213 73.5322 43.3709 73.5241 43.3214C73.516 43.2719 73.4962 43.2243 73.4661 43.1814C73.4359 43.1385 73.3958 43.1012 73.3484 43.0718C73.3009 43.0423 73.2469 43.0213 73.1897 43.01C71.6858 42.6786 70.1192 42.6059 68.5818 42.7962C68.5244 42.8033 68.4693 42.8199 68.4195 42.8451C68.3698 42.8704 68.3264 42.9038 68.292 42.9434C68.2575 42.9831 68.2327 43.0281 68.2188 43.0759C68.205 43.1238 68.2025 43.1735 68.2114 43.2222C68.2203 43.2709 68.2405 43.3176 68.2708 43.3596C68.3011 43.4016 68.3409 43.438 68.3879 43.4669C68.4349 43.4957 68.4882 43.5163 68.5446 43.5275C68.601 43.5387 68.6595 43.5402 68.7167 43.5321Z" fill="#000001" />
	<path fill-rule="evenodd" clip-rule="evenodd" d="M61.1283 80.6763C61.1283 80.6763 61.6477 83.4319 62.0147 84.5491C62.0147 84.5491 64.9926 86.7163 70.8827 86.3417C76.7729 85.9671 77.3588 84.7241 77.3588 84.7241L77.8782 80.5236L61.1283 80.6763Z" fill="white" />
	<path fill-rule="evenodd" clip-rule="evenodd" d="M62.3711 63.5881C62.3711 63.5881 59.0752 70.8213 58.9553 73.4719C58.8353 76.1225 61.1169 80.6604 61.1169 80.6604C66.6801 81.8134 72.5037 81.6893 77.992 80.3007C77.992 80.3007 79.8839 75.3994 79.8839 73.0764C79.8839 70.7535 77.9938 63.5777 77.9938 63.5777L74.965 62.7971C74.965 62.7971 77.9938 71.3329 70.1181 71.2994C62.9544 71.2689 65.4243 62.9297 65.4243 62.9297L62.3711 63.5881Z" fill="black" />
	<path d="M61.031 81.0262C60.9612 81.0144 60.8959 80.9883 60.8406 80.9501C60.7854 80.912 60.7419 80.8629 60.714 80.8073C60.6194 80.6189 58.3956 76.1614 58.5182 73.4579C58.6391 70.7768 61.8272 63.7521 61.9629 63.4542C61.9886 63.3994 62.0292 63.3505 62.0815 63.3117C62.1337 63.2729 62.1961 63.2451 62.2634 63.2308L65.3148 62.5724C65.3884 62.5565 65.4655 62.5571 65.5386 62.5742C65.6118 62.5913 65.6785 62.6242 65.7322 62.6698C65.7859 62.7153 65.8247 62.772 65.8449 62.8342C65.8651 62.8964 65.8659 62.9619 65.8474 63.0245C65.8342 63.0684 64.5791 67.4283 66.6032 69.6455C67.0284 70.0802 67.5685 70.4232 68.1793 70.6466C68.7902 70.87 69.4545 70.9675 70.118 70.9309C71.9136 70.9041 73.244 70.4707 74.0594 69.5404C76.0564 67.2667 74.5578 62.9515 74.5429 62.9083C74.52 62.8438 74.5182 62.7753 74.5375 62.71C74.5568 62.6448 74.5965 62.5851 74.6525 62.5375C74.7085 62.4899 74.7786 62.4561 74.8554 62.4397C74.9322 62.4233 75.0127 62.4249 75.0885 62.4443L78.1173 63.2248C78.1915 63.2439 78.2584 63.2794 78.3111 63.3277C78.3639 63.376 78.4007 63.4353 78.4177 63.4996C78.4956 63.7975 80.32 70.7388 80.32 73.0781C80.32 75.436 78.4807 80.2182 78.4063 80.42C78.3841 80.4777 78.3457 80.5299 78.2945 80.5721C78.2432 80.6143 78.1805 80.6451 78.112 80.6621C72.5397 81.9731 66.6736 82.0982 61.031 81.0262ZM61.4322 80.3344C66.7899 81.3259 72.3491 81.2102 77.6434 79.997C77.985 79.0832 79.4433 75.0614 79.4433 73.0706C79.4433 71.0337 77.9281 65.0681 77.6171 63.8668L75.5781 63.3417C76.7535 67.7701 75.4958 71.7435 70.111 71.6682C65.0573 71.6474 63.9284 67.6741 64.8463 63.4341L62.696 63.8981C62.1924 65.0249 59.4957 71.1521 59.3906 73.4825C59.2916 75.7332 61.0188 79.4741 61.4322 80.3351V80.3344Z" fill="#000001" />
	<path fill-rule="evenodd" clip-rule="evenodd" d="M45.7737 85.5668C45.7737 85.5668 47.5517 86.7398 55.1953 83.3459C62.013 80.3192 68.9462 76.176 69.2545 74.7394C69.7839 75.4441 70.5218 76.0181 71.3943 76.4039C72.708 76.9081 76.7519 79.5424 79.0738 81.0997C81.3957 82.657 90.3907 87.1152 93.3765 85.2302C96.3623 83.3452 86.7147 78.4528 84.0924 78.1445C81.4701 77.8361 76.6415 76.071 74.8083 74.5793C72.9752 73.0875 72.405 74.5264 72.3122 71.0438C72.2193 67.5613 71.0159 65.2347 69.4218 65.3225C69.1828 65.2343 68.9164 65.215 68.6633 65.2678C68.4102 65.3205 68.1844 65.4423 68.0205 65.6145C67.2646 66.2237 65.872 70.6238 66.2258 73.6401C65.0615 74.2823 63.8424 74.8496 62.5788 75.3374C60.489 76.1425 55.2741 77.5017 53.1502 78.242C51.0262 78.9823 46.3176 81.1637 45.7737 85.5668Z" fill="white" />
	<path d="M62.3702 55.5836C62.254 55.5836 62.1426 55.5444 62.0605 55.4745C61.9784 55.4047 61.9322 55.31 61.9322 55.2112C61.9384 53.5958 61.3507 53.1162 61.3507 53.1162C61.2662 53.0504 61.2149 52.9595 61.2074 52.8624C61.1999 52.7652 61.2368 52.6694 61.3104 52.5948C61.3828 52.5212 61.4862 52.4746 61.5985 52.465C61.7108 52.4554 61.823 52.4835 61.9112 52.5434C62.0041 52.6068 62.816 53.2204 62.8081 55.2127C62.8076 55.3112 62.7613 55.4055 62.6792 55.475C62.5971 55.5446 62.486 55.5836 62.3702 55.5836Z" fill="#000001" />
	<path d="M77.9884 55.1057H77.9683C77.9108 55.1035 77.8544 55.0917 77.8024 55.0709C77.7503 55.0502 77.7035 55.021 77.6647 54.9849C77.6259 54.9488 77.5958 54.9065 77.5763 54.8605C77.5567 54.8146 77.5479 54.7657 77.5505 54.7169C77.6495 52.7991 78.7592 52.0886 78.8065 52.0596C78.8998 52.0105 79.0114 51.993 79.1192 52.0105C79.2269 52.0281 79.323 52.0794 79.3884 52.1543C79.4539 52.2292 79.4838 52.3222 79.4724 52.415C79.461 52.5078 79.409 52.5936 79.3267 52.6554C79.015 52.9323 78.774 53.261 78.6189 53.6209C78.4638 53.9808 78.3979 54.3641 78.4255 54.7467C78.4214 54.843 78.3736 54.9342 78.2921 55.0011C78.2106 55.0681 78.1017 55.1055 77.9884 55.1057Z" fill="#000001" />
	<path d="M69.5217 86.7553C64.4417 86.7553 61.8466 84.9142 61.7266 84.8293C61.6603 84.7813 61.6124 84.7175 61.5891 84.6461C61.2203 83.5223 60.7132 80.8478 60.6922 80.7354C60.6812 80.6864 60.6819 80.6361 60.6942 80.5874C60.7066 80.5387 60.7303 80.4926 60.7639 80.4518C60.7976 80.411 60.8405 80.3764 60.8902 80.3499C60.9399 80.3235 60.9953 80.3059 61.0532 80.298C61.111 80.2901 61.1701 80.2922 61.227 80.3041C61.2839 80.316 61.3374 80.3375 61.3844 80.3673C61.4313 80.3971 61.4708 80.4346 61.5004 80.4776C61.53 80.5207 61.5491 80.5683 61.5567 80.6177C61.5619 80.6437 62.0419 83.1789 62.3957 84.3289C62.9528 84.6796 65.8116 86.2883 70.8469 85.9673C75.6387 85.662 76.7484 84.7802 76.9306 84.594L77.4394 80.4814C77.4428 80.4312 77.458 80.3821 77.4842 80.337C77.5105 80.2919 77.5472 80.2518 77.5921 80.2192C77.6371 80.1865 77.6894 80.1619 77.7458 80.1468C77.8022 80.1318 77.8617 80.1267 77.9205 80.1317C77.9794 80.1367 78.0364 80.1518 78.0882 80.1761C78.14 80.2004 78.1855 80.2334 78.2219 80.273C78.2583 80.3127 78.2848 80.3582 78.3 80.4068C78.3152 80.4554 78.3186 80.5061 78.3101 80.5559C77.746 85.0863 77.7968 84.7817 77.7618 84.8569C77.647 85.1004 76.7756 86.3345 70.9117 86.7069C70.4317 86.7404 69.9666 86.7553 69.5217 86.7553Z" fill="#000001" />
	<path fill-rule="evenodd" clip-rule="evenodd" d="M45.8893 118.654C45.8893 118.654 58.1224 116.652 59.8864 116.941C61.6503 117.23 64.009 120.367 64.6659 121.937C65.3228 123.507 65.7169 124.973 65.1319 125.697C64.5468 126.421 64.9392 127.41 66.1663 127.213C66.8089 127.089 67.3776 126.772 67.7681 126.321C68.1587 125.869 68.3449 125.314 68.2928 124.755C68.122 123.608 67.6351 110.685 67.6351 110.685C67.6351 110.685 67.1822 110.003 64.3392 111.234C61.4962 112.466 61.413 112.352 59.5553 112.203C57.6976 112.054 51.0595 111.401 48.4109 111.551L45.8893 118.654Z" fill="white" />
	<path fill-rule="evenodd" clip-rule="evenodd" d="M78.0043 128.098C71.4117 128.657 68.6405 128.96 68.6405 128.96C68.6405 128.96 68.9645 144.415 68.2901 146.868C67.6157 149.321 67.127 156.262 67.7813 158.088C68.4355 159.914 69.5076 161.113 70.4018 161.062C71.2961 161.012 70.8757 159.595 70.8757 159.595C70.8757 159.595 71.727 160.894 72.6642 160.726C73.6013 160.558 72.9751 159.797 72.9751 159.797C72.9751 159.797 74.4115 160.932 74.493 159.747C74.7213 159.69 74.9166 159.563 75.0412 159.39C75.1657 159.217 75.2107 159.012 75.1674 158.813C75.5003 157.986 75.5104 157.09 75.1963 156.258C74.634 155.099 72.1711 152.422 71.9722 151.26C71.8531 148.881 72.3284 146.508 73.3666 144.297C74.5148 142.294 77.8352 133.779 78.0043 128.098Z" fill="white" />
	<path fill-rule="evenodd" clip-rule="evenodd" d="M62.0007 84.5383C62.0007 84.5383 59.198 86.4099 57.6792 90.9894C57.6792 90.9894 26.8245 108.404 28.4431 115.882C29.573 121.104 45.7649 118.712 45.7649 118.712C45.7649 118.712 48.4705 114.963 48.2839 111.553C48.2839 111.553 62.7102 103.046 66.0638 100.935C66.0638 100.935 68.1659 111.335 68.1028 115.715C68.0397 120.095 68.1904 126.895 68.6283 128.834C69.0663 130.773 77.9921 130.817 77.9921 128.067C77.9921 125.317 75.5896 118.86 76.0276 114.996C76.4655 111.131 80.6258 103.067 80.6258 94.8905C80.6258 86.7145 77.3484 84.7178 77.3484 84.7178C77.3484 84.7178 70.9502 88.4088 62.0007 84.5383Z" fill="black" />
	<g opacity="0.75">
		<path opacity="0.75" d="M69.9902 96.6598L65.4734 97.4135L68.8288 100.541L69.9902 96.6598Z" fill="black" />
		<path opacity="0.75" d="M70.4307 110.809L74.9475 111.563L71.5929 114.691L70.4307 110.809Z" fill="black" />
		<path opacity="0.75" d="M38.6127 117.08V114.063L41.6247 114.687L38.6127 117.08Z" fill="black" />
		<path opacity="0.75" d="M30.1483 113.693L32.5631 110.378L33.6614 114.687L30.1483 113.693Z" fill="black" />
		<path opacity="0.75" d="M69.9807 86.3037L69.1775 87.4067L72.6897 88.401L72.1291 86.1987C71.4167 86.276 70.6988 86.3111 69.9807 86.3037V86.3037Z" fill="black" />
		<path opacity="0.75" d="M43.3265 105.77L41.6248 102.753H44.6351L43.3265 105.77Z" fill="black" />
		<path opacity="0.75" d="M70.2688 125.229L69.9903 122.018L68.1624 122.74C68.1729 123.087 68.1851 123.43 68.1974 123.765L70.2688 125.229Z" fill="black" />
		<path opacity="0.75" d="M47.6488 112.509L44.635 110.379L47.3712 109.299L47.6488 112.509Z" fill="black" />
		<path opacity="0.75" d="M61.151 95.0658L59.4484 92.0495H62.4596L61.151 95.0658Z" fill="black" />
		<path opacity="0.75" d="M74.7128 101.674L77.6977 103.833L74.9475 104.887L74.7128 101.674Z" fill="black" />
		<path opacity="0.75" d="M53.7876 96.6598L52.6972 93.9406C51.7565 94.5156 50.7204 95.1591 49.6221 95.8554L53.7876 96.6598Z" fill="black" />
		<path opacity="0.75" d="M54.1344 101.803L51.2581 104.887L49.594 100.884L54.1344 101.803Z" fill="black" />
		<path opacity="0.75" d="M73.6392 94.4419V91.4248L76.6504 92.0489L73.6392 94.4419Z" fill="black" />
	</g>
	<path d="M61.8027 84.8704C64.3891 86.0371 67.2659 86.6614 70.1934 86.6914C72.7944 86.7343 75.3574 86.1557 77.5909 85.0216C77.6386 84.9941 77.6793 84.959 77.711 84.9182C77.7426 84.8773 77.7645 84.8316 77.7754 84.7836C77.7862 84.7355 77.7859 84.6861 77.7743 84.6382C77.7627 84.5903 77.7401 84.5448 77.7079 84.5043C77.6756 84.4639 77.6343 84.4292 77.5862 84.4022C77.5382 84.3753 77.4844 84.3567 77.4279 84.3475C77.3715 84.3383 77.3134 84.3386 77.257 84.3484C77.2007 84.3583 77.1472 84.3775 77.0996 84.4049C77.0374 84.4407 70.7934 87.9239 62.1995 84.2061C62.1482 84.1839 62.0923 84.1706 62.0349 84.1668C61.9775 84.163 61.9199 84.1689 61.8652 84.1841C61.8105 84.1992 61.7598 84.2234 61.7161 84.2553C61.6724 84.2871 61.6365 84.3259 61.6105 84.3695C61.5844 84.4132 61.5687 84.4607 61.5643 84.5095C61.5599 84.5583 61.5668 84.6073 61.5846 84.6538C61.6025 84.7003 61.6309 84.7434 61.6683 84.7806C61.7058 84.8177 61.7514 84.8482 61.8027 84.8704V84.8704Z" fill="#000001" />
	<path d="M75.6018 156.117C75.043 154.963 72.5827 152.239 72.4057 151.207C72.2979 148.902 72.7598 146.604 73.7616 144.461C75.0456 142.22 78.2749 133.715 78.443 128.109C78.4456 128.056 78.4359 128.003 78.4144 127.954C78.3929 127.904 78.3601 127.858 78.3179 127.82C78.2756 127.781 78.2248 127.749 78.1683 127.727C78.1117 127.705 78.0506 127.693 77.9885 127.691C77.8723 127.691 77.7609 127.73 77.6788 127.8C77.5967 127.87 77.5505 127.965 77.5505 128.063C77.5505 129.134 75.6184 129.668 73.9639 129.802C71.3775 130.009 69.2019 129.414 69.0547 128.76C68.8632 127.634 68.7485 126.5 68.7114 125.363C68.764 124.65 68.7326 123.934 68.6177 123.226C68.5301 120.705 68.5099 117.869 68.5397 115.714C68.5896 112.081 67.197 104.498 66.6811 101.818C66.5651 100.608 66.0597 99.4483 65.2202 98.4664C65.1554 98.3844 65.055 98.3277 64.941 98.3087C64.827 98.2897 64.7088 98.31 64.6124 98.3651C64.516 98.4202 64.4493 98.5056 64.4269 98.6025C64.4046 98.6995 64.4284 98.8 64.4933 98.8819C64.952 99.4669 65.318 100.101 65.5819 100.767C62.2537 102.844 50.66 109.69 48.4151 111.016C47.5151 111.722 46.3618 112.15 45.1412 112.23C43.8192 112.307 42.5824 112.812 41.6851 113.641C41.6117 113.718 41.577 113.816 41.5888 113.914C41.6005 114.012 41.6577 114.103 41.7477 114.165C41.8377 114.227 41.9532 114.257 42.0687 114.247C42.1843 114.237 42.2904 114.188 42.3638 114.112C43.1113 113.441 44.1286 113.034 45.213 112.972C46.1379 112.912 47.0354 112.678 47.8406 112.286C47.5662 114.431 46.765 116.502 45.4889 118.367C40.9625 119.009 29.7235 119.738 28.8713 115.811C28.8628 115.762 28.8426 115.714 28.812 115.671C28.7814 115.629 28.741 115.592 28.6932 115.562C28.6454 115.533 28.5912 115.513 28.5338 115.502C28.4764 115.491 28.4169 115.49 28.359 115.499C28.3012 115.508 28.246 115.527 28.1969 115.554C28.1478 115.582 28.1057 115.617 28.0731 115.659C28.0406 115.701 28.0182 115.748 28.0074 115.797C27.9966 115.846 27.9976 115.896 28.0103 115.945C29.205 121.467 45.1596 119.172 45.8384 119.073C45.9014 119.063 45.9612 119.042 46.0135 119.01C50.9 118.212 58.5768 117.102 59.7995 117.303C61.2307 117.535 63.55 120.389 64.248 122.058C64.9925 123.836 65.1668 124.988 64.7665 125.484C64.5653 125.714 64.4476 125.988 64.4278 126.274C64.408 126.559 64.4871 126.844 64.6553 127.091C65.3647 128.014 67.0297 127.59 67.9196 126.741C67.9665 127.477 68.0597 128.209 68.199 128.936C68.1911 129.037 68.5275 144.352 67.8601 146.784C67.1848 149.242 66.6733 156.285 67.3582 158.197C67.7961 159.429 68.9076 161.515 70.4237 161.435C70.655 161.422 70.874 161.342 71.0436 161.207C71.2132 161.073 71.3231 160.893 71.3547 160.698C71.5346 160.851 71.7544 160.967 71.9964 161.035C72.2385 161.103 72.496 161.123 72.7482 161.091C72.9236 161.07 73.0896 161.011 73.2305 160.919C73.3714 160.828 73.4825 160.708 73.5531 160.57C73.8046 160.67 74.092 160.684 74.3554 160.609C74.4975 160.551 74.6215 160.466 74.7168 160.359C74.8122 160.253 74.8763 160.129 74.9037 159.997C75.142 159.887 75.3361 159.72 75.461 159.515C75.586 159.311 75.6359 159.079 75.6044 158.851C75.9515 157.963 75.9505 157.004 75.6018 156.117V156.117ZM65.7475 101.589C66.0208 102.995 66.7109 106.664 67.1848 110.13C66.1074 110.152 65.0564 110.418 64.1403 110.9C61.6003 111.999 61.4164 111.982 59.9537 111.86C57.1326 111.624 52.6429 111.196 49.7149 111.158C53.023 109.204 62.3509 103.686 65.7475 101.589ZM66.0829 126.846C65.9621 126.88 65.8321 126.883 65.7093 126.854C65.5865 126.825 65.4764 126.766 65.3928 126.685C65.3212 126.561 65.2926 126.422 65.3101 126.284C65.3276 126.146 65.3906 126.016 65.4917 125.907C66.0856 125.176 65.9577 123.912 65.0783 121.811C64.4065 120.206 61.9944 116.903 59.9695 116.573C58.3859 116.316 49.552 117.69 46.6293 118.155C47.8699 116.233 48.5882 114.098 48.7313 111.909C51.4001 111.822 57.1807 112.375 59.8687 112.601C61.504 112.739 61.8517 112.728 64.5388 111.563C66.3159 110.793 67.0201 110.842 67.2049 110.865C67.2531 112.154 67.7952 124.652 67.8329 125.335C67.7349 125.701 67.5192 126.035 67.2099 126.302C66.9007 126.569 66.5101 126.757 66.0821 126.846H66.0829ZM73.3526 159.587C73.1714 159.249 72.9597 158.923 72.7193 158.613C72.6529 158.535 72.5535 158.482 72.442 158.465C72.3305 158.448 72.2155 158.468 72.1213 158.522C72.0271 158.575 71.9609 158.658 71.9367 158.752C71.9125 158.846 71.9321 158.944 71.9915 159.026C72.1501 159.232 72.2962 159.445 72.4294 159.663C72.8288 160.333 72.813 160.319 72.5739 160.362C72.1071 160.446 71.4861 159.76 71.2601 159.414C71.2082 159.336 71.1245 159.276 71.0245 159.246C70.9246 159.216 70.8152 159.217 70.7166 159.251C70.6181 159.284 70.5371 159.347 70.4887 159.427C70.4403 159.507 70.4278 159.599 70.4535 159.687C70.5411 159.991 70.5919 160.499 70.3755 160.692C69.8027 160.733 68.8252 159.719 68.2025 157.981C67.6034 156.307 68.0177 149.51 68.7193 146.954C69.3078 144.808 69.1572 133.282 69.0968 129.88C70.9904 130.868 75.5317 130.862 77.4603 129.602C76.7312 134.594 75.2232 139.481 72.9759 144.135C71.8998 146.413 71.4106 148.861 71.5413 151.314C71.7611 152.601 74.2345 155.248 74.7942 156.401C74.9553 156.758 75.0257 157.141 75.0009 157.523C74.845 157.29 74.7058 157.109 74.6506 157.035C74.5854 156.953 74.4847 156.897 74.3706 156.878C74.2566 156.859 74.1385 156.88 74.0423 156.935C73.9461 156.991 73.8798 157.076 73.8579 157.173C73.8359 157.27 73.8602 157.371 73.9254 157.453C74.1934 157.79 74.8809 158.786 74.7136 159.141C74.436 158.699 74.0869 158.292 73.6766 157.932C73.6374 157.894 73.5898 157.864 73.5366 157.843C73.4834 157.821 73.4256 157.809 73.3668 157.807C73.308 157.806 73.2494 157.814 73.1944 157.831C73.1394 157.849 73.0892 157.876 73.0467 157.911C73.0043 157.946 72.9705 157.987 72.9473 158.033C72.9242 158.079 72.9122 158.129 72.912 158.179C72.9119 158.229 72.9236 158.278 72.9465 158.324C72.9693 158.37 73.0029 158.412 73.0451 158.447C74.0708 159.361 74.542 160.431 73.3569 159.587H73.3526Z" fill="#000001" />
	<path d="M93.8014 82.5788C93.1532 80.8844 91.1904 78.3537 90.0019 76.6847C88.1414 74.2936 86.6471 71.7105 85.5552 68.9979C84.5654 66.7301 83.5363 64.3863 79.1868 63.4643C77.4796 63.1347 75.8045 62.6948 74.176 62.1483L74.0823 60.5716C74.0794 60.5227 74.0652 60.4748 74.0404 60.4306C74.0157 60.3864 73.981 60.3467 73.9383 60.3139C73.8955 60.2811 73.8456 60.2557 73.7913 60.2393C73.7371 60.2229 73.6796 60.2158 73.622 60.2183C73.5645 60.2208 73.5082 60.2329 73.4562 60.2539C73.4042 60.2749 73.3575 60.3044 73.3189 60.3408C73.2803 60.3771 73.2505 60.4195 73.2312 60.4657C73.2119 60.5118 73.2035 60.5607 73.2065 60.6096L73.3142 62.4127C73.3181 62.4778 73.3419 62.5408 73.3834 62.5956C73.4249 62.6503 73.4826 62.6949 73.5507 62.7248C75.2972 63.3633 77.1138 63.8531 78.974 64.1867C82.9241 65.0246 83.7553 67.0049 84.9867 69.841C85.8862 71.913 86.4433 73.2148 89.9327 78.0119C91.1273 79.5228 92.1441 81.1301 92.9684 82.8104C93.4423 84.0273 93.3774 84.7647 93.1164 84.9352C90.6124 86.5692 82.2269 82.7359 79.3506 80.807C77.9151 79.8432 73.1101 76.6534 71.5809 76.065C70.83 75.7335 70.1891 75.247 69.717 74.65C70.0649 72.6416 70.1179 70.6041 69.8747 68.5846C69.8375 67.9324 69.8495 67.2789 69.9106 66.6281C70.2128 66.8917 70.7059 67.6864 70.7208 70.054C70.7208 70.1528 70.7669 70.2475 70.849 70.3173C70.9312 70.3872 71.0426 70.4264 71.1587 70.4264C71.2748 70.4264 71.3862 70.3872 71.4684 70.3173C71.5505 70.2475 71.5966 70.1528 71.5966 70.054C71.5995 69.3695 71.5409 68.6858 71.4215 68.0089C71.7042 69.0066 71.8544 70.0281 71.869 71.0542C71.9689 74.7602 72.7913 73.4561 74.5018 74.8526C76.4717 76.4568 81.387 78.2085 84.0285 78.5176C84.9552 78.6218 87.2114 78.1824 88.6802 78.884C88.7815 78.9324 88.9012 78.9446 89.0131 78.9179C89.125 78.8912 89.2198 78.8279 89.2767 78.7417C89.3336 78.6556 89.3479 78.5538 89.3166 78.4587C89.2852 78.3636 89.2107 78.2829 89.1094 78.2345C87.4164 77.4257 84.8519 77.8622 84.1477 77.7802C83.6278 77.7137 83.1137 77.6179 82.6088 77.4935C81.7233 76.1944 81.0137 74.8143 80.4936 73.3794C81.2516 72.5295 81.6464 71.4853 81.6129 70.419C81.6053 70.3207 81.5521 70.229 81.4651 70.1639C81.3781 70.0989 81.2644 70.0658 81.1487 70.0719C81.033 70.078 80.9248 70.123 80.848 70.1968C80.7711 70.2707 80.7319 70.3674 80.7388 70.4659C80.7575 71.4529 80.3407 72.41 79.5704 73.1485C79.5225 73.1919 79.4874 73.2445 79.4683 73.3018C79.4492 73.3591 79.4465 73.4195 79.4605 73.4779C79.4745 73.5362 79.5047 73.5909 79.5487 73.6373C79.5927 73.6836 79.6491 73.7203 79.7132 73.7443C80.1529 74.926 80.72 76.0706 81.4071 77.1636C79.1216 76.5452 76.9881 75.5773 75.1114 74.3074C73.1846 72.7434 72.8342 74.2493 72.7466 71.0304C72.6757 68.3552 71.9794 66.3093 70.8373 65.4193C70.4802 65.1219 70.0031 64.9514 69.5033 64.9427C69.1928 64.8513 68.8574 64.8402 68.5394 64.9107C68.2214 64.9812 67.9351 65.1302 67.7166 65.3389C66.8109 66.0695 65.5024 70.4376 65.7652 73.4442C62.5884 75.1639 60.2473 75.7202 56.1439 76.92C57.0882 75.7934 58.1295 74.728 59.2593 73.7324C59.3508 73.5882 59.3964 73.4262 59.3916 73.2624C59.3868 73.0986 59.3319 72.9387 59.2322 72.7985C58.4733 72.0798 58.0726 71.1384 58.1146 70.1732C58.1197 70.0744 58.0784 69.978 57.9999 69.9051C57.9214 69.8322 57.812 69.7888 57.6959 69.7844C57.5798 69.7801 57.4663 69.8151 57.3806 69.8819C57.2949 69.9487 57.2438 70.0417 57.2387 70.1404C57.1862 71.2912 57.6566 72.4151 58.5525 73.2789C57.1524 74.5875 55.8316 75.9559 54.5954 77.3788C52.7466 77.8674 51.0106 78.6232 49.4637 79.6131C49.3898 79.6602 49.3353 79.726 49.308 79.8011C49.2808 79.8761 49.2821 79.9565 49.3118 80.0309C49.3416 80.1053 49.3982 80.1697 49.4736 80.2151C49.549 80.2604 49.6394 80.2843 49.7317 80.2834C49.8265 80.2834 49.9187 80.2573 49.9945 80.2089C51.0118 79.5482 52.1266 79.0038 53.3105 78.5898C55.4266 77.845 60.63 76.4933 62.7531 75.6763C64.0399 75.1813 65.2805 74.6036 66.4641 73.9484C66.5297 73.9108 66.582 73.8589 66.6156 73.798C66.6492 73.7372 66.6629 73.6697 66.655 73.6028C66.3117 70.6737 67.6947 66.3853 68.3148 65.8841C68.4676 65.7481 68.6656 65.6551 68.8824 65.6174C68.9209 65.6756 68.9374 65.7424 68.9296 65.8089C68.2579 66.0025 67.7359 67.4377 67.3794 70.0756C67.3663 70.1737 67.3996 70.2721 67.4718 70.3494C67.5441 70.4266 67.6495 70.4763 67.7648 70.4875C67.822 70.4941 67.8802 70.4908 67.9359 70.4779C67.9917 70.4649 68.0437 70.4424 68.089 70.4119C68.1342 70.3813 68.1717 70.3433 68.1993 70.3001C68.2268 70.2569 68.2437 70.2094 68.2491 70.1605C68.3837 69.0191 68.6447 67.891 69.0286 66.7912C68.9526 67.4258 68.9447 68.065 69.005 68.7008C69.2082 69.8008 69.2125 73.681 68.7799 74.72C68.7637 74.7598 68.7554 74.8015 68.7553 74.8436C68.0214 76.1388 62.0358 79.8887 54.9991 83.0167C47.8986 86.1708 46.0496 85.2726 46.0496 85.2726C45.9095 85.181 45.6555 85.1981 45.5399 84.7892C44.9268 82.5885 50.1609 75.3836 51.5132 74.1391C53.1774 72.6086 53.4559 70.7005 54.1863 68.9577C54.887 67.2775 58.1654 64.7178 60.6764 64.3C63.3539 63.8531 66.9598 62.9728 66.9958 62.9638C67.0812 62.9429 67.1572 62.9003 67.2135 62.8418C67.2698 62.7833 67.3039 62.7115 67.3111 62.6361L67.5073 60.5508C67.5119 60.5019 67.5051 60.4527 67.4873 60.406C67.4696 60.3593 67.4412 60.3161 67.4038 60.2788C67.3663 60.2414 67.3207 60.2107 67.2693 60.1884C67.2179 60.166 67.1619 60.1525 67.1044 60.1486C67.0469 60.1447 66.989 60.1505 66.9341 60.1656C66.8792 60.1807 66.8284 60.2048 66.7844 60.2366C66.7405 60.2684 66.7044 60.3073 66.6781 60.351C66.6519 60.3947 66.636 60.4423 66.6314 60.4912L66.4562 62.3219C65.5497 62.5393 62.7041 63.2074 60.5004 63.5731C57.6617 64.0445 54.139 66.8389 53.3534 68.712C52.6098 70.4823 52.3637 72.2533 50.8616 73.6386C49.5811 74.819 43.9301 82.2935 44.6807 84.9687C44.9294 85.858 45.8666 86.1388 46.936 86.1388C48.3146 86.1388 50.8721 85.6919 55.3968 83.681C60.5442 81.3961 67.6343 77.5427 69.3229 75.4581C69.8313 76.002 70.4758 76.4429 71.2095 76.7487C72.3481 77.1881 75.8787 79.4381 78.7979 81.3976C81.0095 82.8804 90.3417 87.6849 93.6402 85.531C94.5476 84.9374 94.1307 83.4256 93.8014 82.5788Z" fill="#000001" />
	<path d="M126.277 97.0683C126.482 97.9732 126.649 98.8468 126.771 99.6638C126.786 99.7618 126.846 99.8507 126.938 99.9111C127.03 99.9714 127.146 99.9982 127.262 99.9855C127.377 99.9729 127.481 99.9219 127.552 99.8436C127.623 99.7654 127.655 99.6665 127.64 99.5685C127.514 98.7366 127.346 97.8481 127.138 96.9275C127.116 96.8304 127.05 96.7448 126.954 96.6893C126.857 96.6339 126.739 96.6132 126.625 96.6319C126.511 96.6505 126.41 96.707 126.345 96.7888C126.28 96.8707 126.255 96.9712 126.277 97.0683V97.0683Z" fill="#000001" />
	<path d="M78.4596 51.1281C78.2172 51.1514 77.9806 51.2075 77.759 51.2942C77.7108 50.9442 77.5426 50.2835 77.4717 49.9462C77.4594 49.8827 77.4284 49.823 77.3815 49.7726C77.3346 49.7222 77.2734 49.6827 77.2037 49.6579C74.7167 48.6807 72.7612 46.934 71.7357 44.7738C71.7089 44.7103 71.6624 44.6543 71.6011 44.6116C71.5398 44.5689 71.466 44.5412 71.3876 44.5313C71.3093 44.5214 71.2292 44.5298 71.156 44.5556C71.0828 44.5814 71.0192 44.6236 70.9719 44.6777C68.8622 46.9351 66.2704 48.8337 63.3327 50.2739C63.2714 50.3029 63.2192 50.344 63.1805 50.3938C63.1417 50.4436 63.1177 50.5005 63.1102 50.5599C62.9351 51.8818 62.9263 51.9004 62.9167 51.9749C62.7515 51.8298 62.5477 51.7208 62.3224 51.6569C62.0971 51.5931 61.8571 51.5764 61.6226 51.6083C61.3881 51.6402 61.1661 51.7196 60.9755 51.84C60.7848 51.9603 60.6311 52.118 60.5273 52.2996C59.1873 53.9016 61.1229 57.0028 63.0752 56.8755C63.4508 57.96 64.1748 58.934 65.1659 59.6877C66.6927 60.8519 68.6369 61.5439 70.6838 61.6517C70.9781 61.6286 77.4095 61.0499 78.0261 56.0927C81.6548 54.8951 80.3331 50.9375 78.4596 51.1281ZM61.2412 52.7353C61.6721 52.2222 62.1547 52.0963 62.8177 53.0407C62.7082 54.0705 62.7279 55.1074 62.8764 56.1337C61.694 56.0257 60.3732 53.7728 61.2412 52.7353ZM70.6006 60.9136C68.8034 60.7815 67.1043 60.1595 65.7562 59.1403C65.0578 58.6001 64.5059 57.9373 64.1387 57.1977C63.7715 56.4581 63.5978 55.6595 63.6296 54.8572C63.6126 53.5044 63.7319 52.153 63.9861 50.8175C66.7279 49.4489 69.173 47.69 71.2146 45.6176C72.3315 47.658 74.2525 49.302 76.6449 50.2649C76.9782 51.8411 77.1616 53.4376 77.1932 55.0389C77.4165 60.3059 70.8791 60.892 70.6006 60.9136ZM78.0734 55.2608C78.0734 54.8624 77.9946 53.3929 77.8737 52.2363C77.8819 52.187 77.9038 52.14 77.9376 52.0993C78.3291 51.6375 79.085 51.8014 79.3688 52.8135C79.5231 53.2859 79.4781 53.7893 79.2415 54.2363C79.0048 54.6834 78.5916 55.0459 78.0734 55.2608V55.2608Z" fill="#000001" />
</svg>
