<svg width="156" height="219" viewBox="0 0 156 219" fill="none" xmlns="http://www.w3.org/2000/svg">
	<path d="M0.179199 31.3166C0.179199 14.0209 14.2001 0 31.4958 0H124.402C141.697 0 155.718 14.0209 155.718 31.3166V186.736C155.718 204.032 141.697 218.053 124.402 218.053H31.4959C14.2002 218.053 0.179199 204.032 0.179199 186.736V31.3166Z" fill="white" />
	<path fill-rule="evenodd" clip-rule="evenodd" d="M82.7233 155.149V158.321C82.7233 158.321 80.8684 159.384 79.3381 158.321V155.193C79.3381 155.193 80.1914 156.089 82.7233 155.149ZM89.9759 73.2448C90.0058 73.4696 90.0933 73.6839 90.2307 73.8692C90.3682 74.0545 90.5513 74.2053 90.7643 74.3081C90.9831 74.4039 91.2251 74.4423 91.4651 74.4191C91.7049 74.3959 91.9337 74.3121 92.1276 74.1763C92.2111 74.1763 92.1276 74.0093 92.072 74.0445C91.7489 74.1537 91.3959 74.1549 91.072 74.0478C90.7481 73.9408 90.4725 73.7318 90.2913 73.4557C90.2285 73.3782 90.1727 73.296 90.1243 73.2097C90.0965 73.0867 89.9481 73.157 89.9759 73.2448ZM88.5662 66.6106C88.9939 66.2745 89.4847 66.0179 90.013 65.8549C90.0328 65.8549 90.0517 65.8476 90.0655 65.8343C90.0795 65.8212 90.0872 65.8033 90.0872 65.7846C90.0872 65.7661 90.0795 65.7481 90.0655 65.735C90.0517 65.7217 90.0328 65.7144 90.013 65.7144C89.8539 65.6837 89.69 65.6837 89.5308 65.7144C89.2122 65.7832 88.922 65.939 88.6961 66.1625C88.5826 66.2716 88.4969 66.4039 88.4456 66.5491C88.4443 66.563 88.4472 66.5769 88.4541 66.5891C88.4608 66.6014 88.4714 66.6114 88.4843 66.618C88.4972 66.6245 88.5119 66.6274 88.5264 66.626C88.5411 66.6248 88.5549 66.6194 88.5662 66.6106ZM29.0797 112.699C28.7144 112.658 28.3541 112.585 28.0039 112.479C27.568 112.075 29.1539 107.303 29.6176 107.295C38.0945 107.005 39.1982 107.391 39.3836 107.549C40.2091 108.244 39.7361 122.865 38.8272 123.208C37.2623 123.715 35.6211 123.979 33.9673 123.99C32.3101 124.016 30.6631 123.738 29.1168 123.173C29.0923 123.162 29.0716 123.144 29.0569 123.122C29.0421 123.101 29.034 123.076 29.0333 123.05C28.9406 121.038 28.8108 114.79 29.0797 112.699ZM39.1332 107.804C38.5118 107.382 30.4616 107.593 29.7104 107.611C28.9772 109.067 28.477 110.619 28.2265 112.215C29.4078 112.518 30.6296 112.654 31.8528 112.62C33.7141 112.644 35.5744 112.532 37.4175 112.286C37.5473 111.231 37.9368 109.07 38.7344 108.305C38.7993 108.244 38.9106 108.305 38.8457 108.411C38.0667 109.166 37.705 111.451 37.6122 112.382L37.5287 112.47C34.7953 112.903 32.0127 112.986 29.2559 112.716C29.0148 114.816 29.2559 120.853 29.3394 122.953C32.345 123.93 35.6083 123.93 38.6139 122.953C39.4949 120.932 39.6804 108.973 39.1332 107.804ZM58.4149 51.7957C58.4785 52.1884 58.61 52.5685 58.8044 52.9204C58.8106 52.9415 58.8253 52.9592 58.8454 52.9699C58.8653 52.9807 58.8891 52.9834 58.9111 52.9776C58.9332 52.9717 58.952 52.9578 58.9633 52.939C58.9746 52.9199 58.9776 52.8976 58.9713 52.8765C59.0192 52.6622 59.0068 52.4399 58.9351 52.2317C58.8634 52.0233 58.7353 51.8367 58.5633 51.6902C58.556 51.681 58.5467 51.6733 58.5365 51.6674C58.5258 51.6615 58.5142 51.6576 58.5022 51.656C58.4901 51.6544 58.4779 51.6551 58.4661 51.658C58.4543 51.6607 58.4432 51.6658 58.4334 51.6727C58.4236 51.6797 58.4156 51.6883 58.4093 51.6982C58.4031 51.7081 58.399 51.7192 58.3973 51.7307C58.3957 51.742 58.3963 51.7537 58.3992 51.7648C58.4022 51.776 58.4076 51.7864 58.4149 51.7957ZM56.5043 53.1401C56.4005 53.3692 56.347 53.6157 56.347 53.8651C56.347 54.1143 56.4005 54.361 56.5043 54.59C56.5043 54.6087 56.5121 54.6265 56.5261 54.6396C56.5399 54.6529 56.559 54.6603 56.5785 54.6603C56.5983 54.6603 56.6171 54.6529 56.631 54.6396C56.645 54.6265 56.6527 54.6087 56.6527 54.59C56.6527 54.5021 56.6527 54.3439 56.7084 54.2385C56.7445 53.8864 56.7257 53.531 56.6527 53.184C56.6558 53.1748 56.6569 53.1652 56.6559 53.1554C56.6551 53.1458 56.6521 53.1366 56.6473 53.128C56.6428 53.1193 56.6362 53.1118 56.6284 53.1056C56.6205 53.0994 56.6114 53.0947 56.6018 53.0918C56.592 53.089 56.5817 53.0879 56.5716 53.0888C56.5613 53.0896 56.5516 53.0923 56.5424 53.0968C56.5333 53.1014 56.5254 53.1075 56.5188 53.115C56.5123 53.1224 56.5074 53.1308 56.5043 53.1401ZM58.5447 56.3913C58.5931 56.7 58.6999 56.9976 58.8601 57.27C58.8601 57.3579 59.0084 57.3491 58.9992 57.27C59.074 57.0923 59.074 56.8942 58.9992 56.7164C58.9673 56.5704 58.8818 56.4397 58.758 56.3474C58.7166 56.3162 58.6693 56.2924 58.6189 56.2771C58.6113 56.2688 58.6017 56.2622 58.5909 56.2581C58.5801 56.2539 58.5685 56.2521 58.5569 56.2531C58.5452 56.2541 58.5339 56.2574 58.5242 56.2633C58.5142 56.2691 58.5058 56.2769 58.4997 56.2863C58.4936 56.2958 58.4899 56.3063 58.4889 56.3173C58.4881 56.3284 58.4898 56.3394 58.4941 56.3496C58.4985 56.3598 58.5054 56.3689 58.5142 56.3763C58.523 56.3835 58.5334 56.3886 58.5447 56.3913ZM57.6173 58.1487C57.5272 58.3781 57.4962 58.6245 57.5269 58.8675C57.5574 59.1105 57.649 59.3431 57.7935 59.5458C57.7972 59.5545 57.8026 59.5625 57.8095 59.569C57.8163 59.5757 57.8245 59.5812 57.8336 59.5848C57.8426 59.5883 57.8523 59.5904 57.8621 59.5906C57.8721 59.5906 57.8817 59.589 57.891 59.5855C57.9001 59.582 57.9083 59.5768 57.9154 59.5703C57.9225 59.5637 57.9281 59.5561 57.9319 59.5474C57.9358 59.539 57.9378 59.5297 57.938 59.5204C57.9382 59.511 57.9363 59.5018 57.9326 59.4931V59.1153C57.9166 58.7881 57.8604 58.4638 57.7657 58.1487C57.7657 58.0169 57.6173 58.0081 57.6173 58.1487ZM55.1503 79.6594C54.8019 79.5982 54.4425 79.6255 54.1087 79.738C53.7748 79.8506 53.4782 80.0449 53.249 80.3008C53.3915 79.9132 53.5062 79.5169 53.5921 79.1146C53.7611 78.9845 53.9002 78.8229 54.0007 78.6399C54.1014 78.4568 54.1613 78.2563 54.1769 78.0504C54.1926 77.8446 54.1636 77.6379 54.0918 77.4431C54.0198 77.2484 53.9066 77.0696 53.7591 76.9178C53.4468 77.1885 53.2416 77.5523 53.1773 77.9486C53.1132 78.345 53.1942 78.7503 53.4067 79.097C53.2912 79.515 53.1487 79.9259 52.98 80.3272C53.0256 79.9693 52.9625 79.6065 52.7983 79.2812C52.634 78.9559 52.3753 78.6818 52.0526 78.4907C51.8625 78.9023 51.8317 79.364 51.9657 79.7949C52.0998 80.2256 52.39 80.5978 52.7853 80.8456C52.5441 81.3641 52.2659 81.8737 51.9691 82.3746C52.0683 81.9779 52.0318 81.5615 51.8652 81.1858C51.6985 80.8098 51.4101 80.4938 51.0417 80.2833C50.8504 80.6955 50.8201 81.1586 50.956 81.59C51.0919 82.0213 51.3853 82.3928 51.7836 82.6382C51.459 83.1566 51.1066 83.6487 50.7449 84.132C50.8843 83.7108 50.8675 83.2571 50.697 82.8464C50.5267 82.4354 50.213 82.0923 49.8082 81.8737C49.6144 82.2909 49.5857 82.7601 49.727 83.1958C49.8684 83.6314 50.1704 84.0047 50.5779 84.2462C50.5731 84.2521 50.5695 84.2587 50.5673 84.266C50.5651 84.2726 50.5645 84.2799 50.5653 84.2879C50.5661 84.2953 50.5685 84.3018 50.5724 84.3085C50.5761 84.3151 50.5811 84.321 50.5872 84.3253C50.5933 84.3298 50.6004 84.3334 50.6078 84.3355C50.6152 84.3378 50.6231 84.3386 50.6309 84.3371C50.6386 84.3363 50.6461 84.3341 50.653 84.3304C50.6597 84.3267 50.6658 84.3224 50.6707 84.3165C51.1457 84.4191 51.6437 84.3553 52.0732 84.1371C52.5025 83.9192 52.8345 83.5616 53.0079 83.1303C52.4876 83.0207 51.9426 83.1058 51.4868 83.3675C51.5889 83.2269 51.7002 83.0951 51.8114 82.9282L51.9506 82.7348C52.4246 82.8085 52.9107 82.7198 53.322 82.4848C53.7333 82.2496 54.0427 81.8836 54.195 81.4519C53.894 81.3962 53.5835 81.405 53.2864 81.478C52.9895 81.551 52.7138 81.6863 52.4792 81.8737C52.6554 81.5574 52.8224 81.2411 52.9708 80.9071C53.4309 80.9762 53.9023 80.8888 54.3011 80.6605C54.6999 80.4322 55.0007 80.0775 55.1503 79.6594ZM52.9151 63.1661C52.4998 63.4147 52.1834 63.7868 52.0155 64.2242C51.8475 64.6615 51.8378 65.1394 51.9877 65.5825C51.5981 65.0817 51.2272 64.5369 50.8747 63.9745C51.3046 63.7037 51.6199 63.2982 51.7657 62.829C51.9116 62.3598 51.8786 61.8572 51.6723 61.4087C51.2821 61.6495 50.9825 62.0009 50.8159 62.4128C50.6493 62.8249 50.6245 63.276 50.7449 63.7021C50.4199 63.158 50.1259 62.5978 49.8638 62.0238C50.2877 61.7524 50.5983 61.3493 50.7424 60.8842C50.8862 60.419 50.8543 59.9208 50.6521 59.4756C50.2992 59.6759 50.0139 59.9676 49.8299 60.3162C49.6459 60.665 49.5709 61.0561 49.6134 61.4439C49.4355 61.0101 49.2839 60.5672 49.1589 60.117C49.3795 59.7374 49.4583 59.2982 49.3825 58.8708C49.3067 58.4435 49.0809 58.0529 48.7416 57.7621C48.5809 57.926 48.4573 58.1196 48.3787 58.3307C48.3 58.5417 48.2679 58.7657 48.2844 58.9891C48.301 59.2123 48.3657 59.4299 48.4747 59.6284C48.5836 59.827 48.7345 60.0023 48.9178 60.1434C49.0023 60.5699 49.1202 60.99 49.2702 61.3999C49.0259 61.129 48.7099 60.9243 48.3548 60.807C47.9995 60.6896 47.6177 60.6639 47.2484 60.7321C47.3941 61.1877 47.7069 61.5792 48.1303 61.8353C48.5539 62.0917 49.0601 62.1959 49.5578 62.1292C49.709 62.4743 49.8793 62.8116 50.0678 63.1397C49.819 62.9293 49.5217 62.7769 49.1998 62.6945C48.8777 62.612 48.5397 62.6021 48.2129 62.6652C48.3693 63.1342 48.6999 63.5334 49.1433 63.7887C49.5868 64.044 50.113 64.1383 50.6243 64.0536C50.77 64.2837 50.9278 64.5065 51.0973 64.7214C50.6203 64.4444 50.0474 64.356 49.5021 64.4754C49.6778 64.9459 50.0302 65.3386 50.4921 65.5786C50.954 65.8185 51.4931 65.8887 52.0062 65.7759C52.0111 65.7816 52.0172 65.7866 52.0239 65.7901C52.0308 65.7936 52.0382 65.7958 52.046 65.7966C52.0538 65.7974 52.0617 65.7968 52.0691 65.7947C52.0767 65.7928 52.0836 65.7893 52.0897 65.7846C52.0958 65.78 52.101 65.7744 52.1047 65.7679C52.1084 65.7615 52.1108 65.7543 52.1116 65.7469C52.1124 65.7396 52.1118 65.7322 52.1096 65.7251C52.1076 65.718 52.1038 65.7113 52.099 65.7056C52.5256 65.4384 52.8404 65.0385 52.9895 64.5751C53.1384 64.1116 53.1121 63.6133 52.9151 63.1661ZM70.1007 76.909C69.7989 77.2203 69.6136 77.6168 69.5734 78.0376C69.5331 78.4584 69.6402 78.8802 69.8781 79.2376C69.4144 78.8686 68.9507 78.4731 68.4962 78.0426C68.8129 77.7111 68.9961 77.2842 69.0129 76.8373C69.0299 76.3903 68.8797 75.9521 68.589 75.5998C68.2932 75.8961 68.105 76.274 68.0517 76.6785C67.9983 77.083 68.0826 77.4933 68.2922 77.8493C67.8705 77.4537 67.471 77.0372 67.0958 76.6015C67.4057 76.2677 67.5828 75.8417 67.5964 75.3972C67.6099 74.9527 67.4592 74.5178 67.17 74.1675C66.9046 74.4244 66.7225 74.7481 66.6452 75.1C66.568 75.452 66.5989 75.8175 66.7341 76.1534C66.4724 75.8059 66.2309 75.4451 66.0107 75.0725C66.1179 74.6885 66.0845 74.2812 65.9161 73.9175C65.7476 73.5537 65.454 73.2546 65.0832 73.0691C64.9797 73.2495 64.9166 73.4479 64.8977 73.6522C64.8787 73.8567 64.9045 74.0625 64.9731 74.2571C65.0419 74.4517 65.1522 74.6308 65.2972 74.7831C65.4422 74.9356 65.6188 75.058 65.8159 75.1428C65.9823 75.4892 66.1746 75.8241 66.3909 76.1446C66.108 75.9578 65.7776 75.8455 65.4338 75.8193C65.09 75.7929 64.745 75.8538 64.434 75.9952C64.6763 76.3665 65.0497 76.6445 65.4878 76.7796C65.9259 76.9146 66.4004 76.8983 66.8268 76.7333C67.0401 77.0057 67.272 77.2693 67.5131 77.5241C67.2442 77.396 66.9472 77.3291 66.6461 77.3291C66.3447 77.3291 66.0479 77.396 65.7788 77.5241C66.0302 77.9025 66.4167 78.1825 66.868 78.3132C67.3192 78.4437 67.8049 78.4164 68.2366 78.2359C68.3293 78.315 68.4221 78.4116 68.8209 78.7192C68.3249 78.5815 67.7914 78.6351 67.3369 78.8685C67.6116 79.2413 68.0199 79.5065 68.486 79.615C68.9517 79.7231 69.4434 79.6672 69.8689 79.4573C69.8744 79.4619 69.8808 79.4654 69.8876 79.4678C69.8947 79.4701 69.9019 79.471 69.9093 79.4707C69.9166 79.4702 69.9238 79.4685 69.9302 79.4654C69.937 79.4624 69.9429 79.4581 69.9478 79.453C69.9525 79.4477 69.9564 79.4418 69.9587 79.4351C69.9611 79.4285 69.9621 79.4217 69.9618 79.4146C69.9613 79.4078 69.9594 79.4009 69.9562 79.3947C69.953 79.3884 69.9486 79.3828 69.9431 79.3782C70.2715 79.0499 70.4673 78.6224 70.4962 78.1709C70.525 77.7194 70.385 77.2725 70.1007 76.909ZM71.325 53.887C71.0009 53.8308 70.6668 53.8573 70.357 53.9638C70.0474 54.0702 69.7733 54.253 69.5628 54.4933C69.695 54.1257 69.8004 53.7499 69.8781 53.3686C70.0358 53.2423 70.1648 53.0874 70.2581 52.9128C70.3511 52.7383 70.4061 52.5479 70.4199 52.3528C70.4339 52.1577 70.4061 51.962 70.3385 51.7771C70.271 51.5925 70.165 51.4225 70.0265 51.2772C69.7383 51.5399 69.5476 51.8835 69.4824 52.2572C69.4173 52.6309 69.4812 53.0147 69.6648 53.351C69.5574 53.747 69.4276 54.1372 69.2753 54.5197C69.3158 54.1733 69.2497 53.8232 69.0853 53.5114C68.9207 53.1997 68.6647 52.9396 68.3479 52.7623C68.1678 53.1521 68.1369 53.5892 68.2605 53.9982C68.3841 54.4072 68.6544 54.7625 69.0249 55.003C68.7994 55.4961 68.5457 55.9772 68.2644 56.444C68.3585 56.0723 68.3276 55.6819 68.1764 55.3276C68.0251 54.9732 67.7609 54.6722 67.4204 54.4669C67.2413 54.8577 67.2118 55.2955 67.3371 55.7046C67.4624 56.1138 67.7347 56.4685 68.1067 56.7076C67.8099 57.1909 67.4853 57.6654 67.1793 58.1223C67.3056 57.7348 67.2941 57.3184 67.1467 56.9375C66.9992 56.5567 66.724 56.232 66.3631 56.0135C66.1827 56.4086 66.1544 56.8511 66.2832 57.2638C66.412 57.6764 66.6897 58.0332 67.068 58.2717C67.068 58.3332 67.068 58.3947 67.1607 58.342V58.2981C67.6052 58.3965 68.0723 58.3361 68.4726 58.1286C68.873 57.921 69.1787 57.5811 69.3309 57.1733C69.0918 57.1211 68.844 57.1146 68.602 57.1537C68.36 57.193 68.1286 57.2774 67.9212 57.4018C68.2458 56.9712 68.2644 56.9185 68.3479 56.7955C68.7915 56.8652 69.247 56.7797 69.6291 56.5551C70.0112 56.3303 70.2941 55.9818 70.4253 55.5741C70.141 55.5223 69.8478 55.5342 69.5692 55.6089C69.2905 55.6837 69.0343 55.8193 68.8209 56.0047C68.9878 55.7147 69.1362 55.4072 69.2753 55.126C69.7171 55.1878 70.1677 55.0966 70.5442 54.8691C70.9208 54.6414 71.198 54.2928 71.325 53.887ZM35.3585 55.4247C34.9786 55.3017 34.5717 55.2736 34.1771 55.3428C33.7822 55.4119 33.4131 55.5765 33.1048 55.8201C33.3239 55.4385 33.5129 55.0419 33.6706 54.6339C33.8832 54.5208 34.0682 54.3661 34.2132 54.1802C34.3581 53.9944 34.4597 53.7814 34.5115 53.5555C34.5631 53.3296 34.5638 53.0958 34.5132 52.8698C34.4626 52.6437 34.3618 52.4304 34.2178 52.2438C33.819 52.4828 33.5208 52.8464 33.3751 53.2717C33.2294 53.6969 33.2455 54.1572 33.4202 54.5724C33.2225 55.0129 32.9964 55.4413 32.7431 55.8553C32.8423 55.461 32.8188 55.0478 32.6757 54.6658C32.5325 54.2838 32.2757 53.9493 31.9363 53.7025C31.6568 54.1271 31.5489 54.6333 31.6324 55.1276C31.7159 55.6217 31.9853 56.0705 32.3907 56.3913C32.0433 56.9166 31.6623 57.4215 31.2499 57.9027C31.4142 57.4825 31.4316 57.0235 31.2997 56.5932C31.1678 56.1628 30.8935 55.784 30.5173 55.5126C30.2382 55.9396 30.1314 56.4479 30.2167 56.9436C30.3019 57.4394 30.5734 57.8891 30.981 58.2102C30.5358 58.7111 30.0535 59.2032 29.5991 59.6601C29.8103 59.2289 29.8601 58.7424 29.7404 58.2808C29.6207 57.8193 29.3386 57.4101 28.9406 57.1206C28.6555 57.5512 28.548 58.0663 28.6386 58.5673C28.7294 59.0682 29.0119 59.52 29.4321 59.8358C29.3672 59.8973 29.4321 59.9852 29.5249 59.9237C30.0562 60.113 30.6422 60.1113 31.1721 59.9184C31.7021 59.7257 32.1389 59.3556 32.4 58.878C31.8385 58.7004 31.2274 58.7255 30.6842 58.9483C31.0923 58.5617 31.1757 58.4475 31.2778 58.342C31.8005 58.5034 32.3666 58.4844 32.8758 58.288C33.3851 58.0918 33.8046 57.7312 34.0601 57.27C33.7262 57.1649 33.3718 57.1309 33.0224 57.1703C32.6728 57.2098 32.3369 57.3219 32.0383 57.4985C32.2794 57.1909 32.5113 56.8658 32.7246 56.5407C33.2321 56.6707 33.7714 56.6306 34.2513 56.4274C34.7314 56.224 35.1224 55.8698 35.3585 55.4247ZM41.6559 78.1656C41.2552 78.3554 40.9406 78.6762 40.7701 79.0687C40.5996 79.4611 40.5849 79.8989 40.7284 80.3008C40.3482 79.8527 39.9679 79.4221 39.6155 78.8773C40.0295 78.6658 40.3433 78.3129 40.493 77.8903C40.6429 77.4677 40.6177 77.0071 40.4224 76.6015C40.0477 76.7878 39.7514 77.0896 39.5828 77.4572C39.4142 77.8248 39.3831 78.236 39.4949 78.6225C39.1567 78.1443 38.8471 77.6486 38.5675 77.1375C38.9692 76.9236 39.2725 76.5756 39.4182 76.1613C39.5639 75.7472 39.5416 75.2964 39.3558 74.8968C39.0152 75.055 38.7338 75.3082 38.5498 75.6223C38.3656 75.9366 38.2877 76.2968 38.3264 76.6542C38.1449 76.2727 37.9931 75.8792 37.8719 75.4768C38.0857 75.1413 38.1606 74.7425 38.0817 74.3578C38.0029 73.9729 37.7761 73.6296 37.4453 73.3942C37.2893 73.5329 37.1684 73.7032 37.0917 73.8925C37.0149 74.0817 36.9844 74.2848 37.0021 74.4869C37.02 74.6888 37.0858 74.8843 37.1947 75.0588C37.3035 75.2333 37.4527 75.3822 37.6308 75.4943C37.721 75.8707 37.8387 76.2407 37.9832 76.6015C37.72 76.3543 37.3987 76.1697 37.0456 76.0628C36.6927 75.9559 36.3178 75.9297 35.9521 75.9864C36.1371 76.4063 36.4647 76.7554 36.8832 76.9782C37.3016 77.2011 37.7867 77.2851 38.2614 77.2166C38.4174 77.5184 38.5908 77.8117 38.7808 78.0953C38.5204 77.9049 38.2211 77.7673 37.9019 77.6917C37.5827 77.6162 37.2503 77.604 36.9259 77.6559C37.1251 78.0823 37.4684 78.4338 37.9016 78.6549C38.3348 78.8761 38.8334 78.9543 39.3187 78.8773L39.4857 79.1058L39.801 79.4836C39.3091 79.237 38.7432 79.1564 38.1965 79.2552C38.415 79.6843 38.781 80.03 39.2344 80.2361C39.6877 80.4421 40.2015 80.4959 40.6913 80.3887C40.7011 80.4004 40.7156 80.4079 40.7311 80.4095C40.7468 80.4111 40.7625 80.4069 40.7748 80.3975C40.7871 80.3882 40.7951 80.3747 40.7967 80.3598C40.7984 80.3451 40.7939 80.3301 40.7841 80.3184C41.179 80.1195 41.4846 79.792 41.6448 79.3964C41.805 79.0008 41.809 78.5637 41.6559 78.1656ZM108.655 34.2655C109.1 34.5085 109.561 34.7229 110.037 34.907C110.047 34.9057 110.057 34.9065 110.066 34.9089C110.075 34.9113 110.085 34.9155 110.092 34.9212C110.1 34.927 110.106 34.9341 110.111 34.9423C110.116 34.9504 110.119 34.9592 110.12 34.9685C110.12 35.3112 108.061 34.3622 108.34 34.494C108.32 34.4855 108.301 34.4732 108.286 34.4581C108.271 34.4427 108.259 34.4248 108.252 34.4052C108.244 34.3855 108.24 34.3646 108.241 34.3437C108.241 34.3227 108.247 34.3021 108.256 34.2831C108.728 33.3141 109.306 32.3952 109.981 31.5416C109.981 31.4537 110.157 31.5416 110.111 31.6118C109.527 32.7805 108.887 33.8086 108.655 34.2655ZM111.113 38.2373C111.316 38.3002 110.919 37.2778 111.131 37.2508C111.343 37.2238 111.184 37.0131 111.363 36.9016C111.541 36.7901 111.363 36.9016 111.818 36.7257C111.131 36.9911 112.049 36.2863 112.513 36.506C112.513 36.1542 114.173 37.0771 114.136 37.165C114.039 37.315 112.525 37.824 111.818 37.824C111.553 38.1599 114.341 37.1867 113.904 37.2508C113.815 37.2575 111.221 38.0858 111.131 38.0791C111.12 38.078 111.11 38.079 111.099 38.0818C111.088 38.0847 111.078 38.0897 111.069 38.096C111.061 38.1026 111.054 38.1107 111.049 38.1199C111.043 38.129 111.04 38.139 111.038 38.1494C111.038 38.1598 111.038 38.1703 111.041 38.1804C111.045 38.1905 111.049 38.1997 111.056 38.2079C111.063 38.2162 111.072 38.2229 111.082 38.228C111.091 38.233 111.102 38.2362 111.113 38.2373ZM137.563 133.498C137.257 133.494 136.954 133.548 136.671 133.657C136.387 133.766 136.129 133.928 135.913 134.132C135.695 134.337 135.524 134.581 135.408 134.849C135.292 135.117 135.233 135.404 135.236 135.694C135.194 136.006 135.222 136.323 135.321 136.624C135.418 136.924 135.582 137.201 135.8 137.437C136.02 137.673 136.29 137.862 136.592 137.991C136.895 138.12 137.223 138.187 137.554 138.187C137.886 138.187 138.214 138.12 138.516 137.991C138.819 137.862 139.088 137.673 139.308 137.437C139.527 137.201 139.691 136.924 139.789 136.624C139.886 136.323 139.914 136.006 139.873 135.694C139.874 135.407 139.816 135.121 139.7 134.854C139.584 134.588 139.414 134.346 139.2 134.141C138.986 133.938 138.731 133.776 138.449 133.665C138.169 133.555 137.868 133.498 137.563 133.498ZM137.563 133.629C138.116 133.657 138.635 133.889 139.01 134.275C139.384 134.66 139.584 135.17 139.567 135.694C139.585 135.954 139.547 136.214 139.455 136.46C139.364 136.704 139.22 136.929 139.032 137.119C138.845 137.309 138.618 137.461 138.366 137.565C138.115 137.668 137.843 137.721 137.568 137.721C137.294 137.721 137.022 137.668 136.77 137.565C136.519 137.461 136.291 137.309 136.104 137.119C135.916 136.929 135.773 136.704 135.681 136.46C135.589 136.214 135.551 135.954 135.569 135.694C135.552 135.172 135.75 134.663 136.123 134.277C136.495 133.892 137.012 133.659 137.563 133.629Z" fill="black" />
	<path fill-rule="evenodd" clip-rule="evenodd" d="M137.508 134.535C137.758 134.524 138.006 134.585 138.219 134.709C138.432 134.833 138.602 135.015 138.704 135.231C138.808 135.447 138.84 135.688 138.797 135.921C138.755 136.155 138.639 136.372 138.466 136.542C138.292 136.713 138.068 136.831 137.823 136.88C137.578 136.929 137.324 136.908 137.091 136.818C136.859 136.729 136.662 136.576 136.523 136.378C136.383 136.181 136.31 135.949 136.312 135.712C136.307 135.406 136.43 135.11 136.654 134.89C136.878 134.669 137.185 134.541 137.508 134.535ZM124.023 85.0108C122.349 85.0182 120.715 85.4955 119.327 86.383C117.94 87.2705 116.861 88.5279 116.229 89.9967C115.596 91.465 115.438 93.0781 115.774 94.632C116.109 96.1857 116.925 97.6108 118.116 98.7252C119.307 99.8397 120.819 100.595 122.464 100.894C124.108 101.194 125.808 101.024 127.351 100.407C128.893 99.79 130.207 98.7538 131.127 97.4283C132.047 96.1029 132.531 94.5492 132.518 92.9631C132.514 91.9123 132.289 90.8718 131.86 89.903C131.43 88.9343 130.803 88.0548 130.013 87.3159C129.224 86.5771 128.288 85.9935 127.26 85.5981C126.233 85.2019 125.133 85.0028 124.023 85.0108ZM124.023 85.1514C125.644 85.1426 127.232 85.5901 128.585 86.4358C129.938 87.2823 130.996 88.4898 131.626 89.906C132.255 91.3222 132.426 92.8834 132.12 94.3917C131.812 95.9002 131.039 97.2878 129.899 98.3804C128.759 99.4729 127.303 100.221 125.714 100.529C124.126 100.837 122.476 100.692 120.975 100.112C119.473 99.5321 118.187 98.5437 117.278 97.271C116.37 95.9983 115.88 94.4994 115.871 92.9631C115.866 90.9047 116.72 88.9284 118.247 87.4653C119.774 86.0015 121.851 85.1698 124.023 85.1514Z" fill="black" />
	<path fill-rule="evenodd" clip-rule="evenodd" d="M124.023 89.3163C123.513 89.3104 123.007 89.4005 122.533 89.5805C122.06 89.7614 121.629 90.0287 121.264 90.3677C120.901 90.7069 120.611 91.1103 120.413 91.5562C120.215 92.0014 120.111 92.4796 120.109 92.9629C120.109 93.9463 120.521 94.8895 121.255 95.5851C121.989 96.2799 122.985 96.671 124.023 96.671C125.061 96.671 126.056 96.2799 126.791 95.5851C127.524 94.8895 127.937 93.9463 127.937 92.9629C127.934 92.4796 127.831 92.0014 127.632 91.5562C127.434 91.1103 127.144 90.7069 126.781 90.3677C126.417 90.0287 125.986 89.7614 125.513 89.5805C125.039 89.4005 124.533 89.3104 124.023 89.3163ZM124.023 89.4569C124.986 89.4869 125.899 89.8699 126.569 90.5259C127.238 91.182 127.613 92.0593 127.612 92.9717C127.637 93.4323 127.563 93.8929 127.393 94.3249C127.224 94.7577 126.964 95.1531 126.629 95.487C126.294 95.8216 125.89 96.0874 125.443 96.2697C124.996 96.4514 124.514 96.5451 124.028 96.5451C123.541 96.5451 123.059 96.4514 122.612 96.2697C122.165 96.0874 121.761 95.8216 121.426 95.487C121.091 95.1531 120.83 94.7577 120.662 94.3249C120.492 93.8929 120.418 93.4323 120.443 92.9717C120.428 92.0564 120.796 91.1726 121.467 90.5142C122.138 89.8552 123.057 89.4751 124.023 89.4569Z" fill="black" />
	<path fill-rule="evenodd" clip-rule="evenodd" d="M124.023 91.3376C124.366 91.3302 124.704 91.4203 124.992 91.5961C125.281 91.7718 125.507 92.0252 125.643 92.324C125.779 92.6219 125.819 92.9523 125.756 93.2722C125.692 93.5915 125.53 93.8858 125.289 94.118C125.049 94.3495 124.741 94.5083 124.404 94.5726C124.068 94.6378 123.719 94.6064 123.402 94.4827C123.085 94.3589 122.814 94.148 122.624 93.877C122.434 93.6069 122.333 93.2883 122.335 92.9632C122.332 92.7517 122.374 92.5408 122.458 92.3444C122.541 92.1482 122.665 91.9688 122.822 91.818C122.979 91.6672 123.166 91.5464 123.372 91.4643C123.578 91.3815 123.799 91.339 124.023 91.3376Z" fill="black" />
	<path d="M59.7042 30.4786C59.899 30.3555 60.4369 29.9338 60.5668 29.8722C60.5865 29.8722 60.6054 29.8649 60.6192 29.8516C60.6332 29.8385 60.641 29.8206 60.641 29.802C60.641 29.7834 60.6332 29.7655 60.6192 29.7523C60.6054 29.7392 60.5865 29.7317 60.5668 29.7317C60.4101 29.7021 60.2477 29.7206 60.103 29.7844C59.8973 29.8897 59.7342 30.0566 59.6393 30.2589V30.4083C59.6393 30.4083 59.6579 30.5576 59.7042 30.4786ZM65.2596 32.0075V32.6314C65.2596 32.706 65.291 32.7776 65.3467 32.8303C65.4023 32.883 65.4777 32.9126 65.5564 32.9126C65.6352 32.9126 65.7106 32.883 65.7662 32.8303C65.822 32.7776 65.8532 32.706 65.8532 32.6314V32.0602C65.8569 32.0233 65.8529 31.9861 65.8412 31.9506C65.8298 31.9152 65.8109 31.8822 65.7859 31.8536C65.761 31.8252 65.7303 31.8016 65.6957 31.7841C65.6611 31.7669 65.6232 31.7562 65.5843 31.7527C65.5453 31.7492 65.506 31.7532 65.4686 31.764C65.4311 31.775 65.3964 31.7928 65.3662 31.8164C65.336 31.8401 65.3113 31.8691 65.2929 31.9021C65.2745 31.9346 65.2632 31.9706 65.2596 32.0075ZM64.6197 29.7668C64.935 29.8898 65.8161 30.1095 66.0294 30.2325C66.0944 30.3028 66.2056 30.2325 66.1407 30.1446C66.0321 29.9381 65.8423 29.7804 65.6121 29.7053C65.302 29.5671 64.9499 29.539 64.6197 29.6262C64.6 29.6262 64.5811 29.6337 64.5673 29.6468C64.5533 29.6601 64.5455 29.678 64.5455 29.6965C64.5455 29.7152 64.5533 29.7331 64.5673 29.7464C64.5811 29.7595 64.6 29.7668 64.6197 29.7668ZM100.484 119.5C100.557 119.097 100.534 118.685 100.418 118.292C100.303 117.898 100.097 117.534 99.8162 117.224C99.6322 117.015 99.409 116.839 99.1577 116.706C99.15 116.699 99.1407 116.693 99.1307 116.69C99.1206 116.687 99.1098 116.686 99.099 116.687C99.0882 116.688 99.0781 116.691 99.0688 116.696C99.0596 116.701 99.0518 116.709 99.0456 116.717C99.0395 116.725 99.0356 116.734 99.0341 116.745C99.0317 116.755 99.0326 116.765 99.0348 116.775C99.038 116.784 99.0425 116.794 99.0494 116.802C99.0565 116.809 99.065 116.816 99.0742 116.82C99.7713 117.554 100.212 118.476 100.336 119.456C100.329 119.475 100.332 119.495 100.341 119.513C100.35 119.529 100.367 119.543 100.387 119.548C100.407 119.554 100.427 119.553 100.446 119.543C100.465 119.534 100.478 119.519 100.484 119.5Z" fill="black" />
	<path d="M132.008 118.691C133.158 112.874 136.172 97.2423 136.794 91.3638C137.267 86.9702 135.477 81.9616 133.084 78.482C135.653 75.178 136.961 70.0113 137.564 65.978C138.092 62.8698 138.204 59.7108 137.897 56.5759C137.081 53.1214 134.931 50.0813 131.869 48.0524C131.925 46.9101 131.869 41.8488 126.045 37.1126C126.045 37.1126 128.614 28.2728 126.045 25.2325C123.476 22.1922 119.107 19.6615 110.278 22.8336C110.278 22.8336 107.245 23.6333 107.357 26.5066C107.357 26.5066 104.212 28.4749 106.197 31.4186C105.622 33.0777 105.328 34.8126 105.325 36.559C105.291 37.4534 105.504 38.3407 105.943 39.133C106.383 39.9252 107.033 40.595 107.83 41.0755C102.719 50.1086 107.83 44.8364 101.106 49.1245C98.3959 50.7926 96.0734 52.966 94.2795 55.5126C93.9633 55.3752 93.6102 55.3351 93.2686 55.3984C90.347 55.8641 90.3562 57.8676 88.5663 57.4634C86.7763 57.0592 86.1549 55.416 84.1516 57.4634C82.1483 59.5107 83.2242 60.5652 81.5084 60.161C81.0818 60.0643 81.5084 60.2752 80.0523 58.1927C76.0076 52.3279 70.1893 47.7556 63.3582 45.0736C62.5792 44.3882 61.5775 43.5447 60.8077 42.9208C67.1886 42.1476 67.6894 35.5309 66.2611 29.5909H66.6228C68.3386 29.2833 68.7096 28.4573 68.8302 27.9125C68.8302 27.9125 66.9753 28.6858 67.3092 27.9125C67.643 27.1393 68.654 25.9794 67.3092 25.6455C65.9644 25.3116 65.0647 25.2501 65.7418 24.3889C66.4188 23.5278 65.9273 23.0797 65.3337 22.8424C64.7401 22.6052 63.7848 22.9303 64.7123 21.8846C64.9072 21.6874 65.0352 21.4393 65.0801 21.1724C65.1249 20.9055 65.0843 20.632 64.9636 20.3871C64.8428 20.1423 64.6475 19.9373 64.4027 19.7986C64.1579 19.6598 63.8749 19.5938 63.5901 19.6088C62.4308 19.6088 61.2622 20.1712 60.2234 19.6088C59.1847 19.0464 59.565 17.6141 57.6359 18.1853C55.7068 18.7564 57.0979 19.6615 56.3189 19.6088C55.5398 19.5561 54.8164 18.115 53.5829 18.5456C52.3494 18.9761 52.943 20.2415 52.201 20.2151C51.4591 20.1887 50.68 18.897 49.9288 19.6088C49.1775 20.3205 49.9288 21.3662 49.0013 21.4804C48.0739 21.5947 47.3412 20.9444 46.6456 21.8583C45.95 22.7721 48.1202 24.2396 47.0908 24.3626C46.6073 24.3798 46.1404 24.5338 45.7504 24.8047C45.3603 25.0756 45.0647 25.4511 44.902 25.8827C44.5774 26.823 46.0149 26.6911 45.5141 27.2447C45.0133 27.7983 44.0395 28.1674 44.0766 28.8264C44.0789 28.9264 44.1022 29.025 44.1452 29.1164C44.188 29.2078 44.2498 29.2902 44.3265 29.3589C44.4032 29.4274 44.4938 29.481 44.5924 29.5163C44.6912 29.5516 44.7964 29.568 44.902 29.5645C45.0226 29.5118 44.327 29.8369 44.5217 30.2938C44.7165 30.7508 44.8835 31.0056 44.5217 31.2516C44.16 31.4977 43.7798 32.3324 44.902 32.2533C46.0242 32.1743 46.5065 31.9019 46.8682 31.2516C47.1279 30.7683 47.5638 30.8386 47.6936 31.0759C47.8235 31.3131 47.4247 31.6998 47.165 31.8755C46.9053 32.0512 46.7198 32.2182 47.0908 32.4115C47.2383 32.4767 47.4016 32.504 47.5638 32.4906C47.6923 33.7339 48.2368 34.9056 49.1177 35.8351C49.9986 36.7646 51.1699 37.403 52.4607 37.6574C52.3401 38.2813 52.2196 38.9139 52.1454 39.5378C51.0788 39.8717 49.7804 42.2969 48.9271 43.6413C45.8237 43.9816 42.7842 44.7237 39.8938 45.8469C35.3825 47.5581 31.2896 50.1276 27.8678 53.3967C24.4462 56.6658 21.7684 60.565 20 64.8533V65.0466C20.4747 65.4211 20.9802 65.759 21.5117 66.0571C20.3204 69.2043 20.3204 72.6459 21.5117 75.7931C22.7545 79.3079 26.4087 84.0793 28.6809 87.102C26.149 95.4673 27.6515 102.277 27.2434 109.377C27.0486 112.778 26.9837 122.303 27.2434 125.291C27.25 125.325 27.2665 125.357 27.2911 125.383C27.3156 125.41 27.3472 125.43 27.3825 125.44C29.1139 125.87 30.8738 126.19 32.6504 126.398C32.8823 133.673 34.1158 159.006 36.4715 165.939C36.6384 166.44 44.2621 167.996 46.219 167.02C46.219 167.02 46.5714 166.941 46.8496 166.229C46.8557 166.235 46.8628 166.24 46.8709 166.243C46.8788 166.246 46.8874 166.248 46.896 166.248C46.9046 166.248 46.9132 166.246 46.9211 166.243C46.9291 166.24 46.9363 166.235 46.9424 166.229C46.9424 166.229 47.3783 165.579 46.4045 164.744C45.7475 164.243 44.9995 163.858 44.1971 163.611L42.8802 162.732C42.6761 161.563 43.9931 156.906 44.9113 151.652C45.4306 148.69 46.5065 141.511 46.9331 139.464C47.3783 145.615 49.8917 156.774 53.4253 161.818C55.2801 164.366 56.8197 164.982 57.3391 165.122L58.0068 165.474C60.1493 168.47 63.3953 169.428 66.8733 167.152C67.3979 166.801 67.8636 166.377 68.2551 165.895C70.538 166.539 72.8654 167.033 75.2203 167.372C74.7518 169.405 74.8124 171.516 75.3965 173.523C77.103 179.164 82.4358 180.921 85.8303 176.766C88.7703 173.163 88.7703 166.818 85.7747 163.224C85.3295 162.688 85.5892 163.224 85.7747 161.792C85.9601 159.788 85.0698 157.996 82.9088 158.154C82.779 152.996 82.7975 160.052 82.7975 141.801C84.1944 142.203 85.4976 142.853 86.6372 143.717C87.9912 144.807 88.6868 148.813 88.8445 150.483C91.228 174.954 90.6994 171.107 90.9313 172.556C91.3301 172.82 94.9287 174.497 97.6183 175.842C98.6864 176.41 99.7894 176.918 100.92 177.363C100.976 177.363 100.92 177.363 100.92 177.319V176.387C94.836 173.751 92.2297 172.187 91.1353 171.757L91.497 171.634C93.5005 172.513 97.7667 174.48 100.92 176.194C100.92 176.194 126.378 166.932 139.326 161.932C139.347 161.927 139.369 161.93 139.389 161.939C139.408 161.948 139.424 161.963 139.433 161.982C139.442 162.001 139.443 162.022 139.437 162.042C139.432 162.062 139.418 162.079 139.4 162.091C139.4 162.091 109.471 173.513 108.052 174.015C104.407 175.315 101.755 176.202 101.124 176.317V177.319C101.124 177.504 106.002 176.264 139.715 163.198C139.715 163.198 140.021 161.484 139.251 160.781C138.482 160.078 133.956 158.593 132.917 158.242C132.917 158.339 132.24 143.084 132.231 142.988C135.733 142.106 139.032 140.617 141.96 138.594C142.72 138.041 132.49 119.561 132.008 118.691ZM137.628 62.4544C137.385 62.3699 137.125 62.3389 136.866 62.364C136.608 62.3892 136.36 62.4697 136.14 62.5993C135.92 62.7292 135.733 62.9048 135.596 63.1128C135.457 63.3208 135.372 63.556 135.344 63.8003C135.317 64.0445 135.348 64.2917 135.437 64.5227C135.525 64.7537 135.668 64.9625 135.853 65.1335C136.039 65.3044 136.264 65.433 136.511 65.5093C136.757 65.5856 137.019 65.6077 137.276 65.5738C137.193 66.0747 137.109 66.6282 136.951 67.4718C136.247 67.4322 135.569 67.2026 134.997 66.8104C134.425 66.4182 133.983 65.8796 133.722 65.2576C133.463 64.6358 133.395 63.9565 133.528 63.2997C133.662 62.6428 133.99 62.0355 134.475 61.5493C134.895 61.1352 135.42 60.8291 135.998 60.6601C136.578 60.4911 137.193 60.4644 137.786 60.5828C137.73 61.1803 137.684 61.8217 137.628 62.4895V62.4544ZM137.786 60.4334C134.716 59.625 131.999 62.8762 133.529 65.7056C133.851 66.3017 134.341 66.8011 134.946 67.1473C135.55 67.4935 136.245 67.6729 136.951 67.6651C136.685 69.0399 136.346 70.4008 135.931 71.7423C133.84 71.4424 131.949 70.3931 130.65 68.8109C129.352 67.2288 128.743 65.2346 128.952 63.24C129.16 61.2453 130.169 59.4026 131.769 58.0922C133.371 56.7818 135.441 56.1038 137.554 56.198C137.789 57.598 137.867 59.0177 137.786 60.4334ZM123.754 45.4954C123.754 45.4954 126.202 46.1544 128.447 46.9013C126.906 48.0253 125.246 48.9943 123.494 49.7923C123.707 48.3606 123.785 46.9138 123.726 45.4691L123.754 45.4954ZM128.614 46.9541C130.792 47.6426 132.752 48.8401 134.313 50.4356C135.874 52.0314 136.985 53.9738 137.545 56.0838C135.406 56.0077 133.317 56.7082 131.704 58.0417C130.092 59.3754 129.077 61.2418 128.868 63.2601C128.659 65.2786 129.27 67.2964 130.577 68.9022C131.885 70.5078 133.79 71.5803 135.903 71.9005C134.169 77.4627 130.895 82.7085 125.034 81.1093C120.007 79.7473 117.271 77.2078 116.353 74.3521C115.435 71.4963 116.353 68.2011 118.746 65.565C120.044 64.1152 121.463 63.3419 123.55 61.1715C125.737 58.7921 128.115 56.577 130.663 54.5461C133.177 52.6832 134.076 52.7887 134.373 52.7887C134.457 52.7887 134.484 52.7887 134.484 52.7184C134.486 52.7096 134.485 52.7006 134.482 52.6922C134.48 52.6835 134.475 52.6757 134.469 52.669C134.463 52.6624 134.455 52.657 134.446 52.6533C134.438 52.6498 134.429 52.6479 134.419 52.6481C131.637 52.4635 125.303 58.9747 123.364 60.9782C121.25 63.1662 119.821 63.9306 118.514 65.3717C117.375 66.5755 116.553 68.0174 116.115 69.5797C115.677 71.1419 115.634 72.7801 115.991 74.3608C106.633 76.2149 106.104 78.8247 99.5196 80.4327C100.415 77.929 101.462 75.4763 102.654 73.0867C102.654 72.9901 102.654 72.9637 102.589 72.867C101.599 71.5862 100.85 70.1534 100.373 68.6317C100.794 68.6181 101.204 68.4956 101.557 68.2772C101.91 68.0588 102.194 67.7528 102.376 67.3927C102.764 66.6361 102.836 65.7689 102.578 64.9641C102.32 64.1594 101.751 63.4764 100.985 63.0519C101.12 62.7683 101.228 62.4744 101.31 62.1732C101.57 63.1241 102.087 63.9948 102.809 64.7C103.531 65.4051 104.434 65.9206 105.43 66.1959C106.425 66.4714 107.479 66.4972 108.488 66.2708C109.497 66.0448 110.427 65.5743 111.187 64.9053C111.947 64.2366 112.51 63.3924 112.822 62.4555C113.135 61.5185 113.185 60.5208 112.968 59.5599C112.75 58.5991 112.274 57.7081 111.585 56.974C110.896 56.24 110.017 55.6881 109.035 55.372L109.963 51.0312C113.086 52.0684 116.453 52.2541 119.682 51.5673C118.217 55.4511 115.583 62.305 116.288 63.254C117.215 64.4666 119.144 63.4649 120.582 60.3982C121.933 57.1202 122.867 53.7014 123.364 50.2141C125.237 49.3194 126.99 48.216 128.586 46.9277L128.614 46.9541ZM120.1 110.871L112.921 109.992C113.111 109.277 113.202 108.542 113.19 107.804C114.21 107.892 122.168 108.604 123.021 109.105C123.411 109.342 123.633 112.47 123.661 112.787C123.717 113.665 123.939 119.614 123.958 120.431C123.068 119.882 122.138 119.392 121.176 118.964C121.176 118.683 121.278 112.628 121.278 112.505C121.322 112.325 121.326 112.136 121.29 111.953C121.254 111.771 121.178 111.597 121.067 111.444C120.957 111.29 120.813 111.16 120.647 111.061C120.48 110.963 120.294 110.898 120.1 110.871ZM120.035 111.284C120.173 111.3 120.307 111.344 120.427 111.412C120.546 111.481 120.649 111.572 120.729 111.681C120.808 111.789 120.863 111.913 120.889 112.043C120.914 112.173 120.911 112.306 120.879 112.435L120.971 118.832C116.864 117.121 112.54 115.921 108.108 115.265C109.252 114.782 110.27 114.069 111.094 113.175C111.917 112.281 112.525 111.228 112.875 110.089C115.527 110.563 116.844 110.792 120.035 111.258V111.284ZM107.18 161.686C107.18 161.686 108.21 158.277 108.349 157.829C109.977 157.362 111.485 156.582 112.779 155.537C114.074 154.492 115.126 153.206 115.871 151.757C116.733 153.919 118.551 158.207 118.551 158.207C118.657 158.252 118.77 158.281 118.885 158.295C118.904 158.367 118.919 158.44 118.931 158.514C118.775 158.495 118.623 158.456 118.477 158.4C118.347 158.356 118.356 158.303 117.846 157.082L107.885 159.771C107.236 161.941 107.338 161.792 107.106 161.818V161.695L107.18 161.686ZM111.512 121.266C113.431 122.285 115.935 123.902 116.279 126.011C116.946 130.132 114.238 139.903 113.005 143.91C113.478 145.413 114.099 147.135 114.72 148.787C112.866 153.242 109.786 154.569 109.156 155.325C111.641 147.513 112.485 145.835 114.285 137.83C114.925 134.983 116.251 128.867 115.787 126.081C115.184 122.356 105.585 118.937 101.801 117.909C101.788 117.906 101.775 117.9 101.764 117.892C101.753 117.884 101.744 117.873 101.737 117.863C101.73 117.851 101.726 117.838 101.724 117.825C101.722 117.812 101.723 117.799 101.727 117.786C101.731 117.774 101.737 117.761 101.745 117.751C101.754 117.741 101.765 117.732 101.776 117.726C101.789 117.719 101.802 117.715 101.816 117.713C101.83 117.712 101.844 117.712 101.857 117.716C105.207 118.56 108.449 119.754 111.521 121.275L111.512 121.266ZM111.725 111.952C110.824 113.391 109.49 114.545 107.894 115.265C107.884 115.277 107.878 115.292 107.878 115.308C107.878 115.325 107.884 115.34 107.894 115.352C104.315 117.488 101.402 117.242 101.3 117.11C101.31 117.111 101.32 117.111 101.33 117.108C101.339 117.105 101.348 117.101 101.356 117.096C101.364 117.09 101.37 117.083 101.374 117.075C101.38 117.067 101.383 117.058 101.384 117.048C101.593 116.14 101.593 115.198 101.384 114.289C101.182 113.472 100.776 112.713 100.202 112.074C99.6279 111.435 98.9012 110.935 98.0821 110.616C100.191 108.478 102.669 106.695 105.409 105.344C106.663 104.708 108.026 104.286 109.434 104.096C109.459 104.096 109.482 104.087 109.5 104.071C109.517 104.054 109.527 104.032 109.527 104.008C109.527 103.985 109.517 103.963 109.5 103.946C109.482 103.93 109.459 103.92 109.434 103.92C107.828 104.06 106.269 104.508 104.852 105.239C104.24 101.574 101.597 93.6835 100.03 91.8383C100.014 91.825 99.995 91.8178 99.974 91.8162C99.9531 91.8148 99.9322 91.8207 99.9154 91.8317C99.8983 91.8426 99.886 91.8587 99.8798 91.8777C99.8736 91.8961 99.8744 91.9165 99.8813 91.9349C100.985 93.4199 104.083 102.884 104.667 105.326C103.404 105.934 102.205 106.655 101.087 107.479C99.6061 108.587 98.2259 109.809 96.9598 111.135C96.4776 109.254 92.3224 92.7785 90.1615 88.8946L90.7736 87.5326C92.0535 88.6046 92.1555 88.1038 92.2946 86.6012C92.4337 85.0986 92.341 82.7525 92.341 81.2499C92.8597 81.4509 93.3922 81.6153 93.9364 81.742C93.6736 81.9169 93.4571 82.1481 93.3057 82.4168C93.1543 82.6854 93.0715 82.984 93.0646 83.2885C93.0646 83.2885 93.148 83.7015 93.4726 83.7366C93.5854 83.7345 93.6967 83.7099 93.7988 83.6646C93.9016 83.619 93.992 83.5538 94.0662 83.473C94.1736 83.5422 94.295 83.5903 94.4225 83.6144C94.55 83.6385 94.6807 83.6382 94.8082 83.6136C94.7734 83.6569 94.751 83.7082 94.7441 83.7622C94.737 83.8163 94.7456 83.8711 94.768 83.9211C94.7905 83.971 94.8267 84.0149 94.8731 84.047C94.9195 84.0793 94.9736 84.0998 95.0307 84.1057C96.1159 84.4571 97.2868 84.5003 98.3974 84.2287C100.312 85.4105 101.997 86.8971 103.378 88.6222C107.857 93.8417 110.881 100.757 112.801 107.233C112.993 108.877 112.619 110.535 111.734 111.961L111.725 111.952ZM73.959 83.4994C73.5509 83.6839 72.4194 84.0793 72.5029 83.6839C72.5863 83.2885 73.2912 82.8052 73.7456 82.6734C73.5509 83.0952 73.69 83.3763 73.959 83.4994ZM73.3561 84.0529C73.6639 83.9285 73.9512 83.7626 74.2094 83.5609C74.5183 83.5599 74.8238 83.5013 75.1088 83.3882C75.3936 83.275 75.6521 83.1099 75.8695 82.9018C76.6393 83.0073 78.3736 82.1725 78.5498 81.4168L79.7833 81.1269C80.5531 82.5943 84.7637 90.4851 85.9694 89.3252C86.425 88.8807 86.8495 88.4076 87.24 87.9105L88.2973 89.044C88.2973 89.044 89.4195 107.145 88.5941 111.732C84.6432 110.405 81.462 108.525 76.361 108.639C76.6627 106.87 76.7931 105.079 76.7506 103.288C76.7506 98.824 76.3425 95.3267 76.3332 95.0983C76.3272 95.0807 76.3154 95.0653 76.2995 95.0543C76.2836 95.0433 76.2646 95.0375 76.2452 95.0375C76.2256 95.0375 76.2066 95.0433 76.1907 95.0543C76.1749 95.0653 76.1631 95.0807 76.157 95.0983C76.157 95.0983 76.324 105.757 76.3147 106.267C76.326 107.057 76.2764 107.847 76.1663 108.63C75.7211 108.63 75.2388 108.63 74.7751 108.718C74.7528 108.722 74.7326 108.733 74.7176 108.749C74.7024 108.764 74.6933 108.785 74.6916 108.806C74.6916 109.035 75.2667 108.692 78.049 108.999C82.408 109.474 85.2367 111.056 87.9356 111.882L91.766 112.971C91.4285 113.189 91.1646 113.494 91.0055 113.85C90.6345 114.535 90.078 115.818 90.8571 116.064C90.4306 116.883 90.3414 117.822 90.6067 118.7C87.8349 119.196 85.0135 119.397 82.1947 119.298C82.1185 118.556 81.9311 117.828 81.6382 117.136C80.4789 115.001 65.2966 112.962 62.7832 112.62C60.6037 107.426 62.3566 102.075 63.0893 97.5498C63.6194 94.8148 64.7062 92.2028 66.289 89.8612C67.8408 87.5633 69.8812 85.5972 72.2803 84.0881C72.5492 84.2814 73.0408 84.176 73.3561 84.0529ZM75.6469 82.8403C75.4323 82.9563 75.2054 83.0506 74.9699 83.1215C74.7287 83.2006 74.1444 83.3236 74.0424 83.1215C73.9404 82.9194 74.2372 82.1374 75.6469 81.8738C75.4151 82.1813 75.2852 82.647 75.6469 82.8403ZM74.0239 69.897C74.0834 69.9675 74.139 70.0408 74.1908 70.1167C74.1851 70.2857 74.1601 70.4536 74.1166 70.6176C72.0206 71.4348 67.4483 72.8143 65.445 71.7599C65.3708 71.2766 64.0724 63.1046 64.0167 62.7532C67.1071 62.5897 70.1853 62.2582 73.2355 61.7602C73.3654 62.5071 73.894 65.6002 74.1073 68.0078C73.8401 68.2522 73.6822 68.5849 73.6667 68.9365C73.6512 69.2883 73.779 69.6321 74.0239 69.897ZM74.0239 64.6248C74.3207 66.0132 77.1401 65.9253 75.5542 66.8743C75.1488 67.1063 74.7695 67.3772 74.4227 67.6827C74.3392 66.6722 74.1908 65.5826 74.0424 64.6072L74.0239 64.6248ZM76.63 73.2449C76.63 74.3345 76.5744 76.1095 79.8019 75.4329C80.4604 75.2923 80.4233 76.1885 80.4233 76.8212C80.4233 77.1639 80.5253 77.6472 80.8684 77.8054C80.4325 78.7895 79.6628 80.793 79.6349 80.8808L78.5406 81.2762C78.5406 81.2059 78.5405 81.0829 78.4293 81.0653C78.0031 80.9534 77.5558 80.934 77.1207 81.0085C76.6855 81.0831 76.2737 81.2497 75.9159 81.4959C76.1326 78.5107 76.0145 75.5123 75.5634 72.5507C76.157 72.6122 76.6671 72.7352 76.6486 73.2273L76.63 73.2449ZM78.4293 81.1884C78.6147 81.7859 76.5744 82.6382 75.9715 82.5592C75.8602 82.5592 75.8139 82.5592 75.8324 82.3834C75.953 81.3905 77.307 81.0829 78.4293 81.1884ZM79.9966 81.1269C80.0894 81.1269 88.659 85.5204 88.761 85.4764C87.8324 86.733 86.8291 87.939 85.7561 89.0879C85.7401 89.0996 85.7205 89.1055 85.7004 89.1055C85.6804 89.1055 85.6608 89.0996 85.6448 89.0879C84.3928 88.7452 80.5624 82.1813 79.9503 81.1269H79.9966ZM101.857 72.4541C101.994 72.6616 102.153 72.8559 102.33 73.034C101.157 75.4314 100.162 77.9038 99.3527 80.4327C97.2659 80.9248 95.6429 80.6436 94.1311 81.6365C93.216 81.1163 92.2113 80.7535 91.1631 80.5645V78.5874C92.5158 78.5663 93.8242 78.1249 94.8862 77.3312C95.9481 76.5375 96.7064 75.4353 97.0433 74.1939C97.9298 74.3508 98.8456 74.271 99.6874 73.9638C100.529 73.6566 101.264 73.134 101.81 72.4541H101.857ZM97.0897 74.0621C97.2064 73.7077 97.2991 73.3468 97.3679 72.9813C97.4924 73.0535 97.6354 73.0918 97.7807 73.0918C97.9268 73.0918 98.0689 73.0535 98.1933 72.9813C98.3881 72.8555 98.6077 72.7694 98.8395 72.7285C99.0714 72.6878 99.3086 72.6929 99.5381 72.744C100.466 72.7967 100.948 71.9532 101.059 71.1184C101.263 71.5391 101.496 71.9471 101.755 72.3398C101.142 72.9247 100.405 73.3804 99.5929 73.6772C98.7815 73.9741 97.9121 74.1051 97.0433 74.0621H97.0897ZM92.2482 81.1972C92.1277 85.3359 91.8587 87.8226 91.6918 87.7786C91.1446 87.6381 89.4566 85.8367 89.0764 85.4237C89.0614 85.4025 89.0405 85.3857 89.0158 85.3747C88.9912 85.3636 88.9642 85.3593 88.9372 85.3622C89.4195 84.4835 90.7921 81.7244 91.1538 80.7402C91.4933 80.9121 91.8432 81.0647 92.2019 81.1972H92.2482ZM96.0509 112.33C96.742 111.878 97.3664 111.34 97.9058 110.73C99.9833 111.732 101.439 113.859 101.226 117.022C100.842 116.555 100.389 116.144 99.8813 115.801C99.382 115.447 98.7792 115.248 98.1562 115.229C98.2389 114.906 98.2482 114.571 98.1849 114.244C98.1207 113.918 97.9854 113.608 97.7868 113.334C97.5881 113.06 97.3308 112.83 97.0317 112.657C96.7327 112.483 96.3988 112.372 96.0509 112.33ZM98.0079 115.203C96.0324 114.825 95.6614 114.412 95.4945 114.649C95.3275 114.887 94.196 116.345 93.3706 116.143C92.545 115.941 94.3815 113.999 94.4743 113.911C94.567 113.823 94.4743 113.744 94.363 113.815C94.4465 113.727 92.944 115.177 92.9069 115.941C92.7747 116.063 92.6067 116.145 92.425 116.177C92.2432 116.208 92.0557 116.187 91.8865 116.117C91.3208 115.95 92.8141 113.999 93.0089 113.762C93.0738 113.692 93.0089 113.595 92.8976 113.665C92.9904 113.586 91.5063 114.869 91.395 115.827C91.3063 115.869 91.2071 115.886 91.1088 115.876C91.0103 115.866 90.9168 115.831 90.8385 115.774C90.4768 115.423 91.0426 114.377 91.293 113.946C92.2204 112.338 93.5654 113.604 95.7727 112.444C96.4266 112.578 97.0077 112.93 97.4097 113.437C97.8122 113.944 98.0079 114.57 97.9615 115.203H98.0079ZM94.2981 117.725C93.9549 117.75 93.6187 117.834 93.3057 117.971L93.0646 118.05H93.0089H93.0646L93.3057 117.971L90.8385 118.63C90.5974 118.674 90.6345 118.674 90.8385 118.63C90.8599 117.776 90.9404 116.925 91.0797 116.082C91.2066 116.089 91.3338 116.068 91.4506 116.02C91.4594 116.124 91.5027 116.222 91.5746 116.301C91.6462 116.38 91.7424 116.435 91.8494 116.46C92.0489 116.527 92.2644 116.54 92.4712 116.496C92.6781 116.453 92.8674 116.355 93.0182 116.214C93.0514 116.276 93.0978 116.33 93.1558 116.372C93.2138 116.415 93.2809 116.445 93.3521 116.46C93.5585 116.492 93.7703 116.481 93.9719 116.427C94.1736 116.375 94.3606 116.28 94.5207 116.152C94.2664 116.64 94.1544 117.182 94.196 117.725H94.2981ZM95.8933 133.902V134.227C91.5673 134.755 87.1788 134.595 82.9088 133.752V133.489C87.3977 134.209 95.8284 133.902 95.8284 133.902H95.8933ZM96.0788 135.396C97.6925 148.523 99.0002 161.686 99.0002 161.686C99.2985 161.801 99.6093 161.881 99.9277 161.924V162.064C99.5103 162.003 99.2228 162.064 93.4355 163.699C93.0367 159.305 92.1277 149.868 91.2744 145.571C90.8353 143.647 89.8659 141.867 88.4649 140.413C87.0638 138.959 85.2812 137.882 83.2984 137.294L96.0788 135.396ZM99.4176 119.807C99.4277 119.805 99.437 119.802 99.4454 119.796C99.4532 119.791 99.4601 119.783 99.4655 119.775C99.4709 119.766 99.4741 119.758 99.4756 119.748C99.4771 119.739 99.4763 119.729 99.4732 119.72C99.4292 119.245 99.2638 118.788 98.9901 118.388C98.7174 117.988 98.3448 117.658 97.9058 117.426C97.8989 117.421 97.8903 117.417 97.8811 117.415C97.8726 117.413 97.8633 117.412 97.8541 117.414C97.8456 117.415 97.8364 117.418 97.8286 117.422C97.8209 117.427 97.8139 117.433 97.8085 117.439C97.803 117.446 97.7993 117.454 97.7969 117.463C97.7945 117.471 97.7937 117.48 97.7954 117.488C97.7969 117.496 97.7999 117.505 97.8047 117.513C97.8092 117.52 97.8155 117.526 97.8224 117.532C98.419 118.185 98.8982 118.927 99.2414 119.728L99.1672 119.64C99.1672 120.018 98.8982 120.062 98.8982 120.062C98.4809 120.335 97.2103 118.542 95.7913 117.971C95.3415 117.786 94.853 117.699 94.363 117.716C94.4874 116.695 94.9335 115.734 95.6429 114.957C98.8982 115.994 98.4716 115.229 99.9462 116.196C100.408 116.49 100.819 116.852 101.161 117.268C101.442 117.983 101.422 118.772 101.106 119.474C101.084 119.533 101.047 119.586 100.998 119.629C100.95 119.671 100.891 119.703 100.827 119.719C100.763 119.735 100.696 119.736 100.632 119.723C100.567 119.709 100.507 119.681 100.456 119.64C100.234 120.537 99.6309 120.097 99.3527 119.807H99.4176ZM95.1235 83.9475C94.9566 83.9475 94.8731 83.8157 95.04 83.5872C95.5177 83.524 95.9914 83.4359 96.459 83.3236C97.2381 83.1391 97.3123 83.1391 97.2937 83.0512C97.2752 82.9633 97.2937 82.9985 95.1049 83.2357C94.9195 83.2357 94.2888 83.35 94.363 83.1479C94.4465 82.9771 94.5701 82.8269 94.7247 82.7085C94.9488 82.5187 95.2201 82.3857 95.513 82.3219C95.9729 82.2043 96.4467 82.1423 96.9227 82.1374C96.9428 82.1374 96.9614 82.13 96.9754 82.1168C96.9892 82.1037 96.9969 82.0858 96.9969 82.0671C96.9969 82.0484 96.9892 82.0305 96.9754 82.0174C96.9614 82.0041 96.9428 81.9968 96.9227 81.9968C97.0155 81.9968 94.836 81.6101 94.0569 82.8755C94.0097 82.9403 93.9804 83.015 93.9704 83.0931C93.9611 83.1711 93.9711 83.2503 94.0013 83.3236C93.5654 83.6839 93.3428 83.5521 93.2779 83.2357C93.3984 81.6277 95.6336 81.1093 97.3401 81.0302C98.7582 80.9219 100.154 80.6262 101.486 80.1515C107.115 78.2447 107.486 76.4258 116 74.4487C116.928 77.6384 119.757 79.6243 122.993 80.8193C118.977 83.6312 106.577 83.6312 101.708 83.2533C99.77 83.1127 100.03 83.35 98.5736 83.9124C97.4568 84.2704 96.2487 84.2822 95.1235 83.9475ZM108.108 60.0995L108.414 58.6145C108.776 58.8377 109.073 59.1439 109.278 59.505C109.482 59.8659 109.587 60.2699 109.582 60.6794C109.582 61.2993 109.323 61.8938 108.86 62.3322C108.398 62.7706 107.77 63.0168 107.115 63.0168C106.461 63.0168 105.834 62.7706 105.371 62.3322C104.908 61.8938 104.648 61.2993 104.648 60.6794C104.647 60.3278 104.726 59.98 104.88 59.6601C104.895 60.3508 104.951 61.0403 105.047 61.7251C105.047 61.7251 106.457 62.6565 107.384 61.7251C107.646 61.668 107.879 61.5297 108.047 61.3322C108.215 61.1346 108.308 60.8893 108.312 60.6355C108.296 60.4428 108.225 60.2576 108.108 60.0995ZM104.862 59.1505C104.517 59.5948 104.322 60.1281 104.305 60.6794C104.305 61.3785 104.598 62.0491 105.12 62.5434C105.642 63.0379 106.349 63.3155 107.088 63.3155C107.826 63.3155 108.534 63.0379 109.055 62.5434C109.577 62.0491 109.87 61.3785 109.87 60.6794C109.861 60.2132 109.721 59.7579 109.465 59.3596C109.209 58.9613 108.847 58.6346 108.414 58.4124L109.007 55.5566C109.96 55.8772 110.806 56.4326 111.457 57.1652C112.108 57.8981 112.542 58.7819 112.713 59.7259C112.884 60.67 112.788 61.6402 112.432 62.5372C112.076 63.4339 111.476 64.2249 110.691 64.8287C109.906 65.4326 108.966 65.8277 107.966 65.9731C106.967 66.1186 105.944 66.0095 105.005 65.6567C104.064 65.304 103.24 64.7205 102.617 63.9663C101.994 63.212 101.594 62.3141 101.458 61.3648C101.496 61.1347 101.496 60.9007 101.458 60.6706C101.453 59.5627 101.806 58.4798 102.469 57.5672C103.132 56.6548 104.073 55.9561 105.168 55.5654C104.967 56.751 104.864 57.9497 104.862 59.1505ZM107.18 40.1617C106.68 39.6912 106.287 39.1291 106.023 38.5097C105.76 37.8903 105.633 37.2265 105.65 36.559C105.603 34.7723 105.87 32.9907 106.438 31.2868C107.067 29.6128 107.852 27.9953 108.785 26.4539C109.103 26.3521 109.395 26.1875 109.641 25.9709C109.888 25.7543 110.082 25.4906 110.213 25.1973C110.213 25.1973 111.391 25.9442 114.285 24.6965C114.285 24.6965 113.728 26.1903 117.197 25.7158C117.197 25.7158 114.795 27.2272 118.05 28.2552C118.05 28.2552 116 29.7227 119.228 30.5574C119.228 30.5574 116.446 31.9194 119.636 32.9299C119.636 32.9299 116.381 34.5468 119.636 34.7313C119.636 34.7313 122.418 34.0283 122.27 35.5573C122.122 37.0862 121.63 37.6837 120.554 37.8419C119.478 38.0001 120.016 39.9156 120.554 41.4094C121.111 43.9304 121.111 46.5332 120.554 49.0542C120.452 49.4056 120.202 50.0822 119.877 50.9434C116.623 51.7329 113.201 51.6415 110 50.6798L111.159 45.0121C111.076 41.8576 111.233 41.7961 110.964 41.7697C109.561 41.6064 108.242 41.046 107.18 40.1617ZM107.468 46.2599C108.507 45.926 108.182 45.8293 106.8 49.5023C105.821 49.0179 104.89 48.4503 104.018 47.8064C105.158 47.2616 106.253 46.7695 107.496 46.2599H107.468ZM103.758 48.0173C104.69 48.6861 105.683 49.2742 106.726 49.7747C106.034 51.6024 105.512 53.4843 105.168 55.3984C104.072 55.7441 103.105 56.3842 102.385 57.2405C101.666 58.0968 101.225 59.1327 101.115 60.2225C100.945 60.0845 100.735 59.9987 100.512 59.9765C101.364 58.1203 102.417 56.3533 103.656 54.7042C103.712 54.6339 103.591 54.5461 103.535 54.6164C102.224 56.2571 101.099 58.0243 100.178 59.8886C98.7684 59.8886 96.5425 60.6267 95.6892 60.0731C94.836 59.5195 95.6892 56.4353 94.4186 55.5741C96.6167 52.4196 100.234 49.8098 103.767 47.9734L103.758 48.0173ZM97.2659 69.9849V70.4506C96.5177 70.8457 95.6614 71.0171 94.8082 70.9427C94.2424 70.89 94.2053 70.7845 94.1218 70.6351C93.6851 69.5008 93.3961 68.3206 93.2593 67.1203C93.3521 66.6546 95.1142 66.6282 96.4776 66.681C97.0155 67.6768 97.2984 68.7785 97.303 69.897L97.2659 69.9849ZM85.2089 66.9446C85.8895 66.5595 86.4309 65.9882 86.7621 65.3059C87.0931 64.6237 87.1984 63.8622 87.0638 63.1222C86.7763 61.6987 88.3715 64.1854 89.2897 63.957C90.2078 63.7285 90.5325 63.3858 90.8756 62.2699C90.8756 62.2699 91.2559 64.5457 92.6099 64.0976C93.1666 63.913 93.3613 63.7197 93.4077 63.5528C93.6952 64.08 94.2424 64.862 94.8082 64.4754C95.4071 65.0822 95.9187 65.7618 96.3292 66.4964H95.3461C95.3059 66.3983 95.2441 66.3097 95.1636 66.2368C95.0834 66.164 94.9874 66.1087 94.8824 66.0747C94.8028 66.0374 94.7163 66.0181 94.6274 66.0181C94.5392 66.0181 94.4519 66.0374 94.3723 66.0747C94.2517 66.0747 94.2702 66.224 94.3723 66.2153C94.5733 66.3079 94.7657 66.4167 94.9473 66.5404C93.9549 66.6195 93.0924 66.8128 93.0924 67.2346V67.2873C92.9772 67.2187 92.8435 67.1821 92.7076 67.1821C92.5712 67.1821 92.4376 67.2187 92.3224 67.2873C92.2966 67.1777 92.2388 67.0772 92.1555 66.9973C91.7381 66.6898 86.1735 67.05 86.3126 68.1133V68.4032C85.5141 68.6849 84.7337 69.0107 83.9754 69.3786C84.2629 68.3329 84.3649 67.3312 85.2738 66.8567L85.2089 66.9446ZM86.5815 68.3417H86.5073C86.5073 68.2451 86.5073 68.1572 86.4424 68.0869C86.4424 67.2873 91.0797 67.1379 91.9236 67.2521C92.1686 68.3157 92.098 69.4227 91.7196 70.4506C91.2744 71.3293 88.6776 71.3293 87.8429 71.1008C87.3235 70.9515 86.8319 69.3434 86.6094 68.4647L86.7114 68.4032C86.7763 68.3417 86.7763 68.2099 86.6464 68.2538L86.5815 68.3417ZM81.3971 70.6176C82.2318 71.259 82.677 72.085 83.5024 70.8812C83.7417 70.5271 83.9085 70.1336 83.9939 69.7213C84.8344 69.3693 85.6519 68.9702 86.4424 68.5262C86.6279 69.5104 87.0731 71.1624 87.7501 71.3469C88.7703 71.6544 91.4599 71.6105 92.0535 70.5648C92.443 69.5783 92.5767 68.5175 92.443 67.4718C92.6843 67.4555 92.9254 67.4555 93.1666 67.4718C93.1666 67.8584 93.2779 68.4384 93.3799 69.0271C93.2315 68.6756 93.1388 68.4911 93.1017 68.4032C93.0954 68.3973 93.0885 68.3927 93.0807 68.3895C93.0723 68.3865 93.0637 68.3847 93.0553 68.3847C93.0469 68.3847 93.0383 68.3865 93.0305 68.3895C93.0221 68.3927 93.0152 68.3973 93.0089 68.4032C92.8698 68.4032 93.0089 68.4823 93.7416 71.2502C93.8313 71.5656 93.9023 71.8853 93.9549 72.208C93.0275 72.2783 92.9625 72.208 92.9625 72.3398C92.9625 72.4716 92.9625 72.4101 94.1033 72.4892C94.4001 72.4892 94.2795 71.7599 94.0569 70.9603C94.0569 70.9603 94.1311 71.0481 94.1775 71.0657C94.8414 71.2787 95.5555 71.309 96.2364 71.1536C96.6005 71.0893 96.9536 70.9769 97.2844 70.8197C97.3362 71.6239 97.2706 72.4312 97.0897 73.2185C96.8091 74.4907 96.1676 75.6663 95.2348 76.6191C94.7896 77.0375 94.2765 77.3849 93.7138 77.6472C92.8683 78.0463 91.9311 78.2396 90.9869 78.2096C90.9625 78.2084 90.9382 78.2118 90.9152 78.2195C90.8921 78.2273 90.8711 78.2393 90.853 78.2548C90.8348 78.2703 90.8201 78.289 90.8097 78.3099C90.7992 78.3308 90.7933 78.3535 90.7921 78.3765V80.5557C90.5417 81.3641 89.0393 84.3166 88.6497 85.081L79.9503 80.9951C79.9503 80.9072 80.9519 78.6138 81.2209 77.8757C81.6593 77.7638 82.053 77.5314 82.3524 77.2078C83.9012 75.8107 83.8177 74.5717 82.881 74.0094C81.9443 73.447 81.1838 74.273 80.1914 72.4804C79.199 70.6879 80.618 69.8795 81.462 70.5297L81.3971 70.6176ZM80.8777 60.0731C79.3938 59.4404 78.1881 57.8588 76.5836 59.502C74.8029 61.3297 79.2361 61.2594 77.5111 62.2611C75.786 63.2628 73.8013 62.8762 73.9219 64.5545C73.6714 62.9201 73.4303 61.6108 73.4303 61.6108C73.4202 61.5682 73.3939 61.5306 73.3561 61.5054C73.1521 61.3912 73.69 61.5933 69.4979 62.1117C64.0445 62.7795 63.7292 62.6038 63.757 62.7795L65.0184 71.962C65.0232 71.9855 65.0334 72.0077 65.0477 72.0272C65.062 72.0468 65.0804 72.0636 65.1018 72.0762C67.2071 73.2888 71.8907 71.9005 74.1723 71.013C73.9731 71.298 73.8848 71.6396 73.9219 71.9795C73.9868 72.4453 74.6082 72.5156 75.2296 72.5859C75.2296 72.5859 75.6284 78.8071 75.6469 79.3431C75.6469 80.0461 75.7026 80.9687 75.6469 81.7244C75.292 81.7084 74.9382 81.7736 74.6154 81.9142C74.2925 82.0548 74.0102 82.2671 73.792 82.5328C72.3916 82.7173 71.9371 83.6312 72.1133 84.0266C71.1613 84.5552 70.2611 85.1644 69.4237 85.8455C66.7991 86.8999 62.3659 87.3481 59.5 87.559C59.565 77.6033 58.6561 63.6407 58.8137 62.595C60.6686 61.3912 61.6517 58.3684 62.134 56.2683C62.7739 53.474 62.5235 53.0347 62.9409 52.8238C63.3582 52.6129 64.1929 52.9029 64.3228 52.3054C64.4526 51.7078 62.4679 50.627 61.8743 50.3019C62.8481 50.1174 65.5285 49.555 66.2519 48.9048C66.595 48.5884 66.4374 48.3424 66.1498 48.0261C65.3581 47.1368 64.5094 46.2947 63.6086 45.5042C70.7512 48.634 76.775 53.6696 80.9426 59.994L80.8777 60.0731ZM58.619 62.2699C57.2092 61.7954 54.8071 58.3509 53.9817 57.147C52.1268 54.344 52.6184 54.2034 51.8857 53.6322C51.153 53.0611 50.0308 53.2719 49.9009 53.0786C49.7711 52.8853 50.2348 52.1999 50.3461 52.0418C50.6292 51.6174 50.939 51.2095 51.2736 50.8204C52.201 50.8204 52.201 50.8907 52.2659 50.8907C53.8972 54.7534 55.9948 58.4247 58.5169 61.8305C58.5316 61.8583 58.554 61.8816 58.5819 61.8979C58.6099 61.9142 58.6419 61.9229 58.6746 61.9229C58.7073 61.9229 58.7395 61.9142 58.7674 61.8979C58.7952 61.8816 58.8176 61.8583 58.8323 61.8305C60.4172 58.19 61.2091 54.2836 61.1602 50.3459L61.7352 50.2404C62.2546 50.504 64.3228 51.6376 64.2022 52.1472C64.0816 52.6568 63.386 52.279 62.9223 52.4987C62.4586 52.7184 62.6255 53.2104 61.9207 56.0838C61.4199 58.1488 60.446 61.1715 58.619 62.2699ZM66.1498 48.483V48.5533C65.649 49.1508 62.0134 50.0559 61.2344 50.2404C61.2344 48.538 61.0573 46.8398 60.7057 45.1703V43.0175C61.4199 43.7116 65.9922 47.8591 66.1498 48.483ZM49.7433 35.9439C48.7664 34.9754 48.1201 33.7507 47.8884 32.4291C48.6025 32.2973 49.3909 31.7701 49.0477 31.2165C48.5747 30.4344 47.1279 29.7578 47.7493 29.5294C48.3707 29.3009 49.261 30.7244 49.9659 29.9687C50.6707 29.213 49.9659 28.1146 50.7264 27.851C51.4869 27.5874 52.2567 28.1059 52.9244 26.9723C53.5922 25.8388 53.5087 26.2782 53.9353 26.2254C54.362 26.1727 54.4454 26.8054 55.3172 26.6648C56.189 26.5242 56.3467 26.8493 55.9572 27.2359C55.5677 27.6226 53.5922 28.0443 54.1023 29.09C54.2736 29.4503 54.5218 29.773 54.8316 30.0377C55.1414 30.3025 55.5056 30.5033 55.9015 30.6277L56.0778 30.9792C55.9833 32.442 55.9678 33.9085 56.0314 35.3727C55.8531 35.4531 55.6584 35.4948 55.4611 35.4948C55.2636 35.4948 55.0689 35.4531 54.8906 35.3727C54.3898 35.0652 54.7515 32.8069 53.0357 32.8948C51.4498 32.9827 50.782 33.6944 50.782 35.0652C50.782 35.9878 51.83 36.5941 52.7668 36.8226C52.7204 37.0247 52.6647 37.262 52.6091 37.5168C51.5326 37.222 50.5486 36.682 49.7433 35.9439ZM52.5256 39.7048C52.5998 38.826 52.776 37.5695 52.9152 36.6732C53.0543 37.7189 53.4902 40.7768 53.4067 41.181C53.3726 41.2842 53.3084 41.3762 53.2214 41.4462C53.1344 41.5162 53.0281 41.5614 52.9152 41.5764C52.3123 41.6291 52.4607 40.3111 52.5164 39.696L52.5256 39.7048ZM52.2567 41.5237C52.6184 42.253 53.6386 41.8664 53.7684 41.2425C53.9261 40.4253 53.0079 36.2427 52.9894 36.1548C52.984 36.1414 52.9747 36.1297 52.9622 36.1216C52.9497 36.1134 52.9349 36.1089 52.9199 36.1089C52.9047 36.1089 52.8899 36.1134 52.8774 36.1216C52.8651 36.1297 52.8555 36.1414 52.8502 36.1548C52.8502 36.1548 52.7946 36.3569 52.7204 36.682C51.9321 36.4272 50.9397 35.8472 50.9768 35.0476C50.9768 33.835 51.5889 33.2902 52.9801 33.2111C54.3713 33.132 53.9075 35.1882 54.6495 35.6364C54.8945 35.7779 55.1791 35.8455 55.4656 35.8297C55.7412 35.815 56.0115 35.7523 56.2632 35.6451C56.4302 35.5573 56.2632 35.5661 56.2632 33.6768C56.2632 30.5135 56.3653 31.0847 56.1427 30.698C56.6593 30.7476 57.1757 30.6023 57.5802 30.2938C59.092 29.2306 55.4749 30.5399 55.8923 29.5645C56.3096 28.5891 56.4673 28.5979 57.8492 28.2025C59.2311 27.8071 58.7024 27.3941 58.2016 26.9811C57.7008 26.5681 56.4487 26.5593 57.8492 25.8827C59.2496 25.2061 60.3997 25.004 60.5481 23.9232C60.7325 24.1945 60.9811 24.4215 61.274 24.5861C61.5669 24.7508 61.8962 24.8488 62.236 24.8722C63.2377 24.8283 63.1635 25.1007 62.8852 25.6191C62.607 26.1376 62.2267 26.9635 63.5344 26.9811C64.8421 26.9987 65.7881 26.6911 65.7047 27.2447C65.6212 27.7983 65.0369 29.38 66.0571 29.5733C67.3834 35.4518 66.8732 42.086 60.4924 42.6308L60.3347 42.789V45.1615C60.9039 47.931 61.0258 50.7665 60.6964 53.5707C60.4187 56.2638 59.738 58.906 58.6746 61.4175C55.5213 57.1119 51.6817 50.4337 50.9211 45.1703L52.2567 41.5237ZM52.1732 39.696C51.8764 42.4815 52.8502 39.4587 50.6986 45.1176C50.9643 47.0632 51.4845 48.97 52.2474 50.794C51.1623 50.5655 45.8944 50.4952 46.0057 49.6077C46.117 48.7203 48.3336 45.2933 48.89 44.3882C50.476 41.8488 51.2086 40.1529 52.1732 39.696ZM39.9865 46.0929C42.8238 44.9477 45.8133 44.1761 48.8715 43.7995C48.9271 43.7029 45.7924 48.4303 45.6532 49.5814C45.5141 50.7325 49.6876 50.8028 51.1252 50.8555C50.5099 51.4345 50.0185 52.1208 49.6784 52.8765C49.646 52.9395 49.6306 53.009 49.6337 53.0788C49.6367 53.1488 49.6581 53.2168 49.6957 53.2769C49.7335 53.337 49.7863 53.3873 49.8497 53.4232C49.9131 53.4592 49.9848 53.4796 50.0586 53.4828C50.7078 53.6234 51.7837 53.4828 52.2288 54.6779C52.9523 56.5847 56.5322 61.8393 58.5633 62.428C58.3964 63.4737 59.4166 84.9668 59.4908 87.4975C56.3467 87.7259 52.2381 87.8753 47.2855 87.8226C46.052 87.8226 41.0067 87.7171 40.0978 87.5502C38.9292 87.3481 36.4437 86.7418 35.3029 86.4606C33.2996 83.1567 34.6351 75.178 33.0214 72.8143L34.9319 70.1782C36.3788 70.3276 37.9276 70.4155 39.5692 70.433L39.7176 70.3627C40.6986 69.0487 41.5494 67.6514 42.2588 66.1889C45.3008 59.9501 45.7738 53.2632 41.3313 47.8591C41.2664 47.7888 41.1551 47.8591 41.2108 47.9382C46.2283 54.0891 44.7351 61.9535 40.6079 68.535C34.7001 68.3417 28.4027 67.1467 23.3852 64.2997C22.6559 63.886 21.9641 63.4159 21.317 62.8937C25.0944 55.2722 31.7586 49.2751 39.9865 46.0929ZM39.7176 87.7435C39.3621 88.1236 39.0512 88.5387 38.7901 88.9825C37.6308 88.0247 36.2211 87.9456 35.3122 86.6451C36.555 86.9702 38.4933 87.4887 39.7176 87.7435ZM20.3895 64.8972C20.6678 64.2645 20.9089 63.7373 21.2057 63.1398C24.3219 65.9429 31.4076 68.8338 40.3946 68.7811C39.9123 69.5368 39.5784 69.9761 39.4672 70.1518C36.084 70.1403 32.716 69.727 29.4415 68.9217C23.8118 67.4894 20.9274 65.3102 20.3895 64.8708V64.8972ZM23.5151 79.1322C22.3811 77.3438 21.5869 75.3809 21.1686 73.3328C20.6671 70.9524 20.8333 68.4892 21.6509 66.1889C25.6266 68.4329 30.0823 69.8052 34.6908 70.2046L32.7246 72.7792C32.7088 72.7979 32.7002 72.8212 32.7002 72.845C32.7002 72.869 32.7088 72.8923 32.7246 72.911C32.7803 72.9725 33.4109 73.86 33.5222 76.7948C33.6335 79.7297 33.5222 84.009 34.7835 86.4606C36.0449 88.9122 38.4006 88.1477 39.5414 90.5554C40.6821 92.963 38.753 91.8998 38.0203 90.7047C38.0052 90.6827 37.9844 90.6651 37.9601 90.6528C37.9359 90.6404 37.9087 90.6336 37.8812 90.6336C37.8536 90.6336 37.8266 90.6404 37.8023 90.6528C37.778 90.6651 37.7573 90.6827 37.7421 90.7047C36.5943 91.9429 35.2447 92.9989 33.7448 93.8329C33.1504 94.1691 32.5303 94.4627 31.8899 94.7116C31.7089 93.8395 31.7248 92.941 31.9363 92.0755C32.2609 90.6608 26.6498 84.3869 23.5151 79.1058V79.1322ZM27.5866 125.194C27.364 122.189 27.4196 112.699 27.5866 109.447C27.9854 102.198 26.4551 95.6079 28.783 87.3042C29.4229 88.1829 31.8621 91.2671 31.7044 91.9349C31.4949 92.8437 31.4949 93.7853 31.7044 94.6941C29.5157 95.4937 28.7273 95.2388 28.7551 95.4497C28.755 95.4585 28.7569 95.4673 28.7608 95.4753C28.7646 95.4834 28.7702 95.4908 28.7773 95.4966C28.7844 95.5025 28.7926 95.5068 28.8016 95.509C28.8106 95.512 28.8201 95.5127 28.8293 95.5112C32.2958 95.0844 35.4833 93.4866 37.807 91.0123C38.7345 92.3479 40.2648 92.7697 40.1998 91.5395C40.0658 90.6373 39.6302 89.7997 38.9571 89.1494C39.3503 88.8515 39.6435 88.4516 39.801 87.9983C39.866 87.7786 39.801 87.805 39.9402 87.8314C41.489 88.1301 50.9675 88.4113 58.0068 87.9544C61.2807 87.7435 66.0386 87.269 69.1362 86.1003C65.9895 88.8924 63.8702 92.5661 63.0893 96.5833H60.8077C60.7695 95.3802 60.5954 94.1836 60.2884 93.0157C60.1027 92.4805 59.7297 92.022 59.2311 91.7152C58.0161 90.9947 56.2725 91.2407 51.8115 91.7152C51.7798 91.7204 51.7496 91.7328 51.7238 91.7512C51.6982 91.7694 51.6773 91.7935 51.6631 91.8207C51.7651 91.5571 50.8748 93.5781 51.6631 94.5535C51.681 94.5784 51.7066 94.5982 51.7365 94.6091C51.7663 94.6201 51.7988 94.6223 51.83 94.615C53.1839 94.3514 54.5578 94.1895 55.9386 94.1317C56.2911 94.1317 57.3298 94.1317 57.3947 94.4832C57.6173 95.6167 58.823 117.672 58.6097 119.755C57.5585 119.528 56.4622 119.578 55.4378 119.895C52.5071 120.836 51.4591 123.744 51.357 123.814C50.6385 124.328 50.06 124.997 49.6691 125.765C42.3453 127.033 34.822 126.83 27.5866 125.168V125.194ZM44.1229 163.857C47.3041 164.885 46.9053 166.018 46.8033 166.168C45.494 166.573 44.1034 166.684 42.741 166.493C42.7581 165.988 42.8894 165.494 43.1264 165.042C43.3631 164.591 43.6999 164.192 44.1137 163.874L44.1229 163.857ZM46.1448 142.39C45.4677 145.975 44.2899 153.532 43.4645 157.064C43.3253 157.644 42.2217 162.442 42.6298 162.89C41.732 163.718 41.1428 164.802 40.9511 165.975C39.3958 165.793 37.8677 165.442 36.3973 164.929C35.6182 162.293 35.034 156.476 34.7557 153.681C34.5053 151.045 32.9008 127.057 32.8359 126.442C38.4166 127.17 44.0879 126.989 49.6042 125.906C47.6614 129.624 46.7063 133.735 46.8218 137.882C46.896 139.736 47.0444 137.654 46.1448 142.408V142.39ZM57.3391 164.911C57.2463 164.859 55.6511 164.542 53.7035 161.669C50.1235 156.397 47.4989 144.183 47.2763 137.882C47.1896 134.89 47.6188 131.904 48.5469 129.043C49.043 127.323 49.8837 125.709 51.0232 124.289C51.54 124.167 52.0678 124.09 52.5998 124.06C51.1933 126.806 50.4038 129.797 50.2812 132.847C49.2425 131.31 49.2703 131.292 49.1683 131.354C49.0662 131.415 49.0662 131.354 50.2719 133.278C50.2962 136.664 50.5161 140.046 50.9304 143.409C48.482 143.699 48.5376 143.655 48.5562 143.77C48.5562 143.781 48.5585 143.792 48.5632 143.802C48.568 143.812 48.575 143.822 48.5838 143.829C48.5926 143.836 48.6029 143.842 48.614 143.845C48.6253 143.849 48.6371 143.85 48.6489 143.849L50.9675 143.699C51.293 146.478 51.7916 149.236 52.4607 151.959L51.2272 154.938C51.1808 155.035 51.3478 155.105 51.3849 154.999L52.5813 152.407C53.5087 155.878 55.1039 160.386 57.877 162.794C58.0254 163.83 58.0254 164.472 58.0254 164.472C58.0276 164.494 58.0385 164.514 58.0556 164.528C58.0728 164.543 58.095 164.551 58.1181 164.551C58.2387 164.551 58.2016 164.498 58.1181 163.031C58.7357 163.543 59.45 163.94 60.2234 164.2C59.7226 164.393 57.9234 165.122 57.3391 164.911ZM63.8869 153.664C63.8869 153.014 64.0074 142.671 64.0074 142.557L65.7232 142.364C66.1954 146.937 66.102 151.545 65.445 156.098L63.8869 153.664ZM65.3708 156.423C65.0276 158.479 64.7123 159.991 63.6736 161.414C63.6736 161.414 63.8683 154.674 63.8776 154.209L65.3708 156.423ZM64.0074 142.241V137.215L64.9349 137.452C65.2983 138.994 65.5677 140.555 65.7418 142.126L64.0074 142.241ZM63.9054 136.969C63.8882 136.965 63.8703 136.964 63.853 136.968C63.8356 136.971 63.8192 136.978 63.8051 136.988C63.7909 136.999 63.7793 137.011 63.771 137.026C63.7628 137.041 63.7579 137.057 63.757 137.074C63.757 137.074 63.5901 141.626 63.5901 142.267L62.8203 142.32C62.7443 142.184 62.6437 142.062 62.5235 141.96C62.3161 141.788 62.0679 141.667 61.8001 141.608H60.1493V135.132L60.8634 133.427C61.6053 133.55 63.0151 133.832 63.757 133.981C64.1879 135.042 64.5472 136.128 64.8329 137.232L63.9054 136.969ZM55.3265 143.383V143.664C55.3265 146.019 56.5693 142.179 52.7575 151.291C52.1788 148.781 51.7329 146.244 51.422 143.691L55.3265 143.383ZM51.3663 143.383C51.3663 143.585 50.7542 138.664 50.6615 133.911C50.6615 133.972 55.5491 141.555 55.8644 142.039C55.622 142.304 55.4587 142.625 55.3914 142.97L51.3663 143.383ZM55.7995 145.228C55.9469 145.41 56.1632 145.529 56.4024 145.562C56.5415 147.223 57.7935 161.88 57.8492 162.442C55.2152 159.903 53.722 155.254 52.8595 151.792C53.2769 150.878 55.679 145.527 55.7995 145.228ZM56.8568 145.694H58.2573L60.0009 148.33V162.258C59.9877 162.58 60.1005 162.898 60.3177 163.147C60.5349 163.396 60.8413 163.562 61.1787 163.611C60.9283 163.76 60.6872 163.892 60.4368 164.015C59.5678 163.746 58.7704 163.302 58.0996 162.715C58.0254 162.055 56.9867 147.311 56.8568 145.694ZM61.7352 141.995C61.9703 142.053 62.1807 142.179 62.338 142.355L57.404 142.777C57.3391 142.567 57.2389 142.368 57.1072 142.188L57.2371 141.907L61.7352 141.995ZM57.3298 141.687L59.7226 136.178C59.7226 138.111 59.8154 139.692 59.9545 141.634L57.3298 141.687ZM62.8945 142.671L63.5252 142.601C63.5252 142.698 63.3953 152.565 63.3953 153.005C62.9594 152.311 60.8448 149.024 60.242 148.093C60.242 146.933 60.242 146.063 60.1864 145.703C61.0211 145.703 61.7537 145.703 62.0412 145.641C63.1542 145.545 63.1913 143.603 62.9687 142.671H62.8945ZM61.967 145.228C61.4106 145.272 59.0178 145.299 58.3964 145.307C57.0887 143.304 57.5617 144.174 57.4133 143.19L62.4308 142.715C62.709 143.383 62.7183 145.14 62.0783 145.228H61.967ZM59.9545 145.703C59.9545 146.019 59.9545 146.705 59.8988 147.627L58.6561 145.712L59.9545 145.703ZM57.3391 144.473L57.8863 145.351H56.8568C57.1406 145.119 57.3468 144.814 57.4504 144.473H57.3391ZM60.2049 162.293V148.884C60.6779 149.604 62.8018 152.803 63.3397 153.594V161.396C63.3388 161.411 63.3422 161.426 63.3496 161.439C63.357 161.451 63.368 161.462 63.3817 161.47C63.3951 161.477 63.4105 161.481 63.426 161.48C63.4415 161.48 63.4567 161.475 63.4695 161.467C62.882 162.258 62.1465 162.939 61.2993 163.479C61.0045 163.442 60.7369 163.297 60.5533 163.076C60.3696 162.854 60.2845 162.573 60.3162 162.293H60.2049ZM60.4553 133.392L60.0843 134.218V133.339C60.2466 133.341 60.4083 133.358 60.5666 133.392H60.4553ZM60.9376 133.093L61.9207 130.738C62.5908 131.689 63.1506 132.705 63.5901 133.77C62.9038 133.542 61.865 133.26 61.0489 133.093H60.9376ZM60.6222 133.032C60.4218 132.987 60.2164 132.962 60.0101 132.962C59.7968 132.962 59.7319 133.093 59.6948 133.401C59.3609 136.345 60.6223 132.9 56.7641 141.705H56.5415C56.4858 140.958 55.0576 124.552 55.0576 124.552C55.0576 124.529 55.0478 124.507 55.0304 124.49C55.013 124.474 54.9894 124.465 54.9648 124.465C54.9402 124.465 54.9166 124.474 54.8992 124.49C54.8819 124.507 54.8721 124.529 54.8721 124.552C54.8721 124.552 56.0407 140.879 56.0963 141.582L50.6522 133.392C50.6476 130.167 51.385 126.979 52.8131 124.052C55.8088 124.052 58.6561 125.879 61.8836 130.51L60.6222 133.032ZM64.2578 164.129C68.3108 161.15 68.756 148.172 68.3108 144.701C67.5688 138.919 66.5486 130.097 60.7335 125.37C57.0238 122.321 54.0652 122.593 52.3865 123.287C53.9632 120.37 57.5988 119.772 61.2436 122.953C62.9512 124.5 64.2725 126.388 65.1111 128.48C67.4483 134.227 69.5258 142.539 69.4052 149.007C69.2475 158.672 67.337 169.647 58.2016 165.377C59.6299 165.808 61.6795 166.098 64.3691 164.129H64.2578ZM66.6136 166.906C63.4231 169.041 60.4368 168.329 58.2665 165.641C67.4668 169.937 69.5999 158.778 69.7947 149.016C69.9153 142.487 67.8471 134.201 65.445 128.348C64.559 126.217 63.1877 124.297 61.4291 122.725C59.3702 120.967 56.4858 119.79 54.1208 121.152C53.231 121.703 52.5261 122.483 52.0897 123.401C51.8857 123.489 51.7095 123.586 51.5425 123.674C51.9074 122.855 52.4418 122.113 53.114 121.493C53.7863 120.873 54.5827 120.387 55.4564 120.062C56.8568 119.632 58.6746 119.711 61.0211 120.888C63.9746 122.521 66.2959 125.01 67.643 127.988C73.0686 138.041 73.4025 162.433 66.7249 166.906H66.6136ZM79.097 158.321C78.0976 158.841 77.3399 159.697 76.9732 160.72C76.7754 161.781 76.6978 162.859 76.7413 163.936C74.5478 163.342 72.2938 162.971 70.0173 162.829C72.6049 156.379 72.5771 146.212 71.427 139.104C71.8444 139.218 78.8466 140.949 79.0692 141.011C79.0692 141.52 79.1805 154.622 79.1898 155.07C79.1648 155.087 79.1444 155.109 79.1299 155.136C79.1154 155.161 79.1073 155.19 79.1063 155.219C79.1063 155.061 79.1341 158.207 79.097 158.321ZM80.7942 163.848C81.4445 163.779 82.1021 163.883 82.6935 164.149C83.2847 164.414 83.7865 164.831 84.1423 165.351C82.779 166.66 81.8794 167.583 80.7293 168.795C80.7572 167.873 80.8221 166.001 80.7942 163.822V163.848ZM80.7942 169.393C82.2596 167.837 83.1778 166.818 84.2815 165.518C85.2844 166.979 85.7657 168.707 85.6541 170.447C84.0494 170.005 82.421 169.644 80.7757 169.366L80.7942 169.393ZM85.6263 170.623C85.5607 171.951 85.1359 173.24 84.3928 174.366C83.4653 172.925 82.0463 171.07 81.0539 169.806C82.0556 170.043 84.1145 170.43 85.6263 170.623ZM84.2629 174.542C83.8762 175.183 83.2742 175.683 82.5532 175.961C81.8321 176.239 81.0334 176.282 80.2842 176.079C80.516 173.372 80.5346 172.566 80.6459 170.008C81.6104 171.273 83.0665 173.181 84.2629 174.542ZM80.2842 168.865L79.5329 167.987V164.252C79.8459 164.061 80.1907 163.921 80.5531 163.839C80.4604 165.641 80.2842 168.778 80.2842 168.865ZM79.5607 169.199V168.321L80.1821 169.199H79.5607ZM80.0059 169.533L79.5886 169.981V169.41L80.0059 169.533ZM79.6164 170.562C79.6813 170.5 80.0987 170.069 80.2378 169.911C80.145 172.546 80.1079 173.347 80.1172 176.001C79.4486 175.678 78.8571 175.23 78.3785 174.682C77.8999 174.136 77.5446 173.502 77.3349 172.82C77.4554 172.697 78.5313 171.669 78.8652 171.326C79.0901 171.283 79.3083 171.211 79.5144 171.115C79.6999 171.037 79.6442 170.861 79.6257 170.57L79.6164 170.562ZM77.2607 172.618C76.8418 171.361 76.7182 170.032 76.899 168.725C77.0288 171.097 77.0103 171.037 77.1401 171.115C77.4976 171.302 77.9001 171.399 78.3087 171.396C78.1139 171.642 77.3812 172.486 77.2699 172.626L77.2607 172.618ZM68.4035 165.711C69.0393 164.864 69.5568 163.942 69.9431 162.969C72.1214 163.512 74.3374 163.908 76.5744 164.156C75.9872 165.099 75.5555 166.121 75.2945 167.187C73.0371 166.556 70.7382 166.065 68.4128 165.72L68.4035 165.711ZM85.5521 163.435C88.3344 166.897 88.3344 173.058 85.4964 176.537C82.2874 180.464 77.4462 178.707 75.786 173.452C74.8033 170.384 75.1365 167.072 76.7135 164.235C76.7135 164.788 76.8062 167.284 76.834 167.899C76.645 168.6 76.5454 169.32 76.5373 170.043C76.4538 175.78 81.4156 178.681 84.4484 174.956C87.7223 170.949 85.6355 163.488 81.2487 163.532C80.6514 163.543 80.0695 163.713 79.57 164.024C79.5717 163.266 79.7226 162.515 80.0152 161.809C80.1953 161.623 80.3874 161.446 80.5902 161.282C81.5504 161.154 82.5291 161.29 83.4103 161.673C84.2916 162.055 85.0381 162.671 85.5613 163.444L85.5521 163.435ZM80.9148 161.08C81.2787 160.8 81.7283 160.64 82.1962 160.622C82.6643 160.606 83.1259 160.732 83.5117 160.983C83.6489 161.063 83.7643 161.172 83.8481 161.302C83.9321 161.432 83.982 161.579 83.9939 161.73C83.0859 161.188 82.0075 160.962 80.9426 161.089L80.9148 161.08ZM84.7823 159.384C85.3043 160.448 85.5035 161.629 85.3573 162.794C85.0146 162.433 84.6287 162.111 84.2073 161.836C84.2907 160.887 83.0294 160.254 81.9999 160.377C81.1398 160.537 80.3619 160.967 79.7926 161.599C78.7168 162.679 79.2825 169.577 79.3382 170.791C79.2083 170.939 78.4756 170.966 78.3365 170.966C78.038 170.976 77.7413 170.917 77.474 170.791C77.4091 169.779 76.8526 161.739 77.2421 160.781C77.5529 159.791 78.249 158.949 79.1898 158.426C79.7252 158.798 80.3831 158.975 81.0447 158.927C81.7025 158.895 82.3409 158.705 82.8996 158.374C83.2805 158.388 83.6525 158.487 83.9847 158.665C84.3169 158.842 84.5998 159.091 84.8101 159.393L84.7823 159.384ZM91.1168 171.388C89.03 149.675 89.132 148.998 88.2231 146.169C87.9897 145.186 87.4913 144.278 86.7763 143.532C85.5561 142.629 84.1648 141.954 82.677 141.547C82.4266 141.485 82.5378 140.984 82.5378 155.07C80.145 155.852 79.4495 154.973 79.3567 154.938C79.3567 154.499 79.468 140.791 79.468 140.791C79.4682 140.745 79.4528 140.702 79.4245 140.665C79.396 140.629 79.356 140.602 79.3103 140.589L71.3528 138.743C71.1673 137.645 70.954 136.547 70.7129 135.457L78.6797 137.443C78.6797 136.679 78.8466 122.61 78.8466 121.872C78.8552 121.216 78.6233 120.577 78.1903 120.064C77.7575 119.551 77.1504 119.197 76.4723 119.061L68.2737 116.802C67.1422 116.337 61.1973 115.045 61.1973 115.045V120.317C61.9485 120.554 68.3108 120.203 68.3108 120.317V120.045C68.9322 123.305 71.0931 130.097 78.5127 132.347V133.067C77.5853 132.672 73.0501 130.615 70.8798 127.874H68.0975C65.6212 122.857 61.8836 120.299 58.7674 119.623C58.9992 117.479 57.9048 95.4058 57.6822 94.2547C57.4597 93.1036 53.045 93.8856 51.8579 94.1053C51.5481 93.387 51.5481 92.5829 51.8579 91.8646C52.6647 91.7855 56.662 91.4077 57.4689 91.4692C57.9848 91.4524 58.493 91.5908 58.9198 91.8661C59.3468 92.1407 59.6702 92.5376 59.8432 92.9982C60.6964 95.2213 60.7706 110.107 60.7706 112.461C60.772 112.51 60.7914 112.557 60.8251 112.594C60.859 112.631 60.9054 112.656 60.9561 112.664C58.8972 112.418 79.9132 114.922 81.1467 117.189C82.3802 119.456 82.3524 134.649 82.3524 137.241C82.3512 137.288 82.3672 137.333 82.3976 137.37C82.4281 137.407 82.4711 137.433 82.5193 137.443C84.5019 138.032 86.31 139.056 87.7965 140.431C89.2785 141.811 90.2758 143.59 90.653 145.527C91.7196 150.887 92.9811 165.026 93.4355 170.456L91.1168 171.388ZM77.7615 120.247C76.7228 120.317 71.7702 120.51 68.3386 118.489V117.022C76.6857 119.658 76.9732 119.491 77.7615 120.247ZM93.9178 170.421V170.21L100.957 167.873C100.957 167.987 101.05 168.101 101.087 168.215L93.9178 170.421ZM100.039 161.959C102.341 162.141 104.658 162.061 106.939 161.722C106.939 161.845 106.939 162.135 106.503 166.256C106.49 166.287 106.49 166.322 106.503 166.352C106.176 166.727 105.741 167.005 105.251 167.152C103.875 167.482 102.436 167.501 101.05 167.205C100.585 165.48 100.248 163.727 100.039 161.959ZM109.147 170.421C106.835 170.351 104.549 169.932 102.376 169.182C102.188 169.106 102.015 168.999 101.866 168.865C101.54 168.431 101.3 167.942 101.161 167.424C102.286 167.822 103.503 167.928 104.685 167.732C105.109 167.677 105.513 167.53 105.867 167.303C106.221 167.076 106.515 166.775 106.726 166.423C108.581 166.669 113.58 167.591 113.524 169.384C113.478 170.482 110.306 170.474 109.147 170.421ZM107.421 166.229L106.828 166.159V165.975L119.812 161.809L119.914 162.187L107.421 166.229ZM119.079 158.321C121.041 158.396 123.005 158.213 124.913 157.776L124.857 160.983C124.857 161.801 121.259 162.468 120.396 162.583C120.267 162.187 119.172 158.62 119.079 158.321ZM120.934 164.261C120.869 164.059 120.693 163.488 120.48 162.776C121.502 162.851 122.528 162.723 123.494 162.398C123.842 162.307 124.165 162.144 124.441 161.923C124.716 161.701 124.937 161.426 125.089 161.115C126.23 161.317 130.784 162.222 131.303 163.215C131.823 164.208 128.948 166.721 120.907 164.27L120.934 164.261ZM126.137 157.574C126.138 157.619 126.122 157.664 126.091 157.7C126.061 157.735 126.018 157.759 125.97 157.767C125.97 157.767 125.637 157.846 125.043 157.952V157.75L125.878 157.574V155.492C127.111 150.632 128.076 146.212 128.66 142.311C129.411 144.71 129.587 151.195 129.699 153.734L126.295 154.806C126.054 155.782 126.11 155.131 126.11 157.583L126.137 157.574ZM132.629 158.233C129.114 159.059 131.183 158.479 125.154 160.474V160.14L129.968 158.655C130.088 154.507 130.496 144.956 128.855 141.775C129.198 139.578 129.43 137.522 129.541 135.624C130.478 136.962 131.147 138.451 131.517 140.018C131.732 140.994 131.835 141.99 131.823 142.988C131.683 143.067 132.574 157.987 132.583 158.242L132.629 158.233ZM132.221 142.891C132.236 141.166 131.87 139.457 131.146 137.874C130.717 136.938 130.176 136.054 129.532 135.237C129.847 128.981 128.808 124.456 125.924 121.82C125.395 121.342 124.827 120.904 124.227 120.51C124.227 119.236 124.459 109.36 123.299 108.674C122.14 107.989 114.6 107.611 113.227 107.549C113.237 107.421 113.237 107.292 113.227 107.163C113.135 106.724 112.133 103.525 111.066 100.871C109.311 96.3783 106.792 92.1869 103.61 88.464C102.207 86.7784 100.513 85.3285 98.6014 84.176C100.141 83.6487 99.7515 83.4027 101.681 83.5697C106.846 83.9914 119.052 84.0266 123.142 80.8896C123.689 81.0829 124.273 81.2675 124.904 81.4344C128.363 82.3746 130.923 81.1708 132.889 78.7016C135.254 82.2165 136.998 87.0581 136.506 91.3374C135.922 96.3899 131.656 118.577 131.637 118.691C131.619 118.806 134.828 124.588 137.656 129.921C136.287 130.004 134.972 130.462 133.872 131.239C133.021 131.948 132.384 132.859 132.027 133.878C131.67 134.898 131.605 135.988 131.841 137.039C132.342 139.385 134.41 140.773 136.84 141.23C135.348 141.895 133.803 142.45 132.221 142.891ZM137.137 141.134C136.494 141.016 135.87 140.819 135.282 140.545C134.523 140.224 133.855 139.739 133.329 139.128C132.804 138.518 132.437 137.799 132.259 137.03C131.966 135.543 132.246 134.006 133.047 132.698C133.731 131.707 134.737 130.954 135.913 130.554C136.505 130.322 137.13 130.173 137.768 130.115C139.622 133.7 141.357 137.1 141.728 138.559C140.284 139.556 138.737 140.41 137.109 141.107L137.137 141.134Z" fill="black" />
	<path d="M127.584 162.082C127.314 162.074 127.049 162.155 126.833 162.311C126.602 162.445 126.43 162.654 126.351 162.899C126.277 162.978 126.406 163.093 126.481 163.005C126.816 162.852 127.127 162.656 127.408 162.425L127.621 162.249C127.64 162.24 127.655 162.226 127.665 162.209C127.673 162.191 127.676 162.171 127.672 162.152C127.668 162.133 127.657 162.115 127.641 162.102C127.625 162.09 127.605 162.083 127.584 162.082ZM63.1823 37.7542C63.0127 37.7711 62.8418 37.7711 62.6722 37.7542C62.4771 37.7234 62.294 37.6448 62.141 37.5261C61.9881 37.4072 61.8707 37.2527 61.8004 37.0776L61.7355 36.8228C61.7355 36.8041 61.7277 36.7862 61.7137 36.7731C61.6999 36.7598 61.681 36.7525 61.6613 36.7525C61.6416 36.7525 61.6227 36.7598 61.6088 36.7731C61.5948 36.7862 61.5871 36.8041 61.5871 36.8228C61.5577 37.0194 61.5878 37.22 61.6734 37.4013C61.7593 37.5826 61.8974 37.7373 62.0717 37.8473C62.2463 37.9576 62.45 38.0188 62.6596 38.024C62.8692 38.0293 63.0761 37.9785 63.2565 37.8772C63.2649 37.8726 63.2725 37.8664 63.2786 37.859C63.2845 37.8517 63.289 37.8434 63.2916 37.8342C63.2941 37.8253 63.2948 37.8159 63.2936 37.8068C63.2924 37.7975 63.2892 37.7886 63.2843 37.7806C63.2794 37.7724 63.273 37.7654 63.2651 37.7596C63.2575 37.754 63.2486 37.7499 63.2391 37.7473C63.2297 37.7449 63.2197 37.7443 63.21 37.7454C63.2002 37.7465 63.1907 37.7496 63.1823 37.7542ZM60.3165 32.1656V32.7983C60.3165 32.8729 60.3478 32.9443 60.4035 32.9971C60.4591 33.0498 60.5345 33.0795 60.6133 33.0795C60.692 33.0795 60.7674 33.0498 60.823 32.9971C60.8789 32.9443 60.9101 32.8729 60.9101 32.7983V32.2184C60.9138 32.1815 60.9097 32.1442 60.8981 32.1088C60.8866 32.0733 60.8677 32.0404 60.8428 32.0118C60.8178 31.9832 60.7871 31.9596 60.7526 31.9423C60.718 31.9249 60.68 31.9143 60.6411 31.9108C60.6021 31.9073 60.5628 31.9111 60.5254 31.9222C60.488 31.933 60.4532 31.9508 60.4231 31.9746C60.3929 31.9982 60.3681 32.0273 60.3497 32.06C60.3315 32.0928 60.3202 32.1287 60.3165 32.1656ZM109.675 167.24C109.277 167.136 108.855 167.161 108.473 167.31C108.092 167.46 107.774 167.726 107.57 168.066C107.563 168.084 107.562 168.105 107.568 168.123C107.575 168.142 107.587 168.158 107.604 168.169C107.621 168.18 107.642 168.186 107.663 168.185C107.684 168.183 107.703 168.176 107.718 168.163C107.855 168.058 108.004 167.969 108.164 167.899C108.552 167.703 108.967 167.561 109.397 167.477L109.666 167.407C109.777 167.416 109.787 167.24 109.675 167.24ZM108.247 167.012C108.358 167.012 108.33 166.818 108.247 166.845C107.834 166.817 107.421 166.898 107.053 167.078C106.685 167.258 106.377 167.529 106.16 167.864C106.086 167.952 106.234 168.048 106.299 167.952C106.769 167.671 107.266 167.433 107.783 167.24L108.247 167.012ZM126.481 161.608C126.359 161.577 126.231 161.577 126.11 161.608C125.9 161.673 125.712 161.788 125.562 161.941C125.413 162.095 125.307 162.283 125.256 162.486C125.249 162.505 125.249 162.525 125.255 162.543C125.261 162.562 125.273 162.579 125.29 162.589C125.307 162.6 125.328 162.606 125.349 162.605C125.37 162.603 125.389 162.596 125.405 162.583C125.488 162.513 125.664 162.407 125.739 162.337C125.909 162.175 126.088 162.023 126.277 161.88L126.471 161.739C126.484 161.751 126.5 161.76 126.517 161.763C126.535 161.767 126.553 161.766 126.569 161.76C126.587 161.753 126.601 161.743 126.611 161.73C126.622 161.716 126.628 161.7 126.63 161.683C126.631 161.666 126.627 161.649 126.618 161.635C126.61 161.62 126.597 161.608 126.581 161.6C126.565 161.592 126.547 161.589 126.529 161.59C126.511 161.591 126.495 161.597 126.481 161.608ZM63.4513 35.698C63.4513 35.698 64.7404 37.596 65.5844 37.5873C65.2642 36.5913 64.6571 35.6996 63.8315 35.0127C63.7388 35.0127 64.861 35.0742 64.8332 34.4679C64.6951 34.0162 64.4988 33.5823 64.2489 33.1762C63.9173 32.5818 63.5391 32.012 63.1174 31.4715C63.1145 31.4608 63.1091 31.4509 63.1015 31.4426C63.0938 31.4342 63.0842 31.4277 63.0734 31.4235C63.0626 31.4194 63.0509 31.4176 63.0393 31.4186C63.0277 31.4195 63.0165 31.4231 63.0066 31.4288C62.9966 31.4346 62.9884 31.4426 62.9821 31.4518C62.9761 31.4612 62.9725 31.472 62.9715 31.483C62.9705 31.4938 62.9724 31.5049 62.9767 31.5152C62.9811 31.5253 62.988 31.5346 62.9968 31.5418L63.4142 32.4205C63.8224 33.0918 64.1909 33.7841 64.5178 34.4942C64.5178 34.7403 63.4327 34.8545 63.3307 34.8808C63.3165 34.8858 63.3042 34.8947 63.2956 34.9066C63.287 34.9184 63.2823 34.9323 63.2823 34.9467C63.2823 34.961 63.287 34.9751 63.2956 34.9869C63.3042 34.9986 63.3165 35.0075 63.3307 35.0127C62.193 35.2306 61.1178 35.677 60.1774 36.3219C60.1774 36.3219 62.5609 36.3483 63.4513 35.698Z" fill="black" />
	<path fill-rule="evenodd" clip-rule="evenodd" d="M107.709 29.679C108.034 29.679 109.054 29.5999 109.211 29.6175C109.369 29.635 109.351 29.5208 109.267 29.4857C109.078 29.3508 108.845 29.2824 108.609 29.2923C108.279 29.2808 107.954 29.3701 107.681 29.5472C107.667 29.5544 107.656 29.5655 107.649 29.5791C107.643 29.5927 107.641 29.608 107.644 29.6229C107.647 29.6376 107.655 29.651 107.667 29.6611C107.678 29.6711 107.694 29.6774 107.709 29.679ZM113.319 30.1356C113.842 30.289 114.099 30.1715 114.554 30.461C114.694 30.1356 114.566 30.4786 114.575 30.4848C114.584 30.4912 114.594 30.4955 114.605 30.4976C114.616 30.4998 114.627 30.4995 114.638 30.497C114.649 30.4944 114.659 30.4895 114.667 30.4827C114.676 30.476 114.683 30.4676 114.687 30.458C114.692 30.4484 114.694 30.438 114.694 30.4275C114.694 30.4169 114.691 30.4067 114.686 30.3971C114.681 30.3878 114.674 30.3795 114.665 30.3731C114.595 30.238 114.774 30.4826 114.665 30.3731C114.367 30.1199 114.305 29.9113 113.904 29.9159C113.825 29.907 113.122 29.6085 113.042 29.6175C112.94 29.6526 113.217 30.1356 113.319 30.1356ZM108.108 32.0251C108.108 31.8318 108.154 31.6473 108.191 31.454C108.204 31.417 108.209 31.3781 108.205 31.3394C108.201 31.3007 108.189 31.2632 108.169 31.2292C108.149 31.1953 108.122 31.1656 108.089 31.1421C108.057 31.1184 108.019 31.1017 107.979 31.0926C107.939 31.0835 107.898 31.0822 107.857 31.089C107.817 31.0958 107.778 31.1105 107.745 31.132C107.711 31.1536 107.682 31.1816 107.66 31.2143C107.637 31.2471 107.623 31.2838 107.616 31.3221C107.616 31.533 107.542 31.7351 107.524 31.946C107.513 31.9842 107.512 32.0242 107.519 32.063C107.526 32.1018 107.541 32.1389 107.564 32.1716C107.588 32.2044 107.618 32.2322 107.653 32.2531C107.689 32.274 107.728 32.2879 107.769 32.2934C107.81 32.2989 107.853 32.2962 107.893 32.2855C107.932 32.2747 107.97 32.2561 108.002 32.2307C108.034 32.2053 108.06 32.174 108.078 32.1385C108.096 32.1032 108.106 32.0646 108.108 32.0251ZM89.9116 69.493V68.9131C89.9116 68.8385 89.8804 68.7671 89.8248 68.7142C89.7691 68.6615 89.6936 68.6319 89.6148 68.6319C89.5361 68.6319 89.4607 68.6615 89.4049 68.7142C89.3492 68.7671 89.3181 68.8385 89.3181 68.9131V69.537C89.3211 69.5739 89.3317 69.61 89.3496 69.6429C89.3673 69.676 89.3917 69.7052 89.4214 69.7293C89.4511 69.7535 89.4855 69.7717 89.5226 69.7832C89.5599 69.7947 89.599 69.799 89.6381 69.7963C89.6771 69.7932 89.715 69.7832 89.7499 69.7664C89.7846 69.7496 89.8157 69.7265 89.8411 69.6983C89.8666 69.6701 89.8858 69.6375 89.898 69.6023C89.9101 69.567 89.9147 69.53 89.9116 69.493ZM113.533 32.9302C113.533 32.7456 113.589 32.5523 113.617 32.359C113.63 32.3221 113.635 32.2831 113.631 32.2445C113.627 32.2058 113.615 32.1683 113.594 32.1342C113.574 32.1004 113.547 32.0706 113.515 32.0472C113.482 32.0235 113.445 32.0067 113.405 31.9976C113.365 31.9885 113.324 31.9872 113.283 31.9941C113.243 32.0008 113.204 32.0155 113.17 32.0371C113.136 32.0587 113.108 32.0866 113.085 32.1194C113.063 32.1521 113.048 32.1889 113.042 32.2272C113.042 32.4381 112.977 32.6402 112.949 32.8511C112.939 32.8893 112.937 32.9292 112.944 32.968C112.951 33.0069 112.967 33.0439 112.99 33.0767C113.013 33.1094 113.043 33.1372 113.079 33.1582C113.115 33.1791 113.154 33.193 113.195 33.1984C113.236 33.204 113.278 33.2013 113.319 33.1906C113.358 33.1797 113.395 33.1612 113.427 33.1358C113.459 33.1104 113.486 33.0791 113.503 33.0436C113.522 33.0083 113.532 32.9696 113.533 32.9302ZM95.4296 69.3349V68.7637C95.4296 68.6891 95.3987 68.6177 95.3431 68.5648C95.2874 68.5121 95.2116 68.4825 95.1328 68.4825C95.0539 68.4825 94.979 68.5121 94.9234 68.5648C94.8677 68.6177 94.836 68.6891 94.836 68.7637V69.3876C94.8399 69.4245 94.8515 69.4605 94.8693 69.4932C94.8878 69.526 94.9126 69.555 94.9426 69.5787C94.9728 69.6023 95.0075 69.6202 95.0446 69.6311C95.0826 69.642 95.122 69.6459 95.1606 69.6424C95.2001 69.6389 95.2379 69.6282 95.2719 69.611C95.3067 69.5935 95.3377 69.5699 95.3623 69.5415C95.3871 69.5129 95.4063 69.4799 95.418 69.4445C95.4296 69.409 95.4335 69.3718 95.4296 69.3349Z" fill="black" />
	<path d="M23.9453 199.157C23.1102 199.157 22.3325 199.021 21.6122 198.749C20.9024 198.468 20.2813 198.076 19.7489 197.575C19.2269 197.064 18.8198 196.463 18.5275 195.774C18.2352 195.085 18.0891 194.334 18.0891 193.52C18.0891 192.705 18.2352 191.954 18.5275 191.265C18.8198 190.576 19.2322 189.981 19.7645 189.48C20.2969 188.968 20.918 188.577 21.6279 188.305C22.3377 188.024 23.1154 187.883 23.961 187.883C24.8587 187.883 25.6782 188.039 26.4193 188.352C27.1605 188.655 27.7868 189.109 28.2983 189.715L26.983 190.952C26.5863 190.524 26.1427 190.205 25.6521 189.996C25.1614 189.777 24.629 189.668 24.0549 189.668C23.4808 189.668 22.9536 189.762 22.4734 189.949C22.0037 190.137 21.5913 190.404 21.2364 190.748C20.8919 191.093 20.6205 191.5 20.4222 191.969C20.2343 192.439 20.1403 192.956 20.1403 193.52C20.1403 194.083 20.2343 194.6 20.4222 195.07C20.6205 195.54 20.8919 195.947 21.2364 196.291C21.5913 196.636 22.0037 196.902 22.4734 197.09C22.9536 197.278 23.4808 197.372 24.0549 197.372C24.629 197.372 25.1614 197.267 25.6521 197.058C26.1427 196.839 26.5863 196.51 26.983 196.072L28.2983 197.325C27.7868 197.92 27.1605 198.374 26.4193 198.687C25.6782 199 24.8535 199.157 23.9453 199.157ZM33.1846 199.11C32.3286 199.11 31.5665 198.927 30.8985 198.562C30.2304 198.186 29.7032 197.674 29.317 197.027C28.9307 196.38 28.7376 195.644 28.7376 194.819C28.7376 193.984 28.9307 193.248 29.317 192.611C29.7032 191.964 30.2304 191.458 30.8985 191.093C31.5665 190.727 32.3286 190.545 33.1846 190.545C34.051 190.545 34.8182 190.727 35.4863 191.093C36.1649 191.458 36.692 191.959 37.0678 192.596C37.4541 193.233 37.6472 193.974 37.6472 194.819C37.6472 195.644 37.4541 196.38 37.0678 197.027C36.692 197.674 36.1649 198.186 35.4863 198.562C34.8182 198.927 34.051 199.11 33.1846 199.11ZM33.1846 197.434C33.6648 197.434 34.0927 197.33 34.4685 197.121C34.8443 196.912 35.1366 196.609 35.3454 196.213C35.5646 195.816 35.6742 195.352 35.6742 194.819C35.6742 194.276 35.5646 193.812 35.3454 193.426C35.1366 193.029 34.8443 192.726 34.4685 192.517C34.0927 192.309 33.67 192.204 33.2002 192.204C32.72 192.204 32.292 192.309 31.9162 192.517C31.5509 192.726 31.2586 193.029 31.0394 193.426C30.8202 193.812 30.7106 194.276 30.7106 194.819C30.7106 195.352 30.8202 195.816 31.0394 196.213C31.2586 196.609 31.5509 196.912 31.9162 197.121C32.292 197.33 32.7148 197.434 33.1846 197.434ZM43.9501 190.545C44.6182 190.545 45.2132 190.675 45.7352 190.936C46.2676 191.197 46.6851 191.599 46.9879 192.142C47.2906 192.674 47.4419 193.363 47.4419 194.209V199H45.4847V194.459C45.4847 193.718 45.3072 193.165 44.9523 192.799C44.6078 192.434 44.1224 192.251 43.4961 192.251C43.0367 192.251 42.6296 192.345 42.2747 192.533C41.9198 192.721 41.6432 193.003 41.4448 193.379C41.2569 193.744 41.163 194.209 41.163 194.772V199H39.2057V190.638H41.069V192.893L40.7402 192.204C41.0325 191.672 41.4553 191.265 42.0085 190.983C42.5722 190.691 43.2194 190.545 43.9501 190.545ZM58.7776 199V197.309L58.668 196.949V193.989C58.668 193.415 58.4957 192.972 58.1513 192.658C57.8068 192.335 57.2848 192.173 56.5854 192.173C56.1157 192.173 55.6511 192.246 55.1918 192.392C54.743 192.538 54.3619 192.742 54.0488 193.003L53.2815 191.578C53.7304 191.233 54.2628 190.978 54.8787 190.811C55.505 190.633 56.1522 190.545 56.8203 190.545C58.0312 190.545 58.9655 190.837 59.6231 191.421C60.2912 191.996 60.6253 192.888 60.6253 194.099V199H58.7776ZM56.147 199.11C55.5207 199.11 54.9726 199.005 54.5029 198.796C54.0331 198.577 53.6678 198.28 53.4068 197.904C53.1563 197.518 53.031 197.084 53.031 196.604C53.031 196.135 53.1406 195.712 53.3598 195.336C53.5895 194.96 53.96 194.663 54.4716 194.443C54.9831 194.224 55.6616 194.115 56.5071 194.115H58.9342V195.414H56.6481C55.98 195.414 55.5311 195.524 55.3014 195.743C55.0718 195.952 54.957 196.213 54.957 196.526C54.957 196.881 55.0979 197.163 55.3797 197.372C55.6616 197.58 56.053 197.685 56.5541 197.685C57.0343 197.685 57.4623 197.575 57.8381 197.356C58.2243 197.137 58.501 196.813 58.668 196.385L58.9968 197.559C58.8089 198.05 58.4696 198.431 57.979 198.702C57.4988 198.974 56.8882 199.11 56.147 199.11ZM62.824 199V187.382H64.7813V199H62.824ZM70.5973 199.11C69.6787 199.11 68.9688 198.875 68.4678 198.405C67.9667 197.925 67.7162 197.22 67.7162 196.291V188.791H69.6735V196.244C69.6735 196.641 69.7726 196.949 69.971 197.168C70.1797 197.387 70.4668 197.497 70.8322 197.497C71.2706 197.497 71.636 197.382 71.9283 197.152L72.4763 198.546C72.2466 198.734 71.9648 198.875 71.6307 198.969C71.2967 199.063 70.9522 199.11 70.5973 199.11ZM66.3382 192.267V190.701H71.9126V192.267H66.3382ZM73.7732 199V190.638H75.6366V192.94L75.4174 192.267C75.6679 191.703 76.0594 191.275 76.5917 190.983C77.1346 190.691 77.8079 190.545 78.6117 190.545V192.408C78.5281 192.387 78.4499 192.377 78.3768 192.377C78.3037 192.366 78.2306 192.361 78.1576 192.361C77.4164 192.361 76.8266 192.58 76.3882 193.019C75.9497 193.447 75.7305 194.089 75.7305 194.944V199H73.7732ZM79.9589 199V190.638H81.9162V199H79.9589ZM80.9454 189.261C80.58 189.261 80.2773 189.146 80.0372 188.916C79.8075 188.686 79.6927 188.41 79.6927 188.086C79.6927 187.752 79.8075 187.475 80.0372 187.256C80.2773 187.027 80.58 186.912 80.9454 186.912C81.3107 186.912 81.6082 187.021 81.8379 187.241C82.078 187.449 82.198 187.716 82.198 188.039C82.198 188.384 82.0832 188.676 81.8535 188.916C81.6239 189.146 81.3212 189.261 80.9454 189.261ZM92.1165 199.11C91.1874 199.11 90.3732 198.927 89.6738 198.562C88.9848 198.186 88.4472 197.674 88.061 197.027C87.6852 196.38 87.4973 195.644 87.4973 194.819C87.4973 193.984 87.6799 193.248 88.0453 192.611C88.4211 191.964 88.9326 191.458 89.5798 191.093C90.2375 190.727 90.9839 190.545 91.819 190.545C92.6332 190.545 93.3587 190.722 93.9955 191.077C94.6322 191.432 95.1333 191.933 95.4987 192.58C95.864 193.227 96.0467 193.989 96.0467 194.866C96.0467 194.95 96.0415 195.044 96.031 195.148C96.031 195.252 96.0258 195.352 96.0154 195.446H89.0474V194.146H94.9819L94.2147 194.553C94.2251 194.073 94.126 193.65 93.9172 193.285C93.7084 192.919 93.4213 192.632 93.056 192.424C92.701 192.215 92.2887 192.11 91.819 192.11C91.3388 192.11 90.916 192.215 90.5506 192.424C90.1957 192.632 89.9139 192.925 89.7051 193.3C89.5068 193.666 89.4076 194.099 89.4076 194.6V194.913C89.4076 195.414 89.5224 195.858 89.7521 196.244C89.9817 196.63 90.3053 196.928 90.7229 197.137C91.1404 197.345 91.6206 197.45 92.1634 197.45C92.6332 197.45 93.056 197.377 93.4318 197.231C93.8076 197.084 94.1416 196.855 94.4339 196.542L95.483 197.747C95.1072 198.186 94.6322 198.525 94.0581 198.765C93.4944 198.995 92.8472 199.11 92.1165 199.11ZM104.775 199.11C103.857 199.11 103.147 198.875 102.646 198.405C102.145 197.925 101.894 197.22 101.894 196.291V188.791H103.851V196.244C103.851 196.641 103.951 196.949 104.149 197.168C104.358 197.387 104.645 197.497 105.01 197.497C105.449 197.497 105.814 197.382 106.106 197.152L106.654 198.546C106.425 198.734 106.143 198.875 105.809 198.969C105.475 199.063 105.13 199.11 104.775 199.11ZM100.516 192.267V190.701H106.091V192.267H100.516ZM107.951 199V190.638H109.815V192.94L109.595 192.267C109.846 191.703 110.237 191.275 110.77 190.983C111.313 190.691 111.986 190.545 112.79 190.545V192.408C112.706 192.387 112.628 192.377 112.555 192.377C112.482 192.366 112.409 192.361 112.336 192.361C111.594 192.361 111.005 192.58 110.566 193.019C110.128 193.447 109.908 194.089 109.908 194.944V199H107.951ZM114.137 199V190.638H116.094V199H114.137ZM115.123 189.261C114.758 189.261 114.455 189.146 114.215 188.916C113.985 188.686 113.871 188.41 113.871 188.086C113.871 187.752 113.985 187.475 114.215 187.256C114.455 187.027 114.758 186.912 115.123 186.912C115.489 186.912 115.786 187.021 116.016 187.241C116.256 187.449 116.376 187.716 116.376 188.039C116.376 188.384 116.261 188.676 116.031 188.916C115.802 189.146 115.499 189.261 115.123 189.261ZM120.934 199.11C120.234 199.11 119.561 199.021 118.914 198.843C118.277 198.656 117.771 198.431 117.395 198.17L118.146 196.683C118.522 196.923 118.971 197.121 119.493 197.278C120.015 197.434 120.537 197.512 121.059 197.512C121.675 197.512 122.118 197.429 122.39 197.262C122.672 197.095 122.813 196.87 122.813 196.589C122.813 196.359 122.719 196.187 122.531 196.072C122.343 195.947 122.097 195.853 121.795 195.79C121.492 195.727 121.153 195.67 120.777 195.618C120.412 195.566 120.041 195.498 119.665 195.414C119.3 195.32 118.966 195.19 118.663 195.023C118.36 194.845 118.115 194.61 117.927 194.318C117.739 194.026 117.645 193.64 117.645 193.159C117.645 192.627 117.797 192.168 118.099 191.782C118.402 191.385 118.825 191.082 119.368 190.873C119.921 190.654 120.573 190.545 121.325 190.545C121.889 190.545 122.458 190.607 123.032 190.732C123.606 190.858 124.081 191.035 124.457 191.265L123.705 192.752C123.308 192.512 122.906 192.35 122.499 192.267C122.103 192.173 121.706 192.126 121.309 192.126C120.714 192.126 120.271 192.215 119.978 192.392C119.697 192.57 119.556 192.794 119.556 193.065C119.556 193.316 119.65 193.504 119.837 193.629C120.025 193.754 120.271 193.854 120.573 193.927C120.876 194 121.21 194.062 121.576 194.115C121.951 194.156 122.322 194.224 122.687 194.318C123.053 194.412 123.387 194.543 123.689 194.71C124.003 194.866 124.253 195.091 124.441 195.383C124.629 195.675 124.723 196.056 124.723 196.526C124.723 197.048 124.566 197.502 124.253 197.888C123.95 198.274 123.517 198.577 122.953 198.796C122.39 199.005 121.716 199.11 120.934 199.11ZM129.243 199.11C128.324 199.11 127.614 198.875 127.113 198.405C126.612 197.925 126.361 197.22 126.361 196.291V188.791H128.319V196.244C128.319 196.641 128.418 196.949 128.616 197.168C128.825 197.387 129.112 197.497 129.477 197.497C129.916 197.497 130.281 197.382 130.574 197.152L131.122 198.546C130.892 198.734 130.61 198.875 130.276 198.969C129.942 199.063 129.598 199.11 129.243 199.11ZM124.984 192.267V190.701H130.558V192.267H124.984ZM136.074 199.11C135.144 199.11 134.33 198.927 133.631 198.562C132.942 198.186 132.404 197.674 132.018 197.027C131.642 196.38 131.454 195.644 131.454 194.819C131.454 193.984 131.637 193.248 132.002 192.611C132.378 191.964 132.89 191.458 133.537 191.093C134.195 190.727 134.941 190.545 135.776 190.545C136.59 190.545 137.316 190.722 137.953 191.077C138.589 191.432 139.09 191.933 139.456 192.58C139.821 193.227 140.004 193.989 140.004 194.866C140.004 194.95 139.999 195.044 139.988 195.148C139.988 195.252 139.983 195.352 139.972 195.446H133.004V194.146H138.939L138.172 194.553C138.182 194.073 138.083 193.65 137.874 193.285C137.665 192.919 137.378 192.632 137.013 192.424C136.658 192.215 136.246 192.11 135.776 192.11C135.296 192.11 134.873 192.215 134.508 192.424C134.153 192.632 133.871 192.925 133.662 193.3C133.464 193.666 133.365 194.099 133.365 194.6V194.913C133.365 195.414 133.479 195.858 133.709 196.244C133.939 196.63 134.262 196.928 134.68 197.137C135.097 197.345 135.578 197.45 136.12 197.45C136.59 197.45 137.013 197.377 137.389 197.231C137.765 197.084 138.099 196.855 138.391 196.542L139.44 197.747C139.064 198.186 138.589 198.525 138.015 198.765C137.451 198.995 136.804 199.11 136.074 199.11Z" fill="black" />
</svg>
